G04 ================== begin FILE IDENTIFICATION RECORD ==================*
G04 Layout Name:  C:/tempPCBDir/da63df5eb16a2966413e2d3adebf328a/HQBrdTmp.brd*
G04 Film Name:    BOTTOM*
G04 File Format:  Gerber RS274X*
G04 File Origin:  Cadence Allegro -unreleased*
G04 Origin Date:  Thu Nov 30 17:35:43 2023*
G04 *
G04 Layer:  ETCH/BOTTOM*
G04 Layer:  PIN/BOTTOM*
G04 Layer:  VIA CLASS/BOTTOM*
G04 *
G04 Offset:    (0.00 0.00)*
G04 Mirror:    No*
G04 Mode:      Positive*
G04 Rotation:  0*
G04 FullContactRelief:  No*
G04 UndefLineWidth:     0.11*
G04 ================== end FILE IDENTIFICATION RECORD ====================*
%FSLAX25Y25*MOIN*%
%IR0*IPPOS*OFA0.00000B0.00000*MIA0B0*SFA1.00000B1.00000*%
%ADD16C,.0622*%
%ADD11C,.02362*%
%ADD17R,.0622X.0622*%
%ADD13C,.02559*%
%ADD15C,.06496*%
%ADD10C,.09449*%
%ADD14R,.06496X.06496*%
%ADD12O,.07874X.03937*%
%ADD18C,.01*%
%ADD19C,.02*%
%ADD20C,.012*%
%ADD21C,.006*%
%ADD23C,.075*%
%ADD24C,.04162*%
%ADD26C,.07224*%
%ADD22C,.089*%
%ADD25C,.08624*%
G75*
%LPD*%
G75*
G36*
G01X84200Y84200D02*
Y193800D01*
X312200D01*
Y84200D01*
X84200D01*
G37*
%LPC*%
G75*
G36*
G01X172598Y167552D02*
G03X172579Y167596I-63J-1D01*
G02X172556Y167620I1073J1051D01*
G01X172520Y167656D01*
G02X172496Y167679I1027J1096D01*
G03X172452Y167698I-45J-44D01*
G01X162643D01*
G02X159459Y169017I0J4503D01*
G01X153000Y175476D01*
G02X151100Y175050I-1900J4024D01*
G02X155550Y179500I0J4450D01*
G01Y179499D01*
G02X155180Y177723I-4450J1D01*
G01X155125Y177598D01*
X161583Y171141D01*
G03X162643Y170702I1060J1060D01*
G01X166809D01*
G03X167092Y171384I0J400D01*
G01X163000Y175476D01*
G02X161100Y175050I-1900J4024D01*
G02X165550Y179500I0J4450D01*
G01Y179499D01*
G02X165180Y177723I-4450J1D01*
G01X165125Y177598D01*
X170283Y172441D01*
G03X171343Y172002I1060J1060D01*
G01X173498D01*
G02X177302Y168198I0J-3804D01*
G01Y151725D01*
G03X177741Y150665I1499J0D01*
G01X181603Y146803D01*
G02X182693Y144405I-2651J-2652D01*
G02X183183Y143100I-1493J-1305D01*
G02X179217I-1983J0D01*
G02X179669Y144360I1982J0D01*
G03X179480Y144679I-716J-209D01*
G01X179479D01*
X179406Y144753D01*
G03X178733Y144559I-283J-283D01*
G02X176800Y143017I-1933J441D01*
G02X174829Y144786I0J1983D01*
G01X174821Y144856D01*
X173917Y145759D01*
G02X172598Y148943I3184J3184D01*
G01Y167552D01*
G37*
G36*
G01X291250Y163252D02*
Y169748D01*
G02X291752Y170250I502J0D01*
G01X298248D01*
G02X298750Y169748I0J-502D01*
G01Y163252D01*
G02X298248Y162750I-502J0D01*
G01X291752D01*
G02X291250Y163252I0J502D01*
G37*
G36*
G01X268050D02*
Y169748D01*
G02X269252Y170950I1202J0D01*
G01X275748D01*
G02X276950Y169748I0J-1202D01*
G01Y163252D01*
G02X275748Y162050I-1202J0D01*
G01X269252D01*
G02X268050Y163252I0J1202D01*
G37*
G36*
G01X114050Y176252D02*
Y182748D01*
G02X115252Y183950I1202J0D01*
G01X121748D01*
G02X122950Y182748I0J-1202D01*
G01Y176252D01*
G02X121748Y175050I-1202J0D01*
G01X115252D01*
G02X114050Y176252I0J1202D01*
G37*
G36*
G01X104739Y158533D02*
X108677D01*
G02Y153593I0J-2470D01*
G01X104739D01*
G02Y158533I0J2470D01*
G37*
G36*
G01X88282D02*
X92220D01*
G02Y153593I-1J-2470D01*
G01X88282D01*
G02Y158533I1J2470D01*
G37*
G36*
G01X291250Y108252D02*
Y114748D01*
G02X291752Y115250I502J0D01*
G01X298248D01*
G02X298750Y114748I0J-502D01*
G01Y108252D01*
G02X298248Y107750I-502J0D01*
G01X291752D01*
G02X291250Y108252I0J502D01*
G37*
G36*
G01X104739Y124517D02*
X108677D01*
G02Y119577I0J-2470D01*
G01X104739D01*
G02Y124517I0J2470D01*
G37*
G36*
G01X88282D02*
X92220D01*
G02Y119577I-1J-2470D01*
G01X88282D01*
G02Y124517I1J2470D01*
G37*
G36*
G01X233350Y95752D02*
Y102248D01*
G02X234552Y103450I1202J0D01*
G01X241048D01*
G02X242250Y102248I0J-1202D01*
G01Y95752D01*
G02X241048Y94550I-1202J0D01*
G01X234552D01*
G02X233350Y95752I0J1202D01*
G37*
G36*
G01X255298Y124095D02*
Y130871D01*
G02X254817Y132166I1503J1295D01*
G02X258783I1983J0D01*
G02X258302Y130871I-1984J0D01*
G01Y124095D01*
G02X258783Y122800I-1503J-1295D01*
G02X254817I-1983J0D01*
G02X255298Y124095I1984J0D01*
G37*
G36*
G01X270364Y124739D02*
G02X270845Y123444I-1503J-1295D01*
G02X266879I-1983J0D01*
G02X267360Y124739I1984J0D01*
G01Y136080D01*
G02X267361Y136131I1502J-4D01*
G01X267362Y136135D01*
Y136842D01*
G02X266880Y138137I1501J1296D01*
G02X270846I1983J0D01*
G02X270364Y136842I-1983J1D01*
G01Y124739D01*
G37*
G36*
G01X276917Y141500D02*
G02X280883I1983J0D01*
G02X280402Y140205I-1984J0D01*
G01Y139494D01*
G02X280368Y139178I-1502J2D01*
G01X280364Y139158D01*
Y124739D01*
G02X280845Y123444I-1503J-1295D01*
G02X276879I-1983J0D01*
G02X277360Y124739I1984J0D01*
G01Y139456D01*
G02X277394Y139772I1502J-2D01*
G01X277398Y139792D01*
Y140203D01*
X277354Y140258D01*
G02X276917Y141500I1546J1242D01*
G37*
G36*
G01X260098Y124795D02*
Y141705D01*
G02X259617Y143000I1503J1295D01*
G02X263583I1983J0D01*
G02X263102Y141705I-1984J0D01*
G01Y124795D01*
G02X263583Y123500I-1503J-1295D01*
G02X259617I-1983J0D01*
G02X260098Y124795I1984J0D01*
G37*
G36*
G01X250198Y125089D02*
Y144338D01*
G02X249717Y145633I1503J1295D01*
G02X253683I1983J0D01*
G02X253202Y144338I-1984J0D01*
G01Y125218D01*
G02X253208Y125082I-1495J-134D01*
G01Y124397D01*
X253253Y124342D01*
G02X253690Y123100I-1546J-1242D01*
G02X249724I-1983J0D01*
G02X250161Y124342I1983J0D01*
G01X250206Y124397D01*
Y124944D01*
X250205Y124953D01*
G02X250198Y125089I1495J145D01*
G37*
G36*
G01X272998Y125495D02*
Y147705D01*
G02X272517Y149000I1503J1295D01*
G02X276483I1983J0D01*
G02X276002Y147705I-1984J0D01*
G01Y125495D01*
G02X276483Y124200I-1503J-1295D01*
G02X272517I-1983J0D01*
G02X272998Y125495I1984J0D01*
G37*
G36*
G01X100800Y173102D02*
X114105D01*
G02X115400Y173583I1295J-1503D01*
G02Y169617I0J-1983D01*
G02X114105Y170098I0J1984D01*
G01X100800D01*
G03X99302Y168600I0J-1498D01*
G01Y123343D01*
G03X99741Y122283I1499J0D01*
G01X106083Y115941D01*
G03X107143Y115502I1060J1060D01*
G01X148105D01*
G02X149400Y115983I1295J-1503D01*
G02Y112017I0J-1983D01*
G02X148105Y112498I0J1984D01*
G01X107143D01*
G02X103959Y113817I0J4503D01*
G01X97617Y120159D01*
G02X96298Y123343I3184J3184D01*
G01Y168600D01*
G02X100800Y173102I4502J0D01*
G37*
G36*
G01X287698Y162898D02*
Y171705D01*
G02X287217Y173000I1503J1295D01*
G02X291183I1983J0D01*
G02X290702Y171705I-1984J0D01*
G01Y162898D01*
G02X289383Y159714I-4503J0D01*
G01X283579Y153911D01*
X283571Y153841D01*
G02X281600Y152072I-1971J214D01*
G02X279617Y154055I0J1983D01*
G02X281386Y156026I1983J0D01*
G01X281456Y156034D01*
X287259Y161838D01*
G03X287698Y162898I-1060J1060D01*
G37*
G36*
G01X235691Y171302D02*
X235757D01*
G03X236817Y171741I0J1499D01*
G01X242675Y177598D01*
X242620Y177723D01*
G02X242250Y179499I4080J1777D01*
G01Y179500D01*
G02X246700Y175050I4450J0D01*
G02X244800Y175476I0J4450D01*
G01X238941Y169617D01*
G02X235757Y168298I-3184J3184D01*
G01X222643D01*
G03X221583Y167859I0J-1499D01*
G01X218341Y164617D01*
G03X217902Y163557I1060J-1060D01*
G01Y147500D01*
G02X213700Y143298I-4202J0D01*
G01X211195D01*
G02X209900Y142817I-1295J1503D01*
G02X207917Y144800I0J1983D01*
G02X208936Y146533I1983J0D01*
G03X208932Y147235I-194J350D01*
G02X207890Y148980I940J1745D01*
G02X209873Y150963I1983J0D01*
G02X211168Y150482I0J-1984D01*
G01X213280D01*
G03X213598Y150800I0J318D01*
G01Y164157D01*
G02X214917Y167341I4503J0D01*
G01X218759Y171183D01*
G02X221943Y172502I3184J-3184D01*
G01X231057D01*
G03X232117Y172941I0J1499D01*
G01X234332Y175156D01*
G03X234268Y175773I-283J282D01*
G02X232250Y179500I2433J3727D01*
G02X241150I4450J0D01*
G02X237976Y175237I-4450J0D01*
G02X236883Y173459I-4278J1405D01*
G01X235408Y171984D01*
G03X235691Y171302I283J-282D01*
G37*
G36*
G01X261417Y176341D02*
X262675Y177598D01*
X262620Y177723D01*
G02X262250Y179499I4080J1777D01*
G01Y179500D01*
G02X266700Y175050I4450J0D01*
G01X266699D01*
G02X264923Y175420I1J4450D01*
G01X264798Y175475D01*
X263541Y174217D01*
G02X260357Y172898I-3184J3184D01*
G01X255243D01*
G03X254183Y172459I0J-1499D01*
G01X245141Y163417D01*
G02X241957Y162098I-3184J3184D01*
G01X227743D01*
G03X226683Y161659I0J-1499D01*
G01X224341Y159317D01*
G03X223902Y158257I1060J-1060D01*
G01Y145443D01*
G02X222583Y142259I-4503J0D01*
G01X216743Y136419D01*
G02X213559Y135100I-3184J3184D01*
G01X211521D01*
G02X210226Y134619I-1295J1503D01*
G02X208243Y136602I0J1983D01*
G02X208817Y137997I1982J0D01*
G03X208779Y138594I-284J282D01*
G02X208016Y140157I1219J1563D01*
G02X209999Y142140I1983J0D01*
G02X211294Y141658I-1J-1983D01*
G01X214936D01*
G03X215996Y142098I-1J1499D01*
G01X218959Y145061D01*
G03X219398Y146121I-1060J1060D01*
G01Y158957D01*
G02X220717Y162141I4503J0D01*
G01X224159Y165583D01*
G02X227343Y166902I3184J-3184D01*
G01X241357D01*
G03X242417Y167341I0J1499D01*
G01X252675Y177598D01*
X252620Y177723D01*
G02X252250Y179499I4080J1777D01*
G01Y179500D01*
G02X261150I4450J0D01*
G02X260045Y176565I-4450J0D01*
G03X260346Y175902I301J-263D01*
G01X260357D01*
G03X261417Y176341I0J1499D01*
G37*
G36*
G01X231190Y151070D02*
X231173Y151108D01*
G02X231008Y151900I1818J792D01*
G02X234974I1983J0D01*
G02X234809Y151108I-1983J0D01*
G01X234792Y151070D01*
Y122697D01*
G03X235399Y122355I400J0D01*
G02X237724Y123002I2325J-3856D01*
G01X237796D01*
X237851Y123046D01*
G02X239093Y123483I1242J-1546D01*
G02X241076Y121500I0J-1983D01*
G02X240936Y120768I-1984J0D01*
G03X241308Y120220I372J-148D01*
G01X294120D01*
G03X294394Y120912I0J400D01*
G02X293034Y124055I2952J3143D01*
G02X301658I4312J0D01*
G02X299901Y120582I-4311J0D01*
G01X299820Y120522D01*
Y120220D01*
X300398D01*
X303034Y122857D01*
Y127165D01*
G02X304236Y128366I1202J-1D01*
G01X310458D01*
G02X311658Y127165I-1J-1201D01*
G01Y120945D01*
G02X310456Y119744I-1202J1D01*
G01X306148D01*
X302848Y116443D01*
G02X301291Y115798I-1557J1557D01*
G02X301015Y115816I5J2202D01*
G01X301002Y115818D01*
X285358D01*
G03X285123Y115094I1J-400D01*
G02X286950Y111500I-2623J-3595D01*
G02X278050I-4450J0D01*
G02X279877Y115094I4450J-1D01*
G03X279642Y115818I-236J324D01*
G01X277202D01*
G03X276839Y115250I1J-400D01*
G02X276950Y114748I-1090J-504D01*
G01Y108252D01*
G02X275748Y107050I-1202J0D01*
G01X269252D01*
G02X268050Y108252I0J1202D01*
G01Y114748D01*
G02X268161Y115250I1201J-2D01*
G03X267798Y115818I-364J168D01*
G01X250102D01*
G03X249739Y115250I1J-400D01*
G02X249850Y114748I-1090J-504D01*
G01Y108252D01*
G02X248648Y107050I-1202J0D01*
G01X242152D01*
G02X240950Y108252I0J1202D01*
G01Y114748D01*
G02X241061Y115250I1201J-2D01*
G03X240698Y115818I-364J168D01*
G01X217538D01*
G02X215338Y118019I1J2201D01*
G01Y122360D01*
G03X209000Y128698I-6338J0D01*
G01X206284D01*
G02X200500Y124298I-5784J1602D01*
G01X188802D01*
Y121386D01*
G02X186516Y115868I-7803J0D01*
G01X181532Y110884D01*
G02X176014Y108598I-5518J5517D01*
G01X158646D01*
G03X158345Y107935I0J-400D01*
G02X159450Y105000I-3345J-2935D01*
G02X150550I-4450J0D01*
G02X151284Y107448I4449J0D01*
G03X150746Y108013I-334J221D01*
G03X149916Y107368I2142J-3613D01*
G01X149450Y106902D01*
Y101752D01*
G02X148248Y100550I-1202J0D01*
G01X141752D01*
G02X140550Y101752I0J1202D01*
G01Y108248D01*
G02X141752Y109450I1202J0D01*
G01X146902D01*
X147368Y109916D01*
G02X152886Y112202I5518J-5517D01*
G01X176014D01*
G03X178984Y113432I0J4201D01*
G01X183968Y118416D01*
G03X185198Y121386I-2971J2970D01*
G01Y125235D01*
G02X184798Y126500I1802J1265D01*
G02X185049Y127520I2202J-1D01*
G03X184695Y128106I-354J186D01*
G01X175295D01*
G02X174000Y127624I-1296J1501D01*
G02X172017Y129607I0J1983D01*
G02X172032Y129850I1983J0D01*
G03X171635Y130298I-397J48D01*
G01X138600D01*
G03X138302Y130000I0J-298D01*
G01Y122618D01*
G02X138583Y121601I-1702J-1018D01*
G01Y121600D01*
G02X138497Y121024I-1983J2D01*
G03X138880Y120508I383J-116D01*
G01X160299D01*
G02X161594Y120989I1295J-1503D01*
G02Y117023I0J-1983D01*
G02X160299Y117504I0J1984D01*
G01X124037D01*
G02X120853Y118823I0J4503D01*
G01X116456Y123221D01*
X116386Y123229D01*
G02X114617Y125200I214J1971D01*
G02X116600Y127183I1983J0D01*
G02X118571Y125414I0J-1983D01*
G01X118579Y125344D01*
X122977Y120947D01*
G03X124037Y120508I1060J1060D01*
G01X134320D01*
G03X134703Y121024I0J400D01*
G02X134617Y121600I1897J578D01*
G01Y121601D01*
G02X134898Y122618I1983J-1D01*
G01Y130000D01*
G02X135860Y132488I3702J-1D01*
G03X135637Y133151I-296J269D01*
G02X134017Y135100I362J1949D01*
G02X134743Y136634I1984J0D01*
G03X134760Y137238I-253J309D01*
G02X134117Y138700I1341J1462D01*
G02X136100Y140683I1983J0D01*
G02X137395Y140202I0J-1984D01*
G01X183257D01*
G03X184317Y140641I0J1499D01*
G01X194440Y150764D01*
G02X199260I2410J-2411D01*
G01X199744Y150279D01*
X199814Y150271D01*
G02X201583Y148300I-214J-1971D01*
G02X200897Y146800I-1983J0D01*
G03X200924Y146172I261J-303D01*
G02X201374Y145723I-1157J-1610D01*
G03X202098Y145957I324J234D01*
G01Y153186D01*
G03X199834Y158652I-7730J0D01*
G01X197288Y161198D01*
X184002D01*
Y159800D01*
G02X179598I-2202J0D01*
G01Y162743D01*
X179590Y162771D01*
G02X179498Y163400I2110J630D01*
G01Y170854D01*
G02X180749Y174458I5818J-1D01*
G03X180539Y175092I-314J248D01*
G02X179650Y176252I312J1160D01*
G01Y180836D01*
X177472Y183014D01*
G03X171957Y185298I-5515J-5516D01*
G01X153243D01*
G03X147728Y183014I0J-7800D01*
G01X145550Y180836D01*
Y176252D01*
G02X144348Y175050I-1202J0D01*
G01X137852D01*
G02X136650Y176252I0J1202D01*
G01Y182748D01*
G02X137852Y183950I1202J0D01*
G01X142436D01*
X144614Y186128D01*
G02X153243Y189702I8629J-8630D01*
G01X171957D01*
G02X180586Y186128I0J-12204D01*
G01X182764Y183950D01*
X185436D01*
X187914Y186428D01*
G02X196543Y190002I8629J-8630D01*
G01X214257D01*
G02X222886Y186428I0J-12204D01*
G01X225364Y183950D01*
X229948D01*
G02X231150Y182748I0J-1202D01*
G01Y176252D01*
G02X229948Y175050I-1202J0D01*
G01X223452D01*
G02X222250Y176252I0J1202D01*
G01Y180836D01*
X219772Y183314D01*
G03X214257Y185598I-5515J-5516D01*
G01X196543D01*
G03X191028Y183314I0J-7800D01*
G01X188550Y180836D01*
Y176252D01*
G02X187348Y175050I-1202J0D01*
G01X186179D01*
X186142Y174897D01*
G02X184598Y172136I-5659J1352D01*
G01X184316Y171854D01*
G03X183902Y170854I1001J-1000D01*
G01Y165602D01*
X198200D01*
G02X199757Y164957I0J-2202D01*
G01X202948Y161766D01*
G02X206502Y153186I-8580J-8580D01*
G01Y133102D01*
X209000D01*
G02X219742Y122360I0J-10742D01*
G01Y120220D01*
X231190D01*
Y124791D01*
G03X230691Y125179I-400J0D01*
G02X230414Y125129I-490J1921D01*
G01X230344Y125121D01*
X230169Y124945D01*
G02X226985Y123626I-3184J3184D01*
G01X223795D01*
G02X222500Y123145I-1295J1503D01*
G02Y127111I0J1983D01*
G02X223795Y126630I0J-1984D01*
G01X226986D01*
G03X228226Y127287I0J1499D01*
G02X230200Y129083I1974J-187D01*
G02X230691Y129021I-1J-1983D01*
G03X231190Y129409I99J388D01*
G01Y151070D01*
G37*
G54D23*
X287800Y99000D03*
X255400Y111500D03*
X305000D03*
X128500Y179500D03*
X171100D03*
X204100D03*
X276700D03*
X305000Y166500D03*
G54D24*
X104739Y127795D03*
Y150433D03*
G54D26*
X307346Y134055D03*
G54D22*
X257800Y99000D03*
X247800D03*
X277800D03*
X267800D03*
X194100Y179500D03*
X214100D03*
X282500Y166500D03*
G54D25*
X297346Y134055D03*
Y144055D03*
Y154055D03*
X307346Y144055D03*
Y154055D03*
%LPD*%
G75*
G36*
G01X186414Y135798D02*
G03X187726Y135994I-2J4503D01*
G02X188125Y135328I116J-383D01*
G01X187665Y134868D01*
G02X185331Y133902I-2333J2335D01*
G01X173084D01*
G03X172284Y133702I0J-1702D01*
G01X139635D01*
G02X139386Y134414I0J400D01*
G03X139703Y134697I-2334J2934D01*
G01X140365Y135359D01*
G02X141425Y135798I1060J-1060D01*
G01X186414D01*
G37*
G54D10*
X95000Y95000D03*
Y183000D03*
X301000Y95000D03*
Y183000D03*
G54D20*
G01X145000Y105000D02*
X148642Y108642D01*
G02X152886Y110400I4244J-4244D01*
G01X176014D01*
G03X180258Y112158I0J6002D01*
G01X185242Y117142D01*
G03X187000Y121386I-4244J4244D01*
G01Y126500D01*
G01X232991Y151900D02*
Y120310D01*
X233000Y120301D01*
Y118019D01*
G54D11*
X100634Y86819D03*
X86900Y86900D03*
X86819Y96063D03*
X99567Y115433D03*
X86819Y106063D03*
Y116063D03*
X101000Y125200D03*
X86819Y126063D03*
Y136063D03*
X101000Y152000D03*
X86819Y146063D03*
X101300Y168300D03*
X86819Y166063D03*
Y176063D03*
Y191291D03*
X96819D03*
X120634Y86819D03*
X110634D03*
X115400Y120700D03*
X112900Y123900D03*
X116600Y125200D03*
X112600Y154042D03*
X101700Y161400D03*
X111800Y164900D03*
X108000Y168300D03*
X115400Y171600D03*
X106819Y191291D03*
X116819D03*
X124000Y94100D03*
X140634Y86819D03*
X130634D03*
X127700Y109600D03*
X135200Y109400D03*
X140200Y116400D03*
X121900Y125700D03*
X126300Y122500D03*
X132300Y122600D03*
X122058Y139055D03*
Y135100D03*
X136000D03*
X136100Y138700D03*
X136600Y121600D03*
X130545Y149358D03*
X138000Y149405D03*
X135900Y143200D03*
X125200Y157400D03*
X126300Y174100D03*
X138500Y169400D03*
X126819Y191291D03*
X136819D03*
X149200Y93500D03*
X160634Y86819D03*
X150634D03*
X141200Y111000D03*
X149400Y114000D03*
X141200Y134800D03*
X146000Y150193D03*
X152700Y147000D03*
X146800Y143500D03*
X147100Y169500D03*
X157700Y165500D03*
X146819Y191291D03*
X156819D03*
X163200Y98100D03*
X170634Y86819D03*
X170805Y117748D03*
X177200Y116500D03*
X163200Y107500D03*
X175800Y104100D03*
X161594Y119006D03*
X161952Y129250D03*
X177100Y126500D03*
Y121500D03*
X170700Y127300D03*
X174000Y129607D03*
X161400Y142800D03*
X174500Y141700D03*
X177900Y141600D03*
X169000Y149996D03*
X176800Y145000D03*
X163500Y172300D03*
X177000Y174500D03*
X166819Y191291D03*
X176819D03*
X182900Y96800D03*
X194900Y97100D03*
X190000Y93500D03*
X190634Y86819D03*
X180634D03*
X183000Y102000D03*
Y109600D03*
X187700Y113800D03*
X197100Y118681D03*
X191500Y117100D03*
X184600Y134700D03*
X187000Y126500D03*
X197000Y129607D03*
X181732Y153301D03*
X199095Y152926D03*
X191240Y160400D03*
X196654Y146297D03*
X199600Y148300D03*
X181800Y159800D03*
X199766Y144563D03*
X181200Y143100D03*
X181700Y163400D03*
X198200D03*
X186819Y191291D03*
X196819D03*
X202600Y95000D03*
X217600Y91100D03*
X210400Y91200D03*
X210634Y86819D03*
X200634D03*
X200300Y113060D03*
X201291Y105200D03*
Y109600D03*
X216622Y111300D03*
X207400Y113400D03*
X204000Y116500D03*
X209700Y120200D03*
X217540Y118019D03*
X217300Y130900D03*
X209999Y140157D03*
X210226Y136602D03*
X212200Y152100D03*
X209873Y148980D03*
X209900Y144800D03*
X204300Y164100D03*
X206819Y191291D03*
X216819D03*
X225100Y95000D03*
X230634Y86819D03*
X220634D03*
X221260Y112100D03*
X232991Y106391D03*
X225300Y114200D03*
X227100Y101900D03*
X233000Y118019D03*
X236700Y125400D03*
X239093Y121500D03*
X230200Y127100D03*
X222500Y125128D03*
X229000Y151200D03*
X228723Y143977D03*
X232991Y151900D03*
X226819Y191291D03*
X236819D03*
X250634Y86819D03*
X240634D03*
X246300Y105500D03*
X252500Y104900D03*
X248100Y126000D03*
X251707Y123100D03*
X256800Y122800D03*
Y132166D03*
X239700Y154500D03*
X248700D03*
X258700D03*
X255700Y144700D03*
X251700Y145633D03*
X246819Y191291D03*
X256819D03*
X270634Y86819D03*
X260634D03*
X272900Y104200D03*
X266600Y113900D03*
X265300Y125900D03*
X268862Y123444D03*
X268863Y138137D03*
X278862Y123444D03*
X261600Y123500D03*
X274500Y124200D03*
X269300Y154000D03*
X278900Y141500D03*
X261600Y143000D03*
X274500Y149000D03*
X278100Y170200D03*
X266000Y169600D03*
X266819Y191291D03*
X276819D03*
X290634Y86819D03*
X280634D03*
X283800Y104400D03*
X288800Y113900D03*
X285600Y124400D03*
X292000Y131300D03*
X290900Y122100D03*
X280500Y148700D03*
X288700D03*
X292100Y156700D03*
X281600Y154055D03*
X283300Y179500D03*
X289200Y173000D03*
X286819Y191291D03*
X296819D03*
X309500Y86900D03*
X309400Y96400D03*
X309900Y116900D03*
X309500Y107000D03*
X301500Y129100D03*
X310700Y138500D03*
X302100Y149500D03*
X309401Y171630D03*
Y161630D03*
X298800Y174100D03*
X306819Y191291D03*
X309401Y181630D03*
G54D21*
G01X149400Y114000D02*
X107143D01*
G02X105021Y114879I0J3001D01*
G01X98679Y121221D01*
G02X97800Y123343I2122J2122D01*
G01Y168600D01*
G02X100800Y171600I3000J0D01*
G01X115400D01*
G01X116600Y125200D02*
X121915Y119885D01*
G03X124037Y119006I2122J2122D01*
G01X161594D01*
G01X196654Y146297D02*
X188536Y138179D01*
G02X186414Y137300I-2122J2122D01*
G01X141425D01*
G03X139303Y136421I0J-3001D01*
G01X138641Y135759D01*
G02X137051Y135100I-1590J1589D01*
G01X136000D01*
G01X199600Y148300D02*
X198198Y149702D01*
G03X195502I-1348J-1348D01*
G01X185379Y139579D01*
G02X183257Y138700I-2122J2122D01*
G01X136100D01*
G01X151100Y179500D02*
X160521Y170079D01*
G03X162643Y169200I2122J2122D01*
G01X172452D01*
G02X173558Y168742I0J-1564D01*
G01X173642Y168658D01*
G02X174100Y167552I-1106J-1106D01*
G01Y148943D01*
G03X174979Y146821I3001J0D01*
G01X176800Y145000D01*
G01X174000Y129607D02*
X197000D01*
G01X161100Y179500D02*
X169221Y171379D01*
G03X171343Y170500I2122J2122D01*
G01X173498D01*
G02X175800Y168198I0J-2302D01*
G01Y151725D01*
G03X176679Y149603I3001J0D01*
G01X180541Y145741D01*
G02X181200Y144151I-1589J-1590D01*
G01Y143100D01*
G01X266700Y179500D02*
X262479Y175279D01*
G02X260357Y174400I-2122J2122D01*
G01X255243D01*
G03X253121Y173521I0J-3001D01*
G01X244079Y164479D01*
G02X241957Y163600I-2122J2122D01*
G01X227743D01*
G03X225621Y162721I0J-3001D01*
G01X223279Y160379D01*
G03X222400Y158257I2122J-2122D01*
G01Y145443D01*
G02X221521Y143321I-3001J0D01*
G01X215681Y137481D01*
G02X213559Y136602I-2122J2122D01*
G01X210226D01*
G01X236700Y179500D02*
Y176643D01*
G02X235821Y174521I-3001J0D01*
G01X233179Y171879D01*
G02X231057Y171000I-2122J2122D01*
G01X221943D01*
G03X219821Y170121I0J-3001D01*
G01X215979Y166279D01*
G03X215100Y164157I2122J-2122D01*
G01Y150800D01*
G02X213280Y148980I-1820J0D01*
G01X209873D01*
G01X246700Y179500D02*
X237879Y170679D01*
G02X235757Y169800I-2122J2122D01*
G01X222643D01*
G03X220521Y168921I0J-3001D01*
G01X217279Y165679D01*
G03X216400Y163557I2122J-2122D01*
G01Y147500D01*
G02X213700Y144800I-2700J0D01*
G01X209900D01*
G01X256700Y179500D02*
X243479Y166279D01*
G02X241357Y165400I-2122J2122D01*
G01X227343D01*
G03X225221Y164521I0J-3001D01*
G01X221779Y161079D01*
G03X220900Y158957I2122J-2122D01*
G01Y146121D01*
G02X220021Y143999I-3001J0D01*
G01X217058Y141036D01*
G02X214936Y140157I-2122J2122D01*
G01X209999D01*
G01X239093Y121500D02*
X237724D01*
G03X235602Y120621I0J-3001D01*
G01X233000Y118019D01*
G01X222500Y125128D02*
X226985D01*
G03X229107Y126007I0J3001D01*
G01X230200Y127100D01*
G01X251707Y123100D02*
Y125082D01*
X251700Y125089D01*
Y145633D01*
G01X256800Y122800D02*
Y132166D01*
G01X268863Y138137D02*
Y136081D01*
X268862Y136080D01*
Y123444D01*
G01X261600Y123500D02*
Y143000D01*
G01X274500Y149000D02*
Y124200D01*
G01X278900Y141500D02*
Y139494D01*
X278862Y139456D01*
Y123444D01*
G01X289200Y173000D02*
Y162898D01*
G02X288321Y160776I-3001J0D01*
G01X281600Y154055D01*
G54D12*
X90251Y122047D03*
Y156063D03*
X106708Y122047D03*
Y156063D03*
G54D13*
X104739Y127795D03*
Y150433D03*
G54D14*
X118500Y179500D03*
X141100D03*
X145000Y105000D03*
X184100Y179500D03*
X237800Y99000D03*
X226700Y179500D03*
X245400Y111500D03*
X272500D03*
Y166500D03*
X295000Y111500D03*
Y166500D03*
G54D15*
X128500Y179500D03*
X155000Y105000D03*
X161100Y179500D03*
X151100D03*
X171100D03*
X194100D03*
X214100D03*
X204100D03*
X236700D03*
X257800Y99000D03*
X247800D03*
X255400Y111500D03*
X256700Y179500D03*
X246700D03*
X277800Y99000D03*
X267800D03*
X276700Y179500D03*
X266700D03*
X287800Y99000D03*
X282500Y111500D03*
Y166500D03*
X305000Y111500D03*
Y166500D03*
G54D16*
X297346Y134055D03*
Y124055D03*
Y154055D03*
Y144055D03*
X307346Y134055D03*
Y154055D03*
Y144055D03*
G54D17*
Y124055D03*
G54D18*
G01X136600Y121600D02*
Y130000D01*
G02X138600Y132000I2000J0D01*
G01X172884D01*
X173084Y132200D01*
X185331D01*
G03X188868Y133665I0J5002D01*
G01X199766Y144563D01*
G54D19*
G01X90251Y119376D02*
Y122047D01*
G01D02*
Y124718D01*
G01X85612Y122047D02*
X90251D01*
G01D02*
X94890D01*
G01X90251Y153392D02*
Y156063D01*
G01D02*
Y158734D01*
G01X85612Y156063D02*
X90251D01*
G01D02*
X94890D01*
G01X106708Y119376D02*
Y122047D01*
G01D02*
Y124718D01*
G01X102069Y122047D02*
X106708D01*
G01D02*
X111347D01*
G01X106708Y153392D02*
Y156063D01*
G01D02*
Y158734D01*
G01X102069Y156063D02*
X106708D01*
G01D02*
X111347D01*
G01X128500Y175550D02*
Y179500D01*
G01D02*
Y183450D01*
G01X124550Y179500D02*
X128500D01*
G01D02*
X132450D01*
G01X141100D02*
X146171Y184571D01*
G02X153243Y187500I7072J-7073D01*
G01X171957D01*
G02X179029Y184571I0J-10002D01*
G01X184100Y179500D01*
G01X171100Y175550D02*
Y179500D01*
G01D02*
Y183450D01*
G01X167150Y179500D02*
X171100D01*
G01D02*
X175050D01*
G01X187000Y126500D02*
X200500D01*
G03X204300Y130300I0J3800D01*
G01Y130900D01*
G01X181800Y159800D02*
Y163300D01*
X181700Y163400D01*
G01D02*
X198200D01*
G01X204300Y130900D02*
Y153186D01*
G03X201391Y160209I-9932J0D01*
G01X198200Y163400D01*
G01X226700Y179500D02*
X221329Y184871D01*
G03X214257Y187800I-7072J-7073D01*
G01X196543D01*
G03X189471Y184871I0J-10002D01*
G01X184100Y179500D01*
G01D02*
Y176250D01*
G02X183041Y173693I-3616J0D01*
G01X182759Y173411D01*
G03X181700Y170854I2557J-2557D01*
G01Y163400D01*
G01X233000Y118019D02*
X217540D01*
G01X204300Y130900D02*
X209000D01*
G02X217540Y122360I0J-8540D01*
G01Y118019D01*
G01X204100Y175550D02*
Y179500D01*
G01D02*
Y183450D01*
G01X200150Y179500D02*
X204100D01*
G01D02*
X208050D01*
G01X307346Y124055D02*
X301291Y118000D01*
X301272Y118019D01*
X233000D01*
G01X255400Y107550D02*
Y111500D01*
G01X251450D02*
X255400D01*
G01D02*
X259350D01*
G01X276700Y175550D02*
Y179500D01*
G01D02*
Y183450D01*
G01X272750Y179500D02*
X276700D01*
G01D02*
X280650D01*
G01X287800Y95050D02*
Y99000D01*
G01D02*
Y102950D01*
G01X283850Y99000D02*
X287800D01*
G01D02*
X291750D01*
G01X295000Y107550D02*
Y111500D01*
G01X291050D02*
X295000D01*
G01D02*
X298950D01*
G01X295000Y162550D02*
Y166500D01*
G01D02*
Y170450D01*
G01Y166500D02*
X298950D01*
G01X305000Y107550D02*
Y111500D01*
G01D02*
Y115450D01*
G01X301050Y111500D02*
X305000D01*
G01D02*
X308950D01*
G01X307346Y130243D02*
Y134055D01*
G01D02*
Y137867D01*
G01X303534Y134055D02*
X307346D01*
G01D02*
X311158D01*
G01X305000Y162550D02*
Y166500D01*
G01D02*
Y170450D01*
G01X301050Y166500D02*
X305000D01*
G01D02*
X308950D01*
M02*
