G04 ================== begin FILE IDENTIFICATION RECORD ==================*
G04 Layout Name:  C:/tempPCBDir/da63df5eb16a2966413e2d3adebf328a/HQBrdTmp.brd*
G04 Film Name:    PASTETOP*
G04 File Format:  Gerber RS274X*
G04 File Origin:  Cadence Allegro -unreleased*
G04 Origin Date:  Thu Nov 30 17:35:43 2023*
G04 *
G04 Layer:  BOARD GEOMETRY/OUTLINE*
G04 Layer:  PACKAGE GEOMETRY/PASTEMASK_TOP*
G04 Layer:  PIN/PASTEMASK_TOP*
G04 *
G04 Offset:    (0.00 0.00)*
G04 Mirror:    No*
G04 Mode:      Positive*
G04 Rotation:  0*
G04 FullContactRelief:  No*
G04 UndefLineWidth:     0.11*
G04 ================== end FILE IDENTIFICATION RECORD ====================*
%FSLAX25Y25*MOIN*%
%IR0*IPPOS*OFA0.00000B0.00000*MIA0B0*SFA1.00000B1.00000*%
%AMMACRO24*
4,1,44,-.02884,.01309,
-.02884,-.01309,
-.028721,-.014457,
-.028367,-.015782,
-.027788,-.017026,
-.027002,-.01815,
-.026033,-.019121,
-.024909,-.019908,
-.023666,-.020489,
-.022342,-.020845,
-.020975,-.020965,
-.02097,-.02096,
.02097,-.02096,
.022337,-.020845,
.023662,-.02049,
.024905,-.019911,
.026029,-.019124,
.026999,-.018154,
.027786,-.01703,
.028365,-.015787,
.02872,-.014462,
.02884,-.013095,
.02884,-.01309,
.02884,.01309,
.028721,.014457,
.028367,.015782,
.027788,.017026,
.027002,.01815,
.026033,.019121,
.024909,.019908,
.023666,.020489,
.022342,.020845,
.020975,.020965,
.02097,.02096,
-.02097,.02096,
-.022337,.020845,
-.023662,.02049,
-.024905,.019911,
-.026029,.019124,
-.026999,.018154,
-.027786,.01703,
-.028365,.015787,
-.02872,.014462,
-.02884,.013095,
-.02884,.01309,
0.0*
%
%ADD24MACRO24*%
%AMMACRO25*
4,1,44,.01211,.02391,
-.01211,.02391,
-.013477,.023795,
-.014802,.02344,
-.016045,.022861,
-.017169,.022074,
-.018139,.021104,
-.018926,.01998,
-.019505,.018737,
-.01986,.017412,
-.01998,.016045,
-.01998,.01604,
-.01998,-.01604,
-.019861,-.017407,
-.019507,-.018732,
-.018928,-.019976,
-.018142,-.0211,
-.017173,-.022071,
-.016049,-.022858,
-.014806,-.023439,
-.013482,-.023795,
-.012115,-.023915,
-.01211,-.02391,
.01211,-.02391,
.013477,-.023795,
.014802,-.02344,
.016045,-.022861,
.017169,-.022074,
.018139,-.021104,
.018926,-.01998,
.019505,-.018737,
.01986,-.017412,
.01998,-.016045,
.01998,-.01604,
.01998,.01604,
.019861,.017407,
.019507,.018732,
.018928,.019976,
.018142,.0211,
.017173,.022071,
.016049,.022858,
.014806,.023439,
.013482,.023795,
.012115,.023915,
.01211,.02391,
0.0*
%
%ADD25MACRO25*%
%AMMACRO39*
4,1,44,-.02096,-.0059,
.02096,-.0059,
.021337,-.005872,
.021702,-.005774,
.022045,-.005614,
.022355,-.005397,
.022622,-.00513,
.022839,-.00482,
.022999,-.004477,
.023097,-.004112,
.02313,-.003735,
.02313,-.00373,
.02313,.00373,
.023098,.004107,
.023001,.004472,
.022842,.004816,
.022626,.005126,
.022359,.005394,
.022049,.005612,
.021707,.005772,
.021342,.005871,
.020965,.005905,
.02096,.0059,
-.02096,.0059,
-.021337,.005872,
-.021702,.005774,
-.022045,.005614,
-.022355,.005397,
-.022622,.00513,
-.022839,.00482,
-.022999,.004477,
-.023097,.004112,
-.02313,.003735,
-.02313,.00373,
-.02313,-.00373,
-.023098,-.004107,
-.023001,-.004472,
-.022842,-.004816,
-.022626,-.005126,
-.022359,-.005394,
-.022049,-.005612,
-.021707,-.005772,
-.021342,-.005871,
-.020965,-.005905,
-.02096,-.0059,
0.0*
%
%ADD39MACRO39*%
%AMMACRO36*
4,1,44,.0059,-.02096,
.0059,.02096,
.005872,.021337,
.005774,.021702,
.005614,.022045,
.005397,.022355,
.00513,.022622,
.00482,.022839,
.004477,.022999,
.004112,.023097,
.003735,.02313,
.00373,.02313,
-.00373,.02313,
-.004107,.023098,
-.004472,.023001,
-.004816,.022842,
-.005126,.022626,
-.005394,.022359,
-.005612,.022049,
-.005772,.021707,
-.005871,.021342,
-.005905,.020965,
-.0059,.02096,
-.0059,-.02096,
-.005872,-.021337,
-.005774,-.021702,
-.005614,-.022045,
-.005397,-.022355,
-.00513,-.022622,
-.00482,-.022839,
-.004477,-.022999,
-.004112,-.023097,
-.003735,-.02313,
-.00373,-.02313,
.00373,-.02313,
.004107,-.023098,
.004472,-.023001,
.004816,-.022842,
.005126,-.022626,
.005394,-.022359,
.005612,-.022049,
.005772,-.021707,
.005871,-.021342,
.005905,-.020965,
.0059,-.02096,
0.0*
%
%ADD36MACRO36*%
%ADD12C,.03937*%
%AMMACRO21*
4,1,44,-.01616,-.01096,
.01616,-.01096,
.01711,-.010883,
.018031,-.010637,
.018896,-.010235,
.019677,-.009688,
.020352,-.009015,
.0209,-.008234,
.021303,-.007371,
.021551,-.00645,
.021635,-.0055,
.02163,-.00549,
.02163,.00549,
.021553,.00644,
.021307,.007361,
.020905,.008226,
.020358,.009007,
.019685,.009682,
.018904,.01023,
.018041,.010633,
.01712,.010881,
.01617,.010965,
.01616,.01096,
-.01616,.01096,
-.01711,.010883,
-.018031,.010637,
-.018896,.010235,
-.019677,.009688,
-.020352,.009015,
-.0209,.008234,
-.021303,.007371,
-.021551,.00645,
-.021635,.0055,
-.02163,.00549,
-.02163,-.00549,
-.021553,-.00644,
-.021307,-.007361,
-.020905,-.008226,
-.020358,-.009007,
-.019685,-.009682,
-.018904,-.01023,
-.018041,-.010633,
-.01712,-.010881,
-.01617,-.010965,
-.01616,-.01096,
0.0*
%
%ADD21MACRO21*%
%AMMACRO17*
4,1,44,-.00565,-.01141,
.00565,-.01141,
.006635,-.011329,
.007589,-.011073,
.008485,-.010655,
.009295,-.010088,
.009993,-.00939,
.01056,-.00858,
.010978,-.007684,
.011234,-.00673,
.01132,-.005745,
.01132,-.00574,
.01132,.00574,
.011235,.006725,
.01098,.00768,
.010563,.008576,
.009997,.009386,
.009298,.010085,
.008489,.010653,
.007594,.011071,
.00664,.011328,
.005655,.011415,
.00565,.01141,
-.00565,.01141,
-.006635,.011329,
-.007589,.011073,
-.008485,.010655,
-.009295,.010088,
-.009993,.00939,
-.01056,.00858,
-.010978,.007684,
-.011234,.00673,
-.01132,.005745,
-.01132,.00574,
-.01132,-.00574,
-.011235,-.006725,
-.01098,-.00768,
-.010563,-.008576,
-.009997,-.009386,
-.009298,-.010085,
-.008489,-.010653,
-.007594,-.011071,
-.00664,-.011328,
-.005655,-.011415,
-.00565,-.01141,
0.0*
%
%ADD17MACRO17*%
%AMMACRO33*
4,1,44,-.01525,-.02854,
.01525,-.02854,
.016104,-.028471,
.016933,-.02825,
.017711,-.027888,
.018414,-.027397,
.019021,-.026791,
.019513,-.026089,
.019877,-.025312,
.020099,-.024484,
.020175,-.02363,
.02017,-.02362,
.02017,.02362,
.020101,.024474,
.01988,.025303,
.019518,.026081,
.019027,.026784,
.018421,.027391,
.017719,.027883,
.016942,.028247,
.016114,.028469,
.01526,.028545,
.01525,.02854,
-.01525,.02854,
-.016104,.028471,
-.016933,.02825,
-.017711,.027888,
-.018414,.027397,
-.019021,.026791,
-.019513,.026089,
-.019877,.025312,
-.020099,.024484,
-.020175,.02363,
-.02017,.02362,
-.02017,-.02362,
-.020101,-.024474,
-.01988,-.025303,
-.019518,-.026081,
-.019027,-.026784,
-.018421,-.027391,
-.017719,-.027883,
-.016942,-.028247,
-.016114,-.028469,
-.01526,-.028545,
-.01525,-.02854,
0.0*
%
%ADD33MACRO33*%
%AMMACRO27*
4,1,44,.01238,-.01409,
.01238,.01409,
.012287,.015163,
.012009,.016204,
.011555,.017181,
.010937,.018064,
.010176,.018826,
.009294,.019445,
.008318,.019901,
.007278,.02018,
.006205,.020275,
.0062,.02027,
-.0062,.02027,
-.007273,.020181,
-.008314,.019902,
-.00929,.019447,
-.010172,.018829,
-.010934,.018067,
-.011552,.017185,
-.012007,.016209,
-.012286,.015168,
-.01238,.014095,
-.01238,.01409,
-.01238,-.01409,
-.012287,-.015163,
-.012009,-.016204,
-.011555,-.017181,
-.010937,-.018064,
-.010176,-.018826,
-.009294,-.019445,
-.008318,-.019901,
-.007278,-.02018,
-.006205,-.020275,
-.0062,-.02027,
.0062,-.02027,
.007273,-.020181,
.008314,-.019902,
.00929,-.019447,
.010172,-.018829,
.010934,-.018067,
.011552,-.017185,
.012007,-.016209,
.012286,-.015168,
.01238,-.014095,
.01238,-.01409,
0.0*
%
%ADD27MACRO27*%
%AMMACRO28*
4,1,44,-.00926,-.01315,
.00926,-.01315,
.010403,-.013051,
.011511,-.012755,
.012551,-.012271,
.013491,-.011614,
.014302,-.010803,
.014961,-.009864,
.015446,-.008825,
.015744,-.007718,
.015845,-.006575,
.01584,-.00657,
.01584,.00657,
.015745,.007713,
.015448,.00882,
.014963,.00986,
.014306,.0108,
.013495,.011611,
.012555,.012268,
.011515,.012753,
.010408,.01305,
.009265,.01315,
.00926,.01315,
-.00926,.01315,
-.010403,.013051,
-.011511,.012755,
-.012551,.012271,
-.013491,.011614,
-.014302,.010803,
-.014961,.009864,
-.015446,.008825,
-.015744,.007718,
-.015845,.006575,
-.01584,.00657,
-.01584,-.00657,
-.015745,-.007713,
-.015448,-.00882,
-.014963,-.00986,
-.014306,-.0108,
-.013495,-.011611,
-.012555,-.012268,
-.011515,-.012753,
-.010408,-.01305,
-.009265,-.01315,
-.00926,-.01315,
0.0*
%
%ADD28MACRO28*%
%ADD10C,.09449*%
%AMMACRO37*
4,1,44,.02805,.05019,
-.02805,.05019,
-.028904,.05012,
-.029733,.049898,
-.03051,.049536,
-.031213,.049044,
-.031819,.048438,
-.032311,.047735,
-.032673,.046958,
-.032895,.046129,
-.03297,.045275,
-.03297,.04527,
-.03297,-.04527,
-.032896,-.046124,
-.032675,-.046953,
-.032313,-.047731,
-.031822,-.048434,
-.031216,-.049041,
-.030514,-.049533,
-.029737,-.049897,
-.028909,-.050119,
-.028055,-.050195,
-.02805,-.05019,
.02805,-.05019,
.028904,-.05012,
.029733,-.049898,
.03051,-.049536,
.031213,-.049044,
.031819,-.048438,
.032311,-.047735,
.032673,-.046958,
.032895,-.046129,
.03297,-.045275,
.03297,-.04527,
.03297,.04527,
.032896,.046124,
.032675,.046953,
.032313,.047731,
.031822,.048434,
.031216,.049041,
.030514,.049533,
.029737,.049897,
.028909,.050119,
.028055,.050195,
.02805,.05019,
0.0*
%
%ADD37MACRO37*%
%AMMACRO29*
4,1,44,.01828,-.00827,
.01828,.00827,
.018165,.009637,
.01781,.010962,
.017231,.012205,
.016444,.013329,
.015474,.014299,
.01435,.015086,
.013107,.015665,
.011782,.01602,
.010415,.01614,
.01041,.01614,
-.01041,.01614,
-.011777,.016021,
-.013102,.015667,
-.014346,.015088,
-.01547,.014302,
-.016441,.013333,
-.017228,.012209,
-.017809,.010966,
-.018165,.009642,
-.018285,.008275,
-.01828,.00827,
-.01828,-.00827,
-.018165,-.009637,
-.01781,-.010962,
-.017231,-.012205,
-.016444,-.013329,
-.015474,-.014299,
-.01435,-.015086,
-.013107,-.015665,
-.011782,-.01602,
-.010415,-.01614,
-.01041,-.01614,
.01041,-.01614,
.011777,-.016021,
.013102,-.015667,
.014346,-.015088,
.01547,-.014302,
.016441,-.013333,
.017228,-.012209,
.017809,-.010966,
.018165,-.009642,
.018285,-.008275,
.01828,-.00827,
0.0*
%
%ADD29MACRO29*%
%AMMACRO13*
4,1,44,-.00827,-.01828,
.00827,-.01828,
.009637,-.018165,
.010962,-.01781,
.012205,-.017231,
.013329,-.016444,
.014299,-.015474,
.015086,-.01435,
.015665,-.013107,
.01602,-.011782,
.01614,-.010415,
.01614,-.01041,
.01614,.01041,
.016021,.011777,
.015667,.013102,
.015088,.014346,
.014302,.01547,
.013333,.016441,
.012209,.017228,
.010966,.017809,
.009642,.018165,
.008275,.018285,
.00827,.01828,
-.00827,.01828,
-.009637,.018165,
-.010962,.01781,
-.012205,.017231,
-.013329,.016444,
-.014299,.015474,
-.015086,.01435,
-.015665,.013107,
-.01602,.011782,
-.01614,.010415,
-.01614,.01041,
-.01614,-.01041,
-.016021,-.011777,
-.015667,-.013102,
-.015088,-.014346,
-.014302,-.01547,
-.013333,-.016441,
-.012209,-.017228,
-.010966,-.017809,
-.009642,-.018165,
-.008275,-.018285,
-.00827,-.01828,
0.0*
%
%ADD13MACRO13*%
%AMMACRO20*
4,1,44,-.01408,-.02391,
.01408,-.02391,
.015447,-.023795,
.016772,-.02344,
.018015,-.022861,
.019139,-.022074,
.020109,-.021104,
.020896,-.01998,
.021475,-.018737,
.02183,-.017412,
.02195,-.016045,
.02195,-.01604,
.02195,.01604,
.021831,.017407,
.021477,.018732,
.020898,.019976,
.020112,.0211,
.019143,.022071,
.018019,.022858,
.016776,.023439,
.015452,.023795,
.014085,.023915,
.01408,.02391,
-.01408,.02391,
-.015447,.023795,
-.016772,.02344,
-.018015,.022861,
-.019139,.022074,
-.020109,.021104,
-.020896,.01998,
-.021475,.018737,
-.02183,.017412,
-.02195,.016045,
-.02195,.01604,
-.02195,-.01604,
-.021831,-.017407,
-.021477,-.018732,
-.020898,-.019976,
-.020112,-.0211,
-.019143,-.022071,
-.018019,-.022858,
-.016776,-.023439,
-.015452,-.023795,
-.014085,-.023915,
-.01408,-.02391,
0.0*
%
%ADD20MACRO20*%
%AMMACRO23*
4,1,44,.02884,-.01309,
.02884,.01309,
.028721,.014457,
.028367,.015782,
.027788,.017026,
.027002,.01815,
.026033,.019121,
.024909,.019908,
.023666,.020489,
.022342,.020845,
.020975,.020965,
.02097,.02096,
-.02097,.02096,
-.022337,.020845,
-.023662,.02049,
-.024905,.019911,
-.026029,.019124,
-.026999,.018154,
-.027786,.01703,
-.028365,.015787,
-.02872,.014462,
-.02884,.013095,
-.02884,.01309,
-.02884,-.01309,
-.028721,-.014457,
-.028367,-.015782,
-.027788,-.017026,
-.027002,-.01815,
-.026033,-.019121,
-.024909,-.019908,
-.023666,-.020489,
-.022342,-.020845,
-.020975,-.020965,
-.02097,-.02096,
.02097,-.02096,
.022337,-.020845,
.023662,-.02049,
.024905,-.019911,
.026029,-.019124,
.026999,-.018154,
.027786,-.01703,
.028365,-.015787,
.02872,-.014462,
.02884,-.013095,
.02884,-.01309,
0.0*
%
%ADD23MACRO23*%
%ADD19R,.0135X.01543*%
%AMMACRO35*
4,1,44,-.0059,.02096,
-.0059,-.02096,
-.005872,-.021337,
-.005774,-.021702,
-.005614,-.022045,
-.005397,-.022355,
-.00513,-.022622,
-.00482,-.022839,
-.004477,-.022999,
-.004112,-.023097,
-.003735,-.02313,
-.00373,-.02313,
.00373,-.02313,
.004107,-.023098,
.004472,-.023001,
.004816,-.022842,
.005126,-.022626,
.005394,-.022359,
.005612,-.022049,
.005772,-.021707,
.005871,-.021342,
.005905,-.020965,
.0059,-.02096,
.0059,.02096,
.005872,.021337,
.005774,.021702,
.005614,.022045,
.005397,.022355,
.00513,.022622,
.00482,.022839,
.004477,.022999,
.004112,.023097,
.003735,.02313,
.00373,.02313,
-.00373,.02313,
-.004107,.023098,
-.004472,.023001,
-.004816,.022842,
-.005126,.022626,
-.005394,.022359,
-.005612,.022049,
-.005772,.021707,
-.005871,.021342,
-.005905,.020965,
-.0059,.02096,
0.0*
%
%ADD35MACRO35*%
%AMMACRO34*
4,1,44,.02096,.0059,
-.02096,.0059,
-.021337,.005872,
-.021702,.005774,
-.022045,.005614,
-.022355,.005397,
-.022622,.00513,
-.022839,.00482,
-.022999,.004477,
-.023097,.004112,
-.02313,.003735,
-.02313,.00373,
-.02313,-.00373,
-.023098,-.004107,
-.023001,-.004472,
-.022842,-.004816,
-.022626,-.005126,
-.022359,-.005394,
-.022049,-.005612,
-.021707,-.005772,
-.021342,-.005871,
-.020965,-.005905,
-.02096,-.0059,
.02096,-.0059,
.021337,-.005872,
.021702,-.005774,
.022045,-.005614,
.022355,-.005397,
.022622,-.00513,
.022839,-.00482,
.022999,-.004477,
.023097,-.004112,
.02313,-.003735,
.02313,-.00373,
.02313,.00373,
.023098,.004107,
.023001,.004472,
.022842,.004816,
.022626,.005126,
.022359,.005394,
.022049,.005612,
.021707,.005772,
.021342,.005871,
.020965,.005905,
.02096,.0059,
0.0*
%
%ADD34MACRO34*%
%ADD16R,.04488X.01181*%
%AMMACRO38*
4,1,44,-.02805,-.05019,
.02805,-.05019,
.028904,-.05012,
.029733,-.049898,
.03051,-.049536,
.031213,-.049044,
.031819,-.048438,
.032311,-.047735,
.032673,-.046958,
.032895,-.046129,
.03297,-.045275,
.03297,-.04527,
.03297,.04527,
.032896,.046124,
.032675,.046953,
.032313,.047731,
.031822,.048434,
.031216,.049041,
.030514,.049533,
.029737,.049897,
.028909,.050119,
.028055,.050195,
.02805,.05019,
-.02805,.05019,
-.028904,.05012,
-.029733,.049898,
-.03051,.049536,
-.031213,.049044,
-.031819,.048438,
-.032311,.047735,
-.032673,.046958,
-.032895,.046129,
-.03297,.045275,
-.03297,.04527,
-.03297,-.04527,
-.032896,-.046124,
-.032675,-.046953,
-.032313,-.047731,
-.031822,-.048434,
-.031216,-.049041,
-.030514,-.049533,
-.029737,-.049897,
-.028909,-.050119,
-.028055,-.050195,
-.02805,-.05019,
0.0*
%
%ADD38MACRO38*%
%AMMACRO26*
4,1,44,.01616,.01096,
-.01616,.01096,
-.01711,.010883,
-.018031,.010637,
-.018896,.010235,
-.019677,.009688,
-.020352,.009015,
-.0209,.008234,
-.021303,.007371,
-.021551,.00645,
-.021635,.0055,
-.02163,.00549,
-.02163,-.00549,
-.021553,-.00644,
-.021307,-.007361,
-.020905,-.008226,
-.020358,-.009007,
-.019685,-.009682,
-.018904,-.01023,
-.018041,-.010633,
-.01712,-.010881,
-.01617,-.010965,
-.01616,-.01096,
.01616,-.01096,
.01711,-.010883,
.018031,-.010637,
.018896,-.010235,
.019677,-.009688,
.020352,-.009015,
.0209,-.008234,
.021303,-.007371,
.021551,-.00645,
.021635,-.0055,
.02163,-.00549,
.02163,.00549,
.021553,.00644,
.021307,.007361,
.020905,.008226,
.020358,.009007,
.019685,.009682,
.018904,.01023,
.018041,.010633,
.01712,.010881,
.01617,.010965,
.01616,.01096,
0.0*
%
%ADD26MACRO26*%
%AMMACRO22*
4,1,44,-.01238,.01409,
-.01238,-.01409,
-.012287,-.015163,
-.012009,-.016204,
-.011555,-.017181,
-.010937,-.018064,
-.010176,-.018826,
-.009294,-.019445,
-.008318,-.019901,
-.007278,-.02018,
-.006205,-.020275,
-.0062,-.02027,
.0062,-.02027,
.007273,-.020181,
.008314,-.019902,
.00929,-.019447,
.010172,-.018829,
.010934,-.018067,
.011552,-.017185,
.012007,-.016209,
.012286,-.015168,
.01238,-.014095,
.01238,-.01409,
.01238,.01409,
.012287,.015163,
.012009,.016204,
.011555,.017181,
.010937,.018064,
.010176,.018826,
.009294,.019445,
.008318,.019901,
.007278,.02018,
.006205,.020275,
.0062,.02027,
-.0062,.02027,
-.007273,.020181,
-.008314,.019902,
-.00929,.019447,
-.010172,.018829,
-.010934,.018067,
-.011552,.017185,
-.012007,.016209,
-.012286,.015168,
-.01238,.014095,
-.01238,.01409,
0.0*
%
%ADD22MACRO22*%
%AMMACRO18*
4,1,44,.00565,.01141,
-.00565,.01141,
-.006635,.011329,
-.007589,.011073,
-.008485,.010655,
-.009295,.010088,
-.009993,.00939,
-.01056,.00858,
-.010978,.007684,
-.011234,.00673,
-.01132,.005745,
-.01132,.00574,
-.01132,-.00574,
-.011235,-.006725,
-.01098,-.00768,
-.010563,-.008576,
-.009997,-.009386,
-.009298,-.010085,
-.008489,-.010653,
-.007594,-.011071,
-.00664,-.011328,
-.005655,-.011415,
-.00565,-.01141,
.00565,-.01141,
.006635,-.011329,
.007589,-.011073,
.008485,-.010655,
.009295,-.010088,
.009993,-.00939,
.01056,-.00858,
.010978,-.007684,
.011234,-.00673,
.01132,-.005745,
.01132,-.00574,
.01132,.00574,
.011235,.006725,
.01098,.00768,
.010563,.008576,
.009997,.009386,
.009298,.010085,
.008489,.010653,
.007594,.011071,
.00664,.011328,
.005655,.011415,
.00565,.01141,
0.0*
%
%ADD18MACRO18*%
%AMMACRO32*
4,1,44,.01525,.02854,
-.01525,.02854,
-.016104,.028471,
-.016933,.02825,
-.017711,.027888,
-.018414,.027397,
-.019021,.026791,
-.019513,.026089,
-.019877,.025312,
-.020099,.024484,
-.020175,.02363,
-.02017,.02362,
-.02017,-.02362,
-.020101,-.024474,
-.01988,-.025303,
-.019518,-.026081,
-.019027,-.026784,
-.018421,-.027391,
-.017719,-.027883,
-.016942,-.028247,
-.016114,-.028469,
-.01526,-.028545,
-.01525,-.02854,
.01525,-.02854,
.016104,-.028471,
.016933,-.02825,
.017711,-.027888,
.018414,-.027397,
.019021,-.026791,
.019513,-.026089,
.019877,-.025312,
.020099,-.024484,
.020175,-.02363,
.02017,-.02362,
.02017,.02362,
.020101,.024474,
.01988,.025303,
.019518,.026081,
.019027,.026784,
.018421,.027391,
.017719,.027883,
.016942,.028247,
.016114,.028469,
.01526,.028545,
.01525,.02854,
0.0*
%
%ADD32MACRO32*%
%AMMACRO31*
4,1,44,.00926,.01315,
-.00926,.01315,
-.010403,.013051,
-.011511,.012755,
-.012551,.012271,
-.013491,.011614,
-.014302,.010803,
-.014961,.009864,
-.015446,.008825,
-.015744,.007718,
-.015845,.006575,
-.01584,.00657,
-.01584,-.00657,
-.015745,-.007713,
-.015448,-.00882,
-.014963,-.00986,
-.014306,-.0108,
-.013495,-.011611,
-.012555,-.012268,
-.011515,-.012753,
-.010408,-.01305,
-.009265,-.01315,
-.00926,-.01315,
.00926,-.01315,
.010403,-.013051,
.011511,-.012755,
.012551,-.012271,
.013491,-.011614,
.014302,-.010803,
.014961,-.009864,
.015446,-.008825,
.015744,-.007718,
.015845,-.006575,
.01584,-.00657,
.01584,.00657,
.015745,.007713,
.015448,.00882,
.014963,.00986,
.014306,.0108,
.013495,.011611,
.012555,.012268,
.011515,.012753,
.010408,.01305,
.009265,.01315,
.00926,.01315,
0.0*
%
%ADD31MACRO31*%
%ADD11O,.07874X.03937*%
%AMMACRO30*
4,1,44,-.01828,.00827,
-.01828,-.00827,
-.018165,-.009637,
-.01781,-.010962,
-.017231,-.012205,
-.016444,-.013329,
-.015474,-.014299,
-.01435,-.015086,
-.013107,-.015665,
-.011782,-.01602,
-.010415,-.01614,
-.01041,-.01614,
.01041,-.01614,
.011777,-.016021,
.013102,-.015667,
.014346,-.015088,
.01547,-.014302,
.016441,-.013333,
.017228,-.012209,
.017809,-.010966,
.018165,-.009642,
.018285,-.008275,
.01828,-.00827,
.01828,.00827,
.018165,.009637,
.01781,.010962,
.017231,.012205,
.016444,.013329,
.015474,.014299,
.01435,.015086,
.013107,.015665,
.011782,.01602,
.010415,.01614,
.01041,.01614,
-.01041,.01614,
-.011777,.016021,
-.013102,.015667,
-.014346,.015088,
-.01547,.014302,
-.016441,.013333,
-.017228,.012209,
-.017809,.010966,
-.018165,.009642,
-.018285,.008275,
-.01828,.00827,
0.0*
%
%ADD30MACRO30*%
%ADD15R,.04488X.01969*%
%AMMACRO14*
4,1,44,.00827,.01828,
-.00827,.01828,
-.009637,.018165,
-.010962,.01781,
-.012205,.017231,
-.013329,.016444,
-.014299,.015474,
-.015086,.01435,
-.015665,.013107,
-.01602,.011782,
-.01614,.010415,
-.01614,.01041,
-.01614,-.01041,
-.016021,-.011777,
-.015667,-.013102,
-.015088,-.014346,
-.014302,-.01547,
-.013333,-.016441,
-.012209,-.017228,
-.010966,-.017809,
-.009642,-.018165,
-.008275,-.018285,
-.00827,-.01828,
.00827,-.01828,
.009637,-.018165,
.010962,-.01781,
.012205,-.017231,
.013329,-.016444,
.014299,-.015474,
.015086,-.01435,
.015665,-.013107,
.01602,-.011782,
.01614,-.010415,
.01614,-.01041,
.01614,.01041,
.016021,.011777,
.015667,.013102,
.015088,.014346,
.014302,.01547,
.013333,.016441,
.012209,.017228,
.010966,.017809,
.009642,.018165,
.008275,.018285,
.00827,.01828,
0.0*
%
%ADD14MACRO14*%
%LPD*%
G75*
G54D10*
X95000Y95000D03*
Y183000D03*
X301000Y95000D03*
Y183000D03*
G54D11*
X90251Y122047D03*
Y156063D03*
X106708Y122047D03*
Y156063D03*
G54D20*
X117701Y153500D03*
G54D30*
X146000Y159472D03*
X169000D03*
G54D21*
X119709Y169500D03*
Y162000D03*
G54D12*
X114500Y98100D03*
X105500Y183000D03*
X289100Y180900D03*
G54D31*
X162634Y160201D03*
Y152799D03*
G54D22*
X140160Y128055D03*
X147640D03*
G54D13*
X116628Y109500D03*
Y115433D03*
X102619Y109500D03*
Y115433D03*
G54D14*
X108563Y109500D03*
Y115433D03*
X122572Y109500D03*
Y115433D03*
G54D32*
X187726Y108500D03*
G54D23*
X138000Y153055D03*
X177000D03*
G54D15*
X108952Y129606D03*
Y126457D03*
Y148504D03*
Y151653D03*
G54D33*
X197274Y108500D03*
G54D24*
X138000Y159945D03*
X177000D03*
G54D16*
X108952Y132165D03*
Y134134D03*
Y136102D03*
Y138071D03*
Y140039D03*
Y142008D03*
Y143976D03*
Y145945D03*
G54D34*
X192057Y130197D03*
Y132166D03*
Y134134D03*
Y136103D03*
Y138071D03*
Y140040D03*
Y142008D03*
Y143977D03*
Y145945D03*
Y147914D03*
Y149882D03*
Y151851D03*
G54D25*
X130496Y153500D03*
G54D26*
X128291Y169500D03*
Y162000D03*
G54D35*
X199095Y125128D03*
X197126D03*
X218780D03*
X216811D03*
X214843D03*
X212874D03*
X210906D03*
X208937D03*
X206969D03*
X205000D03*
X203032D03*
X201063D03*
G54D17*
X116805Y129000D03*
X116781Y144800D03*
X126781Y135100D03*
Y139500D03*
X127681Y128055D03*
X155011Y119006D03*
Y114000D03*
Y129250D03*
Y124128D03*
X155681Y147000D03*
X166181Y98100D03*
Y102800D03*
Y114000D03*
Y107500D03*
X186181Y97200D03*
X180181Y116500D03*
X186181Y102000D03*
X195181D03*
X179981Y138071D03*
X180181Y121500D03*
Y126500D03*
X187381Y168500D03*
X191281Y163400D03*
X217793Y95000D03*
X206569D03*
X217581Y115600D03*
X201063Y168500D03*
X229381Y109600D03*
Y114400D03*
X232981Y159500D03*
Y154900D03*
X243581Y121500D03*
X241381Y159500D03*
X250681Y164000D03*
X268862Y120500D03*
X259681Y164000D03*
Y169000D03*
X278862Y120500D03*
X284681Y128600D03*
Y134055D03*
Y139000D03*
Y144055D03*
Y154055D03*
G54D18*
X120443Y129000D03*
X120419Y144800D03*
X130419Y135100D03*
Y139500D03*
X131319Y128055D03*
X158649Y119006D03*
Y114000D03*
Y129250D03*
Y124128D03*
X159319Y147000D03*
X169819Y98100D03*
Y102800D03*
Y114000D03*
Y107500D03*
X189819Y97200D03*
X183819Y116500D03*
X189819Y102000D03*
X198819D03*
X183619Y138071D03*
X183819Y121500D03*
Y126500D03*
X191019Y168500D03*
X194919Y163400D03*
X210207Y95000D03*
X204701Y168500D03*
X221431Y95000D03*
X233019Y109600D03*
Y114400D03*
X221219Y115600D03*
X236619Y159500D03*
Y154900D03*
X247219Y121500D03*
X245019Y159500D03*
X254319Y164000D03*
X272500Y120500D03*
X263319Y164000D03*
Y169000D03*
X282500Y120500D03*
X288319Y128600D03*
Y134055D03*
Y139000D03*
Y144055D03*
Y154055D03*
G54D27*
X143900Y120575D03*
G54D36*
X197126Y156920D03*
X199095D03*
X201063D03*
X203032D03*
X205000D03*
X206969D03*
X208937D03*
X210906D03*
X212874D03*
X214843D03*
X216811D03*
X218780D03*
G54D19*
X117498Y135100D03*
X119702D03*
X117498Y139055D03*
X119702D03*
G54D37*
X206569Y105000D03*
G54D28*
X152366Y152799D03*
Y156500D03*
Y160201D03*
G54D38*
X221431Y105000D03*
G54D29*
X146000Y153528D03*
X169000D03*
G54D39*
X223849Y140040D03*
Y138071D03*
Y136103D03*
Y134134D03*
Y132166D03*
Y130197D03*
Y151851D03*
Y149882D03*
Y147914D03*
Y145945D03*
Y143977D03*
Y142008D03*
M02*
