G04 ================== begin FILE IDENTIFICATION RECORD ==================*
G04 Layout Name:  F:/ST-LINK-V2/Hardware/allegro/st-link-v2_pro.brd*
G04 Film Name:    DRILL*
G04 File Format:  Gerber RS274X*
G04 File Origin:  Cadence Allegro 17.4-S035*
G04 Origin Date:  Sun Nov 26 15:51:27 2023*
G04 *
G04 Layer:  MANUFACTURING/PHOTOPLOT_OUTLINE*
G04 Layer:  MANUFACTURING/NCDRILL_LEGEND*
G04 Layer:  MANUFACTURING/NCDRILL_FIGURE*
G04 Layer:  MANUFACTURING/NCLEGEND-1-2*
G04 Layer:  BOARD GEOMETRY/DIMENSION*
G04 Layer:  BOARD GEOMETRY/DESIGN_OUTLINE*
G04 *
G04 Offset:    (0.00 0.00)*
G04 Mirror:    No*
G04 Mode:      Positive*
G04 Rotation:  0*
G04 FullContactRelief:  No*
G04 UndefLineWidth:     6.00*
G04 ================== end FILE IDENTIFICATION RECORD ====================*
%FSLAX55Y55*MOIN*%
%IR0*IPPOS*OFA0.00000B0.00000*MIA0B0*SFA1.00000B1.00000*%
%AMMACRO15*
1,1,.006,.005905,0.0*
20,1,.006,.005905,0.0,-.005905,0.0,0.0*
1,1,.006,-.005905,0.0*
1,1,.006,0.0,.005905*
20,1,.006,0.0,.005905,0.0,-.005905,0.0*
1,1,.006,0.0,-.005905*
%
%ADD15MACRO15*%
%AMMACRO14*
1,1,.006,.02067,.02067*
20,1,.006,.02067,.02067,.02067,-.02067,0.0*
1,1,.006,.02067,-.02067*
20,1,.006,.02067,-.02067,-.02067,-.02067,0.0*
1,1,.006,-.02067,-.02067*
20,1,.006,-.02067,-.02067,-.02067,.02067,0.0*
1,1,.006,-.02067,.02067*
20,1,.006,-.02067,.02067,.02067,.02067,0.0*
1,1,.006,.02067,.02067*
%
%ADD14MACRO14*%
%AMMACRO11*
1,1,.006,.0053,-.012795*
20,1,.006,.0053,-.012795,-.0053,-.012795,0.0*
1,1,.006,-.0053,-.012795*
20,1,.006,-.0053,-.012795,-.012795,-.0053,0.0*
1,1,.006,-.012795,-.0053*
20,1,.006,-.012795,-.0053,-.012795,.0053,0.0*
1,1,.006,-.012795,.0053*
20,1,.006,-.012795,.0053,-.0053,.012795,0.0*
1,1,.006,-.0053,.012795*
20,1,.006,-.0053,.012795,.0053,.012795,0.0*
1,1,.006,.0053,.012795*
20,1,.006,.0053,.012795,.012795,.0053,0.0*
1,1,.006,.012795,.0053*
20,1,.006,.012795,.0053,.012795,-.0053,0.0*
1,1,.006,.012795,-.0053*
20,1,.006,.012795,-.0053,.0053,-.012795,0.0*
1,1,.006,.0053,-.012795*
%
%ADD11MACRO11*%
%AMMACRO13*
1,1,.006,.021655,0.0*
20,1,.006,.021655,0.0,.010828,.018754,0.0*
1,1,.006,.010828,.018754*
20,1,.006,.010828,.018754,-.010827,.018754,0.0*
1,1,.006,-.010827,.018754*
20,1,.006,-.010827,.018754,-.021655,0.0,0.0*
1,1,.006,-.021655,0.0*
20,1,.006,-.021655,0.0,-.010828,-.018754,0.0*
1,1,.006,-.010828,-.018754*
20,1,.006,-.010828,-.018754,.010827,-.018754,0.0*
1,1,.006,.010827,-.018754*
20,1,.006,.010827,-.018754,.021655,0.0,0.0*
1,1,.006,.021655,0.0*
%
%ADD13MACRO13*%
%AMMACRO12*
1,1,.006,0.0,.02756*
20,1,.006,0.0,.02756,-.023868,.01378,0.0*
1,1,.006,-.023868,.01378*
20,1,.006,-.023868,.01378,-.023868,-.01378,0.0*
1,1,.006,-.023868,-.01378*
20,1,.006,-.023868,-.01378,0.0,-.02756,0.0*
1,1,.006,0.0,-.02756*
20,1,.006,0.0,-.02756,.023868,-.01378,0.0*
1,1,.006,.023868,-.01378*
20,1,.006,.023868,-.01378,.023868,.01378,0.0*
1,1,.006,.023868,.01378*
20,1,.006,.023868,.01378,0.0,.02756,0.0*
1,1,.006,0.0,.02756*
%
%ADD12MACRO12*%
%AMMACRO10*
1,1,.006,-.021655,.01181*
20,1,.006,-.021655,.01181,.021655,.01181,0.0*
1,1,.006,.021655,.01181*
20,1,.006,.021655,.01181,.023706,.011631,0.0*
1,1,.006,.023706,.011631*
20,1,.006,.023706,.011631,.025694,.011098,0.0*
1,1,.006,.025694,.011098*
20,1,.006,.025694,.011098,.02756,.010228,0.0*
1,1,.006,.02756,.010228*
20,1,.006,.02756,.010228,.029246,.009047,0.0*
1,1,.006,.029246,.009047*
20,1,.006,.029246,.009047,.030702,.007591,0.0*
1,1,.006,.030702,.007591*
20,1,.006,.030702,.007591,.031883,.005905,0.0*
1,1,.006,.031883,.005905*
20,1,.006,.031883,.005905,.032753,.004039,0.0*
1,1,.006,.032753,.004039*
20,1,.006,.032753,.004039,.033286,.002051,0.0*
1,1,.006,.033286,.002051*
20,1,.006,.033286,.002051,.033465,0.0,0.0*
1,1,.006,.033465,0.0*
20,1,.006,.033465,0.0,.033286,-.002051,0.0*
1,1,.006,.033286,-.002051*
20,1,.006,.033286,-.002051,.032753,-.004039,0.0*
1,1,.006,.032753,-.004039*
20,1,.006,.032753,-.004039,.031883,-.005905,0.0*
1,1,.006,.031883,-.005905*
20,1,.006,.031883,-.005905,.030702,-.007591,0.0*
1,1,.006,.030702,-.007591*
20,1,.006,.030702,-.007591,.029246,-.009047,0.0*
1,1,.006,.029246,-.009047*
20,1,.006,.029246,-.009047,.02756,-.010228,0.0*
1,1,.006,.02756,-.010228*
20,1,.006,.02756,-.010228,.025694,-.011098,0.0*
1,1,.006,.025694,-.011098*
20,1,.006,.025694,-.011098,.023706,-.011631,0.0*
1,1,.006,.023706,-.011631*
20,1,.006,.023706,-.011631,.021655,-.01181,0.0*
1,1,.006,.021655,-.01181*
20,1,.006,.021655,-.01181,-.021655,-.01181,0.0*
1,1,.006,-.021655,-.01181*
20,1,.006,-.021655,-.01181,-.023706,-.011631,0.0*
1,1,.006,-.023706,-.011631*
20,1,.006,-.023706,-.011631,-.025694,-.011098,0.0*
1,1,.006,-.025694,-.011098*
20,1,.006,-.025694,-.011098,-.02756,-.010228,0.0*
1,1,.006,-.02756,-.010228*
20,1,.006,-.02756,-.010228,-.029246,-.009047,0.0*
1,1,.006,-.029246,-.009047*
20,1,.006,-.029246,-.009047,-.030702,-.007591,0.0*
1,1,.006,-.030702,-.007591*
20,1,.006,-.030702,-.007591,-.031883,-.005905,0.0*
1,1,.006,-.031883,-.005905*
20,1,.006,-.031883,-.005905,-.032753,-.004039,0.0*
1,1,.006,-.032753,-.004039*
20,1,.006,-.032753,-.004039,-.033286,-.002051,0.0*
1,1,.006,-.033286,-.002051*
20,1,.006,-.033286,-.002051,-.033465,0.0,0.0*
1,1,.006,-.033465,0.0*
20,1,.006,-.033465,0.0,-.033286,.002051,0.0*
1,1,.006,-.033286,.002051*
20,1,.006,-.033286,.002051,-.032753,.004039,0.0*
1,1,.006,-.032753,.004039*
20,1,.006,-.032753,.004039,-.031883,.005905,0.0*
1,1,.006,-.031883,.005905*
20,1,.006,-.031883,.005905,-.030702,.007591,0.0*
1,1,.006,-.030702,.007591*
20,1,.006,-.030702,.007591,-.029246,.009047,0.0*
1,1,.006,-.029246,.009047*
20,1,.006,-.029246,.009047,-.02756,.010228,0.0*
1,1,.006,-.02756,.010228*
20,1,.006,-.02756,.010228,-.025694,.011098,0.0*
1,1,.006,-.025694,.011098*
20,1,.006,-.025694,.011098,-.023706,.011631,0.0*
1,1,.006,-.023706,.011631*
20,1,.006,-.023706,.011631,-.021655,.01181,0.0*
1,1,.006,-.021655,.01181*
1,1,.006,-.00591,-.0059*
20,1,.006,-.00591,-.0059,-.00748,-.0057,0.0*
1,1,.006,-.00748,-.0057*
20,1,.006,-.00748,-.0057,-.00886,-.00492,0.0*
1,1,.006,-.00886,-.00492*
20,1,.006,-.00886,-.00492,-.01004,-.00373,0.0*
1,1,.006,-.01004,-.00373*
20,1,.006,-.01004,-.00373,-.01083,-.00236,0.0*
1,1,.006,-.01083,-.00236*
20,1,.006,-.01083,-.00236,-.01122,-.00078,0.0*
1,1,.006,-.01122,-.00078*
20,1,.006,-.01122,-.00078,-.01122,.00079,0.0*
1,1,.006,-.01122,.00079*
20,1,.006,-.01122,.00079,-.01083,.00237,0.0*
1,1,.006,-.01083,.00237*
20,1,.006,-.01083,.00237,-.01004,.00374,0.0*
1,1,.006,-.01004,.00374*
20,1,.006,-.01004,.00374,-.00886,.00493,0.0*
1,1,.006,-.00886,.00493*
20,1,.006,-.00886,.00493,-.00748,.00571,0.0*
1,1,.006,-.00748,.00571*
20,1,.006,-.00748,.00571,-.00591,.00591,0.0*
1,1,.006,-.00591,.00591*
20,1,.006,-.00591,.00591,-.00433,.00571,0.0*
1,1,.006,-.00433,.00571*
20,1,.006,-.00433,.00571,-.00295,.00493,0.0*
1,1,.006,-.00295,.00493*
20,1,.006,-.00295,.00493,-.00177,.00374,0.0*
1,1,.006,-.00177,.00374*
20,1,.006,-.00177,.00374,-.00098,.00237,0.0*
1,1,.006,-.00098,.00237*
20,1,.006,-.00098,.00237,-.00059,.00079,0.0*
1,1,.006,-.00059,.00079*
20,1,.006,-.00059,.00079,-.00059,-.00078,0.0*
1,1,.006,-.00059,-.00078*
20,1,.006,-.00059,-.00078,-.00098,-.00236,0.0*
1,1,.006,-.00098,-.00236*
20,1,.006,-.00098,-.00236,-.00177,-.00373,0.0*
1,1,.006,-.00177,-.00373*
20,1,.006,-.00177,-.00373,-.00295,-.00492,0.0*
1,1,.006,-.00295,-.00492*
20,1,.006,-.00295,-.00492,-.00433,-.0057,0.0*
1,1,.006,-.00433,-.0057*
20,1,.006,-.00433,-.0057,-.00591,-.0059,0.0*
1,1,.006,-.00591,-.0059*
1,1,.006,.00099,-.0059*
20,1,.006,.00099,-.0059,.00591,.00591,0.0*
1,1,.006,.00591,.00591*
20,1,.006,.00591,.00591,.01084,-.0059,0.0*
1,1,.006,.01084,-.0059*
1,1,.006,.00906,-.00177*
20,1,.006,.00906,-.00177,.00277,-.00177,0.0*
1,1,.006,.00277,-.00177*
%
%ADD10MACRO10*%
%ADD16C,.006*%
G75*
%LPD*%
G75*
G54D10*
X-62850Y-259600D03*
X10251Y42047D03*
Y76063D03*
X26708Y42047D03*
Y76063D03*
G54D11*
X-62850Y-234600D03*
X24739Y47795D03*
Y70433D03*
G54D12*
X-62850Y-209600D03*
X15000Y15000D03*
Y103000D03*
X221000Y15000D03*
Y103000D03*
G54D13*
X-62850Y-184600D03*
X38500Y99500D03*
X61100D03*
X48500D03*
X75000Y25000D03*
X65000D03*
X81100Y99500D03*
X71100D03*
X91100D03*
X114100D03*
X104100D03*
X134100D03*
X124100D03*
X157800Y19000D03*
X156700Y99500D03*
X146700D03*
X177800Y19000D03*
X167800D03*
X175400Y31500D03*
X165400D03*
X176700Y99500D03*
X166700D03*
X197800Y19000D03*
X187800D03*
X192500Y31500D03*
Y86500D03*
X196700Y99500D03*
X186700D03*
X207800Y19000D03*
X202500Y31500D03*
X215000D03*
X202500Y86500D03*
X215000D03*
X225000Y31500D03*
Y86500D03*
G54D14*
X-62850Y-159600D03*
X217346Y54055D03*
Y44055D03*
Y74055D03*
Y64055D03*
X227346Y54055D03*
Y44055D03*
Y74055D03*
Y64055D03*
G54D15*
X-62850Y-134600D03*
X20634Y6819D03*
X6900Y6900D03*
X6819Y16063D03*
X19567Y35433D03*
X6819Y26063D03*
Y36063D03*
X21000Y45200D03*
X6819Y46063D03*
Y56063D03*
X21000Y72000D03*
X6819Y66063D03*
X21300Y88300D03*
X6819Y86063D03*
Y96063D03*
Y111291D03*
X16819D03*
X40634Y6819D03*
X30634D03*
X35400Y40700D03*
X32900Y43900D03*
X36600Y45200D03*
X32600Y74042D03*
X21700Y81400D03*
X31800Y84900D03*
X28000Y88300D03*
X35400Y91600D03*
X26819Y111291D03*
X36819D03*
X44000Y14100D03*
X60634Y6819D03*
X50634D03*
X47700Y29600D03*
X55200Y29400D03*
X60200Y36400D03*
X41900Y45700D03*
X46300Y42500D03*
X52300Y42600D03*
X42058Y59055D03*
Y55100D03*
X56000D03*
X56100Y58700D03*
X56600Y41600D03*
X50545Y69358D03*
X58000Y69405D03*
X55900Y63200D03*
X45200Y77400D03*
X46300Y94100D03*
X58500Y89400D03*
X46819Y111291D03*
X56819D03*
X69200Y13500D03*
X80634Y6819D03*
X70634D03*
X61200Y31000D03*
X69400Y34000D03*
X61200Y54800D03*
X66000Y70193D03*
X72700Y67000D03*
X66800Y63500D03*
X67100Y89500D03*
X77700Y85500D03*
X66819Y111291D03*
X76819D03*
X83200Y18100D03*
X90634Y6819D03*
X90805Y37748D03*
X97200Y36500D03*
X83200Y27500D03*
X95800Y24100D03*
X81594Y39006D03*
X81952Y49250D03*
X97100Y46500D03*
Y41500D03*
X90700Y47300D03*
X94000Y49607D03*
X81400Y62800D03*
X94500Y61700D03*
X97900Y61600D03*
X89000Y69996D03*
X96800Y65000D03*
X83500Y92300D03*
X97000Y94500D03*
X86819Y111291D03*
X96819D03*
X102900Y16800D03*
X114900Y17100D03*
X110000Y13500D03*
X110634Y6819D03*
X100634D03*
X103000Y22000D03*
Y29600D03*
X107700Y33800D03*
X117100Y38681D03*
X111500Y37100D03*
X104600Y54700D03*
X107000Y46500D03*
X117000Y49607D03*
X101732Y73301D03*
X119095Y72926D03*
X111240Y80400D03*
X116654Y66297D03*
X119600Y68300D03*
X101800Y79800D03*
X119766Y64563D03*
X101200Y63100D03*
X101700Y83400D03*
X118200D03*
X106819Y111291D03*
X116819D03*
X122600Y15000D03*
X137600Y11100D03*
X130400Y11200D03*
X130634Y6819D03*
X120634D03*
X120300Y33060D03*
X121291Y25200D03*
Y29600D03*
X136622Y31300D03*
X127400Y33400D03*
X124000Y36500D03*
X129700Y40200D03*
X137540Y38019D03*
X137300Y50900D03*
X129999Y60157D03*
X130226Y56602D03*
X132200Y72100D03*
X129873Y68980D03*
X129900Y64800D03*
X124300Y84100D03*
X126819Y111291D03*
X136819D03*
X145100Y15000D03*
X150634Y6819D03*
X140634D03*
X141260Y32100D03*
X152991Y26391D03*
X145300Y34200D03*
X147100Y21900D03*
X153000Y38019D03*
X156700Y45400D03*
X159093Y41500D03*
X150200Y47100D03*
X142500Y45128D03*
X149000Y71200D03*
X148723Y63977D03*
X152991Y71900D03*
X146819Y111291D03*
X156819D03*
X170634Y6819D03*
X160634D03*
X166300Y25500D03*
X172500Y24900D03*
X168100Y46000D03*
X171707Y43100D03*
X176800Y42800D03*
Y52166D03*
X159700Y74500D03*
X168700D03*
X178700D03*
X175700Y64700D03*
X171700Y65633D03*
X166819Y111291D03*
X176819D03*
X190634Y6819D03*
X180634D03*
X192900Y24200D03*
X186600Y33900D03*
X185300Y45900D03*
X188862Y43444D03*
X188863Y58137D03*
X198862Y43444D03*
X181600Y43500D03*
X194500Y44200D03*
X189300Y74000D03*
X198900Y61500D03*
X181600Y63000D03*
X194500Y69000D03*
X198100Y90200D03*
X186000Y89600D03*
X186819Y111291D03*
X196819D03*
X210634Y6819D03*
X200634D03*
X203800Y24400D03*
X208800Y33900D03*
X205600Y44400D03*
X212000Y51300D03*
X210900Y42100D03*
X200500Y68700D03*
X208700D03*
X212100Y76700D03*
X201600Y74055D03*
X203300Y99500D03*
X209200Y93000D03*
X206819Y111291D03*
X216819D03*
X229500Y6900D03*
X229400Y16400D03*
X229900Y36900D03*
X229500Y27000D03*
X221500Y49100D03*
X230700Y58500D03*
X222100Y69500D03*
X229401Y91630D03*
Y81630D03*
X218800Y94100D03*
X226819Y111291D03*
X229401Y101630D03*
G54D16*
G01X-107800Y-272100D02*
Y-47100D01*
X388200D01*
Y-272100D01*
X-107800D01*
G01Y-247100D02*
X388200D01*
G01X-107800Y-222100D02*
X388200D01*
G01X-107800Y-197100D02*
X388200D01*
G01X-107800Y-172100D02*
X388200D01*
G01X-107800Y-147100D02*
X388200D01*
G01X-96795Y-115850D02*
Y-103350D01*
X-90905D01*
G01X-93075Y-109392D02*
X-96795D01*
G01X-83310Y-103350D02*
X-79590D01*
G01X-81450D02*
Y-115850D01*
G01X-83310D02*
X-79590D01*
G01X-68120Y-109600D02*
X-65020D01*
Y-113350D01*
X-65950Y-114600D01*
X-67035Y-115433D01*
X-68585Y-115850D01*
X-70135Y-115433D01*
X-71220Y-114600D01*
X-72150Y-113350D01*
X-72770Y-111892D01*
X-73080Y-110225D01*
Y-108767D01*
X-72770Y-107517D01*
X-72150Y-106058D01*
X-71220Y-104808D01*
X-70290Y-103975D01*
X-69050Y-103350D01*
X-67965D01*
X-66725Y-103767D01*
X-65795Y-104600D01*
G01X-60060Y-103350D02*
Y-112308D01*
X-59440Y-114184D01*
X-58200Y-115433D01*
X-56650Y-115850D01*
X-55100Y-115433D01*
X-53860Y-114184D01*
X-53240Y-112308D01*
Y-103350D01*
G01X-47350Y-115850D02*
Y-103350D01*
X-43475D01*
X-42235Y-103975D01*
X-41460Y-104808D01*
X-41150Y-106475D01*
X-41460Y-108142D01*
X-42390Y-109183D01*
X-43475Y-109808D01*
X-47350D01*
G01X-43475D02*
X-41150Y-115850D01*
G01X-28750D02*
X-34950D01*
Y-103350D01*
X-28750D01*
G01X-31230Y-109392D02*
X-34950D01*
G01X-107800Y-122100D02*
X388200D01*
G01X-107800Y-97100D02*
X388200D01*
G01X-107800Y-72100D02*
X388200D01*
G01X-104100Y53750D02*
Y66250D01*
X-105960Y63750D01*
G01Y53750D02*
X-102240D01*
G01X-91700Y53333D02*
X-92010Y53542D01*
Y53958D01*
X-91700Y54167D01*
X-91390Y53958D01*
Y53542D01*
X-91700Y53333D01*
G01X-79300Y53750D02*
Y66250D01*
X-81160Y63750D01*
G01Y53750D02*
X-77440D01*
G01X-66900D02*
X-65815Y53958D01*
X-64575Y54583D01*
X-63800Y55625D01*
X-63490Y57083D01*
X-63800Y58541D01*
X-64730Y59792D01*
X-66125Y60417D01*
X-67675D01*
X-68605Y60833D01*
X-69380Y61875D01*
X-69690Y63333D01*
X-69225Y64792D01*
X-68140Y65833D01*
X-66900Y66250D01*
X-65660Y65833D01*
X-64575Y64792D01*
X-64110Y63333D01*
X-64420Y61875D01*
X-65195Y60833D01*
X-66125Y60417D01*
X-67675D01*
X-69070Y59792D01*
X-70000Y58541D01*
X-70310Y57083D01*
X-70000Y55625D01*
X-69225Y54583D01*
X-67985Y53958D01*
X-66900Y53750D01*
G01X40250Y0D02*
X-67343D01*
G01X-59960Y15748D02*
X-57500Y0D01*
X-55040Y15748D01*
X-59960D01*
G01X28877Y118110D02*
X-67343D01*
G01X-55040Y102362D02*
X-57500Y118110D01*
X-59960Y102362D01*
X-55040D01*
G01X-57500Y44375D02*
Y0D01*
G01X-41900Y53750D02*
X-46550D01*
Y66250D01*
X-41900D01*
G01X-57500Y75625D02*
Y118110D01*
G01X-18210Y-65850D02*
Y-53350D01*
X-15110D01*
X-13870Y-53975D01*
X-12940Y-54808D01*
X-12165Y-56058D01*
X-11545Y-57517D01*
X-11390Y-59600D01*
X-11545Y-61683D01*
X-12165Y-63142D01*
X-12940Y-64392D01*
X-13870Y-65225D01*
X-15110Y-65850D01*
X-18210D01*
G01X-5500D02*
Y-53350D01*
X-1625D01*
X-385Y-53975D01*
X390Y-54808D01*
X700Y-56475D01*
X390Y-58142D01*
X-540Y-59183D01*
X-1625Y-59808D01*
X-5500D01*
G01X-1625D02*
X700Y-65850D01*
G01X8140Y-53350D02*
X11860D01*
G01X10000D02*
Y-65850D01*
G01X8140D02*
X11860D01*
G01X19300Y-53350D02*
Y-65850D01*
X25500D01*
G01X31700Y-53350D02*
Y-65850D01*
X37900D01*
G01X63010Y-54392D02*
X62080Y-53767D01*
X60995Y-53350D01*
X59755D01*
X58360Y-53975D01*
X57275Y-55017D01*
X56500Y-56267D01*
X55880Y-58350D01*
X55725Y-60225D01*
X56035Y-62100D01*
X56500Y-63350D01*
X57430Y-64600D01*
X58515Y-65433D01*
X59600Y-65850D01*
X60685D01*
X61770Y-65433D01*
X62700Y-64809D01*
X63475Y-63975D01*
G01X68745Y-65850D02*
Y-53350D01*
G01X75255D02*
Y-65850D01*
G01Y-59600D02*
X68745D01*
G01X80525Y-65850D02*
X84400Y-53350D01*
X88275Y-65850D01*
G01X86880Y-61475D02*
X81920D01*
G01X93700Y-65850D02*
Y-53350D01*
X97575D01*
X98815Y-53975D01*
X99590Y-54808D01*
X99900Y-56475D01*
X99590Y-58142D01*
X98660Y-59183D01*
X97575Y-59808D01*
X93700D01*
G01X97575D02*
X99900Y-65850D01*
G01X109200Y-53350D02*
Y-65850D01*
G01X105635Y-53350D02*
X112765D01*
G01X121600Y-66267D02*
X121290Y-66058D01*
Y-65642D01*
X121600Y-65433D01*
X121910Y-65642D01*
Y-66058D01*
X121600Y-66267D01*
G01Y-60642D02*
X121290Y-60433D01*
Y-60017D01*
X121600Y-59808D01*
X121910Y-60017D01*
Y-60433D01*
X121600Y-60642D01*
G01X146400Y-53350D02*
Y-65850D01*
G01X142835Y-53350D02*
X149965D01*
G01X158800Y-65850D02*
X157560Y-65642D01*
X156475Y-64809D01*
X155545Y-63558D01*
X154925Y-62100D01*
X154615Y-60433D01*
Y-58767D01*
X154925Y-57100D01*
X155545Y-55642D01*
X156475Y-54392D01*
X157560Y-53558D01*
X158800Y-53350D01*
X160040Y-53558D01*
X161125Y-54392D01*
X162055Y-55642D01*
X162675Y-57100D01*
X162985Y-58767D01*
Y-60433D01*
X162675Y-62100D01*
X162055Y-63558D01*
X161125Y-64809D01*
X160040Y-65642D01*
X158800Y-65850D01*
G01X168100D02*
Y-53350D01*
X171820D01*
X173060Y-53975D01*
X173990Y-55433D01*
X174300Y-57100D01*
X173990Y-58767D01*
X173215Y-60017D01*
X171820Y-60642D01*
X168100D01*
G01X196000Y-53350D02*
Y-65850D01*
G01X193830Y-57517D02*
X198170D01*
G01X208400Y-65850D02*
X207470Y-65642D01*
X206540Y-64809D01*
X205920Y-63350D01*
X205610Y-61683D01*
X205920Y-60017D01*
X206540Y-58558D01*
X207470Y-57725D01*
X208400Y-57517D01*
X209330Y-57725D01*
X210260Y-58558D01*
X210880Y-60017D01*
X211035Y-61683D01*
X210880Y-63350D01*
X210260Y-64809D01*
X209330Y-65642D01*
X208400Y-65850D01*
G01X234440Y-59183D02*
X235060Y-58558D01*
X235525Y-57517D01*
X235835Y-56058D01*
X235525Y-54808D01*
X234905Y-53975D01*
X233820Y-53350D01*
X229635D01*
Y-65850D01*
X234750D01*
X235835Y-65017D01*
X236455Y-63767D01*
X236765Y-62308D01*
X236455Y-60850D01*
X235525Y-59600D01*
X234440Y-59183D01*
X229635D01*
G01X245600Y-65850D02*
X244360Y-65642D01*
X243275Y-64809D01*
X242345Y-63558D01*
X241725Y-62100D01*
X241415Y-60433D01*
Y-58767D01*
X241725Y-57100D01*
X242345Y-55642D01*
X243275Y-54392D01*
X244360Y-53558D01*
X245600Y-53350D01*
X246840Y-53558D01*
X247925Y-54392D01*
X248855Y-55642D01*
X249475Y-57100D01*
X249785Y-58767D01*
Y-60433D01*
X249475Y-62100D01*
X248855Y-63558D01*
X247925Y-64809D01*
X246840Y-65642D01*
X245600Y-65850D01*
G01X258000Y-53350D02*
Y-65850D01*
G01X254435Y-53350D02*
X261565D01*
G01X270400D02*
Y-65850D01*
G01X266835Y-53350D02*
X273965D01*
G01X282800Y-65850D02*
X281560Y-65642D01*
X280475Y-64809D01*
X279545Y-63558D01*
X278925Y-62100D01*
X278615Y-60433D01*
Y-58767D01*
X278925Y-57100D01*
X279545Y-55642D01*
X280475Y-54392D01*
X281560Y-53558D01*
X282800Y-53350D01*
X284040Y-53558D01*
X285125Y-54392D01*
X286055Y-55642D01*
X286675Y-57100D01*
X286985Y-58767D01*
Y-60433D01*
X286675Y-62100D01*
X286055Y-63558D01*
X285125Y-64809D01*
X284040Y-65642D01*
X282800Y-65850D01*
G01X291170D02*
Y-53350D01*
X295200Y-63767D01*
X299230Y-53350D01*
Y-65850D01*
G01X-36010Y56250D02*
X-35080Y54791D01*
X-33840Y53958D01*
X-32445Y53750D01*
X-31205Y53958D01*
X-29965Y55000D01*
X-29190Y56250D01*
X-29035Y57500D01*
X-29345Y58958D01*
X-30430Y60000D01*
X-31515Y60417D01*
X-32910D01*
G01X-31515D02*
X-30585Y61042D01*
X-29810Y62083D01*
X-29500Y63333D01*
X-29810Y64583D01*
X-30585Y65625D01*
X-31980Y66250D01*
X-33375Y66042D01*
X-34770Y65208D01*
G01X-20200Y66250D02*
X-21440Y65833D01*
X-22370Y64792D01*
X-22990Y63542D01*
X-23455Y61875D01*
X-23610Y60000D01*
X-23455Y58125D01*
X-22990Y56458D01*
X-22370Y55208D01*
X-21440Y54167D01*
X-20200Y53750D01*
X-18960Y54167D01*
X-18030Y55208D01*
X-17410Y56458D01*
X-16945Y58125D01*
X-16790Y60000D01*
X-16945Y61875D01*
X-17410Y63542D01*
X-18030Y64792D01*
X-18960Y65833D01*
X-20200Y66250D01*
G01X-17900Y-97100D02*
Y-272100D01*
G01X0Y35919D02*
Y-26343D01*
G01X67875Y-16500D02*
X0D01*
G01X15748Y-14040D02*
X0Y-16500D01*
X15748Y-18960D01*
Y-14040D01*
G01X0Y5906D02*
Y112205D01*
G02X5906Y118110I5905J0D01*
G01X230315D01*
G02X236220Y112205I0J-5905D01*
G01Y5906D01*
G02X230315Y0I-5905J-1D01*
G01X5906D01*
G02X0Y5906I0J5906D01*
G01X-10900Y53750D02*
X-6250D01*
Y66250D01*
X-10900D01*
G01X17905Y-260642D02*
X18990Y-259183D01*
X19920Y-258350D01*
X21160Y-257933D01*
X22245Y-258350D01*
X23020Y-259183D01*
X23640Y-260433D01*
X23795Y-261892D01*
X23640Y-263142D01*
X23020Y-264392D01*
X22090Y-265433D01*
X21005Y-265850D01*
X19765Y-265433D01*
X18680Y-264184D01*
X18060Y-262308D01*
X17905Y-260225D01*
X18215Y-257517D01*
X18680Y-256058D01*
X19455Y-254600D01*
X20540Y-253558D01*
X21625Y-253350D01*
X22710Y-253767D01*
X23485Y-254808D01*
G01X30305Y-260642D02*
X31390Y-259183D01*
X32320Y-258350D01*
X33560Y-257933D01*
X34645Y-258350D01*
X35420Y-259183D01*
X36040Y-260433D01*
X36195Y-261892D01*
X36040Y-263142D01*
X35420Y-264392D01*
X34490Y-265433D01*
X33405Y-265850D01*
X32165Y-265433D01*
X31080Y-264184D01*
X30460Y-262308D01*
X30305Y-260225D01*
X30615Y-257517D01*
X31080Y-256058D01*
X31855Y-254600D01*
X32940Y-253558D01*
X34025Y-253350D01*
X35110Y-253767D01*
X35885Y-254808D01*
G01X45650Y-266267D02*
X45340Y-266058D01*
Y-265642D01*
X45650Y-265433D01*
X45960Y-265642D01*
Y-266058D01*
X45650Y-266267D01*
G01X55415Y-264392D02*
X56500Y-265433D01*
X57740Y-265850D01*
X58980Y-265433D01*
X60065Y-264184D01*
X60840Y-262308D01*
X61150Y-260433D01*
Y-258142D01*
X60840Y-256267D01*
X60065Y-254600D01*
X59135Y-253767D01*
X58050Y-253350D01*
X56810Y-253767D01*
X55880Y-254600D01*
X55260Y-255850D01*
X54950Y-257517D01*
X55260Y-258975D01*
X56035Y-260433D01*
X56965Y-261267D01*
X58050Y-261475D01*
X59290Y-261059D01*
X60220Y-260017D01*
X61150Y-258142D01*
G01X67040Y-263350D02*
X67970Y-264809D01*
X69210Y-265642D01*
X70605Y-265850D01*
X71845Y-265642D01*
X73085Y-264600D01*
X73860Y-263350D01*
X74015Y-262100D01*
X73705Y-260642D01*
X72620Y-259600D01*
X71535Y-259183D01*
X70140D01*
G01X71535D02*
X72465Y-258558D01*
X73240Y-257517D01*
X73550Y-256267D01*
X73240Y-255017D01*
X72465Y-253975D01*
X71070Y-253350D01*
X69675Y-253558D01*
X68280Y-254392D01*
G01X80525Y-257517D02*
X85175Y-265850D01*
G01Y-257517D02*
X80525Y-265850D01*
G01X92305Y-255433D02*
X93235Y-254184D01*
X94320Y-253558D01*
X95560Y-253350D01*
X97110Y-253767D01*
X98195Y-254808D01*
X98505Y-256058D01*
X98350Y-257309D01*
X97730Y-258350D01*
X94630Y-260433D01*
X93235Y-261892D01*
X92305Y-263975D01*
X91995Y-265850D01*
X98505D01*
G01X104240Y-263350D02*
X105170Y-264809D01*
X106410Y-265642D01*
X107805Y-265850D01*
X109045Y-265642D01*
X110285Y-264600D01*
X111060Y-263350D01*
X111215Y-262100D01*
X110905Y-260642D01*
X109820Y-259600D01*
X108735Y-259183D01*
X107340D01*
G01X108735D02*
X109665Y-258558D01*
X110440Y-257517D01*
X110750Y-256267D01*
X110440Y-255017D01*
X109665Y-253975D01*
X108270Y-253350D01*
X106875Y-253558D01*
X105480Y-254392D01*
G01X120050Y-266267D02*
X119740Y-266058D01*
Y-265642D01*
X120050Y-265433D01*
X120360Y-265642D01*
Y-266058D01*
X120050Y-266267D01*
G01X129505Y-260642D02*
X130590Y-259183D01*
X131520Y-258350D01*
X132760Y-257933D01*
X133845Y-258350D01*
X134620Y-259183D01*
X135240Y-260433D01*
X135395Y-261892D01*
X135240Y-263142D01*
X134620Y-264392D01*
X133690Y-265433D01*
X132605Y-265850D01*
X131365Y-265433D01*
X130280Y-264184D01*
X129660Y-262308D01*
X129505Y-260225D01*
X129815Y-257517D01*
X130280Y-256058D01*
X131055Y-254600D01*
X132140Y-253558D01*
X133225Y-253350D01*
X134310Y-253767D01*
X135085Y-254808D01*
G01X141905Y-255433D02*
X142835Y-254184D01*
X143920Y-253558D01*
X145160Y-253350D01*
X146710Y-253767D01*
X147795Y-254808D01*
X148105Y-256058D01*
X147950Y-257309D01*
X147330Y-258350D01*
X144230Y-260433D01*
X142835Y-261892D01*
X141905Y-263975D01*
X141595Y-265850D01*
X148105D01*
G01X5505Y-115850D02*
Y-103350D01*
X11395D01*
G01X9225Y-109392D02*
X5505D01*
G01X18990Y-103350D02*
X22710D01*
G01X20850D02*
Y-115850D01*
G01X18990D02*
X22710D01*
G01X29685D02*
Y-103350D01*
X36815Y-115850D01*
Y-103350D01*
G01X43790D02*
X47510D01*
G01X45650D02*
Y-115850D01*
G01X43790D02*
X47510D01*
G01X54795Y-114184D02*
X56035Y-115225D01*
X57430Y-115850D01*
X58670D01*
X59910Y-115225D01*
X60840Y-114184D01*
X61305Y-112725D01*
X60995Y-111267D01*
X60220Y-110017D01*
X58825Y-109183D01*
X56965Y-108767D01*
X55880Y-107933D01*
X55415Y-106475D01*
X55725Y-105017D01*
X56500Y-103975D01*
X57585Y-103350D01*
X58670D01*
X59755Y-103767D01*
X60685Y-104808D01*
G01X67195Y-115850D02*
Y-103350D01*
G01X73705D02*
Y-115850D01*
G01Y-109600D02*
X67195D01*
G01X85950Y-115850D02*
X79750D01*
Y-103350D01*
X85950D01*
G01X83470Y-109392D02*
X79750D01*
G01X91840Y-115850D02*
Y-103350D01*
X94940D01*
X96180Y-103975D01*
X97110Y-104808D01*
X97885Y-106058D01*
X98505Y-107517D01*
X98660Y-109600D01*
X98505Y-111683D01*
X97885Y-113142D01*
X97110Y-114392D01*
X96180Y-115225D01*
X94940Y-115850D01*
X91840D01*
G01X103000Y-120017D02*
X112300D01*
G01X116795Y-114184D02*
X118035Y-115225D01*
X119430Y-115850D01*
X120670D01*
X121910Y-115225D01*
X122840Y-114184D01*
X123305Y-112725D01*
X122995Y-111267D01*
X122220Y-110017D01*
X120825Y-109183D01*
X118965Y-108767D01*
X117880Y-107933D01*
X117415Y-106475D01*
X117725Y-105017D01*
X118500Y-103975D01*
X119585Y-103350D01*
X120670D01*
X121755Y-103767D01*
X122685Y-104808D01*
G01X130590Y-103350D02*
X134310D01*
G01X132450D02*
Y-115850D01*
G01X130590D02*
X134310D01*
G01X141905Y-103350D02*
X147795D01*
X141905Y-115850D01*
X147795D01*
G01X160350D02*
X154150D01*
Y-103350D01*
X160350D01*
G01X157870Y-109392D02*
X154150D01*
G01X12325Y-90850D02*
X16200Y-78350D01*
X20075Y-90850D01*
G01X18680Y-86475D02*
X13720D01*
G01X25500Y-78350D02*
Y-90850D01*
X31700D01*
G01X37900Y-78350D02*
Y-90850D01*
X44100D01*
G01X62390Y-78350D02*
Y-87308D01*
X63010Y-89184D01*
X64250Y-90433D01*
X65800Y-90850D01*
X67350Y-90433D01*
X68590Y-89184D01*
X69210Y-87308D01*
Y-78350D01*
G01X74635Y-90850D02*
Y-78350D01*
X81765Y-90850D01*
Y-78350D01*
G01X88740D02*
X92460D01*
G01X90600D02*
Y-90850D01*
G01X88740D02*
X92460D01*
G01X103000Y-78350D02*
Y-90850D01*
G01X99435Y-78350D02*
X106565D01*
G01X112145Y-89184D02*
X113385Y-90225D01*
X114780Y-90850D01*
X116020D01*
X117260Y-90225D01*
X118190Y-89184D01*
X118655Y-87725D01*
X118345Y-86267D01*
X117570Y-85017D01*
X116175Y-84183D01*
X114315Y-83767D01*
X113230Y-82933D01*
X112765Y-81475D01*
X113075Y-80017D01*
X113850Y-78975D01*
X114935Y-78350D01*
X116020D01*
X117105Y-78767D01*
X118035Y-79808D01*
G01X136325Y-90850D02*
X140200Y-78350D01*
X144075Y-90850D01*
G01X142680Y-86475D02*
X137720D01*
G01X149500Y-90850D02*
Y-78350D01*
X153375D01*
X154615Y-78975D01*
X155390Y-79808D01*
X155700Y-81475D01*
X155390Y-83142D01*
X154460Y-84183D01*
X153375Y-84808D01*
X149500D01*
G01X153375D02*
X155700Y-90850D01*
G01X168100D02*
X161900D01*
Y-78350D01*
X168100D01*
G01X165620Y-84392D02*
X161900D01*
G01X187940Y-78350D02*
X191660D01*
G01X189800D02*
Y-90850D01*
G01X187940D02*
X191660D01*
G01X198635D02*
Y-78350D01*
X205765Y-90850D01*
Y-78350D01*
G01X222970Y-90850D02*
Y-78350D01*
X227000Y-88767D01*
X231030Y-78350D01*
Y-90850D01*
G01X237540Y-78350D02*
X241260D01*
G01X239400D02*
Y-90850D01*
G01X237540D02*
X241260D01*
G01X248700Y-78350D02*
Y-90850D01*
X254900D01*
G01X260945Y-89184D02*
X262185Y-90225D01*
X263580Y-90850D01*
X264820D01*
X266060Y-90225D01*
X266990Y-89184D01*
X267455Y-87725D01*
X267145Y-86267D01*
X266370Y-85017D01*
X264975Y-84183D01*
X263115Y-83767D01*
X262030Y-82933D01*
X261565Y-81475D01*
X261875Y-80017D01*
X262650Y-78975D01*
X263735Y-78350D01*
X264820D01*
X265905Y-78767D01*
X266835Y-79808D01*
G01X55105Y-230433D02*
X56035Y-229184D01*
X57120Y-228558D01*
X58360Y-228350D01*
X59910Y-228767D01*
X60995Y-229808D01*
X61305Y-231058D01*
X61150Y-232309D01*
X60530Y-233350D01*
X57430Y-235433D01*
X56035Y-236892D01*
X55105Y-238975D01*
X54795Y-240850D01*
X61305D01*
G01X67040Y-238975D02*
X67970Y-240017D01*
X69055Y-240642D01*
X70450Y-240850D01*
X71845Y-240433D01*
X72930Y-239600D01*
X73705Y-238142D01*
X73860Y-236475D01*
X73550Y-234808D01*
X72775Y-233767D01*
X71690Y-232933D01*
X70605Y-232725D01*
X69520Y-232933D01*
X68125Y-233767D01*
X68590Y-228350D01*
X72775D01*
G01X82850Y-241267D02*
X82540Y-241058D01*
Y-240642D01*
X82850Y-240433D01*
X83160Y-240642D01*
Y-241058D01*
X82850Y-241267D01*
G01X91840Y-238975D02*
X92770Y-240017D01*
X93855Y-240642D01*
X95250Y-240850D01*
X96645Y-240433D01*
X97730Y-239600D01*
X98505Y-238142D01*
X98660Y-236475D01*
X98350Y-234808D01*
X97575Y-233767D01*
X96490Y-232933D01*
X95405Y-232725D01*
X94320Y-232933D01*
X92925Y-233767D01*
X93390Y-228350D01*
X97575D01*
G01X105015Y-239392D02*
X106100Y-240433D01*
X107340Y-240850D01*
X108580Y-240433D01*
X109665Y-239184D01*
X110440Y-237308D01*
X110750Y-235433D01*
Y-233142D01*
X110440Y-231267D01*
X109665Y-229600D01*
X108735Y-228767D01*
X107650Y-228350D01*
X106410Y-228767D01*
X105480Y-229600D01*
X104860Y-230850D01*
X104550Y-232517D01*
X104860Y-233975D01*
X105635Y-235433D01*
X106565Y-236267D01*
X107650Y-236475D01*
X108890Y-236059D01*
X109820Y-235017D01*
X110750Y-233142D01*
G01X54640Y-213975D02*
X55570Y-215017D01*
X56655Y-215642D01*
X58050Y-215850D01*
X59445Y-215433D01*
X60530Y-214600D01*
X61305Y-213142D01*
X61460Y-211475D01*
X61150Y-209808D01*
X60375Y-208767D01*
X59290Y-207933D01*
X58205Y-207725D01*
X57120Y-207933D01*
X55725Y-208767D01*
X56190Y-203350D01*
X60375D01*
G01X67040Y-213975D02*
X67970Y-215017D01*
X69055Y-215642D01*
X70450Y-215850D01*
X71845Y-215433D01*
X72930Y-214600D01*
X73705Y-213142D01*
X73860Y-211475D01*
X73550Y-209808D01*
X72775Y-208767D01*
X71690Y-207933D01*
X70605Y-207725D01*
X69520Y-207933D01*
X68125Y-208767D01*
X68590Y-203350D01*
X72775D01*
G01X82850Y-216267D02*
X82540Y-216058D01*
Y-215642D01*
X82850Y-215433D01*
X83160Y-215642D01*
Y-216058D01*
X82850Y-216267D01*
G01X95250Y-215850D02*
Y-203350D01*
X93390Y-205850D01*
G01Y-215850D02*
X97110D01*
G01X104705Y-205433D02*
X105635Y-204184D01*
X106720Y-203558D01*
X107960Y-203350D01*
X109510Y-203767D01*
X110595Y-204808D01*
X110905Y-206058D01*
X110750Y-207309D01*
X110130Y-208350D01*
X107030Y-210433D01*
X105635Y-211892D01*
X104705Y-213975D01*
X104395Y-215850D01*
X110905D01*
G01X59910Y-190850D02*
Y-178350D01*
X54175Y-187308D01*
X61925D01*
G01X67040Y-188350D02*
X67970Y-189809D01*
X69210Y-190642D01*
X70605Y-190850D01*
X71845Y-190642D01*
X73085Y-189600D01*
X73860Y-188350D01*
X74015Y-187100D01*
X73705Y-185642D01*
X72620Y-184600D01*
X71535Y-184183D01*
X70140D01*
G01X71535D02*
X72465Y-183558D01*
X73240Y-182517D01*
X73550Y-181267D01*
X73240Y-180017D01*
X72465Y-178975D01*
X71070Y-178350D01*
X69675Y-178558D01*
X68280Y-179392D01*
G01X82850Y-191267D02*
X82540Y-191058D01*
Y-190642D01*
X82850Y-190433D01*
X83160Y-190642D01*
Y-191058D01*
X82850Y-191267D01*
G01X91840Y-188350D02*
X92770Y-189809D01*
X94010Y-190642D01*
X95405Y-190850D01*
X96645Y-190642D01*
X97885Y-189600D01*
X98660Y-188350D01*
X98815Y-187100D01*
X98505Y-185642D01*
X97420Y-184600D01*
X96335Y-184183D01*
X94940D01*
G01X96335D02*
X97265Y-183558D01*
X98040Y-182517D01*
X98350Y-181267D01*
X98040Y-180017D01*
X97265Y-178975D01*
X95870Y-178350D01*
X94475Y-178558D01*
X93080Y-179392D01*
G01X107650Y-190850D02*
Y-178350D01*
X105790Y-180850D01*
G01Y-190850D02*
X109510D01*
G01X59910Y-165850D02*
Y-153350D01*
X54175Y-162308D01*
X61925D01*
G01X70450Y-165850D02*
Y-153350D01*
X68590Y-155850D01*
G01Y-165850D02*
X72310D01*
G01X82850Y-166267D02*
X82540Y-166058D01*
Y-165642D01*
X82850Y-165433D01*
X83160Y-165642D01*
Y-166058D01*
X82850Y-166267D01*
G01X91840Y-163350D02*
X92770Y-164809D01*
X94010Y-165642D01*
X95405Y-165850D01*
X96645Y-165642D01*
X97885Y-164600D01*
X98660Y-163350D01*
X98815Y-162100D01*
X98505Y-160642D01*
X97420Y-159600D01*
X96335Y-159183D01*
X94940D01*
G01X96335D02*
X97265Y-158558D01*
X98040Y-157517D01*
X98350Y-156267D01*
X98040Y-155017D01*
X97265Y-153975D01*
X95870Y-153350D01*
X94475Y-153558D01*
X93080Y-154392D01*
G01X109510Y-165850D02*
Y-153350D01*
X103775Y-162308D01*
X111525D01*
G01X58050Y-140850D02*
Y-128350D01*
X56190Y-130850D01*
G01Y-140850D02*
X59910D01*
G01X70450D02*
Y-128350D01*
X68590Y-130850D01*
G01Y-140850D02*
X72310D01*
G01X82850Y-141267D02*
X82540Y-141058D01*
Y-140642D01*
X82850Y-140433D01*
X83160Y-140642D01*
Y-141058D01*
X82850Y-141267D01*
G01X95250Y-140850D02*
X96335Y-140642D01*
X97575Y-140017D01*
X98350Y-138975D01*
X98660Y-137517D01*
X98350Y-136059D01*
X97420Y-134808D01*
X96025Y-134183D01*
X94475D01*
X93545Y-133767D01*
X92770Y-132725D01*
X92460Y-131267D01*
X92925Y-129808D01*
X94010Y-128767D01*
X95250Y-128350D01*
X96490Y-128767D01*
X97575Y-129808D01*
X98040Y-131267D01*
X97730Y-132725D01*
X96955Y-133767D01*
X96025Y-134183D01*
X94475D01*
X93080Y-134808D01*
X92150Y-136059D01*
X91840Y-137517D01*
X92150Y-138975D01*
X92925Y-140017D01*
X94165Y-140642D01*
X95250Y-140850D01*
G01X107650D02*
Y-128350D01*
X105790Y-130850D01*
G01Y-140850D02*
X109510D01*
G01X78955Y-12333D02*
X79885Y-11084D01*
X80970Y-10458D01*
X82210Y-10250D01*
X83760Y-10667D01*
X84845Y-11708D01*
X85155Y-12958D01*
X85000Y-14209D01*
X84380Y-15250D01*
X81280Y-17333D01*
X79885Y-18792D01*
X78955Y-20875D01*
X78645Y-22750D01*
X85155D01*
G01X94300Y-23167D02*
X93990Y-22958D01*
Y-22542D01*
X94300Y-22333D01*
X94610Y-22542D01*
Y-22958D01*
X94300Y-23167D01*
G01X103290Y-20250D02*
X104220Y-21709D01*
X105460Y-22542D01*
X106855Y-22750D01*
X108095Y-22542D01*
X109335Y-21500D01*
X110110Y-20250D01*
X110265Y-19000D01*
X109955Y-17542D01*
X108870Y-16500D01*
X107785Y-16083D01*
X106390D01*
G01X107785D02*
X108715Y-15458D01*
X109490Y-14417D01*
X109800Y-13167D01*
X109490Y-11917D01*
X108715Y-10875D01*
X107320Y-10250D01*
X105925Y-10458D01*
X104530Y-11292D01*
G01X116155Y-17542D02*
X117240Y-16083D01*
X118170Y-15250D01*
X119410Y-14833D01*
X120495Y-15250D01*
X121270Y-16083D01*
X121890Y-17333D01*
X122045Y-18792D01*
X121890Y-20042D01*
X121270Y-21292D01*
X120340Y-22333D01*
X119255Y-22750D01*
X118015Y-22333D01*
X116930Y-21084D01*
X116310Y-19208D01*
X116155Y-17125D01*
X116465Y-14417D01*
X116930Y-12958D01*
X117705Y-11500D01*
X118790Y-10458D01*
X119875Y-10250D01*
X120960Y-10667D01*
X121735Y-11708D01*
G01X150455Y-17542D02*
X151540Y-16083D01*
X152470Y-15250D01*
X153710Y-14833D01*
X154795Y-15250D01*
X155570Y-16083D01*
X156190Y-17333D01*
X156345Y-18792D01*
X156190Y-20042D01*
X155570Y-21292D01*
X154640Y-22333D01*
X153555Y-22750D01*
X152315Y-22333D01*
X151230Y-21084D01*
X150610Y-19208D01*
X150455Y-17125D01*
X150765Y-14417D01*
X151230Y-12958D01*
X152005Y-11500D01*
X153090Y-10458D01*
X154175Y-10250D01*
X155260Y-10667D01*
X156035Y-11708D01*
G01X165800Y-10250D02*
X164560Y-10667D01*
X163630Y-11708D01*
X163010Y-12958D01*
X162545Y-14625D01*
X162390Y-16500D01*
X162545Y-18375D01*
X163010Y-20042D01*
X163630Y-21292D01*
X164560Y-22333D01*
X165800Y-22750D01*
X167040Y-22333D01*
X167970Y-21292D01*
X168590Y-20042D01*
X169055Y-18375D01*
X169210Y-16500D01*
X169055Y-14625D01*
X168590Y-12958D01*
X167970Y-11708D01*
X167040Y-10667D01*
X165800Y-10250D01*
G01X144100Y-22750D02*
X139450D01*
Y-10250D01*
X144100D01*
G01X175100Y-22750D02*
X179750D01*
Y-10250D01*
X175100D01*
G01X183600Y-97100D02*
Y-272100D01*
G01X187785Y-240850D02*
Y-228350D01*
X194915Y-240850D01*
Y-228350D01*
G01X203750Y-240850D02*
X202510Y-240642D01*
X201425Y-239809D01*
X200495Y-238558D01*
X199875Y-237100D01*
X199565Y-235433D01*
Y-233767D01*
X199875Y-232100D01*
X200495Y-230642D01*
X201425Y-229392D01*
X202510Y-228558D01*
X203750Y-228350D01*
X204990Y-228558D01*
X206075Y-229392D01*
X207005Y-230642D01*
X207625Y-232100D01*
X207935Y-233767D01*
Y-235433D01*
X207625Y-237100D01*
X207005Y-238558D01*
X206075Y-239809D01*
X204990Y-240642D01*
X203750Y-240850D01*
G01X212585D02*
Y-228350D01*
X219715Y-240850D01*
Y-228350D01*
G01X226535Y-236683D02*
X230565D01*
G01X237850Y-240850D02*
Y-228350D01*
X241570D01*
X242810Y-228975D01*
X243740Y-230433D01*
X244050Y-232100D01*
X243740Y-233767D01*
X242965Y-235017D01*
X241570Y-235642D01*
X237850D01*
G01X250250Y-228350D02*
Y-240850D01*
X256450D01*
G01X261875D02*
X265750Y-228350D01*
X269625Y-240850D01*
G01X268230Y-236475D02*
X263270D01*
G01X278150Y-228350D02*
Y-240850D01*
G01X274585Y-228350D02*
X281715D01*
G01X293650Y-240850D02*
X287450D01*
Y-228350D01*
X293650D01*
G01X291170Y-234392D02*
X287450D01*
G01X299540Y-240850D02*
Y-228350D01*
X302640D01*
X303880Y-228975D01*
X304810Y-229808D01*
X305585Y-231058D01*
X306205Y-232517D01*
X306360Y-234600D01*
X306205Y-236683D01*
X305585Y-238142D01*
X304810Y-239392D01*
X303880Y-240225D01*
X302640Y-240850D01*
X299540D01*
G01X189125Y-16500D02*
X236220D01*
G01X213050Y-265850D02*
Y-253350D01*
X216770D01*
X218010Y-253975D01*
X218940Y-255433D01*
X219250Y-257100D01*
X218940Y-258767D01*
X218165Y-260017D01*
X216770Y-260642D01*
X213050D01*
G01X225450Y-253350D02*
Y-265850D01*
X231650D01*
G01X237075D02*
X240950Y-253350D01*
X244825Y-265850D01*
G01X243430Y-261475D02*
X238470D01*
G01X253350Y-253350D02*
Y-265850D01*
G01X249785Y-253350D02*
X256915D01*
G01X268850Y-265850D02*
X262650D01*
Y-253350D01*
X268850D01*
G01X266370Y-259392D02*
X262650D01*
G01X274740Y-265850D02*
Y-253350D01*
X277840D01*
X279080Y-253975D01*
X280010Y-254808D01*
X280785Y-256058D01*
X281405Y-257517D01*
X281560Y-259600D01*
X281405Y-261683D01*
X280785Y-263142D01*
X280010Y-264392D01*
X279080Y-265225D01*
X277840Y-265850D01*
X274740D01*
G01X213050Y-215850D02*
Y-203350D01*
X216770D01*
X218010Y-203975D01*
X218940Y-205433D01*
X219250Y-207100D01*
X218940Y-208767D01*
X218165Y-210017D01*
X216770Y-210642D01*
X213050D01*
G01X225450Y-203350D02*
Y-215850D01*
X231650D01*
G01X237075D02*
X240950Y-203350D01*
X244825Y-215850D01*
G01X243430Y-211475D02*
X238470D01*
G01X253350Y-203350D02*
Y-215850D01*
G01X249785Y-203350D02*
X256915D01*
G01X268850Y-215850D02*
X262650D01*
Y-203350D01*
X268850D01*
G01X266370Y-209392D02*
X262650D01*
G01X274740Y-215850D02*
Y-203350D01*
X277840D01*
X279080Y-203975D01*
X280010Y-204808D01*
X280785Y-206058D01*
X281405Y-207517D01*
X281560Y-209600D01*
X281405Y-211683D01*
X280785Y-213142D01*
X280010Y-214392D01*
X279080Y-215225D01*
X277840Y-215850D01*
X274740D01*
G01X213050Y-190850D02*
Y-178350D01*
X216770D01*
X218010Y-178975D01*
X218940Y-180433D01*
X219250Y-182100D01*
X218940Y-183767D01*
X218165Y-185017D01*
X216770Y-185642D01*
X213050D01*
G01X225450Y-178350D02*
Y-190850D01*
X231650D01*
G01X237075D02*
X240950Y-178350D01*
X244825Y-190850D01*
G01X243430Y-186475D02*
X238470D01*
G01X253350Y-178350D02*
Y-190850D01*
G01X249785Y-178350D02*
X256915D01*
G01X268850Y-190850D02*
X262650D01*
Y-178350D01*
X268850D01*
G01X266370Y-184392D02*
X262650D01*
G01X274740Y-190850D02*
Y-178350D01*
X277840D01*
X279080Y-178975D01*
X280010Y-179808D01*
X280785Y-181058D01*
X281405Y-182517D01*
X281560Y-184600D01*
X281405Y-186683D01*
X280785Y-188142D01*
X280010Y-189392D01*
X279080Y-190225D01*
X277840Y-190850D01*
X274740D01*
G01X213050Y-165850D02*
Y-153350D01*
X216770D01*
X218010Y-153975D01*
X218940Y-155433D01*
X219250Y-157100D01*
X218940Y-158767D01*
X218165Y-160017D01*
X216770Y-160642D01*
X213050D01*
G01X225450Y-153350D02*
Y-165850D01*
X231650D01*
G01X237075D02*
X240950Y-153350D01*
X244825Y-165850D01*
G01X243430Y-161475D02*
X238470D01*
G01X253350Y-153350D02*
Y-165850D01*
G01X249785Y-153350D02*
X256915D01*
G01X268850Y-165850D02*
X262650D01*
Y-153350D01*
X268850D01*
G01X266370Y-159392D02*
X262650D01*
G01X274740Y-165850D02*
Y-153350D01*
X277840D01*
X279080Y-153975D01*
X280010Y-154808D01*
X280785Y-156058D01*
X281405Y-157517D01*
X281560Y-159600D01*
X281405Y-161683D01*
X280785Y-163142D01*
X280010Y-164392D01*
X279080Y-165225D01*
X277840Y-165850D01*
X274740D01*
G01X213050Y-140850D02*
Y-128350D01*
X216770D01*
X218010Y-128975D01*
X218940Y-130433D01*
X219250Y-132100D01*
X218940Y-133767D01*
X218165Y-135017D01*
X216770Y-135642D01*
X213050D01*
G01X225450Y-128350D02*
Y-140850D01*
X231650D01*
G01X237075D02*
X240950Y-128350D01*
X244825Y-140850D01*
G01X243430Y-136475D02*
X238470D01*
G01X253350Y-128350D02*
Y-140850D01*
G01X249785Y-128350D02*
X256915D01*
G01X268850Y-140850D02*
X262650D01*
Y-128350D01*
X268850D01*
G01X266370Y-134392D02*
X262650D01*
G01X274740Y-140850D02*
Y-128350D01*
X277840D01*
X279080Y-128975D01*
X280010Y-129808D01*
X280785Y-131058D01*
X281405Y-132517D01*
X281560Y-134600D01*
X281405Y-136683D01*
X280785Y-138142D01*
X280010Y-139392D01*
X279080Y-140225D01*
X277840Y-140850D01*
X274740D01*
G01X213050Y-115850D02*
Y-103350D01*
X216770D01*
X218010Y-103975D01*
X218940Y-105433D01*
X219250Y-107100D01*
X218940Y-108767D01*
X218165Y-110017D01*
X216770Y-110642D01*
X213050D01*
G01X225450Y-103350D02*
Y-115850D01*
X231650D01*
G01X237075D02*
X240950Y-103350D01*
X244825Y-115850D01*
G01X243430Y-111475D02*
X238470D01*
G01X253350Y-103350D02*
Y-115850D01*
G01X249785Y-103350D02*
X256915D01*
G01X268850Y-115850D02*
X262650D01*
Y-103350D01*
X268850D01*
G01X266370Y-109392D02*
X262650D01*
G01X274740Y-115850D02*
Y-103350D01*
X277840D01*
X279080Y-103975D01*
X280010Y-104808D01*
X280785Y-106058D01*
X281405Y-107517D01*
X281560Y-109600D01*
X281405Y-111683D01*
X280785Y-113142D01*
X280010Y-114392D01*
X279080Y-115225D01*
X277840Y-115850D01*
X274740D01*
G01X236220Y29218D02*
Y-26343D01*
G01X220472Y-18960D02*
X236220Y-16500D01*
X220472Y-14040D01*
Y-18960D01*
G01X310700Y-97100D02*
Y-272100D01*
G01X334105Y-130433D02*
X335035Y-129184D01*
X336120Y-128558D01*
X337360Y-128350D01*
X338910Y-128767D01*
X339995Y-129808D01*
X340305Y-131058D01*
X340150Y-132309D01*
X339530Y-133350D01*
X336430Y-135433D01*
X335035Y-136892D01*
X334105Y-138975D01*
X333795Y-140850D01*
X340305D01*
G01X349450Y-128350D02*
X348210Y-128767D01*
X347280Y-129808D01*
X346660Y-131058D01*
X346195Y-132725D01*
X346040Y-134600D01*
X346195Y-136475D01*
X346660Y-138142D01*
X347280Y-139392D01*
X348210Y-140433D01*
X349450Y-140850D01*
X350690Y-140433D01*
X351620Y-139392D01*
X352240Y-138142D01*
X352705Y-136475D01*
X352860Y-134600D01*
X352705Y-132725D01*
X352240Y-131058D01*
X351620Y-129808D01*
X350690Y-128767D01*
X349450Y-128350D01*
G01X361850Y-140850D02*
X362935Y-140642D01*
X364175Y-140017D01*
X364950Y-138975D01*
X365260Y-137517D01*
X364950Y-136059D01*
X364020Y-134808D01*
X362625Y-134183D01*
X361075D01*
X360145Y-133767D01*
X359370Y-132725D01*
X359060Y-131267D01*
X359525Y-129808D01*
X360610Y-128767D01*
X361850Y-128350D01*
X363090Y-128767D01*
X364175Y-129808D01*
X364640Y-131267D01*
X364330Y-132725D01*
X363555Y-133767D01*
X362625Y-134183D01*
X361075D01*
X359680Y-134808D01*
X358750Y-136059D01*
X358440Y-137517D01*
X358750Y-138975D01*
X359525Y-140017D01*
X360765Y-140642D01*
X361850Y-140850D01*
G01X337050Y-115850D02*
X335810Y-115642D01*
X334725Y-114809D01*
X333795Y-113558D01*
X333175Y-112100D01*
X332865Y-110433D01*
Y-108767D01*
X333175Y-107100D01*
X333795Y-105642D01*
X334725Y-104392D01*
X335810Y-103558D01*
X337050Y-103350D01*
X338290Y-103558D01*
X339375Y-104392D01*
X340305Y-105642D01*
X340925Y-107100D01*
X341235Y-108767D01*
Y-110433D01*
X340925Y-112100D01*
X340305Y-113558D01*
X339375Y-114809D01*
X338290Y-115642D01*
X337050Y-115850D01*
G01X338290Y-112517D02*
X340150Y-115850D01*
G01X349450Y-103350D02*
Y-115850D01*
G01X345885Y-103350D02*
X353015D01*
G01X361850Y-115850D02*
Y-110225D01*
X358750Y-103350D01*
G01X364950D02*
X361850Y-110225D01*
G01X351310Y-265850D02*
Y-253350D01*
X345575Y-262308D01*
X353325D01*
G01X346505Y-230433D02*
X347435Y-229184D01*
X348520Y-228558D01*
X349760Y-228350D01*
X351310Y-228767D01*
X352395Y-229808D01*
X352705Y-231058D01*
X352550Y-232309D01*
X351930Y-233350D01*
X348830Y-235433D01*
X347435Y-236892D01*
X346505Y-238975D01*
X346195Y-240850D01*
X352705D01*
G01X351310Y-215850D02*
Y-203350D01*
X345575Y-212308D01*
X353325D01*
G01X339840Y-188350D02*
X340770Y-189809D01*
X342010Y-190642D01*
X343405Y-190850D01*
X344645Y-190642D01*
X345885Y-189600D01*
X346660Y-188350D01*
X346815Y-187100D01*
X346505Y-185642D01*
X345420Y-184600D01*
X344335Y-184183D01*
X342940D01*
G01X344335D02*
X345265Y-183558D01*
X346040Y-182517D01*
X346350Y-181267D01*
X346040Y-180017D01*
X345265Y-178975D01*
X343870Y-178350D01*
X342475Y-178558D01*
X341080Y-179392D01*
G01X357510Y-190850D02*
Y-178350D01*
X351775Y-187308D01*
X359525D01*
G01X349450Y-165850D02*
X350535Y-165642D01*
X351775Y-165017D01*
X352550Y-163975D01*
X352860Y-162517D01*
X352550Y-161059D01*
X351620Y-159808D01*
X350225Y-159183D01*
X348675D01*
X347745Y-158767D01*
X346970Y-157725D01*
X346660Y-156267D01*
X347125Y-154808D01*
X348210Y-153767D01*
X349450Y-153350D01*
X350690Y-153767D01*
X351775Y-154808D01*
X352240Y-156267D01*
X351930Y-157725D01*
X351155Y-158767D01*
X350225Y-159183D01*
X348675D01*
X347280Y-159808D01*
X346350Y-161059D01*
X346040Y-162517D01*
X346350Y-163975D01*
X347125Y-165017D01*
X348365Y-165642D01*
X349450Y-165850D01*
M02*
