G04 ================== begin FILE IDENTIFICATION RECORD ==================*
G04 Layout Name:  F:/ST-LINK-V2/Hardware/allegro/st-link-v2_pro.brd*
G04 Film Name:    SILKSCREEN_BOTTOM*
G04 File Format:  Gerber RS274X*
G04 File Origin:  Cadence Allegro 17.4-S035*
G04 Origin Date:  Sun Nov 26 22:21:57 2023*
G04 *
G04 Layer:  REF DES/SILKSCREEN_BOTTOM*
G04 Layer:  PACKAGE GEOMETRY/SILKSCREEN_BOTTOM*
G04 Layer:  BOARD GEOMETRY/SILKSCREEN_BOTTOM*
G04 Layer:  BOARD GEOMETRY/DESIGN_OUTLINE*
G04 *
G04 Offset:    (0.00 0.00)*
G04 Mirror:    No*
G04 Mode:      Positive*
G04 Rotation:  0*
G04 FullContactRelief:  No*
G04 UndefLineWidth:     6.00*
G04 ================== end FILE IDENTIFICATION RECORD ====================*
%FSLAX25Y25*MOIN*%
%IR0*IPPOS*OFA0.00000B0.00000*MIA0B0*SFA1.00000B1.00000*%
%ADD10C,.006*%
%ADD11C,.008*%
G75*
%LPD*%
G75*
G54D10*
G01X0Y5906D02*
Y112205D01*
G02X5906Y118110I5905J0D01*
G01X230315D01*
G02X236220Y112205I0J-5905D01*
G01Y5906D01*
G02X230315Y0I-5905J-1D01*
G01X5906D01*
G02X0Y5906I0J5906D01*
G01X40500Y111500D02*
Y113500D01*
X37500D01*
Y111500D01*
G01X38950Y112300D02*
Y113500D01*
G01X40050Y110000D02*
X40300Y109700D01*
X40450Y109350D01*
X40500Y108900D01*
X40400Y108450D01*
X40200Y108100D01*
X39850Y107850D01*
X39450Y107800D01*
X39050Y107900D01*
X38800Y108150D01*
X38600Y108500D01*
X38550Y108850D01*
X38600Y109200D01*
X38800Y109650D01*
X37500Y109500D01*
Y108150D01*
G01Y106550D02*
X40500Y105300D01*
X37500Y104050D01*
G01X49000Y112200D02*
Y111200D01*
X49900D01*
X50200Y111500D01*
X50400Y111850D01*
X50500Y112350D01*
X50400Y112850D01*
X50200Y113200D01*
X49900Y113500D01*
X49550Y113700D01*
X49150Y113800D01*
X48800D01*
X48500Y113700D01*
X48150Y113500D01*
X47850Y113200D01*
X47650Y112900D01*
X47500Y112500D01*
Y112150D01*
X47600Y111750D01*
X47800Y111450D01*
G01X50500Y110050D02*
X47500D01*
X50500Y107750D01*
X47500D01*
G01X50500Y106400D02*
X47500D01*
Y105400D01*
X47650Y105000D01*
X47850Y104700D01*
X48150Y104450D01*
X48500Y104250D01*
X49000Y104200D01*
X49500Y104250D01*
X49850Y104450D01*
X50150Y104700D01*
X50350Y105000D01*
X50500Y105400D01*
Y106400D01*
G01X61900Y113600D02*
X62250Y113300D01*
X62450Y112900D01*
X62500Y112450D01*
X62450Y112050D01*
X62200Y111650D01*
X61900Y111400D01*
X61600Y111350D01*
X61250Y111450D01*
X61000Y111800D01*
X60900Y112150D01*
Y112600D01*
G01Y112150D02*
X60750Y111850D01*
X60500Y111600D01*
X60200Y111500D01*
X59900Y111600D01*
X59650Y111850D01*
X59500Y112300D01*
X59550Y112750D01*
X59750Y113200D01*
G01X59500Y110150D02*
X62500Y108900D01*
X59500Y107650D01*
G01X61900Y106400D02*
X62250Y106100D01*
X62450Y105700D01*
X62500Y105250D01*
X62450Y104850D01*
X62200Y104450D01*
X61900Y104200D01*
X61600Y104150D01*
X61250Y104250D01*
X61000Y104600D01*
X60900Y104950D01*
Y105400D01*
G01Y104950D02*
X60750Y104650D01*
X60500Y104400D01*
X60200Y104300D01*
X59900Y104400D01*
X59650Y104650D01*
X59500Y105100D01*
X59550Y105550D01*
X59750Y106000D01*
G01X65900Y20100D02*
X66250Y19800D01*
X66450Y19400D01*
X66500Y18950D01*
X66450Y18550D01*
X66200Y18150D01*
X65900Y17900D01*
X65600Y17850D01*
X65250Y17950D01*
X65000Y18300D01*
X64900Y18650D01*
Y19100D01*
G01Y18650D02*
X64750Y18350D01*
X64500Y18100D01*
X64200Y18000D01*
X63900Y18100D01*
X63650Y18350D01*
X63500Y18800D01*
X63550Y19250D01*
X63750Y19700D01*
G01X63500Y16650D02*
X66500Y15400D01*
X63500Y14150D01*
G01X65900Y12900D02*
X66250Y12600D01*
X66450Y12200D01*
X66500Y11750D01*
X66450Y11350D01*
X66200Y10950D01*
X65900Y10700D01*
X65600Y10650D01*
X65250Y10750D01*
X65000Y11100D01*
X64900Y11450D01*
Y11900D01*
G01Y11450D02*
X64750Y11150D01*
X64500Y10900D01*
X64200Y10800D01*
X63900Y10900D01*
X63650Y11150D01*
X63500Y11600D01*
X63550Y12050D01*
X63750Y12500D01*
G01X76500Y20000D02*
X73500D01*
Y18800D01*
X73650Y18400D01*
X74000Y18100D01*
X74400Y18000D01*
X74800Y18100D01*
X75100Y18350D01*
X75250Y18800D01*
Y20000D01*
G01X73500Y16900D02*
X76500Y16200D01*
X73500Y15400D01*
X76500Y14600D01*
X73500Y13900D01*
G01X76500Y12800D02*
X73500D01*
Y11550D01*
X73650Y11150D01*
X73850Y10900D01*
X74250Y10800D01*
X74650Y10900D01*
X74900Y11200D01*
X75050Y11550D01*
Y12800D01*
G01Y11550D02*
X76500Y10800D01*
G01X77500Y9700D02*
Y6700D01*
G01X76500Y3600D02*
Y5600D01*
X73500D01*
Y3600D01*
G01X74950Y4400D02*
Y5600D01*
G01X64400Y53447D02*
X64933Y53980D01*
X65533Y54300D01*
X66067D01*
X66600Y53980D01*
X67000Y53447D01*
X67200Y52700D01*
X67067Y51953D01*
X66733Y51313D01*
X66133Y50887D01*
X65333Y50673D01*
X64867Y50247D01*
X64667Y49500D01*
X64800Y48753D01*
X65133Y48220D01*
X65600Y47900D01*
X66067D01*
X66533Y48113D01*
X66933Y48647D01*
G01X72200Y47900D02*
Y54300D01*
G01X70667Y47900D02*
X73733D01*
G01X77733Y52167D02*
X79467D01*
G01X83667Y47900D02*
Y54300D01*
X86333D01*
G01X90600Y47900D02*
X92200D01*
G01X91400D02*
Y54300D01*
G01X90600D02*
X92200D01*
G01X96267D02*
Y47900D01*
X99333Y54300D01*
Y47900D01*
G01X102733Y54300D02*
Y47900D01*
G01X105267D02*
X102733Y51847D01*
G01X105667Y54300D02*
X103867Y50033D01*
G01X109733Y52167D02*
X111467D01*
G01X115333Y47900D02*
X117000Y54300D01*
X118667Y47900D01*
G01X122133Y48967D02*
X122533Y48327D01*
X123000Y48007D01*
X123533Y47900D01*
X124200Y48113D01*
X124667Y48647D01*
X124800Y49287D01*
X124733Y49927D01*
X124467Y50460D01*
X123133Y51527D01*
X122533Y52273D01*
X122133Y53340D01*
X122000Y54300D01*
X124800D01*
G01X67400Y69300D02*
Y62900D01*
G01X70200D02*
Y69300D01*
G01Y66100D02*
X67400D01*
G01X74200Y66420D02*
X76333D01*
X76133Y65673D01*
X75800Y65247D01*
X75333Y65033D01*
X74867Y65140D01*
X74467Y65460D01*
X74200Y66207D01*
X74067Y66847D01*
Y67487D01*
X74200Y68127D01*
X74533Y68767D01*
X74933Y69193D01*
X75400Y69300D01*
X75867Y69087D01*
X76333Y68447D01*
G01X80667Y69300D02*
Y65033D01*
G01Y65887D02*
X81000Y65460D01*
X81333Y65140D01*
X81800Y65033D01*
X82133Y65140D01*
X82533Y65460D01*
G01X88000Y69300D02*
X87600Y69193D01*
X87200Y68767D01*
X86933Y68020D01*
X86800Y67167D01*
X86933Y66313D01*
X87200Y65567D01*
X87600Y65140D01*
X88000Y65033D01*
X88400Y65140D01*
X88800Y65567D01*
X89067Y66313D01*
X89133Y67167D01*
X89067Y68020D01*
X88800Y68767D01*
X88400Y69193D01*
X88000Y69300D01*
G01X92400Y71433D02*
X96400D01*
G01X99533Y62900D02*
X102067D01*
X99533Y69300D01*
X102067D01*
G01X106067D02*
Y62900D01*
G01Y65993D02*
X106400Y65460D01*
X106733Y65140D01*
X107267Y65033D01*
X107667Y65140D01*
X108133Y65567D01*
X108333Y66207D01*
Y69300D01*
G01X113600D02*
X113200Y69193D01*
X112800Y68767D01*
X112533Y68020D01*
X112400Y67167D01*
X112533Y66313D01*
X112800Y65567D01*
X113200Y65140D01*
X113600Y65033D01*
X114000Y65140D01*
X114400Y65567D01*
X114667Y66313D01*
X114733Y67167D01*
X114667Y68020D01*
X114400Y68767D01*
X114000Y69193D01*
X113600Y69300D01*
G01X118867Y65033D02*
Y68020D01*
X119133Y68767D01*
X119533Y69193D01*
X120000Y69300D01*
X120467Y69193D01*
X120867Y68767D01*
X121133Y68020D01*
G01Y69300D02*
Y65033D01*
G01X72500Y113500D02*
X69500D01*
Y112300D01*
X69650Y111900D01*
X70000Y111600D01*
X70400Y111500D01*
X70800Y111600D01*
X71100Y111850D01*
X71250Y112300D01*
Y113500D01*
G01X70900Y108500D02*
X70750Y108300D01*
X70500Y108150D01*
X70150Y108050D01*
X69850Y108150D01*
X69650Y108350D01*
X69500Y108700D01*
Y110050D01*
X72500D01*
Y108400D01*
X72300Y108050D01*
X72000Y107850D01*
X71650Y107750D01*
X71300Y107850D01*
X71000Y108150D01*
X70900Y108500D01*
Y110050D01*
G01X72500Y104700D02*
X69500D01*
X71650Y106550D01*
Y104050D01*
G01X83000Y113500D02*
X80000D01*
Y112300D01*
X80150Y111900D01*
X80500Y111600D01*
X80900Y111500D01*
X81300Y111600D01*
X81600Y111850D01*
X81750Y112300D01*
Y113500D01*
G01X81400Y108500D02*
X81250Y108300D01*
X81000Y108150D01*
X80650Y108050D01*
X80350Y108150D01*
X80150Y108350D01*
X80000Y108700D01*
Y110050D01*
X83000D01*
Y108400D01*
X82800Y108050D01*
X82500Y107850D01*
X82150Y107750D01*
X81800Y107850D01*
X81500Y108150D01*
X81400Y108500D01*
Y110050D01*
G01X82550Y106400D02*
X82800Y106100D01*
X82950Y105750D01*
X83000Y105300D01*
X82900Y104850D01*
X82700Y104500D01*
X82350Y104250D01*
X81950Y104200D01*
X81550Y104300D01*
X81300Y104550D01*
X81100Y104900D01*
X81050Y105250D01*
X81100Y105600D01*
X81300Y106050D01*
X80000Y105900D01*
Y104550D01*
G01X91500Y112200D02*
Y111200D01*
X92400D01*
X92700Y111500D01*
X92900Y111850D01*
X93000Y112350D01*
X92900Y112850D01*
X92700Y113200D01*
X92400Y113500D01*
X92050Y113700D01*
X91650Y113800D01*
X91300D01*
X91000Y113700D01*
X90650Y113500D01*
X90350Y113200D01*
X90150Y112900D01*
X90000Y112500D01*
Y112150D01*
X90100Y111750D01*
X90300Y111450D01*
G01X93000Y110050D02*
X90000D01*
X93000Y107750D01*
X90000D01*
G01X93000Y106400D02*
X90000D01*
Y105400D01*
X90150Y105000D01*
X90350Y104700D01*
X90650Y104450D01*
X91000Y104250D01*
X91500Y104200D01*
X92000Y104250D01*
X92350Y104450D01*
X92650Y104700D01*
X92850Y105000D01*
X93000Y105400D01*
Y106400D01*
G01X104900Y113600D02*
X105250Y113300D01*
X105450Y112900D01*
X105500Y112450D01*
X105450Y112050D01*
X105200Y111650D01*
X104900Y111400D01*
X104600Y111350D01*
X104250Y111450D01*
X104000Y111800D01*
X103900Y112150D01*
Y112600D01*
G01Y112150D02*
X103750Y111850D01*
X103500Y111600D01*
X103200Y111500D01*
X102900Y111600D01*
X102650Y111850D01*
X102500Y112300D01*
X102550Y112750D01*
X102750Y113200D01*
G01X102500Y110150D02*
X105500Y108900D01*
X102500Y107650D01*
G01X104900Y106400D02*
X105250Y106100D01*
X105450Y105700D01*
X105500Y105250D01*
X105450Y104850D01*
X105200Y104450D01*
X104900Y104200D01*
X104600Y104150D01*
X104250Y104250D01*
X104000Y104600D01*
X103900Y104950D01*
Y105400D01*
G01Y104950D02*
X103750Y104650D01*
X103500Y104400D01*
X103200Y104300D01*
X102900Y104400D01*
X102650Y104650D01*
X102500Y105100D01*
X102550Y105550D01*
X102750Y106000D01*
G01X113250Y111400D02*
X113100Y111700D01*
X113000Y112050D01*
Y112450D01*
X113150Y112900D01*
X113400Y113250D01*
X113700Y113500D01*
X114200Y113700D01*
X114650Y113750D01*
X115100Y113650D01*
X115400Y113500D01*
X115700Y113200D01*
X115900Y112850D01*
X116000Y112500D01*
Y112150D01*
X115900Y111800D01*
X115750Y111500D01*
X115550Y111250D01*
G01X113000Y109900D02*
X116000D01*
Y107900D01*
G01Y106400D02*
X113000D01*
G01Y104500D02*
X114850Y106400D01*
G01X116000Y104200D02*
X114000Y105550D01*
G01X124000Y112200D02*
Y111200D01*
X124900D01*
X125200Y111500D01*
X125400Y111850D01*
X125500Y112350D01*
X125400Y112850D01*
X125200Y113200D01*
X124900Y113500D01*
X124550Y113700D01*
X124150Y113800D01*
X123800D01*
X123500Y113700D01*
X123150Y113500D01*
X122850Y113200D01*
X122650Y112900D01*
X122500Y112500D01*
Y112150D01*
X122600Y111750D01*
X122800Y111450D01*
G01X125500Y110050D02*
X122500D01*
X125500Y107750D01*
X122500D01*
G01X125500Y106400D02*
X122500D01*
Y105400D01*
X122650Y105000D01*
X122850Y104700D01*
X123150Y104450D01*
X123500Y104250D01*
X124000Y104200D01*
X124500Y104250D01*
X124850Y104450D01*
X125150Y104700D01*
X125350Y105000D01*
X125500Y105400D01*
Y106400D01*
G01X135500Y113600D02*
X132500D01*
Y112600D01*
X132650Y112200D01*
X132850Y111900D01*
X133150Y111650D01*
X133500Y111450D01*
X134000Y111400D01*
X134500Y111450D01*
X134850Y111650D01*
X135150Y111900D01*
X135350Y112200D01*
X135500Y112600D01*
Y113600D01*
G01X132500Y109500D02*
Y108300D01*
G01Y108900D02*
X135500D01*
G01Y109500D02*
Y108300D01*
G01Y105300D02*
X135450Y105700D01*
X135250Y106050D01*
X134950Y106350D01*
X134600Y106550D01*
X134200Y106650D01*
X133800D01*
X133400Y106550D01*
X133050Y106350D01*
X132750Y106050D01*
X132550Y105700D01*
X132500Y105300D01*
X132550Y104900D01*
X132750Y104550D01*
X133050Y104250D01*
X133400Y104050D01*
X133800Y103950D01*
X134200D01*
X134600Y104050D01*
X134950Y104250D01*
X135250Y104550D01*
X135450Y104900D01*
X135500Y105300D01*
G01X158900Y14100D02*
X159250Y13800D01*
X159450Y13400D01*
X159500Y12950D01*
X159450Y12550D01*
X159200Y12150D01*
X158900Y11900D01*
X158600Y11850D01*
X158250Y11950D01*
X158000Y12300D01*
X157900Y12650D01*
Y13100D01*
G01Y12650D02*
X157750Y12350D01*
X157500Y12100D01*
X157200Y12000D01*
X156900Y12100D01*
X156650Y12350D01*
X156500Y12800D01*
X156550Y13250D01*
X156750Y13700D01*
G01X156500Y10650D02*
X159500Y9400D01*
X156500Y8150D01*
G01X158900Y6900D02*
X159250Y6600D01*
X159450Y6200D01*
X159500Y5750D01*
X159450Y5350D01*
X159200Y4950D01*
X158900Y4700D01*
X158600Y4650D01*
X158250Y4750D01*
X158000Y5100D01*
X157900Y5450D01*
Y5900D01*
G01Y5450D02*
X157750Y5150D01*
X157500Y4900D01*
X157200Y4800D01*
X156900Y4900D01*
X156650Y5150D01*
X156500Y5600D01*
X156550Y6050D01*
X156750Y6500D01*
G01X158500Y52700D02*
Y51700D01*
X159400D01*
X159700Y52000D01*
X159900Y52350D01*
X160000Y52850D01*
X159900Y53350D01*
X159700Y53700D01*
X159400Y54000D01*
X159050Y54200D01*
X158650Y54300D01*
X158300D01*
X158000Y54200D01*
X157650Y54000D01*
X157350Y53700D01*
X157150Y53400D01*
X157000Y53000D01*
Y52650D01*
X157100Y52250D01*
X157300Y51950D01*
G01X160000Y50550D02*
X157000D01*
X160000Y48250D01*
X157000D01*
G01X160000Y46900D02*
X157000D01*
Y45900D01*
X157150Y45500D01*
X157350Y45200D01*
X157650Y44950D01*
X158000Y44750D01*
X158500Y44700D01*
X159000Y44750D01*
X159350Y44950D01*
X159650Y45200D01*
X159850Y45500D01*
X160000Y45900D01*
Y46900D01*
G01X154500Y54000D02*
X151500D01*
Y52800D01*
X151650Y52400D01*
X152000Y52100D01*
X152400Y52000D01*
X152800Y52100D01*
X153100Y52350D01*
X153250Y52800D01*
Y54000D01*
G01X152900Y49000D02*
X152750Y48800D01*
X152500Y48650D01*
X152150Y48550D01*
X151850Y48650D01*
X151650Y48850D01*
X151500Y49200D01*
Y50550D01*
X154500D01*
Y48900D01*
X154300Y48550D01*
X154000Y48350D01*
X153650Y48250D01*
X153300Y48350D01*
X153000Y48650D01*
X152900Y49000D01*
Y50550D01*
G01X154500Y45800D02*
X151500D01*
X152100Y46400D01*
G01X154500D02*
Y45200D01*
G01X151500Y42200D02*
X151600Y42600D01*
X151850Y42900D01*
X152150Y43100D01*
X152550Y43250D01*
X153000Y43300D01*
X153450Y43250D01*
X153850Y43100D01*
X154150Y42900D01*
X154400Y42600D01*
X154500Y42200D01*
X154400Y41800D01*
X154150Y41500D01*
X153850Y41300D01*
X153450Y41150D01*
X153000Y41100D01*
X152550Y41150D01*
X152150Y41300D01*
X151850Y41500D01*
X151600Y41800D01*
X151500Y42200D01*
G01X156000Y112500D02*
X159000D01*
G01X156000Y113650D02*
Y111350D01*
G01X159000Y109950D02*
X156000Y107850D01*
G01Y109950D02*
X159000Y107850D01*
G01X147900Y113600D02*
X148250Y113300D01*
X148450Y112900D01*
X148500Y112450D01*
X148450Y112050D01*
X148200Y111650D01*
X147900Y111400D01*
X147600Y111350D01*
X147250Y111450D01*
X147000Y111800D01*
X146900Y112150D01*
Y112600D01*
G01Y112150D02*
X146750Y111850D01*
X146500Y111600D01*
X146200Y111500D01*
X145900Y111600D01*
X145650Y111850D01*
X145500Y112300D01*
X145550Y112750D01*
X145750Y113200D01*
G01X145500Y110150D02*
X148500Y108900D01*
X145500Y107650D01*
G01X147900Y106400D02*
X148250Y106100D01*
X148450Y105700D01*
X148500Y105250D01*
X148450Y104850D01*
X148200Y104450D01*
X147900Y104200D01*
X147600Y104150D01*
X147250Y104250D01*
X147000Y104600D01*
X146900Y104950D01*
Y105400D01*
G01Y104950D02*
X146750Y104650D01*
X146500Y104400D01*
X146200Y104300D01*
X145900Y104400D01*
X145650Y104650D01*
X145500Y105100D01*
X145550Y105550D01*
X145750Y106000D01*
G01X179000Y14250D02*
X176000Y13000D01*
X179000Y11750D01*
G01X177950Y12200D02*
Y13800D01*
G01X179000Y10500D02*
X176000D01*
Y9500D01*
X176150Y9100D01*
X176350Y8800D01*
X176650Y8550D01*
X177000Y8350D01*
X177500Y8300D01*
X178000Y8350D01*
X178350Y8550D01*
X178650Y8800D01*
X178850Y9100D01*
X179000Y9500D01*
Y10500D01*
G01X176250Y4700D02*
X176100Y5000D01*
X176000Y5350D01*
Y5750D01*
X176150Y6200D01*
X176400Y6550D01*
X176700Y6800D01*
X177200Y7000D01*
X177650Y7050D01*
X178100Y6950D01*
X178400Y6800D01*
X178700Y6500D01*
X178900Y6150D01*
X179000Y5800D01*
Y5450D01*
X178900Y5100D01*
X178750Y4800D01*
X178550Y4550D01*
G01X179000Y1600D02*
X176000D01*
X178150Y3450D01*
Y950D01*
G01X169000Y14250D02*
X166000Y13000D01*
X169000Y11750D01*
G01X167950Y12200D02*
Y13800D01*
G01X169000Y10500D02*
X166000D01*
Y9500D01*
X166150Y9100D01*
X166350Y8800D01*
X166650Y8550D01*
X167000Y8350D01*
X167500Y8300D01*
X168000Y8350D01*
X168350Y8550D01*
X168650Y8800D01*
X168850Y9100D01*
X169000Y9500D01*
Y10500D01*
G01X166250Y4700D02*
X166100Y5000D01*
X166000Y5350D01*
Y5750D01*
X166150Y6200D01*
X166400Y6550D01*
X166700Y6800D01*
X167200Y7000D01*
X167650Y7050D01*
X168100Y6950D01*
X168400Y6800D01*
X168700Y6500D01*
X168900Y6150D01*
X169000Y5800D01*
Y5450D01*
X168900Y5100D01*
X168750Y4800D01*
X168550Y4550D01*
G01X169000Y2200D02*
X166000D01*
X166600Y2800D01*
G01X169000D02*
Y1600D01*
G01X164900Y54500D02*
X165200Y54250D01*
X165400Y53950D01*
X165500Y53600D01*
X165400Y53200D01*
X165200Y52900D01*
X164900Y52600D01*
X164500Y52500D01*
X162500D01*
G01Y49900D02*
X165500D01*
G01X162500Y51050D02*
Y48750D01*
G01X165500Y47400D02*
X162500D01*
Y46400D01*
X162650Y46000D01*
X162850Y45700D01*
X163150Y45450D01*
X163500Y45250D01*
X164000Y45200D01*
X164500Y45250D01*
X164850Y45450D01*
X165150Y45700D01*
X165350Y46000D01*
X165500Y46400D01*
Y47400D01*
G01Y42700D02*
X165450Y43100D01*
X165250Y43450D01*
X164950Y43750D01*
X164600Y43950D01*
X164200Y44050D01*
X163800D01*
X163400Y43950D01*
X163050Y43750D01*
X162750Y43450D01*
X162550Y43100D01*
X162500Y42700D01*
X162550Y42300D01*
X162750Y41950D01*
X163050Y41650D01*
X163400Y41450D01*
X163800Y41350D01*
X164200D01*
X164600Y41450D01*
X164950Y41650D01*
X165250Y41950D01*
X165450Y42300D01*
X165500Y42700D01*
G01X168000Y53000D02*
X171000D01*
G01X168000Y54150D02*
Y51850D01*
G01Y49400D02*
X171000D01*
G01X168000Y50550D02*
Y48250D01*
G01X171000Y46900D02*
X168000D01*
Y45900D01*
X168150Y45500D01*
X168350Y45200D01*
X168650Y44950D01*
X169000Y44750D01*
X169500Y44700D01*
X170000Y44750D01*
X170350Y44950D01*
X170650Y45200D01*
X170850Y45500D01*
X171000Y45900D01*
Y46900D01*
G01X168000Y42800D02*
Y41600D01*
G01Y42200D02*
X171000D01*
G01Y42800D02*
Y41600D01*
G01X170000Y89500D02*
X167000D01*
Y88300D01*
X167150Y87900D01*
X167500Y87600D01*
X167900Y87500D01*
X168300Y87600D01*
X168600Y87850D01*
X168750Y88300D01*
Y89500D01*
G01X167000Y86400D02*
X170000Y85700D01*
X167000Y84900D01*
X170000Y84100D01*
X167000Y83400D01*
G01X170000Y82300D02*
X167000D01*
Y81050D01*
X167150Y80650D01*
X167350Y80400D01*
X167750Y80300D01*
X168150Y80400D01*
X168400Y80700D01*
X168550Y81050D01*
Y82300D01*
G01Y81050D02*
X170000Y80300D01*
G01X171000Y79200D02*
Y76200D01*
G01X170000Y73100D02*
Y75100D01*
X167000D01*
Y73100D01*
G01X168450Y73900D02*
Y75100D01*
G01X170000Y71650D02*
X167000D01*
X170000Y69350D01*
X167000D01*
G01X170000Y67750D02*
X168000D01*
G01X168500D02*
X168250Y67550D01*
X168050Y67250D01*
X168000Y66850D01*
X168050Y66500D01*
X168250Y66200D01*
X168600Y66050D01*
X170000D01*
G01X164000Y89800D02*
X161000D01*
X163500Y88500D01*
X161000Y87200D01*
X164000D01*
G01X161250Y83800D02*
X161100Y84100D01*
X161000Y84450D01*
Y84850D01*
X161150Y85300D01*
X161400Y85650D01*
X161700Y85900D01*
X162200Y86100D01*
X162650Y86150D01*
X163100Y86050D01*
X163400Y85900D01*
X163700Y85600D01*
X163900Y85250D01*
X164000Y84900D01*
Y84550D01*
X163900Y84200D01*
X163750Y83900D01*
X163550Y83650D01*
G01X164000Y81300D02*
X163950Y81700D01*
X163750Y82050D01*
X163450Y82350D01*
X163100Y82550D01*
X162700Y82650D01*
X162300D01*
X161900Y82550D01*
X161550Y82350D01*
X161250Y82050D01*
X161050Y81700D01*
X161000Y81300D01*
X161050Y80900D01*
X161250Y80550D01*
X161550Y80250D01*
X161900Y80050D01*
X162300Y79950D01*
X162700D01*
X163100Y80050D01*
X163450Y80250D01*
X163750Y80550D01*
X163950Y80900D01*
X164000Y81300D01*
G01X168500Y113000D02*
X165500D01*
Y111750D01*
X165650Y111350D01*
X165850Y111100D01*
X166250Y111000D01*
X166650Y111100D01*
X166900Y111400D01*
X167050Y111750D01*
Y113000D01*
G01Y111750D02*
X168500Y111000D01*
G01Y109450D02*
X165500Y107350D01*
G01Y109450D02*
X168500Y107350D01*
G01X178100Y113550D02*
X178350Y113150D01*
X178500Y112700D01*
Y112300D01*
X178350Y111900D01*
X178100Y111600D01*
X177750Y111450D01*
X177400Y111550D01*
X177100Y111800D01*
X176900Y112250D01*
X176800Y112850D01*
X176600Y113200D01*
X176250Y113350D01*
X175900Y113250D01*
X175650Y113000D01*
X175500Y112650D01*
Y112300D01*
X175600Y111950D01*
X175850Y111650D01*
G01X175750Y107800D02*
X175600Y108100D01*
X175500Y108450D01*
Y108850D01*
X175650Y109300D01*
X175900Y109650D01*
X176200Y109900D01*
X176700Y110100D01*
X177150Y110150D01*
X177600Y110050D01*
X177900Y109900D01*
X178200Y109600D01*
X178400Y109250D01*
X178500Y108900D01*
Y108550D01*
X178400Y108200D01*
X178250Y107900D01*
X178050Y107650D01*
G01X175500Y106300D02*
X178500D01*
Y104300D01*
G01X199000Y12000D02*
Y14000D01*
X196000D01*
Y12000D01*
G01X197450Y12800D02*
Y14000D01*
G01X199000Y10450D02*
X196000Y8350D01*
G01Y10450D02*
X199000Y8350D01*
G01Y5800D02*
X196000D01*
X196600Y6400D01*
G01X199000D02*
Y5200D01*
G01Y2200D02*
X196000D01*
X196600Y2800D01*
G01X199000D02*
Y1600D01*
G01X189000Y14250D02*
X186000Y13000D01*
X189000Y11750D01*
G01X187950Y12200D02*
Y13800D01*
G01X189000Y10500D02*
X186000D01*
Y9500D01*
X186150Y9100D01*
X186350Y8800D01*
X186650Y8550D01*
X187000Y8350D01*
X187500Y8300D01*
X188000Y8350D01*
X188350Y8550D01*
X188650Y8800D01*
X188850Y9100D01*
X189000Y9500D01*
Y10500D01*
G01X186250Y4700D02*
X186100Y5000D01*
X186000Y5350D01*
Y5750D01*
X186150Y6200D01*
X186400Y6550D01*
X186700Y6800D01*
X187200Y7000D01*
X187650Y7050D01*
X188100Y6950D01*
X188400Y6800D01*
X188700Y6500D01*
X188900Y6150D01*
X189000Y5800D01*
Y5450D01*
X188900Y5100D01*
X188750Y4800D01*
X188550Y4550D01*
G01X188650Y3050D02*
X188900Y2700D01*
X189000Y2300D01*
X188900Y1900D01*
X188600Y1550D01*
X188150Y1300D01*
X187700Y1200D01*
X187150D01*
X186700Y1300D01*
X186300Y1550D01*
X186100Y1850D01*
X186000Y2200D01*
X186100Y2600D01*
X186300Y2900D01*
X186600Y3100D01*
X187000Y3200D01*
X187350Y3100D01*
X187700Y2850D01*
X187900Y2550D01*
X187950Y2200D01*
X187850Y1800D01*
X187600Y1500D01*
X187150Y1200D01*
G01X187500Y56500D02*
Y53500D01*
X188750D01*
X189150Y53650D01*
X189400Y53850D01*
X189500Y54250D01*
X189400Y54650D01*
X189100Y54900D01*
X188750Y55050D01*
X187500D01*
G01X188750D02*
X189500Y56500D01*
G01X191050D02*
X193150Y53500D01*
G01X191050D02*
X193150Y56500D01*
G01X188500Y42500D02*
Y45500D01*
G01X187350Y42500D02*
X189650D01*
G01X191050Y45500D02*
X193150Y42500D01*
G01X191050D02*
X193150Y45500D01*
G01X187450Y75600D02*
X187850Y75850D01*
X188300Y76000D01*
X188700D01*
X189100Y75850D01*
X189400Y75600D01*
X189550Y75250D01*
X189450Y74900D01*
X189200Y74600D01*
X188750Y74400D01*
X188150Y74300D01*
X187800Y74100D01*
X187650Y73750D01*
X187750Y73400D01*
X188000Y73150D01*
X188350Y73000D01*
X188700D01*
X189050Y73100D01*
X189350Y73350D01*
G01X190600Y73000D02*
X191300Y76000D01*
X192100Y73000D01*
X192900Y76000D01*
X193600Y73000D01*
G01X195700Y76000D02*
X195300Y75950D01*
X194950Y75750D01*
X194650Y75450D01*
X194450Y75100D01*
X194350Y74700D01*
Y74300D01*
X194450Y73900D01*
X194650Y73550D01*
X194950Y73250D01*
X195300Y73050D01*
X195700Y73000D01*
X196100Y73050D01*
X196450Y73250D01*
X196750Y73550D01*
X196950Y73900D01*
X197050Y74300D01*
Y74700D01*
X196950Y75100D01*
X196750Y75450D01*
X196450Y75750D01*
X196100Y75950D01*
X195700Y76000D01*
G01X187500Y66000D02*
Y63000D01*
X188750D01*
X189150Y63150D01*
X189400Y63350D01*
X189500Y63750D01*
X189400Y64150D01*
X189100Y64400D01*
X188750Y64550D01*
X187500D01*
G01X188750D02*
X189500Y66000D01*
G01X191050Y65600D02*
X191450Y65850D01*
X191900Y66000D01*
X192300D01*
X192700Y65850D01*
X193000Y65600D01*
X193150Y65250D01*
X193050Y64900D01*
X192800Y64600D01*
X192350Y64400D01*
X191750Y64300D01*
X191400Y64100D01*
X191250Y63750D01*
X191350Y63400D01*
X191600Y63150D01*
X191950Y63000D01*
X192300D01*
X192650Y63100D01*
X192950Y63350D01*
G01X195700Y63000D02*
Y66000D01*
G01X194550Y63000D02*
X196850D01*
G01X188100Y114050D02*
X188350Y113650D01*
X188500Y113200D01*
Y112800D01*
X188350Y112400D01*
X188100Y112100D01*
X187750Y111950D01*
X187400Y112050D01*
X187100Y112300D01*
X186900Y112750D01*
X186800Y113350D01*
X186600Y113700D01*
X186250Y113850D01*
X185900Y113750D01*
X185650Y113500D01*
X185500Y113150D01*
Y112800D01*
X185600Y112450D01*
X185850Y112150D01*
G01X188500Y110500D02*
X185500D01*
Y109500D01*
X185650Y109100D01*
X185850Y108800D01*
X186150Y108550D01*
X186500Y108350D01*
X187000Y108300D01*
X187500Y108350D01*
X187850Y108550D01*
X188150Y108800D01*
X188350Y109100D01*
X188500Y109500D01*
Y110500D01*
G01Y107050D02*
X185500Y105800D01*
X188500Y104550D01*
G01X187450Y105000D02*
Y106600D01*
G01X196500Y112700D02*
Y111700D01*
X197400D01*
X197700Y112000D01*
X197900Y112350D01*
X198000Y112850D01*
X197900Y113350D01*
X197700Y113700D01*
X197400Y114000D01*
X197050Y114200D01*
X196650Y114300D01*
X196300D01*
X196000Y114200D01*
X195650Y114000D01*
X195350Y113700D01*
X195150Y113400D01*
X195000Y113000D01*
Y112650D01*
X195100Y112250D01*
X195300Y111950D01*
G01X198000Y110550D02*
X195000D01*
X198000Y108250D01*
X195000D01*
G01X198000Y106900D02*
X195000D01*
Y105900D01*
X195150Y105500D01*
X195350Y105200D01*
X195650Y104950D01*
X196000Y104750D01*
X196500Y104700D01*
X197000Y104750D01*
X197350Y104950D01*
X197650Y105200D01*
X197850Y105500D01*
X198000Y105900D01*
Y106900D01*
G01X207500Y12200D02*
Y11200D01*
X208400D01*
X208700Y11500D01*
X208900Y11850D01*
X209000Y12350D01*
X208900Y12850D01*
X208700Y13200D01*
X208400Y13500D01*
X208050Y13700D01*
X207650Y13800D01*
X207300D01*
X207000Y13700D01*
X206650Y13500D01*
X206350Y13200D01*
X206150Y12900D01*
X206000Y12500D01*
Y12150D01*
X206100Y11750D01*
X206300Y11450D01*
G01X209000Y10050D02*
X206000D01*
X209000Y7750D01*
X206000D01*
G01X209000Y6400D02*
X206000D01*
Y5400D01*
X206150Y5000D01*
X206350Y4700D01*
X206650Y4450D01*
X207000Y4250D01*
X207500Y4200D01*
X208000Y4250D01*
X208350Y4450D01*
X208650Y4700D01*
X208850Y5000D01*
X209000Y5400D01*
Y6400D01*
G01X216300Y25000D02*
X217300D01*
Y25900D01*
X217000Y26200D01*
X216650Y26400D01*
X216150Y26500D01*
X215650Y26400D01*
X215300Y26200D01*
X215000Y25900D01*
X214800Y25550D01*
X214700Y25150D01*
Y24800D01*
X214800Y24500D01*
X215000Y24150D01*
X215300Y23850D01*
X215600Y23650D01*
X216000Y23500D01*
X216350D01*
X216750Y23600D01*
X217050Y23800D01*
G01X218450Y26500D02*
Y23500D01*
X220750Y26500D01*
Y23500D01*
G01X222100Y26500D02*
Y23500D01*
X223100D01*
X223500Y23650D01*
X223800Y23850D01*
X224050Y24150D01*
X224250Y24500D01*
X224300Y25000D01*
X224250Y25500D01*
X224050Y25850D01*
X223800Y26150D01*
X223500Y26350D01*
X223100Y26500D01*
X222100D01*
G01X201300Y54500D02*
X202300D01*
Y55400D01*
X202000Y55700D01*
X201650Y55900D01*
X201150Y56000D01*
X200650Y55900D01*
X200300Y55700D01*
X200000Y55400D01*
X199800Y55050D01*
X199700Y54650D01*
Y54300D01*
X199800Y54000D01*
X200000Y53650D01*
X200300Y53350D01*
X200600Y53150D01*
X201000Y53000D01*
X201350D01*
X201750Y53100D01*
X202050Y53300D01*
G01X203450Y56000D02*
Y53000D01*
X205750Y56000D01*
Y53000D01*
G01X207100Y56000D02*
Y53000D01*
X208100D01*
X208500Y53150D01*
X208800Y53350D01*
X209050Y53650D01*
X209250Y54000D01*
X209300Y54500D01*
X209250Y55000D01*
X209050Y55350D01*
X208800Y55650D01*
X208500Y55850D01*
X208100Y56000D01*
X207100D01*
G01X199400Y44900D02*
X199700Y45250D01*
X200100Y45450D01*
X200550Y45500D01*
X200950Y45450D01*
X201350Y45200D01*
X201600Y44900D01*
X201650Y44600D01*
X201550Y44250D01*
X201200Y44000D01*
X200850Y43900D01*
X200400D01*
G01X200850D02*
X201150Y43750D01*
X201400Y43500D01*
X201500Y43200D01*
X201400Y42900D01*
X201150Y42650D01*
X200700Y42500D01*
X200250Y42550D01*
X199800Y42750D01*
G01X202850Y42500D02*
X204100Y45500D01*
X205350Y42500D01*
G01X206600Y44900D02*
X206900Y45250D01*
X207300Y45450D01*
X207750Y45500D01*
X208150Y45450D01*
X208550Y45200D01*
X208800Y44900D01*
X208850Y44600D01*
X208750Y44250D01*
X208400Y44000D01*
X208050Y43900D01*
X207600D01*
G01X208050D02*
X208350Y43750D01*
X208600Y43500D01*
X208700Y43200D01*
X208600Y42900D01*
X208350Y42650D01*
X207900Y42500D01*
X207450Y42550D01*
X207000Y42750D01*
G01X199900Y76000D02*
Y73000D01*
X200900D01*
X201300Y73150D01*
X201600Y73350D01*
X201850Y73650D01*
X202050Y74000D01*
X202100Y74500D01*
X202050Y75000D01*
X201850Y75350D01*
X201600Y75650D01*
X201300Y75850D01*
X200900Y76000D01*
X199900D01*
G01X204000Y73000D02*
X205200D01*
G01X204600D02*
Y76000D01*
G01X204000D02*
X205200D01*
G01X208200D02*
X207800Y75950D01*
X207450Y75750D01*
X207150Y75450D01*
X206950Y75100D01*
X206850Y74700D01*
Y74300D01*
X206950Y73900D01*
X207150Y73550D01*
X207450Y73250D01*
X207800Y73050D01*
X208200Y73000D01*
X208600Y73050D01*
X208950Y73250D01*
X209250Y73550D01*
X209450Y73900D01*
X209550Y74300D01*
Y74700D01*
X209450Y75100D01*
X209250Y75450D01*
X208950Y75750D01*
X208600Y75950D01*
X208200Y76000D01*
G01X202100Y63250D02*
X201800Y63100D01*
X201450Y63000D01*
X201050D01*
X200600Y63150D01*
X200250Y63400D01*
X200000Y63700D01*
X199800Y64200D01*
X199750Y64650D01*
X199850Y65100D01*
X200000Y65400D01*
X200300Y65700D01*
X200650Y65900D01*
X201000Y66000D01*
X201350D01*
X201700Y65900D01*
X202000Y65750D01*
X202250Y65550D01*
G01X203600Y63000D02*
Y66000D01*
X205600D01*
G01X207100D02*
Y63000D01*
G01X209000D02*
X207100Y64850D01*
G01X209300Y66000D02*
X207950Y64000D01*
G01X217300Y93000D02*
X218300D01*
Y93900D01*
X218000Y94200D01*
X217650Y94400D01*
X217150Y94500D01*
X216650Y94400D01*
X216300Y94200D01*
X216000Y93900D01*
X215800Y93550D01*
X215700Y93150D01*
Y92800D01*
X215800Y92500D01*
X216000Y92150D01*
X216300Y91850D01*
X216600Y91650D01*
X217000Y91500D01*
X217350D01*
X217750Y91600D01*
X218050Y91800D01*
G01X219450Y94500D02*
Y91500D01*
X221750Y94500D01*
Y91500D01*
G01X223100Y94500D02*
Y91500D01*
X224100D01*
X224500Y91650D01*
X224800Y91850D01*
X225050Y92150D01*
X225250Y92500D01*
X225300Y93000D01*
X225250Y93500D01*
X225050Y93850D01*
X224800Y94150D01*
X224500Y94350D01*
X224100Y94500D01*
X223100D01*
G54D11*
G01X172500Y55500D02*
Y40000D01*
X150000D01*
Y55500D01*
X172500D01*
G01X173000Y91000D02*
Y64500D01*
X158000D01*
Y91000D01*
X173000D01*
G01X211500Y77500D02*
Y40500D01*
X184500D01*
Y77500D01*
X211500D01*
M02*
