G04 ================== begin FILE IDENTIFICATION RECORD ==================*
G04 Layout Name:  F:/ST-LINK-V2/Hardware/allegro/st-link-v2_pro.brd*
G04 Film Name:    SILKSCREEN_TOP*
G04 File Format:  Gerber RS274X*
G04 File Origin:  Cadence Allegro 17.4-S035*
G04 Origin Date:  Sun Nov 26 22:21:57 2023*
G04 *
G04 Layer:  REF DES/SILKSCREEN_TOP*
G04 Layer:  PACKAGE GEOMETRY/SILKSCREEN_TOP*
G04 Layer:  BOARD GEOMETRY/SILKSCREEN_TOP*
G04 Layer:  BOARD GEOMETRY/DESIGN_OUTLINE*
G04 *
G04 Offset:    (0.00 0.00)*
G04 Mirror:    No*
G04 Mode:      Positive*
G04 Rotation:  0*
G04 FullContactRelief:  No*
G04 UndefLineWidth:     6.00*
G04 ================== end FILE IDENTIFICATION RECORD ====================*
%FSLAX25Y25*MOIN*%
%IR0*IPPOS*OFA0.00000B0.00000*MIA0B0*SFA1.00000B1.00000*%
%ADD10C,.006*%
%ADD11C,.00472*%
%ADD12C,.00984*%
%ADD13C,.00787*%
G75*
%LPD*%
G75*
G36*
G01X117716Y39075D02*
G02I-590J0D01*
G37*
G54D10*
G01X0Y5906D02*
Y112205D01*
G02X5906Y118110I5905J0D01*
G01X230315D01*
G02X236220Y112205I0J-5905D01*
G01Y5906D01*
G02X230315Y0I-5905J-1D01*
G01X5906D01*
G02X0Y5906I0J5906D01*
G01X12450Y20900D02*
X12850Y20650D01*
X13300Y20500D01*
X13700D01*
X14100Y20650D01*
X14400Y20900D01*
X14550Y21250D01*
X14450Y21600D01*
X14200Y21900D01*
X13750Y22100D01*
X13150Y22200D01*
X12800Y22400D01*
X12650Y22750D01*
X12750Y23100D01*
X13000Y23350D01*
X13350Y23500D01*
X13700D01*
X14050Y23400D01*
X14350Y23150D01*
G01X16050Y20500D02*
Y23500D01*
G01X18150D02*
Y20500D01*
G01Y22000D02*
X16050D01*
G01X20700Y20500D02*
Y23500D01*
X20100Y22900D01*
G01Y20500D02*
X21300D01*
G01X10100Y28100D02*
Y31100D01*
X11100D01*
X11500Y30950D01*
X11800Y30750D01*
X12050Y30450D01*
X12250Y30100D01*
X12300Y29600D01*
X12250Y29100D01*
X12050Y28750D01*
X11800Y28450D01*
X11500Y28250D01*
X11100Y28100D01*
X10100D01*
G01X14700D02*
X14800Y28750D01*
X14950Y29300D01*
X15150Y29800D01*
X15400Y30350D01*
X15800Y31100D01*
X13800D01*
G01X9900Y34600D02*
Y37600D01*
X10900D01*
X11300Y37450D01*
X11600Y37250D01*
X11850Y36950D01*
X12050Y36600D01*
X12100Y36100D01*
X12050Y35600D01*
X11850Y35250D01*
X11600Y34950D01*
X11300Y34750D01*
X10900Y34600D01*
X9900D01*
G01X13650Y35850D02*
X14000Y36200D01*
X14300Y36400D01*
X14700Y36500D01*
X15050Y36400D01*
X15300Y36200D01*
X15500Y35900D01*
X15550Y35550D01*
X15500Y35250D01*
X15300Y34950D01*
X15000Y34700D01*
X14650Y34600D01*
X14250Y34700D01*
X13900Y35000D01*
X13700Y35450D01*
X13650Y35950D01*
X13750Y36600D01*
X13900Y36950D01*
X14150Y37300D01*
X14500Y37550D01*
X14850Y37600D01*
X15200Y37500D01*
X15450Y37250D01*
G01X16100Y84200D02*
X15800Y83950D01*
X15600Y83650D01*
X15500Y83300D01*
X15600Y82900D01*
X15800Y82600D01*
X16100Y82300D01*
X16500Y82200D01*
X18500D01*
G01X15500Y79600D02*
X18500D01*
X17900Y80200D01*
G01X15500D02*
Y79000D01*
G01X12450Y108900D02*
X12850Y108650D01*
X13300Y108500D01*
X13700D01*
X14100Y108650D01*
X14400Y108900D01*
X14550Y109250D01*
X14450Y109600D01*
X14200Y109900D01*
X13750Y110100D01*
X13150Y110200D01*
X12800Y110400D01*
X12650Y110750D01*
X12750Y111100D01*
X13000Y111350D01*
X13350Y111500D01*
X13700D01*
X14050Y111400D01*
X14350Y111150D01*
G01X16050Y108500D02*
Y111500D01*
G01X18150D02*
Y108500D01*
G01Y110000D02*
X16050D01*
G01X21300Y108500D02*
Y111500D01*
X19450Y109350D01*
X21950D01*
G01X23600Y85100D02*
Y88100D01*
X24600D01*
X25000Y87950D01*
X25300Y87750D01*
X25550Y87450D01*
X25750Y87100D01*
X25800Y86600D01*
X25750Y86100D01*
X25550Y85750D01*
X25300Y85450D01*
X25000Y85250D01*
X24600Y85100D01*
X23600D01*
G01X27200Y85700D02*
X27500Y85350D01*
X27900Y85150D01*
X28350Y85100D01*
X28750Y85150D01*
X29150Y85400D01*
X29400Y85700D01*
X29450Y86000D01*
X29350Y86350D01*
X29000Y86600D01*
X28650Y86700D01*
X28200D01*
G01X28650D02*
X28950Y86850D01*
X29200Y87100D01*
X29300Y87400D01*
X29200Y87700D01*
X28950Y87950D01*
X28500Y88100D01*
X28050Y88050D01*
X27600Y87850D01*
G01X23500Y93400D02*
Y96400D01*
X24500D01*
X24900Y96250D01*
X25200Y96050D01*
X25450Y95750D01*
X25650Y95400D01*
X25700Y94900D01*
X25650Y94400D01*
X25450Y94050D01*
X25200Y93750D01*
X24900Y93550D01*
X24500Y93400D01*
X23500D01*
G01X27250Y95900D02*
X27550Y96200D01*
X27900Y96350D01*
X28300Y96400D01*
X28800Y96300D01*
X29150Y96050D01*
X29250Y95750D01*
X29200Y95450D01*
X29000Y95200D01*
X28000Y94700D01*
X27550Y94350D01*
X27250Y93850D01*
X27150Y93400D01*
X29250D01*
G01X23600Y89200D02*
Y92200D01*
X24600D01*
X25000Y92050D01*
X25300Y91850D01*
X25550Y91550D01*
X25750Y91200D01*
X25800Y90700D01*
X25750Y90200D01*
X25550Y89850D01*
X25300Y89550D01*
X25000Y89350D01*
X24600Y89200D01*
X23600D01*
G01X28300D02*
Y92200D01*
X27700Y91600D01*
G01Y89200D02*
X28900D01*
G01X40300Y107400D02*
X40550Y107100D01*
X40850Y106900D01*
X41200Y106800D01*
X41600Y106900D01*
X41900Y107100D01*
X42200Y107400D01*
X42300Y107800D01*
Y109800D01*
G01X43950Y109300D02*
X44250Y109600D01*
X44600Y109750D01*
X45000Y109800D01*
X45500Y109700D01*
X45850Y109450D01*
X45950Y109150D01*
X45900Y108850D01*
X45700Y108600D01*
X44700Y108100D01*
X44250Y107750D01*
X43950Y107250D01*
X43850Y106800D01*
X45950D01*
G01X49376Y28200D02*
Y31200D01*
X50626D01*
X51026Y31050D01*
X51276Y30850D01*
X51376Y30450D01*
X51276Y30050D01*
X50976Y29800D01*
X50626Y29650D01*
X49376D01*
G01X50626D02*
X51376Y28200D01*
G01X53126Y28550D02*
X53476Y28300D01*
X53876Y28200D01*
X54276Y28300D01*
X54626Y28600D01*
X54876Y29050D01*
X54976Y29500D01*
Y30050D01*
X54876Y30500D01*
X54626Y30900D01*
X54326Y31100D01*
X53976Y31200D01*
X53576Y31100D01*
X53276Y30900D01*
X53076Y30600D01*
X52976Y30200D01*
X53076Y29850D01*
X53326Y29500D01*
X53626Y29300D01*
X53976Y29250D01*
X54376Y29350D01*
X54676Y29600D01*
X54976Y30050D01*
G01X49476Y34200D02*
Y37200D01*
X50726D01*
X51126Y37050D01*
X51376Y36850D01*
X51476Y36450D01*
X51376Y36050D01*
X51076Y35800D01*
X50726Y35650D01*
X49476D01*
G01X50726D02*
X51476Y34200D01*
G01X54076D02*
X54426Y34250D01*
X54826Y34400D01*
X55076Y34650D01*
X55176Y35000D01*
X55076Y35350D01*
X54776Y35650D01*
X54326Y35800D01*
X53826D01*
X53526Y35900D01*
X53276Y36150D01*
X53176Y36500D01*
X53326Y36850D01*
X53676Y37100D01*
X54076Y37200D01*
X54476Y37100D01*
X54826Y36850D01*
X54976Y36500D01*
X54876Y36150D01*
X54626Y35900D01*
X54326Y35800D01*
X53826D01*
X53376Y35650D01*
X53076Y35350D01*
X52976Y35000D01*
X53076Y34650D01*
X53326Y34400D01*
X53726Y34250D01*
X54076Y34200D01*
G01X54200Y52200D02*
Y55200D01*
X55450D01*
X55850Y55050D01*
X56100Y54850D01*
X56200Y54450D01*
X56100Y54050D01*
X55800Y53800D01*
X55450Y53650D01*
X54200D01*
G01X55450D02*
X56200Y52200D01*
G01X58700D02*
X58800Y52850D01*
X58950Y53400D01*
X59150Y53900D01*
X59400Y54450D01*
X59800Y55200D01*
X57800D01*
G01X54200Y56400D02*
Y59400D01*
X55200D01*
X55600Y59250D01*
X55900Y59050D01*
X56150Y58750D01*
X56350Y58400D01*
X56400Y57900D01*
X56350Y57400D01*
X56150Y57050D01*
X55900Y56750D01*
X55600Y56550D01*
X55200Y56400D01*
X54200D01*
G01X57800Y56850D02*
X58100Y56600D01*
X58450Y56450D01*
X58900Y56400D01*
X59350Y56500D01*
X59700Y56700D01*
X59950Y57050D01*
X60000Y57450D01*
X59900Y57850D01*
X59650Y58100D01*
X59300Y58300D01*
X58950Y58350D01*
X58600Y58300D01*
X58150Y58100D01*
X58300Y59400D01*
X59650D01*
G01X54200Y65200D02*
Y68200D01*
X55450D01*
X55850Y68050D01*
X56100Y67850D01*
X56200Y67450D01*
X56100Y67050D01*
X55800Y66800D01*
X55450Y66650D01*
X54200D01*
G01X55450D02*
X56200Y65200D01*
G01X57700Y65800D02*
X58000Y65450D01*
X58400Y65250D01*
X58850Y65200D01*
X59250Y65250D01*
X59650Y65500D01*
X59900Y65800D01*
X59950Y66100D01*
X59850Y66450D01*
X59500Y66700D01*
X59150Y66800D01*
X58700D01*
G01X59150D02*
X59450Y66950D01*
X59700Y67200D01*
X59800Y67500D01*
X59700Y67800D01*
X59450Y68050D01*
X59000Y68200D01*
X58550Y68150D01*
X58100Y67950D01*
G01X54200Y60800D02*
Y63800D01*
X55200D01*
X55600Y63650D01*
X55900Y63450D01*
X56150Y63150D01*
X56350Y62800D01*
X56400Y62300D01*
X56350Y61800D01*
X56150Y61450D01*
X55900Y61150D01*
X55600Y60950D01*
X55200Y60800D01*
X54200D01*
G01X59500D02*
Y63800D01*
X57650Y61650D01*
X60150D01*
G01X59350Y87600D02*
X59500Y87900D01*
X59600Y88250D01*
Y88650D01*
X59450Y89100D01*
X59200Y89450D01*
X58900Y89700D01*
X58400Y89900D01*
X57950Y89950D01*
X57500Y89850D01*
X57200Y89700D01*
X56900Y89400D01*
X56700Y89050D01*
X56600Y88700D01*
Y88350D01*
X56700Y88000D01*
X56850Y87700D01*
X57050Y87450D01*
G01X59100Y86050D02*
X59400Y85750D01*
X59550Y85400D01*
X59600Y85000D01*
X59500Y84500D01*
X59250Y84150D01*
X58950Y84050D01*
X58650Y84100D01*
X58400Y84300D01*
X57900Y85300D01*
X57550Y85750D01*
X57050Y86050D01*
X56600Y86150D01*
Y84050D01*
G01X66600Y16400D02*
X66850Y16100D01*
X67150Y15900D01*
X67500Y15800D01*
X67900Y15900D01*
X68200Y16100D01*
X68500Y16400D01*
X68600Y16800D01*
Y18800D01*
G01X70250Y17050D02*
X70600Y17400D01*
X70900Y17600D01*
X71300Y17700D01*
X71650Y17600D01*
X71900Y17400D01*
X72100Y17100D01*
X72150Y16750D01*
X72100Y16450D01*
X71900Y16150D01*
X71600Y15900D01*
X71250Y15800D01*
X70850Y15900D01*
X70500Y16200D01*
X70300Y16650D01*
X70250Y17150D01*
X70350Y17800D01*
X70500Y18150D01*
X70750Y18500D01*
X71100Y18750D01*
X71450Y18800D01*
X71800Y18700D01*
X72050Y18450D01*
G01X62200Y34000D02*
X61800Y34050D01*
X61450Y34250D01*
X61150Y34550D01*
X60950Y34900D01*
X60850Y35300D01*
Y35700D01*
X60950Y36100D01*
X61150Y36450D01*
X61450Y36750D01*
X61800Y36950D01*
X62200Y37000D01*
X62600Y36950D01*
X62950Y36750D01*
X63250Y36450D01*
X63450Y36100D01*
X63550Y35700D01*
Y35300D01*
X63450Y34900D01*
X63250Y34550D01*
X62950Y34250D01*
X62600Y34050D01*
X62200Y34000D01*
G01X62600Y34800D02*
X63200Y34000D01*
G01X65800D02*
Y37000D01*
X65200Y36400D01*
G01Y34000D02*
X66400D01*
G01X61400Y56400D02*
Y59400D01*
X62650D01*
X63050Y59250D01*
X63300Y59050D01*
X63400Y58650D01*
X63300Y58250D01*
X63000Y58000D01*
X62650Y57850D01*
X61400D01*
G01X62650D02*
X63400Y56400D01*
G01X66000D02*
Y59400D01*
X65400Y58800D01*
G01Y56400D02*
X66600D01*
G01X69600D02*
X69950Y56450D01*
X70350Y56600D01*
X70600Y56850D01*
X70700Y57200D01*
X70600Y57550D01*
X70300Y57850D01*
X69850Y58000D01*
X69350D01*
X69050Y58100D01*
X68800Y58350D01*
X68700Y58700D01*
X68850Y59050D01*
X69200Y59300D01*
X69600Y59400D01*
X70000Y59300D01*
X70350Y59050D01*
X70500Y58700D01*
X70400Y58350D01*
X70150Y58100D01*
X69850Y58000D01*
X69350D01*
X68900Y57850D01*
X68600Y57550D01*
X68500Y57200D01*
X68600Y56850D01*
X68850Y56600D01*
X69250Y56450D01*
X69600Y56400D01*
G01X61400Y60700D02*
Y63700D01*
X62650D01*
X63050Y63550D01*
X63300Y63350D01*
X63400Y62950D01*
X63300Y62550D01*
X63000Y62300D01*
X62650Y62150D01*
X61400D01*
G01X62650D02*
X63400Y60700D01*
G01X66000D02*
Y63700D01*
X65400Y63100D01*
G01Y60700D02*
X66600D01*
G01X68650Y61950D02*
X69000Y62300D01*
X69300Y62500D01*
X69700Y62600D01*
X70050Y62500D01*
X70300Y62300D01*
X70500Y62000D01*
X70550Y61650D01*
X70500Y61350D01*
X70300Y61050D01*
X70000Y60800D01*
X69650Y60700D01*
X69250Y60800D01*
X68900Y61100D01*
X68700Y61550D01*
X68650Y62050D01*
X68750Y62700D01*
X68900Y63050D01*
X69150Y63400D01*
X69500Y63650D01*
X69850Y63700D01*
X70200Y63600D01*
X70450Y63350D01*
G01X61400Y65200D02*
Y68200D01*
X62650D01*
X63050Y68050D01*
X63300Y67850D01*
X63400Y67450D01*
X63300Y67050D01*
X63000Y66800D01*
X62650Y66650D01*
X61400D01*
G01X62650D02*
X63400Y65200D01*
G01X66000D02*
Y68200D01*
X65400Y67600D01*
G01Y65200D02*
X66600D01*
G01X68500Y65800D02*
X68800Y65450D01*
X69200Y65250D01*
X69650Y65200D01*
X70050Y65250D01*
X70450Y65500D01*
X70700Y65800D01*
X70750Y66100D01*
X70650Y66450D01*
X70300Y66700D01*
X69950Y66800D01*
X69500D01*
G01X69950D02*
X70250Y66950D01*
X70500Y67200D01*
X70600Y67500D01*
X70500Y67800D01*
X70250Y68050D01*
X69800Y68200D01*
X69350Y68150D01*
X68900Y67950D01*
G01X76600Y63450D02*
X76300Y63600D01*
X75950Y63700D01*
X75550D01*
X75100Y63550D01*
X74750Y63300D01*
X74500Y63000D01*
X74300Y62500D01*
X74250Y62050D01*
X74350Y61600D01*
X74500Y61300D01*
X74800Y61000D01*
X75150Y60800D01*
X75500Y60700D01*
X75850D01*
X76200Y60800D01*
X76500Y60950D01*
X76750Y61150D01*
G01X79000Y60700D02*
X79100Y61350D01*
X79250Y61900D01*
X79450Y62400D01*
X79700Y62950D01*
X80100Y63700D01*
X78100D01*
G01X79100Y89500D02*
X76950D01*
X76500Y89300D01*
X76200Y88900D01*
X76100Y88400D01*
X76200Y87900D01*
X76500Y87500D01*
X76950Y87300D01*
X79100D01*
G01X76100Y84800D02*
X79100D01*
X78500Y85400D01*
G01X76100D02*
Y84200D01*
G01X67050Y87100D02*
X67200Y87400D01*
X67300Y87750D01*
Y88150D01*
X67150Y88600D01*
X66900Y88950D01*
X66600Y89200D01*
X66100Y89400D01*
X65650Y89450D01*
X65200Y89350D01*
X64900Y89200D01*
X64600Y88900D01*
X64400Y88550D01*
X64300Y88200D01*
Y87850D01*
X64400Y87500D01*
X64550Y87200D01*
X64750Y86950D01*
G01X64900Y85700D02*
X64550Y85400D01*
X64350Y85000D01*
X64300Y84550D01*
X64350Y84150D01*
X64600Y83750D01*
X64900Y83500D01*
X65200Y83450D01*
X65550Y83550D01*
X65800Y83900D01*
X65900Y84250D01*
Y84700D01*
G01Y84250D02*
X66050Y83950D01*
X66300Y83700D01*
X66600Y83600D01*
X66900Y83700D01*
X67150Y83950D01*
X67300Y84400D01*
X67250Y84850D01*
X67050Y85300D01*
G01X70600Y107200D02*
X70850Y106900D01*
X71150Y106700D01*
X71500Y106600D01*
X71900Y106700D01*
X72200Y106900D01*
X72500Y107200D01*
X72600Y107600D01*
Y109600D01*
G01X75200Y106600D02*
Y109600D01*
X74600Y109000D01*
G01Y106600D02*
X75800D01*
G01X77850Y109100D02*
X78150Y109400D01*
X78500Y109550D01*
X78900Y109600D01*
X79400Y109500D01*
X79750Y109250D01*
X79850Y108950D01*
X79800Y108650D01*
X79600Y108400D01*
X78600Y107900D01*
X78150Y107550D01*
X77850Y107050D01*
X77750Y106600D01*
X79850D01*
G01X93500Y20100D02*
Y23100D01*
X94750D01*
X95150Y22950D01*
X95400Y22750D01*
X95500Y22350D01*
X95400Y21950D01*
X95100Y21700D01*
X94750Y21550D01*
X93500D01*
G01X94750D02*
X95500Y20100D01*
G01X97150Y22600D02*
X97450Y22900D01*
X97800Y23050D01*
X98200Y23100D01*
X98700Y23000D01*
X99050Y22750D01*
X99150Y22450D01*
X99100Y22150D01*
X98900Y21900D01*
X97900Y21400D01*
X97450Y21050D01*
X97150Y20550D01*
X97050Y20100D01*
X99150D01*
G01X93500Y15400D02*
Y18400D01*
X94750D01*
X95150Y18250D01*
X95400Y18050D01*
X95500Y17650D01*
X95400Y17250D01*
X95100Y17000D01*
X94750Y16850D01*
X93500D01*
G01X94750D02*
X95500Y15400D01*
G01X97150Y16650D02*
X97500Y17000D01*
X97800Y17200D01*
X98200Y17300D01*
X98550Y17200D01*
X98800Y17000D01*
X99000Y16700D01*
X99050Y16350D01*
X99000Y16050D01*
X98800Y15750D01*
X98500Y15500D01*
X98150Y15400D01*
X97750Y15500D01*
X97400Y15800D01*
X97200Y16250D01*
X97150Y16750D01*
X97250Y17400D01*
X97400Y17750D01*
X97650Y18100D01*
X98000Y18350D01*
X98350Y18400D01*
X98700Y18300D01*
X98950Y18050D01*
G01X82300Y37200D02*
Y40200D01*
X83550D01*
X83950Y40050D01*
X84200Y39850D01*
X84300Y39450D01*
X84200Y39050D01*
X83900Y38800D01*
X83550Y38650D01*
X82300D01*
G01X83550D02*
X84300Y37200D01*
G01X86900D02*
Y40200D01*
X86300Y39600D01*
G01Y37200D02*
X87500D01*
G01X90500D02*
Y40200D01*
X89900Y39600D01*
G01Y37200D02*
X91100D01*
G01X93100Y29100D02*
Y32100D01*
X94350D01*
X94750Y31950D01*
X95000Y31750D01*
X95100Y31350D01*
X95000Y30950D01*
X94700Y30700D01*
X94350Y30550D01*
X93100D01*
G01X94350D02*
X95100Y29100D01*
G01X97700D02*
Y32100D01*
X97100Y31500D01*
G01Y29100D02*
X98300D01*
G01X100200Y29550D02*
X100500Y29300D01*
X100850Y29150D01*
X101300Y29100D01*
X101750Y29200D01*
X102100Y29400D01*
X102350Y29750D01*
X102400Y30150D01*
X102300Y30550D01*
X102050Y30800D01*
X101700Y31000D01*
X101350Y31050D01*
X101000Y31000D01*
X100550Y30800D01*
X100700Y32100D01*
X102050D01*
G01X95400Y27250D02*
X95100Y27400D01*
X94750Y27500D01*
X94350D01*
X93900Y27350D01*
X93550Y27100D01*
X93300Y26800D01*
X93100Y26300D01*
X93050Y25850D01*
X93150Y25400D01*
X93300Y25100D01*
X93600Y24800D01*
X93950Y24600D01*
X94300Y24500D01*
X94650D01*
X95000Y24600D01*
X95300Y24750D01*
X95550Y24950D01*
G01X97900Y24500D02*
X98250Y24550D01*
X98650Y24700D01*
X98900Y24950D01*
X99000Y25300D01*
X98900Y25650D01*
X98600Y25950D01*
X98150Y26100D01*
X97650D01*
X97350Y26200D01*
X97100Y26450D01*
X97000Y26800D01*
X97150Y27150D01*
X97500Y27400D01*
X97900Y27500D01*
X98300Y27400D01*
X98650Y27150D01*
X98800Y26800D01*
X98700Y26450D01*
X98450Y26200D01*
X98150Y26100D01*
X97650D01*
X97200Y25950D01*
X96900Y25650D01*
X96800Y25300D01*
X96900Y24950D01*
X97150Y24700D01*
X97550Y24550D01*
X97900Y24500D01*
G01X82300Y49600D02*
Y52600D01*
X83550D01*
X83950Y52450D01*
X84200Y52250D01*
X84300Y51850D01*
X84200Y51450D01*
X83900Y51200D01*
X83550Y51050D01*
X82300D01*
G01X83550D02*
X84300Y49600D01*
G01X86900D02*
Y52600D01*
X86300Y52000D01*
G01Y49600D02*
X87500D01*
G01X90400D02*
X90500Y50250D01*
X90650Y50800D01*
X90850Y51300D01*
X91100Y51850D01*
X91500Y52600D01*
X89500D01*
G01X82300Y45400D02*
Y48400D01*
X83550D01*
X83950Y48250D01*
X84200Y48050D01*
X84300Y47650D01*
X84200Y47250D01*
X83900Y47000D01*
X83550Y46850D01*
X82300D01*
G01X83550D02*
X84300Y45400D01*
G01X86900D02*
Y48400D01*
X86300Y47800D01*
G01Y45400D02*
X87500D01*
G01X91100D02*
Y48400D01*
X89250Y46250D01*
X91750D01*
G01X87800Y56900D02*
Y59900D01*
X89050D01*
X89450Y59750D01*
X89700Y59550D01*
X89800Y59150D01*
X89700Y58750D01*
X89400Y58500D01*
X89050Y58350D01*
X87800D01*
G01X89050D02*
X89800Y56900D01*
G01X91450Y59400D02*
X91750Y59700D01*
X92100Y59850D01*
X92500Y59900D01*
X93000Y59800D01*
X93350Y59550D01*
X93450Y59250D01*
X93400Y58950D01*
X93200Y58700D01*
X92200Y58200D01*
X91750Y57850D01*
X91450Y57350D01*
X91350Y56900D01*
X93450D01*
G01X96000Y59900D02*
X95600Y59800D01*
X95300Y59550D01*
X95100Y59250D01*
X94950Y58850D01*
X94900Y58400D01*
X94950Y57950D01*
X95100Y57550D01*
X95300Y57250D01*
X95600Y57000D01*
X96000Y56900D01*
X96400Y57000D01*
X96700Y57250D01*
X96900Y57550D01*
X97050Y57950D01*
X97100Y58400D01*
X97050Y58850D01*
X96900Y59250D01*
X96700Y59550D01*
X96400Y59800D01*
X96000Y59900D01*
G01X82300Y41400D02*
Y44400D01*
X83550D01*
X83950Y44250D01*
X84200Y44050D01*
X84300Y43650D01*
X84200Y43250D01*
X83900Y43000D01*
X83550Y42850D01*
X82300D01*
G01X83550D02*
X84300Y41400D01*
G01X86900D02*
Y44400D01*
X86300Y43800D01*
G01Y41400D02*
X87500D01*
G01X89550Y43900D02*
X89850Y44200D01*
X90200Y44350D01*
X90600Y44400D01*
X91100Y44300D01*
X91450Y44050D01*
X91550Y43750D01*
X91500Y43450D01*
X91300Y43200D01*
X90300Y42700D01*
X89850Y42350D01*
X89550Y41850D01*
X89450Y41400D01*
X91550D01*
G01X98600Y61100D02*
Y64100D01*
X99850D01*
X100250Y63950D01*
X100500Y63750D01*
X100600Y63350D01*
X100500Y62950D01*
X100200Y62700D01*
X99850Y62550D01*
X98600D01*
G01X99850D02*
X100600Y61100D01*
G01X103800D02*
Y64100D01*
X101950Y61950D01*
X104450D01*
G01X89800Y63950D02*
X89500Y64100D01*
X89150Y64200D01*
X88750D01*
X88300Y64050D01*
X87950Y63800D01*
X87700Y63500D01*
X87500Y63000D01*
X87450Y62550D01*
X87550Y62100D01*
X87700Y61800D01*
X88000Y61500D01*
X88350Y61300D01*
X88700Y61200D01*
X89050D01*
X89400Y61300D01*
X89700Y61450D01*
X89950Y61650D01*
G01X92300Y61200D02*
Y64200D01*
X91700Y63600D01*
G01Y61200D02*
X92900D01*
G01X96500D02*
Y64200D01*
X94650Y62050D01*
X97150D01*
G01X89900Y68350D02*
X89600Y68500D01*
X89250Y68600D01*
X88850D01*
X88400Y68450D01*
X88050Y68200D01*
X87800Y67900D01*
X87600Y67400D01*
X87550Y66950D01*
X87650Y66500D01*
X87800Y66200D01*
X88100Y65900D01*
X88450Y65700D01*
X88800Y65600D01*
X89150D01*
X89500Y65700D01*
X89800Y65850D01*
X90050Y66050D01*
G01X92400Y65600D02*
Y68600D01*
X91800Y68000D01*
G01Y65600D02*
X93000D01*
G01X96000D02*
Y68600D01*
X95400Y68000D01*
G01Y65600D02*
X96600D01*
G01X95600Y87100D02*
Y90100D01*
X96850D01*
X97250Y89950D01*
X97500Y89750D01*
X97600Y89350D01*
X97500Y88950D01*
X97200Y88700D01*
X96850Y88550D01*
X95600D01*
G01X96850D02*
X97600Y87100D01*
G01X99250Y89600D02*
X99550Y89900D01*
X99900Y90050D01*
X100300Y90100D01*
X100800Y90000D01*
X101150Y89750D01*
X101250Y89450D01*
X101200Y89150D01*
X101000Y88900D01*
X100000Y88400D01*
X99550Y88050D01*
X99250Y87550D01*
X99150Y87100D01*
X101250D01*
G01X102950Y87450D02*
X103300Y87200D01*
X103700Y87100D01*
X104100Y87200D01*
X104450Y87500D01*
X104700Y87950D01*
X104800Y88400D01*
Y88950D01*
X104700Y89400D01*
X104450Y89800D01*
X104150Y90000D01*
X103800Y90100D01*
X103400Y90000D01*
X103100Y89800D01*
X102900Y89500D01*
X102800Y89100D01*
X102900Y88750D01*
X103150Y88400D01*
X103450Y88200D01*
X103800Y88150D01*
X104200Y88250D01*
X104500Y88500D01*
X104800Y88950D01*
G01X88550Y87600D02*
X88700Y87900D01*
X88800Y88250D01*
Y88650D01*
X88650Y89100D01*
X88400Y89450D01*
X88100Y89700D01*
X87600Y89900D01*
X87150Y89950D01*
X86700Y89850D01*
X86400Y89700D01*
X86100Y89400D01*
X85900Y89050D01*
X85800Y88700D01*
Y88350D01*
X85900Y88000D01*
X86050Y87700D01*
X86250Y87450D01*
G01Y86200D02*
X86000Y85900D01*
X85850Y85550D01*
X85800Y85100D01*
X85900Y84650D01*
X86100Y84300D01*
X86450Y84050D01*
X86850Y84000D01*
X87250Y84100D01*
X87500Y84350D01*
X87700Y84700D01*
X87750Y85050D01*
X87700Y85400D01*
X87500Y85850D01*
X88800Y85700D01*
Y84350D01*
G01X92650Y87800D02*
X92800Y88100D01*
X92900Y88450D01*
Y88850D01*
X92750Y89300D01*
X92500Y89650D01*
X92200Y89900D01*
X91700Y90100D01*
X91250Y90150D01*
X90800Y90050D01*
X90500Y89900D01*
X90200Y89600D01*
X90000Y89250D01*
X89900Y88900D01*
Y88550D01*
X90000Y88200D01*
X90150Y87900D01*
X90350Y87650D01*
G01X89900Y84700D02*
X92900D01*
X90750Y86550D01*
Y84050D01*
G01X103300Y7900D02*
Y10900D01*
X104550D01*
X104950Y10750D01*
X105200Y10550D01*
X105300Y10150D01*
X105200Y9750D01*
X104900Y9500D01*
X104550Y9350D01*
X103300D01*
G01X104550D02*
X105300Y7900D01*
G01X107900D02*
Y10900D01*
X107300Y10300D01*
G01Y7900D02*
X108500D01*
G01X110650Y8250D02*
X111000Y8000D01*
X111400Y7900D01*
X111800Y8000D01*
X112150Y8300D01*
X112400Y8750D01*
X112500Y9200D01*
Y9750D01*
X112400Y10200D01*
X112150Y10600D01*
X111850Y10800D01*
X111500Y10900D01*
X111100Y10800D01*
X110800Y10600D01*
X110600Y10300D01*
X110500Y9900D01*
X110600Y9550D01*
X110850Y9200D01*
X111150Y9000D01*
X111500Y8950D01*
X111900Y9050D01*
X112200Y9300D01*
X112500Y9750D01*
G01X107200Y14450D02*
X106900Y14600D01*
X106550Y14700D01*
X106150D01*
X105700Y14550D01*
X105350Y14300D01*
X105100Y14000D01*
X104900Y13500D01*
X104850Y13050D01*
X104950Y12600D01*
X105100Y12300D01*
X105400Y12000D01*
X105750Y11800D01*
X106100Y11700D01*
X106450D01*
X106800Y11800D01*
X107100Y11950D01*
X107350Y12150D01*
G01X108850Y12050D02*
X109200Y11800D01*
X109600Y11700D01*
X110000Y11800D01*
X110350Y12100D01*
X110600Y12550D01*
X110700Y13000D01*
Y13550D01*
X110600Y14000D01*
X110350Y14400D01*
X110050Y14600D01*
X109700Y14700D01*
X109300Y14600D01*
X109000Y14400D01*
X108800Y14100D01*
X108700Y13700D01*
X108800Y13350D01*
X109050Y13000D01*
X109350Y12800D01*
X109700Y12750D01*
X110100Y12850D01*
X110400Y13100D01*
X110700Y13550D01*
G01X115000Y18650D02*
X114700Y18800D01*
X114350Y18900D01*
X113950D01*
X113500Y18750D01*
X113150Y18500D01*
X112900Y18200D01*
X112700Y17700D01*
X112650Y17250D01*
X112750Y16800D01*
X112900Y16500D01*
X113200Y16200D01*
X113550Y16000D01*
X113900Y15900D01*
X114250D01*
X114600Y16000D01*
X114900Y16150D01*
X115150Y16350D01*
G01X117500Y15900D02*
Y18900D01*
X116900Y18300D01*
G01Y15900D02*
X118100D01*
G01X121100Y18900D02*
X120700Y18800D01*
X120400Y18550D01*
X120200Y18250D01*
X120050Y17850D01*
X120000Y17400D01*
X120050Y16950D01*
X120200Y16550D01*
X120400Y16250D01*
X120700Y16000D01*
X121100Y15900D01*
X121500Y16000D01*
X121800Y16250D01*
X122000Y16550D01*
X122150Y16950D01*
X122200Y17400D01*
X122150Y17850D01*
X122000Y18250D01*
X121800Y18550D01*
X121500Y18800D01*
X121100Y18900D01*
G01X109600Y41100D02*
Y38950D01*
X109800Y38500D01*
X110200Y38200D01*
X110700Y38100D01*
X111200Y38200D01*
X111600Y38500D01*
X111800Y38950D01*
Y41100D01*
G01X113350Y40600D02*
X113650Y40900D01*
X114000Y41050D01*
X114400Y41100D01*
X114900Y41000D01*
X115250Y40750D01*
X115350Y40450D01*
X115300Y40150D01*
X115100Y39900D01*
X114100Y39400D01*
X113650Y39050D01*
X113350Y38550D01*
X113250Y38100D01*
X115350D01*
G01X110700Y33500D02*
Y34850D01*
X109700Y36500D01*
G01X111700D02*
X110700Y34850D01*
G01X113350Y36000D02*
X113650Y36300D01*
X114000Y36450D01*
X114400Y36500D01*
X114900Y36400D01*
X115250Y36150D01*
X115350Y35850D01*
X115300Y35550D01*
X115100Y35300D01*
X114100Y34800D01*
X113650Y34450D01*
X113350Y33950D01*
X113250Y33500D01*
X115350D01*
G01X120600Y84950D02*
X120300Y85100D01*
X119950Y85200D01*
X119550D01*
X119100Y85050D01*
X118750Y84800D01*
X118500Y84500D01*
X118300Y84000D01*
X118250Y83550D01*
X118350Y83100D01*
X118500Y82800D01*
X118800Y82500D01*
X119150Y82300D01*
X119500Y82200D01*
X119850D01*
X120200Y82300D01*
X120500Y82450D01*
X120750Y82650D01*
G01X123100Y82200D02*
Y85200D01*
X122500Y84600D01*
G01Y82200D02*
X123700D01*
G01X125600Y82800D02*
X125900Y82450D01*
X126300Y82250D01*
X126750Y82200D01*
X127150Y82250D01*
X127550Y82500D01*
X127800Y82800D01*
X127850Y83100D01*
X127750Y83450D01*
X127400Y83700D01*
X127050Y83800D01*
X126600D01*
G01X127050D02*
X127350Y83950D01*
X127600Y84200D01*
X127700Y84500D01*
X127600Y84800D01*
X127350Y85050D01*
X126900Y85200D01*
X126450Y85150D01*
X126000Y84950D01*
G01X113900Y106800D02*
X114150Y106500D01*
X114450Y106300D01*
X114800Y106200D01*
X115200Y106300D01*
X115500Y106500D01*
X115800Y106800D01*
X115900Y107200D01*
Y109200D01*
G01X117650Y106550D02*
X118000Y106300D01*
X118400Y106200D01*
X118800Y106300D01*
X119150Y106600D01*
X119400Y107050D01*
X119500Y107500D01*
Y108050D01*
X119400Y108500D01*
X119150Y108900D01*
X118850Y109100D01*
X118500Y109200D01*
X118100Y109100D01*
X117800Y108900D01*
X117600Y108600D01*
X117500Y108200D01*
X117600Y107850D01*
X117850Y107500D01*
X118150Y107300D01*
X118500Y107250D01*
X118900Y107350D01*
X119200Y107600D01*
X119500Y108050D01*
G01X138900Y11650D02*
X138600Y11800D01*
X138250Y11900D01*
X137850D01*
X137400Y11750D01*
X137050Y11500D01*
X136800Y11200D01*
X136600Y10700D01*
X136550Y10250D01*
X136650Y9800D01*
X136800Y9500D01*
X137100Y9200D01*
X137450Y9000D01*
X137800Y8900D01*
X138150D01*
X138500Y9000D01*
X138800Y9150D01*
X139050Y9350D01*
G01X140450Y10150D02*
X140800Y10500D01*
X141100Y10700D01*
X141500Y10800D01*
X141850Y10700D01*
X142100Y10500D01*
X142300Y10200D01*
X142350Y9850D01*
X142300Y9550D01*
X142100Y9250D01*
X141800Y9000D01*
X141450Y8900D01*
X141050Y9000D01*
X140700Y9300D01*
X140500Y9750D01*
X140450Y10250D01*
X140550Y10900D01*
X140700Y11250D01*
X140950Y11600D01*
X141300Y11850D01*
X141650Y11900D01*
X142000Y11800D01*
X142250Y11550D01*
G01X127900Y12050D02*
X127600Y12200D01*
X127250Y12300D01*
X126850D01*
X126400Y12150D01*
X126050Y11900D01*
X125800Y11600D01*
X125600Y11100D01*
X125550Y10650D01*
X125650Y10200D01*
X125800Y9900D01*
X126100Y9600D01*
X126450Y9400D01*
X126800Y9300D01*
X127150D01*
X127500Y9400D01*
X127800Y9550D01*
X128050Y9750D01*
G01X130400Y9300D02*
Y12300D01*
X129800Y11700D01*
G01Y9300D02*
X131000D01*
G01X128100Y33200D02*
Y34550D01*
X127100Y36200D01*
G01X129100D02*
X128100Y34550D01*
G01X131700Y33200D02*
Y36200D01*
X131100Y35600D01*
G01Y33200D02*
X132300D01*
G01X136800Y41550D02*
X136500Y41700D01*
X136150Y41800D01*
X135750D01*
X135300Y41650D01*
X134950Y41400D01*
X134700Y41100D01*
X134500Y40600D01*
X134450Y40150D01*
X134550Y39700D01*
X134700Y39400D01*
X135000Y39100D01*
X135350Y38900D01*
X135700Y38800D01*
X136050D01*
X136400Y38900D01*
X136700Y39050D01*
X136950Y39250D01*
G01X139300Y38800D02*
Y41800D01*
X138700Y41200D01*
G01Y38800D02*
X139900D01*
G01X141950Y41300D02*
X142250Y41600D01*
X142600Y41750D01*
X143000Y41800D01*
X143500Y41700D01*
X143850Y41450D01*
X143950Y41150D01*
X143900Y40850D01*
X143700Y40600D01*
X142700Y40100D01*
X142250Y39750D01*
X141950Y39250D01*
X141850Y38800D01*
X143950D01*
G01X128400Y87100D02*
Y90100D01*
X129650D01*
X130050Y89950D01*
X130300Y89750D01*
X130400Y89350D01*
X130300Y88950D01*
X130000Y88700D01*
X129650Y88550D01*
X128400D01*
G01X129650D02*
X130400Y87100D01*
G01X131900Y87700D02*
X132200Y87350D01*
X132600Y87150D01*
X133050Y87100D01*
X133450Y87150D01*
X133850Y87400D01*
X134100Y87700D01*
X134150Y88000D01*
X134050Y88350D01*
X133700Y88600D01*
X133350Y88700D01*
X132900D01*
G01X133350D02*
X133650Y88850D01*
X133900Y89100D01*
X134000Y89400D01*
X133900Y89700D01*
X133650Y89950D01*
X133200Y90100D01*
X132750Y90050D01*
X132300Y89850D01*
G01X135500Y87700D02*
X135800Y87350D01*
X136200Y87150D01*
X136650Y87100D01*
X137050Y87150D01*
X137450Y87400D01*
X137700Y87700D01*
X137750Y88000D01*
X137650Y88350D01*
X137300Y88600D01*
X136950Y88700D01*
X136500D01*
G01X136950D02*
X137250Y88850D01*
X137500Y89100D01*
X137600Y89400D01*
X137500Y89700D01*
X137250Y89950D01*
X136800Y90100D01*
X136350Y90050D01*
X135900Y89850D01*
G01X152500Y9700D02*
X152750Y9400D01*
X153050Y9200D01*
X153400Y9100D01*
X153800Y9200D01*
X154100Y9400D01*
X154400Y9700D01*
X154500Y10100D01*
Y12100D01*
G01X157100Y9100D02*
Y12100D01*
X156500Y11500D01*
G01Y9100D02*
X157700D01*
G01X159600Y9700D02*
X159900Y9350D01*
X160300Y9150D01*
X160750Y9100D01*
X161150Y9150D01*
X161550Y9400D01*
X161800Y9700D01*
X161850Y10000D01*
X161750Y10350D01*
X161400Y10600D01*
X161050Y10700D01*
X160600D01*
G01X161050D02*
X161350Y10850D01*
X161600Y11100D01*
X161700Y11400D01*
X161600Y11700D01*
X161350Y11950D01*
X160900Y12100D01*
X160450Y12050D01*
X160000Y11850D01*
G01X148600Y37200D02*
Y40200D01*
X149850D01*
X150250Y40050D01*
X150500Y39850D01*
X150600Y39450D01*
X150500Y39050D01*
X150200Y38800D01*
X149850Y38650D01*
X148600D01*
G01X149850D02*
X150600Y37200D01*
G01X152100Y37650D02*
X152400Y37400D01*
X152750Y37250D01*
X153200Y37200D01*
X153650Y37300D01*
X154000Y37500D01*
X154250Y37850D01*
X154300Y38250D01*
X154200Y38650D01*
X153950Y38900D01*
X153600Y39100D01*
X153250Y39150D01*
X152900Y39100D01*
X152450Y38900D01*
X152600Y40200D01*
X153950D01*
G01X148700Y42000D02*
Y45000D01*
X149950D01*
X150350Y44850D01*
X150600Y44650D01*
X150700Y44250D01*
X150600Y43850D01*
X150300Y43600D01*
X149950Y43450D01*
X148700D01*
G01X149950D02*
X150700Y42000D01*
G01X153300D02*
Y45000D01*
X152700Y44400D01*
G01Y42000D02*
X153900D01*
G01X150700Y68300D02*
Y71300D01*
X151950D01*
X152350Y71150D01*
X152600Y70950D01*
X152700Y70550D01*
X152600Y70150D01*
X152300Y69900D01*
X151950Y69750D01*
X150700D01*
G01X151950D02*
X152700Y68300D01*
G01X154350Y70800D02*
X154650Y71100D01*
X155000Y71250D01*
X155400Y71300D01*
X155900Y71200D01*
X156250Y70950D01*
X156350Y70650D01*
X156300Y70350D01*
X156100Y70100D01*
X155100Y69600D01*
X154650Y69250D01*
X154350Y68750D01*
X154250Y68300D01*
X156350D01*
G01X157800Y68900D02*
X158100Y68550D01*
X158500Y68350D01*
X158950Y68300D01*
X159350Y68350D01*
X159750Y68600D01*
X160000Y68900D01*
X160050Y69200D01*
X159950Y69550D01*
X159600Y69800D01*
X159250Y69900D01*
X158800D01*
G01X159250D02*
X159550Y70050D01*
X159800Y70300D01*
X159900Y70600D01*
X159800Y70900D01*
X159550Y71150D01*
X159100Y71300D01*
X158650Y71250D01*
X158200Y71050D01*
G01X152700Y67250D02*
X152400Y67400D01*
X152050Y67500D01*
X151650D01*
X151200Y67350D01*
X150850Y67100D01*
X150600Y66800D01*
X150400Y66300D01*
X150350Y65850D01*
X150450Y65400D01*
X150600Y65100D01*
X150900Y64800D01*
X151250Y64600D01*
X151600Y64500D01*
X151950D01*
X152300Y64600D01*
X152600Y64750D01*
X152850Y64950D01*
G01X155200Y64500D02*
Y67500D01*
X154600Y66900D01*
G01Y64500D02*
X155800D01*
G01X157700Y64950D02*
X158000Y64700D01*
X158350Y64550D01*
X158800Y64500D01*
X159250Y64600D01*
X159600Y64800D01*
X159850Y65150D01*
X159900Y65550D01*
X159800Y65950D01*
X159550Y66200D01*
X159200Y66400D01*
X158850Y66450D01*
X158500Y66400D01*
X158050Y66200D01*
X158200Y67500D01*
X159550D01*
G01X156400Y86900D02*
Y89900D01*
X157650D01*
X158050Y89750D01*
X158300Y89550D01*
X158400Y89150D01*
X158300Y88750D01*
X158000Y88500D01*
X157650Y88350D01*
X156400D01*
G01X157650D02*
X158400Y86900D01*
G01X160050Y89400D02*
X160350Y89700D01*
X160700Y89850D01*
X161100Y89900D01*
X161600Y89800D01*
X161950Y89550D01*
X162050Y89250D01*
X162000Y88950D01*
X161800Y88700D01*
X160800Y88200D01*
X160350Y87850D01*
X160050Y87350D01*
X159950Y86900D01*
X162050D01*
G01X164600D02*
Y89900D01*
X164000Y89300D01*
G01Y86900D02*
X165200D01*
G01X172100Y39900D02*
X172350Y39600D01*
X172650Y39400D01*
X173000Y39300D01*
X173400Y39400D01*
X173700Y39600D01*
X174000Y39900D01*
X174100Y40300D01*
Y42300D01*
G01X175600Y39750D02*
X175900Y39500D01*
X176250Y39350D01*
X176700Y39300D01*
X177150Y39400D01*
X177500Y39600D01*
X177750Y39950D01*
X177800Y40350D01*
X177700Y40750D01*
X177450Y41000D01*
X177100Y41200D01*
X176750Y41250D01*
X176400Y41200D01*
X175950Y41000D01*
X176100Y42300D01*
X177450D01*
G01X160800Y44700D02*
Y47700D01*
X162050D01*
X162450Y47550D01*
X162700Y47350D01*
X162800Y46950D01*
X162700Y46550D01*
X162400Y46300D01*
X162050Y46150D01*
X160800D01*
G01X162050D02*
X162800Y44700D01*
G01X165400D02*
Y47700D01*
X164800Y47100D01*
G01Y44700D02*
X166000D01*
G01X169000Y47700D02*
X168600Y47600D01*
X168300Y47350D01*
X168100Y47050D01*
X167950Y46650D01*
X167900Y46200D01*
X167950Y45750D01*
X168100Y45350D01*
X168300Y45050D01*
X168600Y44800D01*
X169000Y44700D01*
X169400Y44800D01*
X169700Y45050D01*
X169900Y45350D01*
X170050Y45750D01*
X170100Y46200D01*
X170050Y46650D01*
X169900Y47050D01*
X169700Y47350D01*
X169400Y47600D01*
X169000Y47700D01*
G01X160100Y73200D02*
Y76200D01*
X161350D01*
X161750Y76050D01*
X162000Y75850D01*
X162100Y75450D01*
X162000Y75050D01*
X161700Y74800D01*
X161350Y74650D01*
X160100D01*
G01X161350D02*
X162100Y73200D01*
G01X163750Y75700D02*
X164050Y76000D01*
X164400Y76150D01*
X164800Y76200D01*
X165300Y76100D01*
X165650Y75850D01*
X165750Y75550D01*
X165700Y75250D01*
X165500Y75000D01*
X164500Y74500D01*
X164050Y74150D01*
X163750Y73650D01*
X163650Y73200D01*
X165750D01*
G01X167200Y73650D02*
X167500Y73400D01*
X167850Y73250D01*
X168300Y73200D01*
X168750Y73300D01*
X169100Y73500D01*
X169350Y73850D01*
X169400Y74250D01*
X169300Y74650D01*
X169050Y74900D01*
X168700Y75100D01*
X168350Y75150D01*
X168000Y75100D01*
X167550Y74900D01*
X167700Y76200D01*
X169050D01*
G01X166500Y86800D02*
Y89800D01*
X167750D01*
X168150Y89650D01*
X168400Y89450D01*
X168500Y89050D01*
X168400Y88650D01*
X168100Y88400D01*
X167750Y88250D01*
X166500D01*
G01X167750D02*
X168500Y86800D01*
G01X170150Y89300D02*
X170450Y89600D01*
X170800Y89750D01*
X171200Y89800D01*
X171700Y89700D01*
X172050Y89450D01*
X172150Y89150D01*
X172100Y88850D01*
X171900Y88600D01*
X170900Y88100D01*
X170450Y87750D01*
X170150Y87250D01*
X170050Y86800D01*
X172150D01*
G01X173750Y89300D02*
X174050Y89600D01*
X174400Y89750D01*
X174800Y89800D01*
X175300Y89700D01*
X175650Y89450D01*
X175750Y89150D01*
X175700Y88850D01*
X175500Y88600D01*
X174500Y88100D01*
X174050Y87750D01*
X173750Y87250D01*
X173650Y86800D01*
X175750D01*
G01X168400Y93550D02*
X168100Y93700D01*
X167750Y93800D01*
X167350D01*
X166900Y93650D01*
X166550Y93400D01*
X166300Y93100D01*
X166100Y92600D01*
X166050Y92150D01*
X166150Y91700D01*
X166300Y91400D01*
X166600Y91100D01*
X166950Y90900D01*
X167300Y90800D01*
X167650D01*
X168000Y90900D01*
X168300Y91050D01*
X168550Y91250D01*
G01X170900Y90800D02*
Y93800D01*
X170300Y93200D01*
G01Y90800D02*
X171500D01*
G01X173550Y92050D02*
X173900Y92400D01*
X174200Y92600D01*
X174600Y92700D01*
X174950Y92600D01*
X175200Y92400D01*
X175400Y92100D01*
X175450Y91750D01*
X175400Y91450D01*
X175200Y91150D01*
X174900Y90900D01*
X174550Y90800D01*
X174150Y90900D01*
X173800Y91200D01*
X173600Y91650D01*
X173550Y92150D01*
X173650Y92800D01*
X173800Y93150D01*
X174050Y93500D01*
X174400Y93750D01*
X174750Y93800D01*
X175100Y93700D01*
X175350Y93450D01*
G01X165200Y106600D02*
X165450Y106300D01*
X165750Y106100D01*
X166100Y106000D01*
X166500Y106100D01*
X166800Y106300D01*
X167100Y106600D01*
X167200Y107000D01*
Y109000D01*
G01X169800Y106000D02*
Y109000D01*
X169200Y108400D01*
G01Y106000D02*
X170400D01*
G01X173400D02*
Y109000D01*
X172800Y108400D01*
G01Y106000D02*
X174000D01*
G01X179400Y39900D02*
X179650Y39600D01*
X179950Y39400D01*
X180300Y39300D01*
X180700Y39400D01*
X181000Y39600D01*
X181300Y39900D01*
X181400Y40300D01*
Y42300D01*
G01X184000Y39300D02*
X184350Y39350D01*
X184750Y39500D01*
X185000Y39750D01*
X185100Y40100D01*
X185000Y40450D01*
X184700Y40750D01*
X184250Y40900D01*
X183750D01*
X183450Y41000D01*
X183200Y41250D01*
X183100Y41600D01*
X183250Y41950D01*
X183600Y42200D01*
X184000Y42300D01*
X184400Y42200D01*
X184750Y41950D01*
X184900Y41600D01*
X184800Y41250D01*
X184550Y41000D01*
X184250Y40900D01*
X183750D01*
X183300Y40750D01*
X183000Y40450D01*
X182900Y40100D01*
X183000Y39750D01*
X183250Y39500D01*
X183650Y39350D01*
X184000Y39300D01*
G01X191600Y48100D02*
Y51100D01*
X192850D01*
X193250Y50950D01*
X193500Y50750D01*
X193600Y50350D01*
X193500Y49950D01*
X193200Y49700D01*
X192850Y49550D01*
X191600D01*
G01X192850D02*
X193600Y48100D01*
G01X195100Y48700D02*
X195400Y48350D01*
X195800Y48150D01*
X196250Y48100D01*
X196650Y48150D01*
X197050Y48400D01*
X197300Y48700D01*
X197350Y49000D01*
X197250Y49350D01*
X196900Y49600D01*
X196550Y49700D01*
X196100D01*
G01X196550D02*
X196850Y49850D01*
X197100Y50100D01*
X197200Y50400D01*
X197100Y50700D01*
X196850Y50950D01*
X196400Y51100D01*
X195950Y51050D01*
X195500Y50850D01*
G01X198850Y50600D02*
X199150Y50900D01*
X199500Y51050D01*
X199900Y51100D01*
X200400Y51000D01*
X200750Y50750D01*
X200850Y50450D01*
X200800Y50150D01*
X200600Y49900D01*
X199600Y49400D01*
X199150Y49050D01*
X198850Y48550D01*
X198750Y48100D01*
X200850D01*
G01X193900Y43900D02*
Y46900D01*
X195150D01*
X195550Y46750D01*
X195800Y46550D01*
X195900Y46150D01*
X195800Y45750D01*
X195500Y45500D01*
X195150Y45350D01*
X193900D01*
G01X195150D02*
X195900Y43900D01*
G01X197400Y44500D02*
X197700Y44150D01*
X198100Y43950D01*
X198550Y43900D01*
X198950Y43950D01*
X199350Y44200D01*
X199600Y44500D01*
X199650Y44800D01*
X199550Y45150D01*
X199200Y45400D01*
X198850Y45500D01*
X198400D01*
G01X198850D02*
X199150Y45650D01*
X199400Y45900D01*
X199500Y46200D01*
X199400Y46500D01*
X199150Y46750D01*
X198700Y46900D01*
X198250Y46850D01*
X197800Y46650D01*
G01X202100Y43900D02*
Y46900D01*
X201500Y46300D01*
G01Y43900D02*
X202700D01*
G01X191500Y53000D02*
Y56000D01*
X192750D01*
X193150Y55850D01*
X193400Y55650D01*
X193500Y55250D01*
X193400Y54850D01*
X193100Y54600D01*
X192750Y54450D01*
X191500D01*
G01X192750D02*
X193500Y53000D01*
G01X195000Y53600D02*
X195300Y53250D01*
X195700Y53050D01*
X196150Y53000D01*
X196550Y53050D01*
X196950Y53300D01*
X197200Y53600D01*
X197250Y53900D01*
X197150Y54250D01*
X196800Y54500D01*
X196450Y54600D01*
X196000D01*
G01X196450D02*
X196750Y54750D01*
X197000Y55000D01*
X197100Y55300D01*
X197000Y55600D01*
X196750Y55850D01*
X196300Y56000D01*
X195850Y55950D01*
X195400Y55750D01*
G01X199700Y56000D02*
X199300Y55900D01*
X199000Y55650D01*
X198800Y55350D01*
X198650Y54950D01*
X198600Y54500D01*
X198650Y54050D01*
X198800Y53650D01*
X199000Y53350D01*
X199300Y53100D01*
X199700Y53000D01*
X200100Y53100D01*
X200400Y53350D01*
X200600Y53650D01*
X200750Y54050D01*
X200800Y54500D01*
X200750Y54950D01*
X200600Y55350D01*
X200400Y55650D01*
X200100Y55900D01*
X199700Y56000D01*
G01X183300Y43900D02*
Y46900D01*
X184550D01*
X184950Y46750D01*
X185200Y46550D01*
X185300Y46150D01*
X185200Y45750D01*
X184900Y45500D01*
X184550Y45350D01*
X183300D01*
G01X184550D02*
X185300Y43900D01*
G01X186950Y46400D02*
X187250Y46700D01*
X187600Y46850D01*
X188000Y46900D01*
X188500Y46800D01*
X188850Y46550D01*
X188950Y46250D01*
X188900Y45950D01*
X188700Y45700D01*
X187700Y45200D01*
X187250Y44850D01*
X186950Y44350D01*
X186850Y43900D01*
X188950D01*
G01X191500D02*
X191850Y43950D01*
X192250Y44100D01*
X192500Y44350D01*
X192600Y44700D01*
X192500Y45050D01*
X192200Y45350D01*
X191750Y45500D01*
X191250D01*
X190950Y45600D01*
X190700Y45850D01*
X190600Y46200D01*
X190750Y46550D01*
X191100Y46800D01*
X191500Y46900D01*
X191900Y46800D01*
X192250Y46550D01*
X192400Y46200D01*
X192300Y45850D01*
X192050Y45600D01*
X191750Y45500D01*
X191250D01*
X190800Y45350D01*
X190500Y45050D01*
X190400Y44700D01*
X190500Y44350D01*
X190750Y44100D01*
X191150Y43950D01*
X191500Y43900D01*
G01X191600Y57600D02*
Y60600D01*
X192850D01*
X193250Y60450D01*
X193500Y60250D01*
X193600Y59850D01*
X193500Y59450D01*
X193200Y59200D01*
X192850Y59050D01*
X191600D01*
G01X192850D02*
X193600Y57600D01*
G01X195250Y60100D02*
X195550Y60400D01*
X195900Y60550D01*
X196300Y60600D01*
X196800Y60500D01*
X197150Y60250D01*
X197250Y59950D01*
X197200Y59650D01*
X197000Y59400D01*
X196000Y58900D01*
X195550Y58550D01*
X195250Y58050D01*
X195150Y57600D01*
X197250D01*
G01X199700D02*
X199800Y58250D01*
X199950Y58800D01*
X200150Y59300D01*
X200400Y59850D01*
X200800Y60600D01*
X198800D01*
G01X191700Y62700D02*
Y65700D01*
X192950D01*
X193350Y65550D01*
X193600Y65350D01*
X193700Y64950D01*
X193600Y64550D01*
X193300Y64300D01*
X192950Y64150D01*
X191700D01*
G01X192950D02*
X193700Y62700D01*
G01X195350Y65200D02*
X195650Y65500D01*
X196000Y65650D01*
X196400Y65700D01*
X196900Y65600D01*
X197250Y65350D01*
X197350Y65050D01*
X197300Y64750D01*
X197100Y64500D01*
X196100Y64000D01*
X195650Y63650D01*
X195350Y63150D01*
X195250Y62700D01*
X197350D01*
G01X198950Y63950D02*
X199300Y64300D01*
X199600Y64500D01*
X200000Y64600D01*
X200350Y64500D01*
X200600Y64300D01*
X200800Y64000D01*
X200850Y63650D01*
X200800Y63350D01*
X200600Y63050D01*
X200300Y62800D01*
X199950Y62700D01*
X199550Y62800D01*
X199200Y63100D01*
X199000Y63550D01*
X198950Y64050D01*
X199050Y64700D01*
X199200Y65050D01*
X199450Y65400D01*
X199800Y65650D01*
X200150Y65700D01*
X200500Y65600D01*
X200750Y65350D01*
G01X191500Y72900D02*
Y75900D01*
X192750D01*
X193150Y75750D01*
X193400Y75550D01*
X193500Y75150D01*
X193400Y74750D01*
X193100Y74500D01*
X192750Y74350D01*
X191500D01*
G01X192750D02*
X193500Y72900D01*
G01X195150Y75400D02*
X195450Y75700D01*
X195800Y75850D01*
X196200Y75900D01*
X196700Y75800D01*
X197050Y75550D01*
X197150Y75250D01*
X197100Y74950D01*
X196900Y74700D01*
X195900Y74200D01*
X195450Y73850D01*
X195150Y73350D01*
X195050Y72900D01*
X197150D01*
G01X200300D02*
Y75900D01*
X198450Y73750D01*
X200950D01*
G01X206200Y40000D02*
X206450Y39700D01*
X206750Y39500D01*
X207100Y39400D01*
X207500Y39500D01*
X207800Y39700D01*
X208100Y40000D01*
X208200Y40400D01*
Y42400D01*
G01X211400Y39400D02*
Y42400D01*
X209550Y40250D01*
X212050D01*
G01X205700Y77900D02*
X205950Y77600D01*
X206250Y77400D01*
X206600Y77300D01*
X207000Y77400D01*
X207300Y77600D01*
X207600Y77900D01*
X207700Y78300D01*
Y80300D01*
G01X210200Y77300D02*
X210300Y77950D01*
X210450Y78500D01*
X210650Y79000D01*
X210900Y79550D01*
X211300Y80300D01*
X209300D01*
G01X204200Y93900D02*
X204450Y93600D01*
X204750Y93400D01*
X205100Y93300D01*
X205500Y93400D01*
X205800Y93600D01*
X206100Y93900D01*
X206200Y94300D01*
Y96300D01*
G01X208800Y93300D02*
Y96300D01*
X208200Y95700D01*
G01Y93300D02*
X209400D01*
G01X212400Y96300D02*
X212000Y96200D01*
X211700Y95950D01*
X211500Y95650D01*
X211350Y95250D01*
X211300Y94800D01*
X211350Y94350D01*
X211500Y93950D01*
X211700Y93650D01*
X212000Y93400D01*
X212400Y93300D01*
X212800Y93400D01*
X213100Y93650D01*
X213300Y93950D01*
X213450Y94350D01*
X213500Y94800D01*
X213450Y95250D01*
X213300Y95650D01*
X213100Y95950D01*
X212800Y96200D01*
X212400Y96300D01*
G01X218450Y20900D02*
X218850Y20650D01*
X219300Y20500D01*
X219700D01*
X220100Y20650D01*
X220400Y20900D01*
X220550Y21250D01*
X220450Y21600D01*
X220200Y21900D01*
X219750Y22100D01*
X219150Y22200D01*
X218800Y22400D01*
X218650Y22750D01*
X218750Y23100D01*
X219000Y23350D01*
X219350Y23500D01*
X219700D01*
X220050Y23400D01*
X220350Y23150D01*
G01X222050Y20500D02*
Y23500D01*
G01X224150D02*
Y20500D01*
G01Y22000D02*
X222050D01*
G01X225750Y23000D02*
X226050Y23300D01*
X226400Y23450D01*
X226800Y23500D01*
X227300Y23400D01*
X227650Y23150D01*
X227750Y22850D01*
X227700Y22550D01*
X227500Y22300D01*
X226500Y21800D01*
X226050Y21450D01*
X225750Y20950D01*
X225650Y20500D01*
X227750D01*
G01X217800Y93800D02*
X218050Y93500D01*
X218350Y93300D01*
X218700Y93200D01*
X219100Y93300D01*
X219400Y93500D01*
X219700Y93800D01*
X219800Y94200D01*
Y96200D01*
G01X221300Y93800D02*
X221600Y93450D01*
X222000Y93250D01*
X222450Y93200D01*
X222850Y93250D01*
X223250Y93500D01*
X223500Y93800D01*
X223550Y94100D01*
X223450Y94450D01*
X223100Y94700D01*
X222750Y94800D01*
X222300D01*
G01X222750D02*
X223050Y94950D01*
X223300Y95200D01*
X223400Y95500D01*
X223300Y95800D01*
X223050Y96050D01*
X222600Y96200D01*
X222150Y96150D01*
X221700Y95950D01*
G01X218450Y108900D02*
X218850Y108650D01*
X219300Y108500D01*
X219700D01*
X220100Y108650D01*
X220400Y108900D01*
X220550Y109250D01*
X220450Y109600D01*
X220200Y109900D01*
X219750Y110100D01*
X219150Y110200D01*
X218800Y110400D01*
X218650Y110750D01*
X218750Y111100D01*
X219000Y111350D01*
X219350Y111500D01*
X219700D01*
X220050Y111400D01*
X220350Y111150D01*
G01X222050Y108500D02*
Y111500D01*
G01X224150D02*
Y108500D01*
G01Y110000D02*
X222050D01*
G01X225600Y109100D02*
X225900Y108750D01*
X226300Y108550D01*
X226750Y108500D01*
X227150Y108550D01*
X227550Y108800D01*
X227800Y109100D01*
X227850Y109400D01*
X227750Y109750D01*
X227400Y110000D01*
X227050Y110100D01*
X226600D01*
G01X227050D02*
X227350Y110250D01*
X227600Y110500D01*
X227700Y110800D01*
X227600Y111100D01*
X227350Y111350D01*
X226900Y111500D01*
X226450Y111450D01*
X226000Y111250D01*
G54D11*
G01X37836Y32035D02*
X34305D01*
Y26965D01*
X37836D01*
G01Y37968D02*
X34305D01*
Y32898D01*
X37836D01*
G01X27355Y32035D02*
X30886D01*
Y26965D01*
X27355D01*
G01X23827Y32035D02*
X20296D01*
Y26965D01*
X23827D01*
G01Y32898D02*
X20296D01*
Y37968D01*
X23827D01*
G01X27355Y32898D02*
X30886D01*
Y37968D01*
X27355D01*
G01X39844Y50850D02*
X42285D01*
Y47150D01*
X39844D01*
G01X37404Y50850D02*
X34963D01*
Y47150D01*
X37404D01*
G01X41084Y56580D02*
Y53620D01*
X36116D01*
Y56580D01*
X41084D01*
G01Y60535D02*
Y57575D01*
X36116D01*
Y60535D01*
X41084D01*
G01X39820Y66650D02*
X42261D01*
Y62950D01*
X39820D01*
G01X37380Y66650D02*
X34939D01*
Y62950D01*
X37380D01*
G01X49945Y70398D02*
Y69327D01*
X38055D01*
Y70398D01*
G01Y76602D02*
Y77673D01*
X49945D01*
Y76602D01*
G01X33500Y94500D02*
Y104500D01*
X53500D01*
Y94500D01*
X33500D01*
G01X41364Y32035D02*
X44895D01*
Y26965D01*
X41364D01*
G01Y37968D02*
X44895D01*
Y32898D01*
X41364D01*
G01X47380Y53250D02*
X44939D01*
Y56950D01*
X47380D01*
G01X49820Y53250D02*
X52261D01*
Y56950D01*
X49820D01*
G01X47380Y57650D02*
X44939D01*
Y61350D01*
X47380D01*
G01X49820Y57650D02*
X52261D01*
Y61350D01*
X49820D01*
G01X48280Y46205D02*
X45839D01*
Y49905D01*
X48280D01*
G01X50720Y46205D02*
X53161D01*
Y49905D01*
X50720D01*
G01X61955Y41323D02*
X57758D01*
G01D02*
Y47307D01*
G01X54409Y78583D02*
Y82752D01*
X61591D01*
Y78583D01*
G01X54409Y74417D02*
Y70248D01*
X61591D01*
Y74417D01*
G01X40220Y80197D02*
Y79008D01*
X47780D01*
Y80197D01*
G01X56100Y94500D02*
Y104500D01*
X96100D01*
Y94500D01*
X56100D01*
G01X40220Y87697D02*
Y86508D01*
X47780D01*
Y87697D01*
G01X40220Y91303D02*
Y92492D01*
X47780D01*
Y91303D01*
G01X40220Y83803D02*
Y84992D01*
X47780D01*
Y83803D01*
G01X60000Y20000D02*
Y30000D01*
X80000D01*
Y20000D01*
X60000D01*
G01X78050Y40856D02*
X80491D01*
Y37156D01*
X78050D01*
G01X75610Y40856D02*
X73169D01*
Y37156D01*
X75610D01*
G01Y32150D02*
X73169D01*
Y35850D01*
X75610D01*
G01X78050Y32150D02*
X80491D01*
Y35850D01*
X78050D01*
G01X75610Y47400D02*
X73169D01*
Y51100D01*
X75610D01*
G01X78050Y47400D02*
X80491D01*
Y51100D01*
X78050D01*
G01X75610Y42278D02*
X73169D01*
Y45978D01*
X75610D01*
G01X78050Y42278D02*
X80491D01*
Y45978D01*
X78050D01*
G01X62105Y47307D02*
X65695D01*
G01X70042D02*
Y41323D01*
X65845D01*
G01X81287Y70161D02*
X73713D01*
G01X78720Y68850D02*
X81161D01*
Y65150D01*
X78720D01*
G01X76280Y68850D02*
X73839D01*
Y65150D01*
X76280D01*
G01X63465Y78264D02*
Y81795D01*
X68535D01*
Y78264D01*
G01X63465Y74736D02*
Y71205D01*
X68535D01*
Y74736D01*
G01X73713Y82839D02*
X81287D01*
G01X89220Y19950D02*
X91661D01*
Y16250D01*
X89220D01*
G01X86780Y19950D02*
X84339D01*
Y16250D01*
X86780D01*
G01Y20950D02*
X84339D01*
Y24650D01*
X86780D01*
G01X89220Y20950D02*
X91661D01*
Y24650D01*
X89220D01*
G01X100780Y34650D02*
X98339D01*
Y38350D01*
X100780D01*
G01X86780Y32150D02*
X84339D01*
Y35850D01*
X86780D01*
G01X89220Y32150D02*
X91661D01*
Y35850D01*
X89220D01*
G01Y29350D02*
X91661D01*
Y25650D01*
X89220D01*
G01X86780Y29350D02*
X84339D01*
Y25650D01*
X86780D01*
G01X100780Y43350D02*
X98339D01*
Y39650D01*
X100780D01*
G01X100580Y59921D02*
X98139D01*
Y56221D01*
X100580D01*
G01X100780Y48350D02*
X98339D01*
Y44650D01*
X100780D01*
G01X81287Y74823D02*
Y78177D01*
G01X86465Y78264D02*
Y81795D01*
X91535D01*
Y78264D01*
G01X86465Y74736D02*
Y71205D01*
X91535D01*
Y74736D01*
G01X93409Y78583D02*
Y82752D01*
X100591D01*
Y78583D01*
G01X93409Y74417D02*
Y70248D01*
X100591D01*
Y74417D01*
G01X106780Y15350D02*
X104339D01*
Y19050D01*
X106780D01*
G01X109220Y15350D02*
X111661D01*
Y19050D01*
X109220D01*
G01X106780Y20150D02*
X104339D01*
Y23850D01*
X106780D01*
G01X109220Y20150D02*
X111661D01*
Y23850D01*
X109220D01*
G01X118220D02*
X120661D01*
Y20150D01*
X118220D01*
G01X115780Y23850D02*
X113339D01*
Y20150D01*
X115780D01*
G01X103220Y34650D02*
X105661D01*
Y38350D01*
X103220D01*
G01Y43350D02*
X105661D01*
Y39650D01*
X103220D01*
G01X103020Y59921D02*
X105461D01*
Y56221D01*
X103020D01*
G01X103220Y48350D02*
X105661D01*
Y44650D01*
X103220D01*
G01X99100Y94500D02*
Y104500D01*
X139100D01*
Y94500D01*
X99100D01*
G01X110420Y90350D02*
X112861D01*
Y86650D01*
X110420D01*
G01X107980Y90350D02*
X105539D01*
Y86650D01*
X107980D01*
G01X114320Y85250D02*
X116761D01*
Y81550D01*
X114320D01*
G01X111880Y85250D02*
X109439D01*
Y81550D01*
X111880D01*
G01X138392Y13150D02*
X135951D01*
Y16850D01*
X138392D01*
G01X129608D02*
X132049D01*
Y13150D01*
X129608D01*
G01X127168Y16850D02*
X124727D01*
Y13150D01*
X127168D01*
G01X138180Y33750D02*
X135739D01*
Y37450D01*
X138180D01*
G01X124102Y90350D02*
X126543D01*
Y86650D01*
X124102D01*
G01X121662Y90350D02*
X119221D01*
Y86650D01*
X121662D01*
G01X152800Y14000D02*
Y24000D01*
X212800D01*
Y14000D01*
X152800D01*
G01X140832Y13150D02*
X143273D01*
Y16850D01*
X140832D01*
G01X149980Y27750D02*
X147539D01*
Y31450D01*
X149980D01*
G01X152420Y27750D02*
X154861D01*
Y31450D01*
X152420D01*
G01Y36250D02*
X154861D01*
Y32550D01*
X152420D01*
G01X149980Y36250D02*
X147539D01*
Y32550D01*
X149980D01*
G01X140620Y33750D02*
X143061D01*
Y37450D01*
X140620D01*
G01X153580Y77650D02*
X151139D01*
Y81350D01*
X153580D01*
G01X156020Y77650D02*
X158461D01*
Y81350D01*
X156020D01*
G01X153580Y73050D02*
X151139D01*
Y76750D01*
X153580D01*
G01X156020Y73050D02*
X158461D01*
Y76750D01*
X156020D01*
G01X141700Y94500D02*
Y104500D01*
X201700D01*
Y94500D01*
X141700D01*
G01X160400Y26500D02*
Y36500D01*
X180400D01*
Y26500D01*
X160400D01*
G01X164180Y39650D02*
X161739D01*
Y43350D01*
X164180D01*
G01X166620Y39650D02*
X169061D01*
Y43350D01*
X166620D01*
G01X164420Y81350D02*
X166861D01*
Y77650D01*
X164420D01*
G01X161980Y81350D02*
X159539D01*
Y77650D01*
X161980D01*
G01X171280Y82150D02*
X168839D01*
Y85850D01*
X171280D01*
G01X173720Y82150D02*
X176161D01*
Y85850D01*
X173720D01*
G01X187500Y26500D02*
Y36500D01*
X207500D01*
Y26500D01*
X187500D01*
G01X199461Y38650D02*
X197020D01*
Y42350D01*
X199461D01*
G01X189461Y38650D02*
X187020D01*
Y42350D01*
X189461D01*
G01X191901Y38650D02*
X194342D01*
Y42350D01*
X191901D01*
G01X187500Y81500D02*
Y91500D01*
X207500D01*
Y81500D01*
X187500D01*
G01X180280Y82150D02*
X177839D01*
Y85850D01*
X180280D01*
G01X182720Y82150D02*
X185161D01*
Y85850D01*
X182720D01*
G01Y90850D02*
X185161D01*
Y87150D01*
X182720D01*
G01X180280Y90850D02*
X177839D01*
Y87150D01*
X180280D01*
G01X210000Y26500D02*
Y36500D01*
X230000D01*
Y26500D01*
X210000D01*
G01X201901Y38650D02*
X204342D01*
Y42350D01*
X201901D01*
G01X232228Y39055D02*
X212464D01*
Y79055D01*
X232228D01*
Y39055D01*
G01X205280Y46750D02*
X202839D01*
Y50450D01*
X205280D01*
G01X207720Y46750D02*
X210161D01*
Y50450D01*
X207720D01*
G01X205280Y52205D02*
X202839D01*
Y55905D01*
X205280D01*
G01X207720Y52205D02*
X210161D01*
Y55905D01*
X207720D01*
G01Y60850D02*
X210161D01*
Y57150D01*
X207720D01*
G01X205280Y60850D02*
X202839D01*
Y57150D01*
X205280D01*
G01Y62205D02*
X202839D01*
Y65905D01*
X205280D01*
G01X207720Y62205D02*
X210161D01*
Y65905D01*
X207720D01*
G01X205280Y72205D02*
X202839D01*
Y75905D01*
X205280D01*
G01X207720Y72205D02*
X210161D01*
Y75905D01*
X207720D01*
G01X210000Y81500D02*
Y91500D01*
X230000D01*
Y81500D01*
X210000D01*
G54D12*
G01X18859Y35433D02*
G03I-492J0D01*
G01X33308Y29500D02*
G03I-493J0D01*
G01X34539Y73500D02*
G03I-492J0D01*
G01X32299Y99500D02*
G03I-492J0D01*
G01X58799Y25000D02*
G03I-492J0D01*
G01X54899Y99500D02*
G03I-492J0D01*
G01X52406Y89500D02*
G03I-493J0D01*
G01Y82000D02*
G03I-493J0D01*
G01X70826Y49098D02*
G03I-493J0D01*
G01X72260Y82972D02*
G03I-492J0D01*
G01X97899Y99500D02*
G03I-492J0D01*
G01X151599Y19000D02*
G03I-492J0D01*
G01X159199Y31500D02*
G03I-492J0D01*
G01X140499Y99500D02*
G03I-492J0D01*
G01X186299Y31500D02*
G03I-492J0D01*
G01Y86500D02*
G03I-492J0D01*
G01X208799Y31500D02*
G03I-492J0D01*
G01Y86500D02*
G03I-492J0D01*
G01X227838Y37362D02*
G03I-492J0D01*
G54D13*
G01X5054Y76772D02*
X15D01*
Y41338D01*
X5054D01*
G01X21708D02*
X16078D01*
G01X21708Y76772D02*
X16078D01*
G01X29622Y81055D02*
G03I-1414J0D01*
G01X113878Y31453D02*
X111122D01*
G01X113878Y25547D02*
X111122D01*
G01X139961Y49016D02*
X115945D01*
Y73032D01*
X139961D01*
Y49016D01*
G01X136756Y18701D02*
X131244D01*
G01X136756Y31299D02*
X131244D01*
M02*
