G04 ================== begin FILE IDENTIFICATION RECORD ==================*
G04 Layout Name:  F:/ST-LINK-V2/Hardware/allegro/st-link-v2_pro.brd*
G04 Film Name:    SOLDERMASK_TOP*
G04 File Format:  Gerber RS274X*
G04 File Origin:  Cadence Allegro 17.4-S035*
G04 Origin Date:  Sun Nov 26 22:21:57 2023*
G04 *
G04 Layer:  VIA CLASS/SOLDERMASK_TOP*
G04 Layer:  PIN/SOLDERMASK_TOP*
G04 Layer:  PACKAGE GEOMETRY/SOLDERMASK_TOP*
G04 Layer:  BOARD GEOMETRY/SOLDERMASK_TOP*
G04 Layer:  BOARD GEOMETRY/DESIGN_OUTLINE*
G04 *
G04 Offset:    (0.00 0.00)*
G04 Mirror:    No*
G04 Mode:      Positive*
G04 Rotation:  0*
G04 FullContactRelief:  No*
G04 UndefLineWidth:     6.00*
G04 ================== end FILE IDENTIFICATION RECORD ====================*
%FSLAX25Y25*MOIN*%
%IR0*IPPOS*OFA0.00000B0.00000*MIA0B0*SFA1.00000B1.00000*%
%AMMACRO26*
4,1,44,-.02884,.01309,
-.02884,-.01309,
-.028721,-.014457,
-.028367,-.015782,
-.027788,-.017026,
-.027002,-.01815,
-.026033,-.019121,
-.024909,-.019908,
-.023666,-.020489,
-.022342,-.020845,
-.020975,-.020965,
-.02097,-.02096,
.02097,-.02096,
.022337,-.020845,
.023662,-.02049,
.024905,-.019911,
.026029,-.019124,
.026999,-.018154,
.027786,-.01703,
.028365,-.015787,
.02872,-.014462,
.02884,-.013095,
.02884,-.01309,
.02884,.01309,
.028721,.014457,
.028367,.015782,
.027788,.017026,
.027002,.01815,
.026033,.019121,
.024909,.019908,
.023666,.020489,
.022342,.020845,
.020975,.020965,
.02097,.02096,
-.02097,.02096,
-.022337,.020845,
-.023662,.02049,
-.024905,.019911,
-.026029,.019124,
-.026999,.018154,
-.027786,.01703,
-.028365,.015787,
-.02872,.014462,
-.02884,.013095,
-.02884,.01309,
0.0*
%
%ADD26MACRO26*%
%AMMACRO27*
4,1,44,.01211,.02391,
-.01211,.02391,
-.013477,.023795,
-.014802,.02344,
-.016045,.022861,
-.017169,.022074,
-.018139,.021104,
-.018926,.01998,
-.019505,.018737,
-.01986,.017412,
-.01998,.016045,
-.01998,.01604,
-.01998,-.01604,
-.019861,-.017407,
-.019507,-.018732,
-.018928,-.019976,
-.018142,-.0211,
-.017173,-.022071,
-.016049,-.022858,
-.014806,-.023439,
-.013482,-.023795,
-.012115,-.023915,
-.01211,-.02391,
.01211,-.02391,
.013477,-.023795,
.014802,-.02344,
.016045,-.022861,
.017169,-.022074,
.018139,-.021104,
.018926,-.01998,
.019505,-.018737,
.01986,-.017412,
.01998,-.016045,
.01998,-.01604,
.01998,.01604,
.019861,.017407,
.019507,.018732,
.018928,.019976,
.018142,.0211,
.017173,.022071,
.016049,.022858,
.014806,.023439,
.013482,.023795,
.012115,.023915,
.01211,.02391,
0.0*
%
%ADD27MACRO27*%
%ADD43C,.0622*%
%AMMACRO42*
4,1,44,-.02293,-.00787,
.02293,-.00787,
.023307,-.007842,
.023672,-.007744,
.024015,-.007584,
.024325,-.007367,
.024592,-.0071,
.024809,-.00679,
.024969,-.006447,
.025067,-.006082,
.0251,-.005705,
.0251,-.0057,
.0251,.0057,
.025068,.006077,
.024971,.006442,
.024812,.006786,
.024596,.007096,
.024329,.007364,
.024019,.007582,
.023677,.007742,
.023312,.007841,
.022935,.007875,
.02293,.00787,
-.02293,.00787,
-.023307,.007842,
-.023672,.007744,
-.024015,.007584,
-.024325,.007367,
-.024592,.0071,
-.024809,.00679,
-.024969,.006447,
-.025067,.006082,
-.0251,.005705,
-.0251,.0057,
-.0251,-.0057,
-.025068,-.006077,
-.024971,-.006442,
-.024812,-.006786,
-.024596,-.007096,
-.024329,-.007364,
-.024019,-.007582,
-.023677,-.007742,
-.023312,-.007841,
-.022935,-.007875,
-.02293,-.00787,
0.0*
%
%ADD42MACRO42*%
%AMMACRO39*
4,1,44,.00787,-.02293,
.00787,.02293,
.007842,.023307,
.007744,.023672,
.007584,.024015,
.007367,.024325,
.0071,.024592,
.00679,.024809,
.006447,.024969,
.006082,.025067,
.005705,.0251,
.0057,.0251,
-.0057,.0251,
-.006077,.025068,
-.006442,.024971,
-.006786,.024812,
-.007096,.024596,
-.007364,.024329,
-.007582,.024019,
-.007742,.023677,
-.007841,.023312,
-.007875,.022935,
-.00787,.02293,
-.00787,-.02293,
-.007842,-.023307,
-.007744,-.023672,
-.007584,-.024015,
-.007367,-.024325,
-.0071,-.024592,
-.00679,-.024809,
-.006447,-.024969,
-.006082,-.025067,
-.005705,-.0251,
-.0057,-.0251,
.0057,-.0251,
.006077,-.025068,
.006442,-.024971,
.006786,-.024812,
.007096,-.024596,
.007364,-.024329,
.007582,-.024019,
.007742,-.023677,
.007841,-.023312,
.007875,-.022935,
.00787,-.02293,
0.0*
%
%ADD39MACRO39*%
%ADD44R,.0622X.0622*%
%ADD15C,.02559*%
%AMMACRO23*
4,1,44,-.01616,-.01096,
.01616,-.01096,
.01711,-.010883,
.018031,-.010637,
.018896,-.010235,
.019677,-.009688,
.020352,-.009015,
.0209,-.008234,
.021303,-.007371,
.021551,-.00645,
.021635,-.0055,
.02163,-.00549,
.02163,.00549,
.021553,.00644,
.021307,.007361,
.020905,.008226,
.020358,.009007,
.019685,.009682,
.018904,.01023,
.018041,.010633,
.01712,.010881,
.01617,.010965,
.01616,.01096,
-.01616,.01096,
-.01711,.010883,
-.018031,.010637,
-.018896,.010235,
-.019677,.009688,
-.020352,.009015,
-.0209,.008234,
-.021303,.007371,
-.021551,.00645,
-.021635,.0055,
-.02163,.00549,
-.02163,-.00549,
-.021553,-.00644,
-.021307,-.007361,
-.020905,-.008226,
-.020358,-.009007,
-.019685,-.009682,
-.018904,-.01023,
-.018041,-.010633,
-.01712,-.010881,
-.01617,-.010965,
-.01616,-.01096,
0.0*
%
%ADD23MACRO23*%
%AMMACRO18*
4,1,44,-.00565,-.01141,
.00565,-.01141,
.006635,-.011329,
.007589,-.011073,
.008485,-.010655,
.009295,-.010088,
.009993,-.00939,
.01056,-.00858,
.010978,-.007684,
.011234,-.00673,
.01132,-.005745,
.01132,-.00574,
.01132,.00574,
.011235,.006725,
.01098,.00768,
.010563,.008576,
.009997,.009386,
.009298,.010085,
.008489,.010653,
.007594,.011071,
.00664,.011328,
.005655,.011415,
.00565,.01141,
-.00565,.01141,
-.006635,.011329,
-.007589,.011073,
-.008485,.010655,
-.009295,.010088,
-.009993,.00939,
-.01056,.00858,
-.010978,.007684,
-.011234,.00673,
-.01132,.005745,
-.01132,.00574,
-.01132,-.00574,
-.011235,-.006725,
-.01098,-.00768,
-.010563,-.008576,
-.009997,-.009386,
-.009298,-.010085,
-.008489,-.010653,
-.007594,-.011071,
-.00664,-.011328,
-.005655,-.011415,
-.00565,-.01141,
0.0*
%
%ADD18MACRO18*%
%AMMACRO16*
4,1,40,.02441,-.00656,
.02441,.00656,
.02433,.007472,
.024093,.008356,
.023707,.009185,
.023182,.009935,
.022535,.010582,
.021785,.011107,
.020956,.011493,
.020072,.01173,
.01916,.01181,
-.01916,.01181,
-.020072,.01173,
-.020956,.011493,
-.021785,.011107,
-.022535,.010582,
-.023182,.009935,
-.023707,.009185,
-.024093,.008356,
-.02433,.007472,
-.02441,.00656,
-.02441,-.00656,
-.02433,-.007472,
-.024093,-.008356,
-.023707,-.009185,
-.023182,-.009935,
-.022535,-.010582,
-.021785,-.011107,
-.020956,-.011493,
-.020072,-.01173,
-.01916,-.01181,
.01916,-.01181,
.020072,-.01173,
.020956,-.011493,
.021785,-.011107,
.022535,-.010582,
.023182,-.009935,
.023707,-.009185,
.024093,-.008356,
.02433,-.007472,
.02441,-.00656,
0.0*
%
%ADD16MACRO16*%
%AMMACRO36*
4,1,44,-.01525,-.02854,
.01525,-.02854,
.016104,-.028471,
.016933,-.02825,
.017711,-.027888,
.018414,-.027397,
.019021,-.026791,
.019513,-.026089,
.019877,-.025312,
.020099,-.024484,
.020175,-.02363,
.02017,-.02362,
.02017,.02362,
.020101,.024474,
.01988,.025303,
.019518,.026081,
.019027,.026784,
.018421,.027391,
.017719,.027883,
.016942,.028247,
.016114,.028469,
.01526,.028545,
.01525,.02854,
-.01525,.02854,
-.016104,.028471,
-.016933,.02825,
-.017711,.027888,
-.018414,.027397,
-.019021,.026791,
-.019513,.026089,
-.019877,.025312,
-.020099,.024484,
-.020175,.02363,
-.02017,.02362,
-.02017,-.02362,
-.020101,-.024474,
-.01988,-.025303,
-.019518,-.026081,
-.019027,-.026784,
-.018421,-.027391,
-.017719,-.027883,
-.016942,-.028247,
-.016114,-.028469,
-.01526,-.028545,
-.01525,-.02854,
0.0*
%
%ADD36MACRO36*%
%AMMACRO30*
4,1,44,.01238,-.01409,
.01238,.01409,
.012287,.015163,
.012009,.016204,
.011555,.017181,
.010937,.018064,
.010176,.018826,
.009294,.019445,
.008318,.019901,
.007278,.02018,
.006205,.020275,
.0062,.02027,
-.0062,.02027,
-.007273,.020181,
-.008314,.019902,
-.00929,.019447,
-.010172,.018829,
-.010934,.018067,
-.011552,.017185,
-.012007,.016209,
-.012286,.015168,
-.01238,.014095,
-.01238,.01409,
-.01238,-.01409,
-.012287,-.015163,
-.012009,-.016204,
-.011555,-.017181,
-.010937,-.018064,
-.010176,-.018826,
-.009294,-.019445,
-.008318,-.019901,
-.007278,-.02018,
-.006205,-.020275,
-.0062,-.02027,
.0062,-.02027,
.007273,-.020181,
.008314,-.019902,
.00929,-.019447,
.010172,-.018829,
.010934,-.018067,
.011552,-.017185,
.012007,-.016209,
.012286,-.015168,
.01238,-.014095,
.01238,-.01409,
0.0*
%
%ADD30MACRO30*%
%ADD10C,.09843*%
%AMMACRO31*
4,1,44,-.00926,-.01315,
.00926,-.01315,
.010403,-.013051,
.011511,-.012755,
.012551,-.012271,
.013491,-.011614,
.014302,-.010803,
.014961,-.009864,
.015446,-.008825,
.015744,-.007718,
.015845,-.006575,
.01584,-.00657,
.01584,.00657,
.015745,.007713,
.015448,.00882,
.014963,.00986,
.014306,.0108,
.013495,.011611,
.012555,.012268,
.011515,.012753,
.010408,.01305,
.009265,.01315,
.00926,.01315,
-.00926,.01315,
-.010403,.013051,
-.011511,.012755,
-.012551,.012271,
-.013491,.011614,
-.014302,.010803,
-.014961,.009864,
-.015446,.008825,
-.015744,.007718,
-.015845,.006575,
-.01584,.00657,
-.01584,-.00657,
-.015745,-.007713,
-.015448,-.00882,
-.014963,-.00986,
-.014306,-.0108,
-.013495,-.011611,
-.012555,-.012268,
-.011515,-.012753,
-.010408,-.01305,
-.009265,-.01315,
-.00926,-.01315,
0.0*
%
%ADD31MACRO31*%
%ADD28C,.06496*%
%ADD12C,.07874*%
%AMMACRO17*
4,1,44,.02441,-.00262,
.02441,.00262,
.024331,.003532,
.024095,.004416,
.023709,.005246,
.023185,.005996,
.022538,.006644,
.021789,.007169,
.02096,.007557,
.020077,.007794,
.019165,.007875,
.01916,.00787,
-.01916,.00787,
-.020072,.007795,
-.020956,.007558,
-.021785,.007172,
-.022535,.006647,
-.023182,.006,
-.023707,.00525,
-.024093,.004421,
-.02433,.003537,
-.02441,.002625,
-.02441,.00262,
-.02441,-.00262,
-.024331,-.003532,
-.024095,-.004416,
-.023709,-.005246,
-.023185,-.005996,
-.022538,-.006644,
-.021789,-.007169,
-.02096,-.007557,
-.020077,-.007794,
-.019165,-.007875,
-.01916,-.00787,
.01916,-.00787,
.020072,-.007795,
.020956,-.007558,
.021785,-.007172,
.022535,-.006647,
.023182,-.006,
.023707,-.00525,
.024093,-.004421,
.02433,-.003537,
.02441,-.002625,
.02441,-.00262,
0.0*
%
%ADD17MACRO17*%
%AMMACRO40*
4,1,44,.02805,.05019,
-.02805,.05019,
-.028904,.05012,
-.029733,.049898,
-.03051,.049536,
-.031213,.049044,
-.031819,.048438,
-.032311,.047735,
-.032673,.046958,
-.032895,.046129,
-.03297,.045275,
-.03297,.04527,
-.03297,-.04527,
-.032896,-.046124,
-.032675,-.046953,
-.032313,-.047731,
-.031822,-.048434,
-.031216,-.049041,
-.030514,-.049533,
-.029737,-.049897,
-.028909,-.050119,
-.028055,-.050195,
-.02805,-.05019,
.02805,-.05019,
.028904,-.05012,
.029733,-.049898,
.03051,-.049536,
.031213,-.049044,
.031819,-.048438,
.032311,-.047735,
.032673,-.046958,
.032895,-.046129,
.03297,-.045275,
.03297,-.04527,
.03297,.04527,
.032896,.046124,
.032675,.046953,
.032313,.047731,
.031822,.048434,
.031216,.049041,
.030514,.049533,
.029737,.049897,
.028909,.050119,
.028055,.050195,
.02805,.05019,
0.0*
%
%ADD40MACRO40*%
%ADD22R,.06496X.06496*%
%AMMACRO32*
4,1,44,.01828,-.00827,
.01828,.00827,
.018165,.009637,
.01781,.010962,
.017231,.012205,
.016444,.013329,
.015474,.014299,
.01435,.015086,
.013107,.015665,
.011782,.01602,
.010415,.01614,
.01041,.01614,
-.01041,.01614,
-.011777,.016021,
-.013102,.015667,
-.014346,.015088,
-.01547,.014302,
-.016441,.013333,
-.017228,.012209,
-.017809,.010966,
-.018165,.009642,
-.018285,.008275,
-.01828,.00827,
-.01828,-.00827,
-.018165,-.009637,
-.01781,-.010962,
-.017231,-.012205,
-.016444,-.013329,
-.015474,-.014299,
-.01435,-.015086,
-.013107,-.015665,
-.011782,-.01602,
-.010415,-.01614,
-.01041,-.01614,
.01041,-.01614,
.011777,-.016021,
.013102,-.015667,
.014346,-.015088,
.01547,-.014302,
.016441,-.013333,
.017228,-.012209,
.017809,-.010966,
.018165,-.009642,
.018285,-.008275,
.01828,-.00827,
0.0*
%
%ADD32MACRO32*%
%AMMACRO13*
4,1,44,-.00827,-.01828,
.00827,-.01828,
.009637,-.018165,
.010962,-.01781,
.012205,-.017231,
.013329,-.016444,
.014299,-.015474,
.015086,-.01435,
.015665,-.013107,
.01602,-.011782,
.01614,-.010415,
.01614,-.01041,
.01614,.01041,
.016021,.011777,
.015667,.013102,
.015088,.014346,
.014302,.01547,
.013333,.016441,
.012209,.017228,
.010966,.017809,
.009642,.018165,
.008275,.018285,
.00827,.01828,
-.00827,.01828,
-.009637,.018165,
-.010962,.01781,
-.012205,.017231,
-.013329,.016444,
-.014299,.015474,
-.015086,.01435,
-.015665,.013107,
-.01602,.011782,
-.01614,.010415,
-.01614,.01041,
-.01614,-.01041,
-.016021,-.011777,
-.015667,-.013102,
-.015088,-.014346,
-.014302,-.01547,
-.013333,-.016441,
-.012209,-.017228,
-.010966,-.017809,
-.009642,-.018165,
-.008275,-.018285,
-.00827,-.01828,
0.0*
%
%ADD13MACRO13*%
%AMMACRO21*
4,1,44,-.01408,-.02391,
.01408,-.02391,
.015447,-.023795,
.016772,-.02344,
.018015,-.022861,
.019139,-.022074,
.020109,-.021104,
.020896,-.01998,
.021475,-.018737,
.02183,-.017412,
.02195,-.016045,
.02195,-.01604,
.02195,.01604,
.021831,.017407,
.021477,.018732,
.020898,.019976,
.020112,.0211,
.019143,.022071,
.018019,.022858,
.016776,.023439,
.015452,.023795,
.014085,.023915,
.01408,.02391,
-.01408,.02391,
-.015447,.023795,
-.016772,.02344,
-.018015,.022861,
-.019139,.022074,
-.020109,.021104,
-.020896,.01998,
-.021475,.018737,
-.02183,.017412,
-.02195,.016045,
-.02195,.01604,
-.02195,-.01604,
-.021831,-.017407,
-.021477,-.018732,
-.020898,-.019976,
-.020112,-.0211,
-.019143,-.022071,
-.018019,-.022858,
-.016776,-.023439,
-.015452,-.023795,
-.014085,-.023915,
-.01408,-.02391,
0.0*
%
%ADD21MACRO21*%
%AMMACRO25*
4,1,44,.02884,-.01309,
.02884,.01309,
.028721,.014457,
.028367,.015782,
.027788,.017026,
.027002,.01815,
.026033,.019121,
.024909,.019908,
.023666,.020489,
.022342,.020845,
.020975,.020965,
.02097,.02096,
-.02097,.02096,
-.022337,.020845,
-.023662,.02049,
-.024905,.019911,
-.026029,.019124,
-.026999,.018154,
-.027786,.01703,
-.028365,.015787,
-.02872,.014462,
-.02884,.013095,
-.02884,.01309,
-.02884,-.01309,
-.028721,-.014457,
-.028367,-.015782,
-.027788,-.017026,
-.027002,-.01815,
-.026033,-.019121,
-.024909,-.019908,
-.023666,-.020489,
-.022342,-.020845,
-.020975,-.020965,
-.02097,-.02096,
.02097,-.02096,
.022337,-.020845,
.023662,-.02049,
.024905,-.019911,
.026029,-.019124,
.026999,-.018154,
.027786,-.01703,
.028365,-.015787,
.02872,-.014462,
.02884,-.013095,
.02884,-.01309,
0.0*
%
%ADD25MACRO25*%
%ADD20R,.0135X.01543*%
%AMMACRO38*
4,1,44,-.00787,.02293,
-.00787,-.02293,
-.007842,-.023307,
-.007744,-.023672,
-.007584,-.024015,
-.007367,-.024325,
-.0071,-.024592,
-.00679,-.024809,
-.006447,-.024969,
-.006082,-.025067,
-.005705,-.0251,
-.0057,-.0251,
.0057,-.0251,
.006077,-.025068,
.006442,-.024971,
.006786,-.024812,
.007096,-.024596,
.007364,-.024329,
.007582,-.024019,
.007742,-.023677,
.007841,-.023312,
.007875,-.022935,
.00787,-.02293,
.00787,.02293,
.007842,.023307,
.007744,.023672,
.007584,.024015,
.007367,.024325,
.0071,.024592,
.00679,.024809,
.006447,.024969,
.006082,.025067,
.005705,.0251,
.0057,.0251,
-.0057,.0251,
-.006077,.025068,
-.006442,.024971,
-.006786,.024812,
-.007096,.024596,
-.007364,.024329,
-.007582,.024019,
-.007742,.023677,
-.007841,.023312,
-.007875,.022935,
-.00787,.02293,
0.0*
%
%ADD38MACRO38*%
%ADD11O,.08071X.04134*%
%AMMACRO37*
4,1,44,.02293,.00787,
-.02293,.00787,
-.023307,.007842,
-.023672,.007744,
-.024015,.007584,
-.024325,.007367,
-.024592,.0071,
-.024809,.00679,
-.024969,.006447,
-.025067,.006082,
-.0251,.005705,
-.0251,.0057,
-.0251,-.0057,
-.025068,-.006077,
-.024971,-.006442,
-.024812,-.006786,
-.024596,-.007096,
-.024329,-.007364,
-.024019,-.007582,
-.023677,-.007742,
-.023312,-.007841,
-.022935,-.007875,
-.02293,-.00787,
.02293,-.00787,
.023307,-.007842,
.023672,-.007744,
.024015,-.007584,
.024325,-.007367,
.024592,-.0071,
.024809,-.00679,
.024969,-.006447,
.025067,-.006082,
.0251,-.005705,
.0251,-.0057,
.0251,.0057,
.025068,.006077,
.024971,.006442,
.024812,.006786,
.024596,.007096,
.024329,.007364,
.024019,.007582,
.023677,.007742,
.023312,.007841,
.022935,.007875,
.02293,.00787,
0.0*
%
%ADD37MACRO37*%
%AMMACRO41*
4,1,44,-.02805,-.05019,
.02805,-.05019,
.028904,-.05012,
.029733,-.049898,
.03051,-.049536,
.031213,-.049044,
.031819,-.048438,
.032311,-.047735,
.032673,-.046958,
.032895,-.046129,
.03297,-.045275,
.03297,-.04527,
.03297,.04527,
.032896,.046124,
.032675,.046953,
.032313,.047731,
.031822,.048434,
.031216,.049041,
.030514,.049533,
.029737,.049897,
.028909,.050119,
.028055,.050195,
.02805,.05019,
-.02805,.05019,
-.028904,.05012,
-.029733,.049898,
-.03051,.049536,
-.031213,.049044,
-.031819,.048438,
-.032311,.047735,
-.032673,.046958,
-.032895,.046129,
-.03297,.045275,
-.03297,.04527,
-.03297,-.04527,
-.032896,-.046124,
-.032675,-.046953,
-.032313,-.047731,
-.031822,-.048434,
-.031216,-.049041,
-.030514,-.049533,
-.029737,-.049897,
-.028909,-.050119,
-.028055,-.050195,
-.02805,-.05019,
0.0*
%
%ADD41MACRO41*%
%AMMACRO29*
4,1,44,.01616,.01096,
-.01616,.01096,
-.01711,.010883,
-.018031,.010637,
-.018896,.010235,
-.019677,.009688,
-.020352,.009015,
-.0209,.008234,
-.021303,.007371,
-.021551,.00645,
-.021635,.0055,
-.02163,.00549,
-.02163,-.00549,
-.021553,-.00644,
-.021307,-.007361,
-.020905,-.008226,
-.020358,-.009007,
-.019685,-.009682,
-.018904,-.01023,
-.018041,-.010633,
-.01712,-.010881,
-.01617,-.010965,
-.01616,-.01096,
.01616,-.01096,
.01711,-.010883,
.018031,-.010637,
.018896,-.010235,
.019677,-.009688,
.020352,-.009015,
.0209,-.008234,
.021303,-.007371,
.021551,-.00645,
.021635,-.0055,
.02163,-.00549,
.02163,.00549,
.021553,.00644,
.021307,.007361,
.020905,.008226,
.020358,.009007,
.019685,.009682,
.018904,.01023,
.018041,.010633,
.01712,.010881,
.01617,.010965,
.01616,.01096,
0.0*
%
%ADD29MACRO29*%
%AMMACRO24*
4,1,44,-.01238,.01409,
-.01238,-.01409,
-.012287,-.015163,
-.012009,-.016204,
-.011555,-.017181,
-.010937,-.018064,
-.010176,-.018826,
-.009294,-.019445,
-.008318,-.019901,
-.007278,-.02018,
-.006205,-.020275,
-.0062,-.02027,
.0062,-.02027,
.007273,-.020181,
.008314,-.019902,
.00929,-.019447,
.010172,-.018829,
.010934,-.018067,
.011552,-.017185,
.012007,-.016209,
.012286,-.015168,
.01238,-.014095,
.01238,-.01409,
.01238,.01409,
.012287,.015163,
.012009,.016204,
.011555,.017181,
.010937,.018064,
.010176,.018826,
.009294,.019445,
.008318,.019901,
.007278,.02018,
.006205,.020275,
.0062,.02027,
-.0062,.02027,
-.007273,.020181,
-.008314,.019902,
-.00929,.019447,
-.010172,.018829,
-.010934,.018067,
-.011552,.017185,
-.012007,.016209,
-.012286,.015168,
-.01238,.014095,
-.01238,.01409,
0.0*
%
%ADD24MACRO24*%
%AMMACRO19*
4,1,44,.00565,.01141,
-.00565,.01141,
-.006635,.011329,
-.007589,.011073,
-.008485,.010655,
-.009295,.010088,
-.009993,.00939,
-.01056,.00858,
-.010978,.007684,
-.011234,.00673,
-.01132,.005745,
-.01132,.00574,
-.01132,-.00574,
-.011235,-.006725,
-.01098,-.00768,
-.010563,-.008576,
-.009997,-.009386,
-.009298,-.010085,
-.008489,-.010653,
-.007594,-.011071,
-.00664,-.011328,
-.005655,-.011415,
-.00565,-.01141,
.00565,-.01141,
.006635,-.011329,
.007589,-.011073,
.008485,-.010655,
.009295,-.010088,
.009993,-.00939,
.01056,-.00858,
.010978,-.007684,
.011234,-.00673,
.01132,-.005745,
.01132,-.00574,
.01132,.00574,
.011235,.006725,
.01098,.00768,
.010563,.008576,
.009997,.009386,
.009298,.010085,
.008489,.010653,
.007594,.011071,
.00664,.011328,
.005655,.011415,
.00565,.01141,
0.0*
%
%ADD19MACRO19*%
%AMMACRO35*
4,1,44,.01525,.02854,
-.01525,.02854,
-.016104,.028471,
-.016933,.02825,
-.017711,.027888,
-.018414,.027397,
-.019021,.026791,
-.019513,.026089,
-.019877,.025312,
-.020099,.024484,
-.020175,.02363,
-.02017,.02362,
-.02017,-.02362,
-.020101,-.024474,
-.01988,-.025303,
-.019518,-.026081,
-.019027,-.026784,
-.018421,-.027391,
-.017719,-.027883,
-.016942,-.028247,
-.016114,-.028469,
-.01526,-.028545,
-.01525,-.02854,
.01525,-.02854,
.016104,-.028471,
.016933,-.02825,
.017711,-.027888,
.018414,-.027397,
.019021,-.026791,
.019513,-.026089,
.019877,-.025312,
.020099,-.024484,
.020175,-.02363,
.02017,-.02362,
.02017,.02362,
.020101,.024474,
.01988,.025303,
.019518,.026081,
.019027,.026784,
.018421,.027391,
.017719,.027883,
.016942,.028247,
.016114,.028469,
.01526,.028545,
.01525,.02854,
0.0*
%
%ADD35MACRO35*%
%AMMACRO34*
4,1,44,.00926,.01315,
-.00926,.01315,
-.010403,.013051,
-.011511,.012755,
-.012551,.012271,
-.013491,.011614,
-.014302,.010803,
-.014961,.009864,
-.015446,.008825,
-.015744,.007718,
-.015845,.006575,
-.01584,.00657,
-.01584,-.00657,
-.015745,-.007713,
-.015448,-.00882,
-.014963,-.00986,
-.014306,-.0108,
-.013495,-.011611,
-.012555,-.012268,
-.011515,-.012753,
-.010408,-.01305,
-.009265,-.01315,
-.00926,-.01315,
.00926,-.01315,
.010403,-.013051,
.011511,-.012755,
.012551,-.012271,
.013491,-.011614,
.014302,-.010803,
.014961,-.009864,
.015446,-.008825,
.015744,-.007718,
.015845,-.006575,
.01584,-.00657,
.01584,.00657,
.015745,.007713,
.015448,.00882,
.014963,.00986,
.014306,.0108,
.013495,.011611,
.012555,.012268,
.011515,.012753,
.010408,.01305,
.009265,.01315,
.00926,.01315,
0.0*
%
%ADD34MACRO34*%
%AMMACRO33*
4,1,44,-.01828,.00827,
-.01828,-.00827,
-.018165,-.009637,
-.01781,-.010962,
-.017231,-.012205,
-.016444,-.013329,
-.015474,-.014299,
-.01435,-.015086,
-.013107,-.015665,
-.011782,-.01602,
-.010415,-.01614,
-.01041,-.01614,
.01041,-.01614,
.011777,-.016021,
.013102,-.015667,
.014346,-.015088,
.01547,-.014302,
.016441,-.013333,
.017228,-.012209,
.017809,-.010966,
.018165,-.009642,
.018285,-.008275,
.01828,-.00827,
.01828,.00827,
.018165,.009637,
.01781,.010962,
.017231,.012205,
.016444,.013329,
.015474,.014299,
.01435,.015086,
.013107,.015665,
.011782,.01602,
.010415,.01614,
.01041,.01614,
-.01041,.01614,
-.011777,.016021,
-.013102,.015667,
-.014346,.015088,
-.01547,.014302,
-.016441,.013333,
-.017228,.012209,
-.017809,.010966,
-.018165,.009642,
-.018285,.008275,
-.01828,.00827,
0.0*
%
%ADD33MACRO33*%
%AMMACRO14*
4,1,44,.00827,.01828,
-.00827,.01828,
-.009637,.018165,
-.010962,.01781,
-.012205,.017231,
-.013329,.016444,
-.014299,.015474,
-.015086,.01435,
-.015665,.013107,
-.01602,.011782,
-.01614,.010415,
-.01614,.01041,
-.01614,-.01041,
-.016021,-.011777,
-.015667,-.013102,
-.015088,-.014346,
-.014302,-.01547,
-.013333,-.016441,
-.012209,-.017228,
-.010966,-.017809,
-.009642,-.018165,
-.008275,-.018285,
-.00827,-.01828,
.00827,-.01828,
.009637,-.018165,
.010962,-.01781,
.012205,-.017231,
.013329,-.016444,
.014299,-.015474,
.015086,-.01435,
.015665,-.013107,
.01602,-.011782,
.01614,-.010415,
.01614,-.01041,
.01614,.01041,
.016021,.011777,
.015667,.013102,
.015088,.014346,
.014302,.01547,
.013333,.016441,
.012209,.017228,
.010966,.017809,
.009642,.018165,
.008275,.018285,
.00827,.01828,
0.0*
%
%ADD14MACRO14*%
%ADD45C,.006*%
G75*
%LPD*%
G75*
G54D10*
X15000Y15000D03*
Y103000D03*
X221000Y15000D03*
Y103000D03*
G54D11*
X10251Y42047D03*
Y76063D03*
X26708Y42047D03*
Y76063D03*
G54D20*
X37498Y55100D03*
X39702D03*
X37498Y59055D03*
X39702D03*
G54D21*
X37701Y73500D03*
G54D12*
X34500Y18100D03*
X25500Y103000D03*
X209100Y100900D03*
G54D30*
X63900Y40575D03*
G54D13*
X36628Y29500D03*
Y35433D03*
X22619Y29500D03*
Y35433D03*
G54D22*
X38500Y99500D03*
X61100D03*
X65000Y25000D03*
X104100Y99500D03*
X157800Y19000D03*
X146700Y99500D03*
X165400Y31500D03*
X192500D03*
Y86500D03*
X215000Y31500D03*
Y86500D03*
G54D40*
X126569Y25000D03*
G54D31*
X72366Y72799D03*
Y76500D03*
Y80201D03*
G54D14*
X28563Y29500D03*
Y35433D03*
X42572Y29500D03*
Y35433D03*
G54D41*
X141431Y25000D03*
G54D32*
X66000Y73528D03*
X89000D03*
G54D23*
X39709Y89500D03*
Y82000D03*
G54D33*
X66000Y79472D03*
X89000D03*
G54D24*
X60160Y48055D03*
X67640D03*
G54D15*
X24739Y47795D03*
Y70433D03*
G54D42*
X143849Y60040D03*
Y58071D03*
Y56103D03*
Y54134D03*
Y52166D03*
Y50197D03*
Y71851D03*
Y69882D03*
Y67914D03*
Y65945D03*
Y63977D03*
Y62008D03*
G54D34*
X82634Y80201D03*
Y72799D03*
G54D25*
X58000Y73055D03*
X97000D03*
G54D16*
X28952Y49606D03*
Y46457D03*
Y68504D03*
Y71653D03*
G54D43*
X217346Y54055D03*
Y44055D03*
Y74055D03*
Y64055D03*
X227346Y54055D03*
Y74055D03*
Y64055D03*
G54D35*
X107726Y28500D03*
G54D17*
X28952Y52165D03*
Y54134D03*
Y56102D03*
Y58071D03*
Y60039D03*
Y62008D03*
Y63976D03*
Y65945D03*
G54D44*
X227346Y44055D03*
G54D26*
X58000Y79945D03*
X97000D03*
G54D45*
G01X0Y5906D02*
Y112205D01*
G02X5906Y118110I5905J0D01*
G01X230315D01*
G02X236220Y112205I0J-5905D01*
G01Y5906D01*
G02X230315Y0I-5905J-1D01*
G01X5906D01*
G02X0Y5906I0J5906D01*
G54D36*
X117274Y28500D03*
G54D18*
X36805Y49000D03*
X36781Y64800D03*
X46781Y55100D03*
Y59500D03*
X47681Y48055D03*
X75011Y39006D03*
Y34000D03*
Y49250D03*
Y44128D03*
X75681Y67000D03*
X86181Y18100D03*
Y22800D03*
Y34000D03*
Y27500D03*
X106181Y17200D03*
X100181Y36500D03*
X106181Y22000D03*
X115181D03*
X99981Y58071D03*
X100181Y41500D03*
Y46500D03*
X107381Y88500D03*
X111281Y83400D03*
X137793Y15000D03*
X126569D03*
X137581Y35600D03*
X121063Y88500D03*
X149381Y29600D03*
Y34400D03*
X152981Y79500D03*
Y74900D03*
X163581Y41500D03*
X161381Y79500D03*
X170681Y84000D03*
X188862Y40500D03*
X179681Y84000D03*
Y89000D03*
X198862Y40500D03*
X204681Y48600D03*
Y54055D03*
Y59000D03*
Y64055D03*
Y74055D03*
G54D27*
X50496Y73500D03*
G54D19*
X40443Y49000D03*
X40419Y64800D03*
X50419Y55100D03*
Y59500D03*
X51319Y48055D03*
X78649Y39006D03*
Y34000D03*
Y49250D03*
Y44128D03*
X79319Y67000D03*
X89819Y18100D03*
Y22800D03*
Y34000D03*
Y27500D03*
X109819Y17200D03*
X103819Y36500D03*
X109819Y22000D03*
X118819D03*
X103619Y58071D03*
X103819Y41500D03*
Y46500D03*
X111019Y88500D03*
X114919Y83400D03*
X130207Y15000D03*
X124701Y88500D03*
X141431Y15000D03*
X153019Y29600D03*
Y34400D03*
X141219Y35600D03*
X156619Y79500D03*
Y74900D03*
X167219Y41500D03*
X165019Y79500D03*
X174319Y84000D03*
X192500Y40500D03*
X183319Y84000D03*
Y89000D03*
X202500Y40500D03*
X208319Y48600D03*
Y54055D03*
Y59000D03*
Y64055D03*
Y74055D03*
G54D37*
X112057Y50197D03*
Y52166D03*
Y54134D03*
Y56103D03*
Y58071D03*
Y60040D03*
Y62008D03*
Y63977D03*
Y65945D03*
Y67914D03*
Y69882D03*
Y71851D03*
G54D28*
X48500Y99500D03*
X75000Y25000D03*
X81100Y99500D03*
X71100D03*
X91100D03*
X114100D03*
X134100D03*
X124100D03*
X156700D03*
X177800Y19000D03*
X167800D03*
X175400Y31500D03*
X176700Y99500D03*
X166700D03*
X197800Y19000D03*
X187800D03*
X196700Y99500D03*
X186700D03*
X207800Y19000D03*
X202500Y31500D03*
Y86500D03*
X225000Y31500D03*
Y86500D03*
G54D29*
X48291Y89500D03*
Y82000D03*
G54D38*
X119095Y45128D03*
X117126D03*
X138780D03*
X136811D03*
X134843D03*
X132874D03*
X130906D03*
X128937D03*
X126969D03*
X125000D03*
X123032D03*
X121063D03*
G54D39*
X117126Y76920D03*
X119095D03*
X121063D03*
X123032D03*
X125000D03*
X126969D03*
X128937D03*
X130906D03*
X132874D03*
X134843D03*
X136811D03*
X138780D03*
M02*
