G04 ================== begin FILE IDENTIFICATION RECORD ==================*
G04 Layout Name:  F:/ST-LINK-V2/Hardware/allegro/st-link-v2_pro.brd*
G04 Film Name:    TOP*
G04 File Format:  Gerber RS274X*
G04 File Origin:  Cadence Allegro 17.4-S035*
G04 Origin Date:  Sun Nov 26 22:21:57 2023*
G04 *
G04 Layer:  BOARD GEOMETRY/DESIGN_OUTLINE*
G04 Layer:  ETCH/TOP*
G04 Layer:  PIN/TOP*
G04 Layer:  VIA CLASS/TOP*
G04 *
G04 Offset:    (0.00 0.00)*
G04 Mirror:    No*
G04 Mode:      Positive*
G04 Rotation:  0*
G04 FullContactRelief:  No*
G04 UndefLineWidth:     6.00*
G04 ================== end FILE IDENTIFICATION RECORD ====================*
%FSLAX25Y25*MOIN*%
%IR0*IPPOS*OFA0.00000B0.00000*MIA0B0*SFA1.00000B1.00000*%
%AMMACRO27*
4,1,44,-.02884,.01309,
-.02884,-.01309,
-.028721,-.014457,
-.028367,-.015782,
-.027788,-.017026,
-.027002,-.01815,
-.026033,-.019121,
-.024909,-.019908,
-.023666,-.020489,
-.022342,-.020845,
-.020975,-.020965,
-.02097,-.02096,
.02097,-.02096,
.022337,-.020845,
.023662,-.02049,
.024905,-.019911,
.026029,-.019124,
.026999,-.018154,
.027786,-.01703,
.028365,-.015787,
.02872,-.014462,
.02884,-.013095,
.02884,-.01309,
.02884,.01309,
.028721,.014457,
.028367,.015782,
.027788,.017026,
.027002,.01815,
.026033,.019121,
.024909,.019908,
.023666,.020489,
.022342,.020845,
.020975,.020965,
.02097,.02096,
-.02097,.02096,
-.022337,.020845,
-.023662,.02049,
-.024905,.019911,
-.026029,.019124,
-.026999,.018154,
-.027786,.01703,
-.028365,.015787,
-.02872,.014462,
-.02884,.013095,
-.02884,.01309,
0.0*
%
%ADD27MACRO27*%
%AMMACRO28*
4,1,44,.01211,.02391,
-.01211,.02391,
-.013477,.023795,
-.014802,.02344,
-.016045,.022861,
-.017169,.022074,
-.018139,.021104,
-.018926,.01998,
-.019505,.018737,
-.01986,.017412,
-.01998,.016045,
-.01998,.01604,
-.01998,-.01604,
-.019861,-.017407,
-.019507,-.018732,
-.018928,-.019976,
-.018142,-.0211,
-.017173,-.022071,
-.016049,-.022858,
-.014806,-.023439,
-.013482,-.023795,
-.012115,-.023915,
-.01211,-.02391,
.01211,-.02391,
.013477,-.023795,
.014802,-.02344,
.016045,-.022861,
.017169,-.022074,
.018139,-.021104,
.018926,-.01998,
.019505,-.018737,
.01986,-.017412,
.01998,-.016045,
.01998,-.01604,
.01998,.01604,
.019861,.017407,
.019507,.018732,
.018928,.019976,
.018142,.0211,
.017173,.022071,
.016049,.022858,
.014806,.023439,
.013482,.023795,
.012115,.023915,
.01211,.02391,
0.0*
%
%ADD28MACRO28*%
%ADD44C,.0622*%
%ADD11C,.02362*%
%AMMACRO43*
4,1,44,-.02096,-.0059,
.02096,-.0059,
.021337,-.005872,
.021702,-.005774,
.022045,-.005614,
.022355,-.005397,
.022622,-.00513,
.022839,-.00482,
.022999,-.004477,
.023097,-.004112,
.02313,-.003735,
.02313,-.00373,
.02313,.00373,
.023098,.004107,
.023001,.004472,
.022842,.004816,
.022626,.005126,
.022359,.005394,
.022049,.005612,
.021707,.005772,
.021342,.005871,
.020965,.005905,
.02096,.0059,
-.02096,.0059,
-.021337,.005872,
-.021702,.005774,
-.022045,.005614,
-.022355,.005397,
-.022622,.00513,
-.022839,.00482,
-.022999,.004477,
-.023097,.004112,
-.02313,.003735,
-.02313,.00373,
-.02313,-.00373,
-.023098,-.004107,
-.023001,-.004472,
-.022842,-.004816,
-.022626,-.005126,
-.022359,-.005394,
-.022049,-.005612,
-.021707,-.005772,
-.021342,-.005871,
-.020965,-.005905,
-.02096,-.0059,
0.0*
%
%ADD43MACRO43*%
%AMMACRO40*
4,1,44,.0059,-.02096,
.0059,.02096,
.005872,.021337,
.005774,.021702,
.005614,.022045,
.005397,.022355,
.00513,.022622,
.00482,.022839,
.004477,.022999,
.004112,.023097,
.003735,.02313,
.00373,.02313,
-.00373,.02313,
-.004107,.023098,
-.004472,.023001,
-.004816,.022842,
-.005126,.022626,
-.005394,.022359,
-.005612,.022049,
-.005772,.021707,
-.005871,.021342,
-.005905,.020965,
-.0059,.02096,
-.0059,-.02096,
-.005872,-.021337,
-.005774,-.021702,
-.005614,-.022045,
-.005397,-.022355,
-.00513,-.022622,
-.00482,-.022839,
-.004477,-.022999,
-.004112,-.023097,
-.003735,-.02313,
-.00373,-.02313,
.00373,-.02313,
.004107,-.023098,
.004472,-.023001,
.004816,-.022842,
.005126,-.022626,
.005394,-.022359,
.005612,-.022049,
.005772,-.021707,
.005871,-.021342,
.005905,-.020965,
.0059,-.02096,
0.0*
%
%ADD40MACRO40*%
%ADD45R,.0622X.0622*%
%ADD16C,.02559*%
%ADD13C,.03937*%
%AMMACRO24*
4,1,44,-.01616,-.01096,
.01616,-.01096,
.01711,-.010883,
.018031,-.010637,
.018896,-.010235,
.019677,-.009688,
.020352,-.009015,
.0209,-.008234,
.021303,-.007371,
.021551,-.00645,
.021635,-.0055,
.02163,-.00549,
.02163,.00549,
.021553,.00644,
.021307,.007361,
.020905,.008226,
.020358,.009007,
.019685,.009682,
.018904,.01023,
.018041,.010633,
.01712,.010881,
.01617,.010965,
.01616,.01096,
-.01616,.01096,
-.01711,.010883,
-.018031,.010637,
-.018896,.010235,
-.019677,.009688,
-.020352,.009015,
-.0209,.008234,
-.021303,.007371,
-.021551,.00645,
-.021635,.0055,
-.02163,.00549,
-.02163,-.00549,
-.021553,-.00644,
-.021307,-.007361,
-.020905,-.008226,
-.020358,-.009007,
-.019685,-.009682,
-.018904,-.01023,
-.018041,-.010633,
-.01712,-.010881,
-.01617,-.010965,
-.01616,-.01096,
0.0*
%
%ADD24MACRO24*%
%AMMACRO19*
4,1,44,-.00565,-.01141,
.00565,-.01141,
.006635,-.011329,
.007589,-.011073,
.008485,-.010655,
.009295,-.010088,
.009993,-.00939,
.01056,-.00858,
.010978,-.007684,
.011234,-.00673,
.01132,-.005745,
.01132,-.00574,
.01132,.00574,
.011235,.006725,
.01098,.00768,
.010563,.008576,
.009997,.009386,
.009298,.010085,
.008489,.010653,
.007594,.011071,
.00664,.011328,
.005655,.011415,
.00565,.01141,
-.00565,.01141,
-.006635,.011329,
-.007589,.011073,
-.008485,.010655,
-.009295,.010088,
-.009993,.00939,
-.01056,.00858,
-.010978,.007684,
-.011234,.00673,
-.01132,.005745,
-.01132,.00574,
-.01132,-.00574,
-.011235,-.006725,
-.01098,-.00768,
-.010563,-.008576,
-.009997,-.009386,
-.009298,-.010085,
-.008489,-.010653,
-.007594,-.011071,
-.00664,-.011328,
-.005655,-.011415,
-.00565,-.01141,
0.0*
%
%ADD19MACRO19*%
%AMMACRO37*
4,1,44,-.01525,-.02854,
.01525,-.02854,
.016104,-.028471,
.016933,-.02825,
.017711,-.027888,
.018414,-.027397,
.019021,-.026791,
.019513,-.026089,
.019877,-.025312,
.020099,-.024484,
.020175,-.02363,
.02017,-.02362,
.02017,.02362,
.020101,.024474,
.01988,.025303,
.019518,.026081,
.019027,.026784,
.018421,.027391,
.017719,.027883,
.016942,.028247,
.016114,.028469,
.01526,.028545,
.01525,.02854,
-.01525,.02854,
-.016104,.028471,
-.016933,.02825,
-.017711,.027888,
-.018414,.027397,
-.019021,.026791,
-.019513,.026089,
-.019877,.025312,
-.020099,.024484,
-.020175,.02363,
-.02017,.02362,
-.02017,-.02362,
-.020101,-.024474,
-.01988,-.025303,
-.019518,-.026081,
-.019027,-.026784,
-.018421,-.027391,
-.017719,-.027883,
-.016942,-.028247,
-.016114,-.028469,
-.01526,-.028545,
-.01525,-.02854,
0.0*
%
%ADD37MACRO37*%
%AMMACRO31*
4,1,44,.01238,-.01409,
.01238,.01409,
.012287,.015163,
.012009,.016204,
.011555,.017181,
.010937,.018064,
.010176,.018826,
.009294,.019445,
.008318,.019901,
.007278,.02018,
.006205,.020275,
.0062,.02027,
-.0062,.02027,
-.007273,.020181,
-.008314,.019902,
-.00929,.019447,
-.010172,.018829,
-.010934,.018067,
-.011552,.017185,
-.012007,.016209,
-.012286,.015168,
-.01238,.014095,
-.01238,.01409,
-.01238,-.01409,
-.012287,-.015163,
-.012009,-.016204,
-.011555,-.017181,
-.010937,-.018064,
-.010176,-.018826,
-.009294,-.019445,
-.008318,-.019901,
-.007278,-.02018,
-.006205,-.020275,
-.0062,-.02027,
.0062,-.02027,
.007273,-.020181,
.008314,-.019902,
.00929,-.019447,
.010172,-.018829,
.010934,-.018067,
.011552,-.017185,
.012007,-.016209,
.012286,-.015168,
.01238,-.014095,
.01238,-.01409,
0.0*
%
%ADD31MACRO31*%
%AMMACRO32*
4,1,44,-.00926,-.01315,
.00926,-.01315,
.010403,-.013051,
.011511,-.012755,
.012551,-.012271,
.013491,-.011614,
.014302,-.010803,
.014961,-.009864,
.015446,-.008825,
.015744,-.007718,
.015845,-.006575,
.01584,-.00657,
.01584,.00657,
.015745,.007713,
.015448,.00882,
.014963,.00986,
.014306,.0108,
.013495,.011611,
.012555,.012268,
.011515,.012753,
.010408,.01305,
.009265,.01315,
.00926,.01315,
-.00926,.01315,
-.010403,.013051,
-.011511,.012755,
-.012551,.012271,
-.013491,.011614,
-.014302,.010803,
-.014961,.009864,
-.015446,.008825,
-.015744,.007718,
-.015845,.006575,
-.01584,.00657,
-.01584,-.00657,
-.015745,-.007713,
-.015448,-.00882,
-.014963,-.00986,
-.014306,-.0108,
-.013495,-.011611,
-.012555,-.012268,
-.011515,-.012753,
-.010408,-.01305,
-.009265,-.01315,
-.00926,-.01315,
0.0*
%
%ADD32MACRO32*%
%ADD29C,.06496*%
%ADD10C,.09449*%
%AMMACRO41*
4,1,44,.02805,.05019,
-.02805,.05019,
-.028904,.05012,
-.029733,.049898,
-.03051,.049536,
-.031213,.049044,
-.031819,.048438,
-.032311,.047735,
-.032673,.046958,
-.032895,.046129,
-.03297,.045275,
-.03297,.04527,
-.03297,-.04527,
-.032896,-.046124,
-.032675,-.046953,
-.032313,-.047731,
-.031822,-.048434,
-.031216,-.049041,
-.030514,-.049533,
-.029737,-.049897,
-.028909,-.050119,
-.028055,-.050195,
-.02805,-.05019,
.02805,-.05019,
.028904,-.05012,
.029733,-.049898,
.03051,-.049536,
.031213,-.049044,
.031819,-.048438,
.032311,-.047735,
.032673,-.046958,
.032895,-.046129,
.03297,-.045275,
.03297,-.04527,
.03297,.04527,
.032896,.046124,
.032675,.046953,
.032313,.047731,
.031822,.048434,
.031216,.049041,
.030514,.049533,
.029737,.049897,
.028909,.050119,
.028055,.050195,
.02805,.05019,
0.0*
%
%ADD41MACRO41*%
%ADD23R,.06496X.06496*%
%AMMACRO33*
4,1,44,.01828,-.00827,
.01828,.00827,
.018165,.009637,
.01781,.010962,
.017231,.012205,
.016444,.013329,
.015474,.014299,
.01435,.015086,
.013107,.015665,
.011782,.01602,
.010415,.01614,
.01041,.01614,
-.01041,.01614,
-.011777,.016021,
-.013102,.015667,
-.014346,.015088,
-.01547,.014302,
-.016441,.013333,
-.017228,.012209,
-.017809,.010966,
-.018165,.009642,
-.018285,.008275,
-.01828,.00827,
-.01828,-.00827,
-.018165,-.009637,
-.01781,-.010962,
-.017231,-.012205,
-.016444,-.013329,
-.015474,-.014299,
-.01435,-.015086,
-.013107,-.015665,
-.011782,-.01602,
-.010415,-.01614,
-.01041,-.01614,
.01041,-.01614,
.011777,-.016021,
.013102,-.015667,
.014346,-.015088,
.01547,-.014302,
.016441,-.013333,
.017228,-.012209,
.017809,-.010966,
.018165,-.009642,
.018285,-.008275,
.01828,-.00827,
0.0*
%
%ADD33MACRO33*%
%AMMACRO14*
4,1,44,-.00827,-.01828,
.00827,-.01828,
.009637,-.018165,
.010962,-.01781,
.012205,-.017231,
.013329,-.016444,
.014299,-.015474,
.015086,-.01435,
.015665,-.013107,
.01602,-.011782,
.01614,-.010415,
.01614,-.01041,
.01614,.01041,
.016021,.011777,
.015667,.013102,
.015088,.014346,
.014302,.01547,
.013333,.016441,
.012209,.017228,
.010966,.017809,
.009642,.018165,
.008275,.018285,
.00827,.01828,
-.00827,.01828,
-.009637,.018165,
-.010962,.01781,
-.012205,.017231,
-.013329,.016444,
-.014299,.015474,
-.015086,.01435,
-.015665,.013107,
-.01602,.011782,
-.01614,.010415,
-.01614,.01041,
-.01614,-.01041,
-.016021,-.011777,
-.015667,-.013102,
-.015088,-.014346,
-.014302,-.01547,
-.013333,-.016441,
-.012209,-.017228,
-.010966,-.017809,
-.009642,-.018165,
-.008275,-.018285,
-.00827,-.01828,
0.0*
%
%ADD14MACRO14*%
%AMMACRO22*
4,1,44,-.01408,-.02391,
.01408,-.02391,
.015447,-.023795,
.016772,-.02344,
.018015,-.022861,
.019139,-.022074,
.020109,-.021104,
.020896,-.01998,
.021475,-.018737,
.02183,-.017412,
.02195,-.016045,
.02195,-.01604,
.02195,.01604,
.021831,.017407,
.021477,.018732,
.020898,.019976,
.020112,.0211,
.019143,.022071,
.018019,.022858,
.016776,.023439,
.015452,.023795,
.014085,.023915,
.01408,.02391,
-.01408,.02391,
-.015447,.023795,
-.016772,.02344,
-.018015,.022861,
-.019139,.022074,
-.020109,.021104,
-.020896,.01998,
-.021475,.018737,
-.02183,.017412,
-.02195,.016045,
-.02195,.01604,
-.02195,-.01604,
-.021831,-.017407,
-.021477,-.018732,
-.020898,-.019976,
-.020112,-.0211,
-.019143,-.022071,
-.018019,-.022858,
-.016776,-.023439,
-.015452,-.023795,
-.014085,-.023915,
-.01408,-.02391,
0.0*
%
%ADD22MACRO22*%
%AMMACRO26*
4,1,44,.02884,-.01309,
.02884,.01309,
.028721,.014457,
.028367,.015782,
.027788,.017026,
.027002,.01815,
.026033,.019121,
.024909,.019908,
.023666,.020489,
.022342,.020845,
.020975,.020965,
.02097,.02096,
-.02097,.02096,
-.022337,.020845,
-.023662,.02049,
-.024905,.019911,
-.026029,.019124,
-.026999,.018154,
-.027786,.01703,
-.028365,.015787,
-.02872,.014462,
-.02884,.013095,
-.02884,.01309,
-.02884,-.01309,
-.028721,-.014457,
-.028367,-.015782,
-.027788,-.017026,
-.027002,-.01815,
-.026033,-.019121,
-.024909,-.019908,
-.023666,-.020489,
-.022342,-.020845,
-.020975,-.020965,
-.02097,-.02096,
.02097,-.02096,
.022337,-.020845,
.023662,-.02049,
.024905,-.019911,
.026029,-.019124,
.026999,-.018154,
.027786,-.01703,
.028365,-.015787,
.02872,-.014462,
.02884,-.013095,
.02884,-.01309,
0.0*
%
%ADD26MACRO26*%
%ADD21R,.0135X.01543*%
%AMMACRO39*
4,1,44,-.0059,.02096,
-.0059,-.02096,
-.005872,-.021337,
-.005774,-.021702,
-.005614,-.022045,
-.005397,-.022355,
-.00513,-.022622,
-.00482,-.022839,
-.004477,-.022999,
-.004112,-.023097,
-.003735,-.02313,
-.00373,-.02313,
.00373,-.02313,
.004107,-.023098,
.004472,-.023001,
.004816,-.022842,
.005126,-.022626,
.005394,-.022359,
.005612,-.022049,
.005772,-.021707,
.005871,-.021342,
.005905,-.020965,
.0059,-.02096,
.0059,.02096,
.005872,.021337,
.005774,.021702,
.005614,.022045,
.005397,.022355,
.00513,.022622,
.00482,.022839,
.004477,.022999,
.004112,.023097,
.003735,.02313,
.00373,.02313,
-.00373,.02313,
-.004107,.023098,
-.004472,.023001,
-.004816,.022842,
-.005126,.022626,
-.005394,.022359,
-.005612,.022049,
-.005772,.021707,
-.005871,.021342,
-.005905,.020965,
-.0059,.02096,
0.0*
%
%ADD39MACRO39*%
%AMMACRO38*
4,1,44,.02096,.0059,
-.02096,.0059,
-.021337,.005872,
-.021702,.005774,
-.022045,.005614,
-.022355,.005397,
-.022622,.00513,
-.022839,.00482,
-.022999,.004477,
-.023097,.004112,
-.02313,.003735,
-.02313,.00373,
-.02313,-.00373,
-.023098,-.004107,
-.023001,-.004472,
-.022842,-.004816,
-.022626,-.005126,
-.022359,-.005394,
-.022049,-.005612,
-.021707,-.005772,
-.021342,-.005871,
-.020965,-.005905,
-.02096,-.0059,
.02096,-.0059,
.021337,-.005872,
.021702,-.005774,
.022045,-.005614,
.022355,-.005397,
.022622,-.00513,
.022839,-.00482,
.022999,-.004477,
.023097,-.004112,
.02313,-.003735,
.02313,-.00373,
.02313,.00373,
.023098,.004107,
.023001,.004472,
.022842,.004816,
.022626,.005126,
.022359,.005394,
.022049,.005612,
.021707,.005772,
.021342,.005871,
.020965,.005905,
.02096,.0059,
0.0*
%
%ADD38MACRO38*%
%ADD18R,.04488X.01181*%
%AMMACRO42*
4,1,44,-.02805,-.05019,
.02805,-.05019,
.028904,-.05012,
.029733,-.049898,
.03051,-.049536,
.031213,-.049044,
.031819,-.048438,
.032311,-.047735,
.032673,-.046958,
.032895,-.046129,
.03297,-.045275,
.03297,-.04527,
.03297,.04527,
.032896,.046124,
.032675,.046953,
.032313,.047731,
.031822,.048434,
.031216,.049041,
.030514,.049533,
.029737,.049897,
.028909,.050119,
.028055,.050195,
.02805,.05019,
-.02805,.05019,
-.028904,.05012,
-.029733,.049898,
-.03051,.049536,
-.031213,.049044,
-.031819,.048438,
-.032311,.047735,
-.032673,.046958,
-.032895,.046129,
-.03297,.045275,
-.03297,.04527,
-.03297,-.04527,
-.032896,-.046124,
-.032675,-.046953,
-.032313,-.047731,
-.031822,-.048434,
-.031216,-.049041,
-.030514,-.049533,
-.029737,-.049897,
-.028909,-.050119,
-.028055,-.050195,
-.02805,-.05019,
0.0*
%
%ADD42MACRO42*%
%AMMACRO30*
4,1,44,.01616,.01096,
-.01616,.01096,
-.01711,.010883,
-.018031,.010637,
-.018896,.010235,
-.019677,.009688,
-.020352,.009015,
-.0209,.008234,
-.021303,.007371,
-.021551,.00645,
-.021635,.0055,
-.02163,.00549,
-.02163,-.00549,
-.021553,-.00644,
-.021307,-.007361,
-.020905,-.008226,
-.020358,-.009007,
-.019685,-.009682,
-.018904,-.01023,
-.018041,-.010633,
-.01712,-.010881,
-.01617,-.010965,
-.01616,-.01096,
.01616,-.01096,
.01711,-.010883,
.018031,-.010637,
.018896,-.010235,
.019677,-.009688,
.020352,-.009015,
.0209,-.008234,
.021303,-.007371,
.021551,-.00645,
.021635,-.0055,
.02163,-.00549,
.02163,.00549,
.021553,.00644,
.021307,.007361,
.020905,.008226,
.020358,.009007,
.019685,.009682,
.018904,.01023,
.018041,.010633,
.01712,.010881,
.01617,.010965,
.01616,.01096,
0.0*
%
%ADD30MACRO30*%
%AMMACRO25*
4,1,44,-.01238,.01409,
-.01238,-.01409,
-.012287,-.015163,
-.012009,-.016204,
-.011555,-.017181,
-.010937,-.018064,
-.010176,-.018826,
-.009294,-.019445,
-.008318,-.019901,
-.007278,-.02018,
-.006205,-.020275,
-.0062,-.02027,
.0062,-.02027,
.007273,-.020181,
.008314,-.019902,
.00929,-.019447,
.010172,-.018829,
.010934,-.018067,
.011552,-.017185,
.012007,-.016209,
.012286,-.015168,
.01238,-.014095,
.01238,-.01409,
.01238,.01409,
.012287,.015163,
.012009,.016204,
.011555,.017181,
.010937,.018064,
.010176,.018826,
.009294,.019445,
.008318,.019901,
.007278,.02018,
.006205,.020275,
.0062,.02027,
-.0062,.02027,
-.007273,.020181,
-.008314,.019902,
-.00929,.019447,
-.010172,.018829,
-.010934,.018067,
-.011552,.017185,
-.012007,.016209,
-.012286,.015168,
-.01238,.014095,
-.01238,.01409,
0.0*
%
%ADD25MACRO25*%
%AMMACRO20*
4,1,44,.00565,.01141,
-.00565,.01141,
-.006635,.011329,
-.007589,.011073,
-.008485,.010655,
-.009295,.010088,
-.009993,.00939,
-.01056,.00858,
-.010978,.007684,
-.011234,.00673,
-.01132,.005745,
-.01132,.00574,
-.01132,-.00574,
-.011235,-.006725,
-.01098,-.00768,
-.010563,-.008576,
-.009997,-.009386,
-.009298,-.010085,
-.008489,-.010653,
-.007594,-.011071,
-.00664,-.011328,
-.005655,-.011415,
-.00565,-.01141,
.00565,-.01141,
.006635,-.011329,
.007589,-.011073,
.008485,-.010655,
.009295,-.010088,
.009993,-.00939,
.01056,-.00858,
.010978,-.007684,
.011234,-.00673,
.01132,-.005745,
.01132,-.00574,
.01132,.00574,
.011235,.006725,
.01098,.00768,
.010563,.008576,
.009997,.009386,
.009298,.010085,
.008489,.010653,
.007594,.011071,
.00664,.011328,
.005655,.011415,
.00565,.01141,
0.0*
%
%ADD20MACRO20*%
%AMMACRO36*
4,1,44,.01525,.02854,
-.01525,.02854,
-.016104,.028471,
-.016933,.02825,
-.017711,.027888,
-.018414,.027397,
-.019021,.026791,
-.019513,.026089,
-.019877,.025312,
-.020099,.024484,
-.020175,.02363,
-.02017,.02362,
-.02017,-.02362,
-.020101,-.024474,
-.01988,-.025303,
-.019518,-.026081,
-.019027,-.026784,
-.018421,-.027391,
-.017719,-.027883,
-.016942,-.028247,
-.016114,-.028469,
-.01526,-.028545,
-.01525,-.02854,
.01525,-.02854,
.016104,-.028471,
.016933,-.02825,
.017711,-.027888,
.018414,-.027397,
.019021,-.026791,
.019513,-.026089,
.019877,-.025312,
.020099,-.024484,
.020175,-.02363,
.02017,-.02362,
.02017,.02362,
.020101,.024474,
.01988,.025303,
.019518,.026081,
.019027,.026784,
.018421,.027391,
.017719,.027883,
.016942,.028247,
.016114,.028469,
.01526,.028545,
.01525,.02854,
0.0*
%
%ADD36MACRO36*%
%AMMACRO35*
4,1,44,.00926,.01315,
-.00926,.01315,
-.010403,.013051,
-.011511,.012755,
-.012551,.012271,
-.013491,.011614,
-.014302,.010803,
-.014961,.009864,
-.015446,.008825,
-.015744,.007718,
-.015845,.006575,
-.01584,.00657,
-.01584,-.00657,
-.015745,-.007713,
-.015448,-.00882,
-.014963,-.00986,
-.014306,-.0108,
-.013495,-.011611,
-.012555,-.012268,
-.011515,-.012753,
-.010408,-.01305,
-.009265,-.01315,
-.00926,-.01315,
.00926,-.01315,
.010403,-.013051,
.011511,-.012755,
.012551,-.012271,
.013491,-.011614,
.014302,-.010803,
.014961,-.009864,
.015446,-.008825,
.015744,-.007718,
.015845,-.006575,
.01584,-.00657,
.01584,.00657,
.015745,.007713,
.015448,.00882,
.014963,.00986,
.014306,.0108,
.013495,.011611,
.012555,.012268,
.011515,.012753,
.010408,.01305,
.009265,.01315,
.00926,.01315,
0.0*
%
%ADD35MACRO35*%
%ADD12O,.07874X.03937*%
%AMMACRO34*
4,1,44,-.01828,.00827,
-.01828,-.00827,
-.018165,-.009637,
-.01781,-.010962,
-.017231,-.012205,
-.016444,-.013329,
-.015474,-.014299,
-.01435,-.015086,
-.013107,-.015665,
-.011782,-.01602,
-.010415,-.01614,
-.01041,-.01614,
.01041,-.01614,
.011777,-.016021,
.013102,-.015667,
.014346,-.015088,
.01547,-.014302,
.016441,-.013333,
.017228,-.012209,
.017809,-.010966,
.018165,-.009642,
.018285,-.008275,
.01828,-.00827,
.01828,.00827,
.018165,.009637,
.01781,.010962,
.017231,.012205,
.016444,.013329,
.015474,.014299,
.01435,.015086,
.013107,.015665,
.011782,.01602,
.010415,.01614,
.01041,.01614,
-.01041,.01614,
-.011777,.016021,
-.013102,.015667,
-.014346,.015088,
-.01547,.014302,
-.016441,.013333,
-.017228,.012209,
-.017809,.010966,
-.018165,.009642,
-.018285,.008275,
-.01828,.00827,
0.0*
%
%ADD34MACRO34*%
%ADD17R,.04488X.01969*%
%AMMACRO15*
4,1,44,.00827,.01828,
-.00827,.01828,
-.009637,.018165,
-.010962,.01781,
-.012205,.017231,
-.013329,.016444,
-.014299,.015474,
-.015086,.01435,
-.015665,.013107,
-.01602,.011782,
-.01614,.010415,
-.01614,.01041,
-.01614,-.01041,
-.016021,-.011777,
-.015667,-.013102,
-.015088,-.014346,
-.014302,-.01547,
-.013333,-.016441,
-.012209,-.017228,
-.010966,-.017809,
-.009642,-.018165,
-.008275,-.018285,
-.00827,-.01828,
.00827,-.01828,
.009637,-.018165,
.010962,-.01781,
.012205,-.017231,
.013329,-.016444,
.014299,-.015474,
.015086,-.01435,
.015665,-.013107,
.01602,-.011782,
.01614,-.010415,
.01614,-.01041,
.01614,.01041,
.016021,.011777,
.015667,.013102,
.015088,.014346,
.014302,.01547,
.013333,.016441,
.012209,.017228,
.010966,.017809,
.009642,.018165,
.008275,.018285,
.00827,.01828,
0.0*
%
%ADD15MACRO15*%
%ADD46C,.01*%
%ADD47C,.02*%
%ADD48C,.03*%
%ADD49C,.006*%
%ADD51C,.075*%
%ADD50C,.0634*%
%ADD52C,.07224*%
%ADD53C,.089*%
G75*
%LPD*%
G75*
G36*
G01X4200Y4200D02*
Y113800D01*
X232200D01*
Y4200D01*
X4200D01*
G37*
%LPC*%
G75*
G36*
G01X50987Y50398D02*
X51884D01*
G02X53390Y49556I0J-1768D01*
G01X57715D01*
X57740Y49728D01*
G02X59540Y51284I1800J-263D01*
G01X60780D01*
G02X62600Y49464I0J-1820D01*
G01Y46646D01*
G02X60780Y44826I-1820J0D01*
G01X59540D01*
G02X57740Y46382I0J1819D01*
G01X57715Y46554D01*
X53390D01*
G02X51884Y45712I-1506J926D01*
G01X50754D01*
G02X49500Y46234I1J1769D01*
G02X48246Y45712I-1255J1247D01*
G01X47116D01*
G02X45348Y47481I1J1769D01*
G01Y48629D01*
G02X46317Y50207I1769J0D01*
G02X46367Y50376I3787J-1029D01*
G03X45987Y50898I-381J122D01*
G01X39331D01*
G03X38970Y50328I1J-400D01*
G02X39138Y49577I-1600J-752D01*
G01Y48426D01*
G02X38318Y46933I-1769J0D01*
G03X38208Y46361I214J-338D01*
G02X38583Y45201I-1608J-1160D01*
G01Y45200D01*
G02X36600Y43217I-1983J0D01*
G02X34629Y44986I0J1983D01*
G01X34621Y45056D01*
X31980Y47697D01*
X31844Y47610D01*
G02X31196Y47420I-648J1011D01*
G01X26792D01*
X26753Y47270D01*
G02X24739Y45714I-2014J525D01*
G02X22658Y47795I0J2081D01*
G02X22990Y48922I2081J-1D01*
G03X22930Y49199I-168J109D01*
G02X21398Y51999I1793J2800D01*
G01Y66300D01*
G02X22914Y69051I3254J0D01*
G03X22977Y69326I-107J169D01*
G02X22658Y70433I1761J1107D01*
G02X24739Y72514I2081J0D01*
G02X26778Y70850I0J-2081D01*
G01X26811Y70690D01*
X28691D01*
X28702Y70691D01*
G02X28952Y70706I257J-2187D01*
G01X31706D01*
X33898Y72898D01*
Y82798D01*
X35502Y84402D01*
X42098D01*
X43402Y83098D01*
Y72802D01*
X38139Y67540D01*
G03X38223Y66910I283J-283D01*
G02X39114Y65375I-877J-1535D01*
G01Y64224D01*
G02X39080Y63880I-1768J1D01*
G03X39473Y63402I392J-78D01*
G01X46059D01*
G02X47572Y62774I-1J-2139D01*
G01X47655Y62691D01*
G02X48241Y61600I-1511J-1514D01*
G02X48600Y61321I-897J-1524D01*
G02X49853Y61842I1253J-1247D01*
G01X50986D01*
G02X52490Y61002I-1J-1768D01*
G01X52812D01*
G02X54739Y60202I0J-2721D01*
G01X54806D01*
G02X56100Y60683I1295J-1502D01*
G02X58083Y58700I0J-1983D01*
G02X57357Y57166I-1984J0D01*
G03X57340Y56562I253J-309D01*
G02X57983Y55100I-1341J-1462D01*
G02X56000Y53117I-1983J0D01*
G02X54705Y53598I0J1984D01*
G01X52490D01*
G02X51794Y52954I-1505J929D01*
G02X50752Y51128I-3865J995D01*
G01X50704Y51080D01*
G03X50987Y50398I283J-282D01*
G37*
G36*
G01X104508Y30863D02*
G02X106200Y32556I1693J0D01*
G01X109252D01*
G02X109568Y32526I-1J-1693D01*
G03X110040Y32864I76J393D01*
G02X111317Y35441I4461J-606D01*
G01X112882Y37005D01*
G02X115047Y37902I2166J-2167D01*
G01X117156D01*
G03X118047Y38271I0J1260D01*
G01X118554Y38778D01*
G03X118271Y39461I-283J283D01*
G01X118270D01*
G02X118261Y39460I-261J2307D01*
G01X113379D01*
G03X112319Y39021I0J-1499D01*
G01X109615Y36317D01*
G02X106431Y34998I-3184J3184D01*
G01X105890D01*
G02X104386Y34158I-1505J928D01*
G01X103254D01*
G02X101486Y35926I0J1768D01*
G01Y37075D01*
G02X102441Y38645I1768J0D01*
G03Y39355I-183J355D01*
G02X101486Y40925I813J1570D01*
G01Y42074D01*
G02X102118Y43429I1769J0D01*
G01Y44571D01*
G02X101486Y45926I1137J1355D01*
G01Y47074D01*
G02X102118Y48429I1769J0D01*
G01Y48919D01*
G02X105097Y51898I2979J0D01*
G01X109463D01*
X109495Y51910D01*
G02X109723Y51968I462J-1341D01*
G03Y52363I-34J198D01*
G02X108542Y53761I237J1398D01*
G01Y54507D01*
G02X108681Y55118I1419J-1D01*
G02X108542Y55730I1280J612D01*
G01Y56570D01*
X105690D01*
G02X104184Y55728I-1506J926D01*
G01X103054D01*
G02X101286Y57497I1J1769D01*
G01Y58647D01*
G02X103054Y60414I1768J-1D01*
G01X104184D01*
G02X105690Y59572I0J-1768D01*
G01X108542D01*
Y60413D01*
G02X108681Y61024I1419J-1D01*
G02X108542Y61635I1280J612D01*
G01Y62476D01*
X103699D01*
X103574Y62351D01*
G02X102665Y61764I-1815J1813D01*
G02X101200Y61117I-1465J1335D01*
G02X99217Y63100I0J1983D01*
G02X99218Y63166I1983J3D01*
G03X98741Y63553I-400J-5D01*
G02X98173Y63498I-569J2917D01*
G01X98097D01*
X98042Y63454D01*
G02X96800Y63017I-1242J1546D01*
G02X94918Y64375I0J1983D01*
G03X94256Y64532I-379J-126D01*
G01X89841Y60117D01*
G03X89402Y59057I1060J-1060D01*
G01Y41056D01*
G02X88144Y38020I-4292J0D01*
G01X88061Y37937D01*
X88060D01*
G03X87682Y37025I911J-912D01*
G01Y36074D01*
G02X88514Y34574I-936J-1500D01*
G01Y33426D01*
G02X86746Y31658I-1768J0D01*
G01X85614D01*
G02X84110Y32498I1J1768D01*
G01X80720D01*
G02X80122Y31909I-1505J929D01*
G01Y29862D01*
G02X79019Y26911I-4502J1D01*
G02X79450Y25000I-4019J-1911D01*
G02X79287Y23806I-4450J-1D01*
G03X79915Y23381I385J-107D01*
G02X82643Y24302I2729J-3582D01*
G01X84110D01*
G02X85614Y25142I1505J-928D01*
G01X86747D01*
G02X88000Y24621I0J-1768D01*
G02X88318Y24874I1253J-1248D01*
G01Y25426D01*
G02X87486Y26926I936J1500D01*
G01Y28074D01*
G02X89254Y29842I1768J0D01*
G01X90386D01*
G02X91890Y29002I-1J-1768D01*
G01X92400D01*
G03X92498Y29100I0J98D01*
G01Y48312D01*
G02X92017Y49607I1503J1295D01*
G02X95983I1983J0D01*
G02X95502Y48312I-1984J0D01*
G01Y29100D01*
G02X92400Y25998I-3102J0D01*
G01X91890D01*
G02X91320Y25426I-1505J929D01*
G01Y24874D01*
G02X92152Y23374I-936J-1500D01*
G01Y22226D01*
G02X91320Y20726I-1768J0D01*
G01Y20174D01*
G02X92152Y18674I-936J-1500D01*
G01Y17526D01*
G02X90384Y15758I-1768J0D01*
G01X89254D01*
G02X87486Y17526I0J1768D01*
G01Y18674D01*
G02X88318Y20174I1768J0D01*
G01Y20726D01*
G02X88000Y20979I935J1501D01*
G02X86747Y20458I-1253J1247D01*
G01X85614D01*
G02X84110Y21298I1J1768D01*
G01X82643D01*
G03X81583Y20859I0J-1499D01*
G01X81393Y20669D01*
G02X78209Y19350I-3184J3184D01*
G01X70391D01*
G02X67331Y20550I0J4502D01*
G01X61752D01*
G02X60550Y21752I0J1202D01*
G01Y23298D01*
X23620D01*
G02X20918Y26001I1J2703D01*
G01Y26673D01*
G02X19804Y28459I875J1786D01*
G01Y30543D01*
G02X21792Y32530I1988J-1D01*
G01X23446D01*
G02X25232Y31416I0J-1989D01*
G03X25950I359J176D01*
G02X26559Y32144I1786J-875D01*
G03Y32789I-236J323D01*
G02X25748Y34391I1177J1602D01*
G01Y36474D01*
G02X27736Y38462I1988J0D01*
G01X29390D01*
G02X31218Y37256I0J-1988D01*
G01X31270Y37134D01*
X33921D01*
X33973Y37256D01*
G02X35801Y38462I1828J-782D01*
G01X37456D01*
G02X39241Y37349I0J-1988D01*
G03X39959I359J176D01*
G02X41744Y38462I1785J-875D01*
G01X43399D01*
G02X45227Y37256I0J-1988D01*
G01X45279Y37134D01*
X49728D01*
X54676Y42082D01*
X54690Y42133D01*
G02X56600Y43583I1910J-533D01*
G02X58583Y41600I0J-1983D01*
G02X57133Y39690I-1983J0D01*
G01X57082Y39676D01*
X51636Y34230D01*
G02X50433Y33732I-1203J1204D01*
G01X45279D01*
X45227Y33610D01*
G02X44375Y32660I-1828J782D01*
G01X44274Y32602D01*
Y32331D01*
X44375Y32273D01*
G02X45388Y30541I-976J-1733D01*
G01Y28459D01*
G02X45035Y27329I-1989J1D01*
G03X45364Y26702I329J-227D01*
G01X60550D01*
Y28248D01*
G02X61752Y29450I1202J0D01*
G01X63498D01*
Y30581D01*
G03X63431Y30745I-232J1D01*
G01X63430D01*
X63346Y30829D01*
G02X62398Y33117I2287J2288D01*
G01Y37574D01*
G02X61460Y39166I882J1592D01*
G01Y41984D01*
G02X63280Y43804I1820J0D01*
G01X64520D01*
G02X66340Y41984I0J-1820D01*
G01Y39166D01*
G02X65402Y37574I-1820J0D01*
G01Y33117D01*
G03X65469Y32953I232J-1D01*
G01X65470D01*
X65554Y32869D01*
G02X66502Y30581I-2287J-2288D01*
G01Y29450D01*
X68248D01*
G02X69450Y28248I0J-1202D01*
G01Y22686D01*
G03X70391Y22354I941J1168D01*
G01X70702D01*
G03X71056Y22939I0J400D01*
G02X70550Y25000I3944J2061D01*
G02X75000Y29450I4450J0D01*
G02X76871Y29037I-1J-4450D01*
G03X77120Y29864I-1251J828D01*
G01Y31944D01*
G02X76830Y32179I962J1484D01*
G02X75577Y31658I-1253J1247D01*
G01X74444D01*
G02X72940Y32498I1J1768D01*
G01X70695D01*
G02X69400Y32017I-1295J1503D01*
G02Y35983I0J1983D01*
G02X70695Y35502I0J-1984D01*
G01X72940D01*
G02X73638Y36147I1505J-929D01*
G03Y36859I-183J356D01*
G02X72678Y38432I809J1573D01*
G01Y39580D01*
G02X73510Y41080I1768J0D01*
G01Y42054D01*
G02X72678Y43554I936J1500D01*
G01Y44702D01*
G02X73510Y46202I1768J0D01*
G01Y47176D01*
G02X72940Y47748I935J1501D01*
G01X71657D01*
G03X71379Y47633I1J-395D01*
G01Y47632D01*
X71296Y47549D01*
G02X70082Y46768I-2404J2402D01*
G01Y46646D01*
G02X68260Y44824I-1822J0D01*
G01X67020D01*
G02X65198Y46646I0J1822D01*
G01Y49464D01*
G02X67020Y51286I1822J0D01*
G01X68260D01*
G02X69819Y50406I0J-1821D01*
G03X70067Y50356I155J127D01*
G02X71657Y50751I1590J-3003D01*
G01X71658Y50752D01*
X72940D01*
G02X74444Y51592I1505J-928D01*
G01X75576D01*
G02X77344Y49824I0J-1768D01*
G01Y48676D01*
G02X76512Y47176I-1768J0D01*
G01Y46202D01*
G02X76830Y45949I-935J-1501D01*
G02X78083Y46470I1253J-1247D01*
G01X79216D01*
G02X80720Y45630I-1J-1768D01*
G01X84028D01*
G03X84498Y46100I0J470D01*
G01Y60057D01*
G02X85817Y63241I4503J0D01*
G01X92641Y70065D01*
G02X95825Y71384I3184J-3184D01*
G01X105571D01*
G03X105956Y71890I-1J400D01*
G02X105880Y72449I2025J560D01*
G01Y86426D01*
G02X105048Y87926I936J1500D01*
G01Y89074D01*
G02X106816Y90842I1768J0D01*
G01X107947D01*
G02X109200Y90321I0J-1768D01*
G02X109518Y90574I1253J-1248D01*
G01Y95177D01*
G02X110143Y97465I4502J0D01*
G02X109650Y99500I3957J2036D01*
G02X114100Y95050I4450J0D01*
G02X113018Y95184I2J4450D01*
G03X112520Y94796I-98J-388D01*
G01Y90574D01*
G02X113352Y89074I-936J-1500D01*
G01Y87926D01*
G02X111584Y86158I-1768J0D01*
G01X110453D01*
G02X109200Y86679I0J1768D01*
G02X108882Y86426I-1253J1248D01*
G01Y73911D01*
G03X109432Y73540I400J0D01*
G02X109959Y73642I528J-1316D01*
G01X114155D01*
G02X115572Y72224I-1J-1418D01*
G01Y71650D01*
G03X116236Y71350I400J0D01*
G02X118345Y72146I2109J-2396D01*
G01X119095D01*
G03X119646Y72375I-1J780D01*
G01X120177Y72906D01*
G03X120070Y73548I-283J283D01*
G02X119445Y74143I619J1276D01*
G03X118744I-351J-191D01*
G02X117501Y73406I-1244J682D01*
G01X116751D01*
G02X115334Y74824I1J1418D01*
G01Y75329D01*
X115201Y75376D01*
G02X114168Y76026I918J2604D01*
G01X114025Y76169D01*
G02X113218Y78120I1955J1951D01*
G01Y81471D01*
G02X112586Y82826I1137J1355D01*
G01Y83974D01*
G02X114354Y85742I1768J0D01*
G01X115486D01*
G02X116790Y85167I-1J-1768D01*
G01X116849Y85102D01*
X117180D01*
X117226Y85127D01*
G02X118200Y85383I975J-1727D01*
G02X119000Y85214I-1J-1983D01*
G03X119562Y85580I162J366D01*
G01Y86426D01*
G02X118730Y87926I936J1500D01*
G01Y89074D01*
G02X120498Y90842I1768J0D01*
G01X121629D01*
G02X122882Y90321I0J-1768D01*
G02X124135Y90842I1253J-1247D01*
G01X125266D01*
G02X126645Y90181I0J-1769D01*
G03X126909Y90385I-662J1129D01*
G01X131701Y95176D01*
G03X131639Y95792I-283J283D01*
G02X129650Y99500I2462J3708D01*
G02X138550I4450J0D01*
G02X135357Y95231I-4450J0D01*
G02X134283Y93511I-4258J1464D01*
G01X129033Y88261D01*
G02X126819Y87080I-3049J3049D01*
G02X125266Y86158I-1553J847D01*
G01X124135D01*
G02X122882Y86679I0J1768D01*
G02X122564Y86426I-1253J1248D01*
G01Y80434D01*
X123407D01*
G02X124016Y80296I-1J-1418D01*
G02X124625Y80434I610J-1280D01*
G01X125468D01*
Y81228D01*
G02X126786Y84410I4502J-1D01*
G01X132559Y90183D01*
G02X135743Y91502I3184J-3184D01*
G01X172757D01*
G03X173817Y91941I0J1499D01*
G01X175059Y93183D01*
G02X178243Y94502I3184J-3184D01*
G01X207905D01*
G02X209200Y94983I1295J-1503D01*
G02Y91017I0J-1983D01*
G02X207905Y91498I0J1984D01*
G01X181788D01*
G03X181504Y90817I0J-400D01*
G02X182014Y89575I-1258J-1242D01*
G01Y88426D01*
G02X181182Y86926I-1768J0D01*
G01Y86074D01*
G02X181500Y85821I-935J-1501D01*
G02X182753Y86342I1253J-1247D01*
G01X183884D01*
G02X185306Y85625I0J-1769D01*
G03X185769Y85941I-599J1375D01*
G01X186511Y86683D01*
G02X188050Y87690I3183J-3185D01*
G01Y89748D01*
G02X189252Y90950I1202J0D01*
G01X195748D01*
G02X196950Y89748I0J-1202D01*
G01Y84039D01*
G03X197632Y83756I400J0D01*
G01X198475Y84598D01*
X198420Y84723D01*
G02X198050Y86499I4080J1777D01*
G01Y86500D01*
G02X202500Y82050I4450J0D01*
G01X202499D01*
G02X200723Y82420I1J4450D01*
G01X200598Y82475D01*
X199808Y81684D01*
G03X200091Y81002I283J-282D01*
G01X220658D01*
G02X223842Y79683I0J-4503D01*
G01X225548Y77977D01*
X225672Y78029D01*
G02X227345Y78367I1674J-3974D01*
G01X227346D01*
G02Y69743I0J-4312D01*
G02X223503Y72100I0J4311D01*
G01X221189D01*
G02X217346Y69743I-3843J1954D01*
G02X213304Y72554I0J4312D01*
G01X210390D01*
G02X208884Y71712I-1506J926D01*
G01X207754D01*
G02X206500Y72234I1J1769D01*
G02X205246Y71712I-1255J1247D01*
G01X204116D01*
G02X202708Y72411I1J1769D01*
G02X201600Y72072I-1109J1644D01*
G02Y76038I0J1983D01*
G02X202708Y75699I-1J-1983D01*
G02X204116Y76398I1409J-1070D01*
G01X205246D01*
G02X206500Y75876I-1J-1769D01*
G02X207754Y76398I1255J-1247D01*
G01X208884D01*
G02X210390Y75556I0J-1768D01*
G01X213304D01*
G02X214504Y77298I4042J-1500D01*
G03X214240Y77998I-264J300D01*
G01X167090D01*
G02X165586Y77158I-1505J928D01*
G01X164453D01*
G02X163200Y77679I0J1768D01*
G02X161947Y77158I-1253J1247D01*
G01X160814D01*
G02X159310Y77998I1J1768D01*
G01X158690D01*
G02X157186Y77158I-1505J928D01*
G01X156053D01*
G02X154886Y77599I1J1768D01*
G03X154617Y76882I-27J-399D01*
G02X155314Y75476I-1072J-1407D01*
G01Y74325D01*
G02X154694Y72980I-1770J0D01*
G01Y72917D01*
G02X154974Y71901I-1703J-1016D01*
G01Y71900D01*
G02X151008I-1983J0D01*
G02X151288Y72916I1983J0D01*
G01Y72964D01*
G02X151054Y73198I1128J1362D01*
G01X147670D01*
G03X147291Y72672I0J-400D01*
G02X147364Y72224I-1346J-449D01*
G01Y71478D01*
G02X146626Y70233I-1419J0D01*
G03Y69532I191J-350D01*
G02X146804Y69416I-683J-1243D01*
G01X190824D01*
G03X190971Y69476I1J208D01*
G01Y69477D01*
X191031Y69537D01*
G02X191054Y69561I1096J-1027D01*
G02X193203Y70500I2271J-2270D01*
G02X194500Y70983I1297J-1500D01*
G02Y67017I0J-1983D01*
G02X193356Y67380I0J1984D01*
G01X193226Y67472D01*
G03X193180Y67437I101J-181D01*
G02X193155Y67413I-1053J1072D01*
G01X193095Y67353D01*
G02X190824Y66412I-2271J2270D01*
G01X174052D01*
G03X173658Y65949I1J-400D01*
G02X173683Y65633I-1958J-314D01*
G02X171700Y63650I-1983J0D01*
G02X170405Y64132I1J1983D01*
G01X169466D01*
G02X167843Y64756I1J2425D01*
G01X148383D01*
G02X147465Y64444I-916J1190D01*
G01X146804D01*
G02X146626Y64327I-866J1123D01*
G03Y63626I191J-350D01*
G02X146804Y63510I-683J-1243D01*
G01X147466D01*
G02X148382Y63198I0J-1501D01*
G01X176551D01*
G03X176962Y63368I0J582D01*
G01X177046Y63452D01*
G02X179581Y64502I2535J-2535D01*
G01X180305D01*
G02X181600Y64983I1295J-1503D01*
G02X183520Y63496I0J-1983D01*
G03X184190Y63313I387J100D01*
G01X185114Y64238D01*
G02X188296Y65556I3183J-3184D01*
G01X202610D01*
G02X204116Y66398I1506J-926D01*
G01X205246D01*
G02X206500Y65876I-1J-1769D01*
G02X207754Y66398I1255J-1247D01*
G01X208884D01*
G02X210390Y65556I0J-1768D01*
G01X213304D01*
G02X217346Y68367I4042J-1501D01*
G02X221289Y65800I0J-4312D01*
G01X223403D01*
G02X227346Y68367I3943J-1745D01*
G02Y59743I0J-4312D01*
G01X227345D01*
G02X225672Y60081I1J4312D01*
G01X225548Y60133D01*
X224232Y58817D01*
G02X221048Y57498I-3184J3184D01*
G01X220943D01*
G03X220638Y56840I0J-400D01*
G02X221658Y54055I-3292J-2785D01*
G02X217346Y49743I-4312J0D01*
G02X213304Y52554I0J4312D01*
G01X210390D01*
G02X209800Y51968I-1506J927D01*
G01Y50687D01*
G02X210390Y50102I-915J-1513D01*
G01X211558D01*
G02X214742Y48783I0J-4503D01*
G01X215548Y47977D01*
X215672Y48029D01*
G02X217345Y48367I1674J-3974D01*
G01X217346D01*
G02X213034Y44055I0J-4312D01*
G01Y44056D01*
G02X213372Y45729I4312J-1D01*
G01X213424Y45853D01*
X212618Y46659D01*
G03X211558Y47098I-1060J-1060D01*
G01X210390D01*
G02X208886Y46258I-1505J928D01*
G01X207753D01*
G02X206500Y46779I0J1768D01*
G02X205247Y46258I-1253J1247D01*
G01X204114D01*
G02X202610Y47098I1J1768D01*
G01X152699D01*
G03X152176Y46933I1J-915D01*
G02X150200Y45117I-1976J167D01*
G02X148217Y47100I0J1983D01*
G02X148485Y48095I1983J0D01*
G03X148139Y48696I-346J201D01*
G01X146804D01*
G02X145945Y48406I-859J1127D01*
G01X141751D01*
G02X140334Y49824I1J1418D01*
G01Y50570D01*
G02X140473Y51182I1419J0D01*
G02X140334Y51793I1280J612D01*
G01Y52632D01*
X139066D01*
G02X135310Y56389I1J3757D01*
G01Y73406D01*
X134470D01*
G02X133858Y73544I-2J1418D01*
G02X133249Y73406I-610J1280D01*
G01X132499D01*
G02X131890Y73544I1J1418D01*
G02X131281Y73406I-610J1280D01*
G01X130316D01*
G02X129084Y71475I-4983J1821D01*
G01X128594Y70984D01*
X128839Y70672D01*
G02X129873Y70963I1034J-1692D01*
G02X131856Y68980I0J-1983D01*
G02X130837Y67247I-1983J0D01*
G03X130841Y66545I194J-350D01*
G02X131883Y64800I-940J-1745D01*
G02X130114Y62829I-1983J0D01*
G01X130044Y62821D01*
X129558Y62334D01*
X129764Y62128D01*
X129855Y62135D01*
G02X129999Y62140I141J-1978D01*
G02X131982Y60157I0J-1983D01*
G02X131408Y58762I-1982J0D01*
G03X131446Y58165I284J-282D01*
G02X132209Y56602I-1219J-1563D01*
G02X130440Y54631I-1983J0D01*
G01X130370Y54623D01*
X129886Y54138D01*
G02X129707Y53986I-1058J1065D01*
G01X129285Y53563D01*
G02X127038Y52632I-2247J2246D01*
G01X115012D01*
G02X114834Y52516I-861J1127D01*
G03Y51815I191J-350D01*
G02X115332Y51358I-683J-1244D01*
G03X115889Y51249I333J223D01*
G02X117000Y51590I1112J-1642D01*
G02X118295Y51108I-1J-1983D01*
G01X127571D01*
G02X130438Y48241I0J-2867D01*
G01Y48086D01*
X130474Y48034D01*
G02X130555Y47905I-1159J-818D01*
G03X131256I351J191D01*
G02X132499Y48642I1244J-682D01*
G01X133249D01*
G02X133858Y48504I-1J-1418D01*
G02X134470Y48642I610J-1280D01*
G01X135218D01*
G02X135827Y48504I-1J-1418D01*
G02X136436Y48642I610J-1280D01*
G01X137184D01*
G02X137796Y48504I2J-1418D01*
G02X138405Y48642I610J-1280D01*
G01X139155D01*
G02X140572Y47224I-1J-1418D01*
G01Y46630D01*
X141203D01*
X141258Y46674D01*
G02X142500Y47111I1242J-1546D01*
G02X144483Y45128I0J-1983D01*
G02X143867Y43691I-1984J0D01*
G03X144142Y43002I276J-289D01*
G01X152857D01*
G02X156041Y41683I0J-4503D01*
G01X156428Y41295D01*
G03X157111Y41565I283J283D01*
G02X159093Y43483I1982J-65D01*
G02X160388Y43002I0J-1984D01*
G01X161510D01*
G02X163014Y43842I1505J-928D01*
G01X164147D01*
G02X165400Y43321I0J-1768D01*
G02X166653Y43842I1253J-1247D01*
G01X167784D01*
G02X169273Y43028I0J-1769D01*
G03X169730Y43253I-238J1060D01*
G02X171707Y45083I1977J-153D01*
G02X173690Y43100I0J-1983D01*
G02X171851Y41122I-1983J0D01*
G02X169295Y40007I-2815J2966D01*
G02X168720Y39426I-1510J920D01*
G01Y38591D01*
G02X168217Y36534I-4464J1D01*
G03X168571Y35950I355J-184D01*
G01X168648D01*
G02X169850Y34748I0J-1202D01*
G01Y28252D01*
G02X168648Y27050I-1202J0D01*
G01X162839D01*
G03X162556Y26368I0J-400D01*
G01X165898Y23025D01*
X166023Y23080D01*
G02X167799Y23450I1777J-4080D01*
G01X167800D01*
G02X163350Y19000I0J-4450D01*
G02X163776Y20900I4450J0D01*
G01X162932Y21744D01*
G03X162250Y21461I-282J-283D01*
G01Y15752D01*
G02X161048Y14550I-1202J0D01*
G01X154552D01*
G02X153350Y15752I0J1202D01*
G01Y22248D01*
G02X154552Y23450I1202J0D01*
G01X155598D01*
Y31868D01*
G03X155583Y31901I-47J-2D01*
G02X155535Y31951I1565J1551D01*
G01X155351Y32135D01*
G02X155301Y32183I1501J1613D01*
G03X155268Y32198I-35J-32D01*
G01X154277D01*
X154241Y32184D01*
G02X153587Y32058I-656J1642D01*
G01X152453D01*
G02X151200Y32579I0J1768D01*
G02X150882Y32326I-1253J1248D01*
G01Y31674D01*
G02X151714Y30174I-936J-1500D01*
G01Y29026D01*
G02X149946Y27258I-1768J0D01*
G01X148816D01*
G02X147048Y29026I0J1768D01*
G01Y30174D01*
G02X147880Y31674I1768J0D01*
G01Y32326D01*
G02X147048Y33826I936J1500D01*
G01Y34974D01*
G02X147880Y36474I1768J0D01*
G01Y37397D01*
X146478Y38798D01*
X139892D01*
G03X139498Y38335I1J-400D01*
G02X139523Y38019I-1958J-314D01*
G02X139423Y37397I-1983J0D01*
G02X139914Y36174I-1278J-1223D01*
G01Y35026D01*
G02X138146Y33258I-1768J0D01*
G01X137016D01*
G02X135248Y35026I0J1768D01*
G01Y36319D01*
G02X131172Y40503I109J4184D01*
G01Y42534D01*
X131161Y42566D01*
G02X131103Y42794I1341J462D01*
G03X130708I-197J-34D01*
G02X129310Y41614I-1398J238D01*
G01X128470D01*
Y40372D01*
G03X128910Y39312I1499J1D01*
G01X134183Y34039D01*
G02X135502Y30855I-3184J-3184D01*
G01Y27300D01*
G03X136300Y26502I798J0D01*
G01X136932D01*
Y29527D01*
G02X138626Y31220I1694J-1D01*
G01X144238D01*
G02X145930Y29527I-1J-1693D01*
G01Y20473D01*
G02X144236Y18780I-1694J1D01*
G01X142932D01*
Y17074D01*
G02X143764Y15574I-936J-1500D01*
G01Y14426D01*
G02X141996Y12658I-1768J0D01*
G01X140866D01*
G02X139098Y14426I0J1768D01*
G01Y15574D01*
G02X139930Y17074I1768J0D01*
G01Y18780D01*
X138624D01*
G02X136932Y20473I1J1693D01*
G01Y23498D01*
X136300D01*
G02X133721Y24507I1J3802D01*
G03X133174Y24502I-271J-294D01*
G02X131236Y23543I-2509J2632D01*
G01X131068Y23517D01*
Y20473D01*
G02X129374Y18780I-1694J1D01*
G01X128070D01*
Y17074D01*
G02X128902Y15574I-936J-1500D01*
G01Y14426D01*
G02X127134Y12658I-1768J0D01*
G01X126004D01*
G02X124236Y14426I0J1768D01*
G01Y15574D01*
G02X125068Y17074I1768J0D01*
G01Y18780D01*
X123762D01*
G02X122070Y20473I1J1693D01*
G01Y29527D01*
G02X123764Y31220I1694J-1D01*
G01X129375D01*
G02X130916Y30228I0J-1693D01*
G03X131298Y30304I182J83D01*
G03X130859Y31417I-1498J52D01*
G01X124817Y37459D01*
G02X124330Y38036I3185J3182D01*
G03X123680Y38039I-326J-231D01*
G02X123215Y37493I-3650J2637D01*
G01X120739Y35017D01*
G02X117555Y33698I-3184J3184D01*
G01X116343D01*
G03X115283Y33259I0J-1499D01*
G01X115251Y33227D01*
G03X115575Y32547I283J-282D01*
G02X115748Y32556I174J-1684D01*
G01X118800D01*
G02X120492Y30863I-1J-1693D01*
G01Y26137D01*
G02X118776Y24445I-1693J1D01*
G01Y24103D01*
G02X118336Y23041I-1502J0D01*
G01X117514Y22220D01*
Y21426D01*
G02X115746Y19658I-1768J0D01*
G01X114616D01*
G02X112848Y21426I0J1768D01*
G01Y22574D01*
G02X114294Y24313I1769J0D01*
G03X114513Y24980I-73J393D01*
G02X114056Y26137I1236J1157D01*
G01Y26802D01*
G03X113866Y27002I-200J0D01*
G02X112263Y27700I134J2498D01*
G02X111099Y27062I-1719J1756D01*
G01X110944Y27026D01*
Y26137D01*
G02X110487Y24980I-1693J0D01*
G03X110706Y24313I292J-274D01*
G02X112152Y22574I-323J-1739D01*
G01Y21426D01*
G02X111320Y19926I-1768J0D01*
G01Y19274D01*
G02X112152Y17774I-936J-1500D01*
G01Y16626D01*
G02X110384Y14858I-1768J0D01*
G01X109254D01*
G02X107486Y16626I0J1768D01*
G01Y17774D01*
G02X108318Y19274I1768J0D01*
G01Y19926D01*
G02X107486Y21426I936J1500D01*
G01Y22220D01*
X106664Y23041D01*
G02X106224Y24103I1062J1062D01*
G01Y24445D01*
G02X104508Y26137I-23J1693D01*
G01Y30863D01*
G37*
G36*
G01X211250Y83252D02*
Y89748D01*
G02X211752Y90250I502J0D01*
G01X218248D01*
G02X218750Y89748I0J-502D01*
G01Y83252D01*
G02X218248Y82750I-502J0D01*
G01X211752D01*
G02X211250Y83252I0J502D01*
G37*
G36*
G01X142250Y96252D02*
Y102748D01*
G02X143452Y103950I1202J0D01*
G01X149948D01*
G02X151150Y102748I0J-1202D01*
G01Y96252D01*
G02X149948Y95050I-1202J0D01*
G01X143452D01*
G02X142250Y96252I0J1202D01*
G37*
G36*
G01X99650D02*
Y102748D01*
G02X100852Y103950I1202J0D01*
G01X107348D01*
G02X108550Y102748I0J-1202D01*
G01Y96252D01*
G02X107348Y95050I-1202J0D01*
G01X100852D01*
G02X99650Y96252I0J1202D01*
G37*
G36*
G01X56650D02*
Y102748D01*
G02X57852Y103950I1202J0D01*
G01X64348D01*
G02X65550Y102748I0J-1202D01*
G01Y96252D01*
G02X64348Y95050I-1202J0D01*
G01X57852D01*
G02X56650Y96252I0J1202D01*
G37*
G36*
G01X24739Y78533D02*
X28677D01*
G02Y73593I0J-2470D01*
G01X24739D01*
G02Y78533I0J2470D01*
G37*
G36*
G01X8282D02*
X12220D01*
G02Y73593I-1J-2470D01*
G01X8282D01*
G02Y78533I1J2470D01*
G37*
G36*
G01X224236Y48366D02*
X230458D01*
G02X231658Y47165I-1J-1201D01*
G01Y40945D01*
G02X230456Y39744I-1202J1D01*
G01X224234D01*
G02X223034Y40945I1J1201D01*
G01Y47165D01*
G02X224236Y48366I1202J-1D01*
G37*
G36*
G01X211250Y28252D02*
Y34748D01*
G02X211752Y35250I502J0D01*
G01X218248D01*
G02X218750Y34748I0J-502D01*
G01Y28252D01*
G02X218248Y27750I-502J0D01*
G01X211752D01*
G02X211250Y28252I0J502D01*
G37*
G36*
G01X24739Y44517D02*
X28677D01*
G02Y39577I0J-2470D01*
G01X24739D01*
G02Y44517I0J2470D01*
G37*
G36*
G01X8282D02*
X12220D01*
G02Y39577I-1J-2470D01*
G01X8282D01*
G02Y44517I1J2470D01*
G37*
G36*
G01X43302Y104198D02*
Y88302D01*
X41598Y86598D01*
X33602D01*
X31098Y89102D01*
Y105198D01*
X33102Y107202D01*
X40298D01*
X43302Y104198D01*
G37*
G36*
G01X82002Y76298D02*
X79798Y78502D01*
Y83998D01*
X82002Y86202D01*
X103198D01*
X104602Y84798D01*
Y78402D01*
X102498Y76298D01*
X82002D01*
G37*
G36*
G01X179698Y39139D02*
G03X179259Y40199I-1499J0D01*
G01X178379Y41080D01*
G03X178060Y41269I-528J-527D01*
G02X176800Y40817I-1260J1530D01*
G02Y44783I0J1983D01*
G02X178105Y44293I0J-1983D01*
G02X179246Y44032I-255J-3740D01*
G03X179765Y44252I149J371D01*
G02X181600Y45483I1835J-752D01*
G02X183571Y43714I0J-1983D01*
G01X183579Y43644D01*
X183883Y43341D01*
G02X185202Y40157I-3184J-3184D01*
G01Y24342D01*
G03X185948Y23046I1499J0D01*
G02X187800Y23450I1853J-4046D01*
G02X183350Y19000I0J-4450D01*
G01Y19001D01*
G02X183720Y20777I4450J-1D01*
G01X183775Y20902D01*
X183517Y21159D01*
G02X182979Y21809I3184J3183D01*
G03X182285Y21752I-331J-225D01*
G02X181803Y20944I-4086J1890D01*
G02X182250Y19000I-4004J-1944D01*
G02X177800Y23450I-4450J0D01*
G02X179175Y23232I-1J-4450D01*
G03X179698Y23612I123J380D01*
G01Y39139D01*
G37*
G36*
G01X81132Y70369D02*
X81008Y70419D01*
G02X79848Y72142I700J1723D01*
G01Y73456D01*
G02X81708Y75316I1860J0D01*
G01X83560D01*
G02X85420Y73456I0J-1860D01*
G01Y72142D01*
G02X84260Y70419I-1860J0D01*
G01X84136Y70369D01*
Y68034D01*
G02X81600Y65498I-2536J0D01*
G01X81393D01*
X81334Y65413D01*
G02X79886Y64658I-1449J1013D01*
G01X78754D01*
G02X76986Y66426I0J1768D01*
G01Y67574D01*
G02X78754Y69342I1768J0D01*
G01X79884D01*
G02X80576Y69201I0J-1769D01*
G03X81132Y69569I156J368D01*
G01Y70369D01*
G37*
G36*
G01X76558Y81001D02*
Y81000D01*
X77103Y80455D01*
G02Y72545I-3956J-3955D01*
G01X76998Y72440D01*
G02X74922Y71248I-3240J3239D01*
G02X73292Y70282I-1631J894D01*
G01X71440D01*
G02X69580Y72142I0J1860D01*
G01Y73456D01*
G02X71440Y75316I1860J0D01*
G01X73292D01*
G02X74555Y74821I0J-1859D01*
G03X75338Y76500I-1407J1678D01*
G03X74555Y78179I-2190J1D01*
G02X73292Y77684I-1263J1364D01*
G01X71440D01*
G02X70417Y77991I1J1860D01*
G01X70280Y78081D01*
X68498Y76298D01*
X48902D01*
X44798Y80402D01*
Y90798D01*
X46202Y92202D01*
X50998D01*
X52202Y90998D01*
Y85498D01*
X53998Y83702D01*
X73998D01*
X75202Y82498D01*
Y81794D01*
X75339Y81749D01*
G02X76558Y81001I-959J-2930D01*
G37*
G36*
G01X201934Y42842D02*
X203067D01*
G02X204834Y41074I-1J-1768D01*
G01Y39926D01*
G02X204002Y38426I-1768J0D01*
G01Y35689D01*
G02X206950Y31500I-1502J-4189D01*
G02X202500Y27050I-4450J0D01*
G02X199932Y27866I0J4449D01*
G03X199302Y27539I-230J-327D01*
G01Y23189D01*
G02X202250Y19000I-1502J-4189D01*
G02X193350I-4450J0D01*
G02X196298Y23189I4450J0D01*
G01Y27050D01*
X189252D01*
G02X188050Y28252I0J1202D01*
G01Y34748D01*
G02X189252Y35950I1202J0D01*
G01X190998D01*
Y38426D01*
G02X190681Y38679I937J1500D01*
G02X189428Y38158I-1253J1247D01*
G01X188295D01*
G02X186528Y39926I1J1768D01*
G01Y41074D01*
G02X187159Y42428I1768J0D01*
G02X186879Y43444I1703J1016D01*
G02X190845I1983J0D01*
G01Y43441D01*
G02X190827Y43176I-1983J2D01*
G03X191354Y42744I396J-54D01*
G02X191934Y42842I580J-1670D01*
G01X192318D01*
G03X192684Y43403I0J400D01*
G02X192517Y44199I1816J797D01*
G01Y44200D01*
G02X194500Y46183I1983J0D01*
G02X196479Y44322I0J-1983D01*
G02X196653Y44094I-2755J-2283D01*
G03X197005Y44138I164J114D01*
G02X198862Y45427I1857J-693D01*
G02X200845Y43444I0J-1983D01*
G01Y43441D01*
G02X200827Y43176I-1983J2D01*
G03X201354Y42744I396J-54D01*
G02X201934Y42842I580J-1670D01*
G37*
G54D51*
X207800Y19000D03*
X175400Y31500D03*
X225000D03*
X48500Y99500D03*
X91100D03*
X124100D03*
X196700D03*
X225000Y86500D03*
G54D50*
X34500Y18100D03*
X209100Y100900D03*
X25500Y103000D03*
G54D52*
X227346Y54055D03*
G54D53*
X81100Y99500D03*
X71100D03*
X156700D03*
X176700D03*
X166700D03*
X186700D03*
%LPD*%
G75*
G36*
G01X39765Y60398D02*
X44448D01*
Y58926D01*
G03X45046Y57600I1769J0D01*
G02Y57000I-265J-300D01*
G03X44448Y55674I1171J-1326D01*
G01Y54526D01*
G03X44457Y54343I1768J-5D01*
G02X44059Y53902I-398J-41D01*
G01X39374D01*
Y55872D01*
G03X38964Y56776I-1201J0D01*
G02Y57379I263J301D01*
G03X39374Y58284I-791J904D01*
G01Y59826D01*
G03X39368Y59956I-1201J10D01*
G02X39765Y60398I397J42D01*
G37*
G36*
G01X35100Y82300D02*
X36000Y83200D01*
X41600D01*
X42200Y82600D01*
Y73300D01*
X36400Y67500D01*
X32500D01*
X32200Y67800D01*
Y69500D01*
X35100Y72400D01*
Y82300D01*
G37*
G36*
G01X33600Y106000D02*
X39800D01*
X42100Y103700D01*
Y103233D01*
X41878D01*
X41857Y103238D01*
G03X41748Y103250I-109J-489D01*
G01X35252D01*
G03X34750Y102748I0J-502D01*
G01Y96252D01*
G03X35252Y95750I502J0D01*
G01X42100D01*
Y88800D01*
X41100Y87800D01*
X34100D01*
X32300Y89600D01*
Y104700D01*
X33600Y106000D01*
G37*
G36*
G01X50500Y91000D02*
X51000Y90500D01*
Y85000D01*
X53500Y82500D01*
X73500D01*
X74000Y82000D01*
Y80000D01*
X73500Y79500D01*
X70000D01*
X68000Y77500D01*
X49400D01*
X46000Y80900D01*
Y90300D01*
X46700Y91000D01*
X50500D01*
G37*
G36*
G01X102700Y85000D02*
X103400Y84300D01*
Y78900D01*
X102000Y77500D01*
X82500D01*
X81000Y79000D01*
Y83500D01*
X82500Y85000D01*
X102700D01*
G37*
G54D10*
X15000Y15000D03*
Y103000D03*
X221000Y15000D03*
Y103000D03*
G54D20*
X40443Y49000D03*
X40419Y64800D03*
X50419Y55100D03*
Y59500D03*
X51319Y48055D03*
X78649Y39006D03*
Y34000D03*
Y49250D03*
Y44128D03*
X79319Y67000D03*
X89819Y18100D03*
Y22800D03*
Y34000D03*
Y27500D03*
X109819Y17200D03*
X103819Y36500D03*
X109819Y22000D03*
X118819D03*
X103619Y58071D03*
X103819Y41500D03*
Y46500D03*
X111019Y88500D03*
X114919Y83400D03*
X130207Y15000D03*
X124701Y88500D03*
X141431Y15000D03*
X153019Y29600D03*
Y34400D03*
X141219Y35600D03*
X156619Y79500D03*
Y74900D03*
X167219Y41500D03*
X165019Y79500D03*
X174319Y84000D03*
X192500Y40500D03*
X183319Y84000D03*
Y89000D03*
X202500Y40500D03*
X208319Y48600D03*
Y54055D03*
Y59000D03*
Y64055D03*
Y74055D03*
G54D11*
X20634Y6819D03*
X6900Y6900D03*
X6819Y16063D03*
X19567Y35433D03*
X6819Y26063D03*
Y36063D03*
X21000Y45200D03*
X6819Y46063D03*
Y56063D03*
X21000Y72000D03*
X6819Y66063D03*
X21300Y88300D03*
X6819Y86063D03*
Y96063D03*
Y111291D03*
X16819D03*
X40634Y6819D03*
X30634D03*
X35400Y40700D03*
X32900Y43900D03*
X36600Y45200D03*
X32600Y74042D03*
X21700Y81400D03*
X31800Y84900D03*
X28000Y88300D03*
X35400Y91600D03*
X26819Y111291D03*
X36819D03*
X44000Y14100D03*
X60634Y6819D03*
X50634D03*
X47700Y29600D03*
X55200Y29400D03*
X60200Y36400D03*
X41900Y45700D03*
X46300Y42500D03*
X52300Y42600D03*
X42058Y59055D03*
Y55100D03*
X56000D03*
X56100Y58700D03*
X56600Y41600D03*
X50545Y69358D03*
X58000Y69405D03*
X55900Y63200D03*
X45200Y77400D03*
X46300Y94100D03*
X58500Y89400D03*
X46819Y111291D03*
X56819D03*
X69200Y13500D03*
X80634Y6819D03*
X70634D03*
X61200Y31000D03*
X69400Y34000D03*
X61200Y54800D03*
X66000Y70193D03*
X72700Y67000D03*
X66800Y63500D03*
X67100Y89500D03*
X77700Y85500D03*
X66819Y111291D03*
X76819D03*
X83200Y18100D03*
X90634Y6819D03*
X90805Y37748D03*
X97200Y36500D03*
X83200Y27500D03*
X95800Y24100D03*
X81594Y39006D03*
X81952Y49250D03*
X97100Y46500D03*
Y41500D03*
X90700Y47300D03*
X94000Y49607D03*
X81400Y62800D03*
X94500Y61700D03*
X97900Y61600D03*
X89000Y69996D03*
X96800Y65000D03*
X83500Y92300D03*
X97000Y94500D03*
X86819Y111291D03*
X96819D03*
X102900Y16800D03*
X114900Y17100D03*
X110000Y13500D03*
X110634Y6819D03*
X100634D03*
X103000Y22000D03*
Y29600D03*
X107700Y33800D03*
X117100Y38681D03*
X111500Y37100D03*
X104600Y54700D03*
X107000Y46500D03*
X117000Y49607D03*
X101732Y73301D03*
X119095Y72926D03*
X111240Y80400D03*
X116654Y66297D03*
X119600Y68300D03*
X101800Y79800D03*
X119766Y64563D03*
X101200Y63100D03*
X101700Y83400D03*
X118200D03*
X106819Y111291D03*
X116819D03*
X122600Y15000D03*
X137600Y11100D03*
X130400Y11200D03*
X130634Y6819D03*
X120634D03*
X120300Y33060D03*
X121291Y25200D03*
Y29600D03*
X136622Y31300D03*
X127400Y33400D03*
X124000Y36500D03*
X129700Y40200D03*
X137540Y38019D03*
X137300Y50900D03*
X129999Y60157D03*
X130226Y56602D03*
X132200Y72100D03*
X129873Y68980D03*
X129900Y64800D03*
X124300Y84100D03*
X126819Y111291D03*
X136819D03*
X145100Y15000D03*
X150634Y6819D03*
X140634D03*
X141260Y32100D03*
X152991Y26391D03*
X145300Y34200D03*
X147100Y21900D03*
X153000Y38019D03*
X156700Y45400D03*
X159093Y41500D03*
X150200Y47100D03*
X142500Y45128D03*
X149000Y71200D03*
X148723Y63977D03*
X152991Y71900D03*
X146819Y111291D03*
X156819D03*
X170634Y6819D03*
X160634D03*
X166300Y25500D03*
X172500Y24900D03*
X168100Y46000D03*
X171707Y43100D03*
X176800Y42800D03*
Y52166D03*
X159700Y74500D03*
X168700D03*
X178700D03*
X175700Y64700D03*
X171700Y65633D03*
X166819Y111291D03*
X176819D03*
X190634Y6819D03*
X180634D03*
X192900Y24200D03*
X186600Y33900D03*
X185300Y45900D03*
X188862Y43444D03*
X188863Y58137D03*
X198862Y43444D03*
X181600Y43500D03*
X194500Y44200D03*
X189300Y74000D03*
X198900Y61500D03*
X181600Y63000D03*
X194500Y69000D03*
X198100Y90200D03*
X186000Y89600D03*
X186819Y111291D03*
X196819D03*
X210634Y6819D03*
X200634D03*
X203800Y24400D03*
X208800Y33900D03*
X205600Y44400D03*
X212000Y51300D03*
X210900Y42100D03*
X200500Y68700D03*
X208700D03*
X212100Y76700D03*
X201600Y74055D03*
X203300Y99500D03*
X209200Y93000D03*
X206819Y111291D03*
X216819D03*
X229500Y6900D03*
X229400Y16400D03*
X229900Y36900D03*
X229500Y27000D03*
X221500Y49100D03*
X230700Y58500D03*
X222100Y69500D03*
X229401Y91630D03*
Y81630D03*
X218800Y94100D03*
X226819Y111291D03*
X229401Y101630D03*
G54D12*
X10251Y42047D03*
Y76063D03*
X26708Y42047D03*
Y76063D03*
G54D30*
X48291Y89500D03*
Y82000D03*
G54D21*
X37498Y55100D03*
X39702D03*
X37498Y59055D03*
X39702D03*
G54D22*
X37701Y73500D03*
G54D31*
X63900Y40575D03*
G54D13*
X34500Y18100D03*
X25500Y103000D03*
X209100Y100900D03*
G54D40*
X117126Y76920D03*
X119095D03*
X121063D03*
X123032D03*
X125000D03*
X126969D03*
X128937D03*
X130906D03*
X132874D03*
X134843D03*
X136811D03*
X138780D03*
G54D14*
X36628Y29500D03*
Y35433D03*
X22619Y29500D03*
Y35433D03*
G54D23*
X38500Y99500D03*
X61100D03*
X65000Y25000D03*
X104100Y99500D03*
X157800Y19000D03*
X146700Y99500D03*
X165400Y31500D03*
X192500D03*
Y86500D03*
X215000Y31500D03*
Y86500D03*
G54D41*
X126569Y25000D03*
G54D32*
X72366Y72799D03*
Y76500D03*
Y80201D03*
G54D15*
X28563Y29500D03*
Y35433D03*
X42572Y29500D03*
Y35433D03*
G54D42*
X141431Y25000D03*
G54D33*
X66000Y73528D03*
X89000D03*
G54D24*
X39709Y89500D03*
Y82000D03*
G54D34*
X66000Y79472D03*
X89000D03*
G54D25*
X60160Y48055D03*
X67640D03*
G54D16*
X24739Y47795D03*
Y70433D03*
G54D43*
X143849Y60040D03*
Y58071D03*
Y56103D03*
Y54134D03*
Y52166D03*
Y50197D03*
Y71851D03*
Y69882D03*
Y67914D03*
Y65945D03*
Y63977D03*
Y62008D03*
G54D17*
X28952Y49606D03*
Y46457D03*
Y68504D03*
Y71653D03*
G54D35*
X82634Y80201D03*
Y72799D03*
G54D26*
X58000Y73055D03*
X97000D03*
G54D44*
X217346Y54055D03*
Y44055D03*
Y74055D03*
Y64055D03*
X227346Y54055D03*
Y74055D03*
Y64055D03*
G54D36*
X107726Y28500D03*
G54D18*
X28952Y52165D03*
Y54134D03*
Y56102D03*
Y58071D03*
Y60039D03*
Y62008D03*
Y63976D03*
Y65945D03*
G54D45*
X227346Y44055D03*
G54D27*
X58000Y79945D03*
X97000D03*
G54D46*
G01X22437Y35433D02*
X19567D01*
G01X36628D02*
X28563D01*
G01X36628Y29500D02*
X28563D01*
G01X22619D02*
Y26001D01*
G03X23620Y25000I1001J0D01*
G01X65000D01*
G01X28952Y68504D02*
X28301Y67853D01*
X24653D01*
G03X23100Y66300I0J-1553D01*
G01Y51999D01*
G03X24724Y50375I1624J0D01*
G01X27739D01*
G02X28497Y50061I0J-1072D01*
G01X28952Y49606D01*
G01X42572Y29500D02*
Y35433D01*
G01D02*
X50433D01*
X56600Y41600D01*
G01X50545Y73500D02*
Y69358D01*
G01X58000Y73301D02*
Y73055D01*
G01D02*
Y69405D01*
G01X78649Y34000D02*
X78621D01*
G01Y49250D02*
X78649D01*
G01D02*
X81952D01*
G01X66000Y73941D02*
Y73528D01*
G01X75640Y67000D02*
X72700D01*
G01X66000Y73528D02*
Y70193D01*
G01X72366Y80201D02*
X74379D01*
G02X75355Y79797I0J-1381D01*
G01X75900Y79252D01*
G02Y73748I-2752J-2752D01*
G01X75795Y73643D01*
G02X73758Y72799I-2037J2036D01*
G01X72366D01*
G01X90805Y34000D02*
Y37748D01*
G01X86140Y27500D02*
X83200D01*
G01X100140Y46500D02*
X97100D01*
G01X100140Y41500D02*
X97100D01*
G01X89000Y73941D02*
Y73528D01*
G01X97000Y73301D02*
X101732D01*
G01X89000Y73528D02*
Y69996D01*
G01X100009Y58071D02*
Y55772D01*
X101081Y54700D01*
X104600D01*
G01D02*
X107134Y52166D01*
G01D02*
X112057D01*
G01X103819Y41500D02*
Y46500D01*
G01X107000D02*
X103819D01*
G01Y41500D02*
X105759D01*
G03X108731Y42731I0J4203D01*
G01X109663Y43663D01*
G02X113200Y45128I3537J-3537D01*
G01X117126D01*
G01X103819Y46500D02*
Y48919D01*
G02X105097Y50197I1278J0D01*
G01X112057D01*
G01X117126Y76920D02*
X116119D01*
G02X115370Y77230I0J1060D01*
G01X115229Y77371D01*
G02X114919Y78120I750J749D01*
G01Y83400D01*
G01X111240D02*
Y80400D01*
G01X114919Y83400D02*
X118200D01*
G01X129700Y40200D02*
X130906Y41406D01*
G01X137581Y35600D02*
Y37978D01*
X137540Y38019D01*
G01X132874Y45128D02*
Y40503D01*
G03X135358Y38019I2484J0D01*
G01X137540D01*
G01X130906Y49994D02*
Y45128D01*
G01Y41406D02*
Y45128D01*
G01X119095Y72926D02*
Y76920D01*
G01D02*
Y77116D01*
G01X119766Y64563D02*
X127881Y72678D01*
G03X128937Y75227I-2548J2549D01*
G01Y76920D01*
G01X141260Y35100D02*
Y32100D01*
G01X152991Y29600D02*
Y26391D01*
G01X156660Y74900D02*
X157060Y74500D01*
X159700D01*
G01X143849Y63977D02*
X148723D01*
G01X143849Y69882D02*
X147682D01*
G01D02*
X149000Y71200D01*
G01X152991Y71900D02*
Y74890D01*
X152981Y74900D01*
G01X143849Y71851D02*
X143800Y71900D01*
G02Y73800I950J950D01*
G01X143945Y73945D01*
G02X146250Y74900I2305J-2304D01*
G01X152981D01*
G54D37*
X117274Y28500D03*
G54D19*
X36805Y49000D03*
X36781Y64800D03*
X46781Y55100D03*
Y59500D03*
X47681Y48055D03*
X75011Y39006D03*
Y34000D03*
Y49250D03*
Y44128D03*
X75681Y67000D03*
X86181Y18100D03*
Y22800D03*
Y34000D03*
Y27500D03*
X106181Y17200D03*
X100181Y36500D03*
X106181Y22000D03*
X115181D03*
X99981Y58071D03*
X100181Y41500D03*
Y46500D03*
X107381Y88500D03*
X111281Y83400D03*
X137793Y15000D03*
X126569D03*
X137581Y35600D03*
X121063Y88500D03*
X149381Y29600D03*
Y34400D03*
X152981Y79500D03*
Y74900D03*
X163581Y41500D03*
X161381Y79500D03*
X170681Y84000D03*
X188862Y40500D03*
X179681Y84000D03*
Y89000D03*
X198862Y40500D03*
X204681Y48600D03*
Y54055D03*
Y59000D03*
Y64055D03*
Y74055D03*
G54D28*
X50496Y73500D03*
G54D47*
G01X10251Y39376D02*
Y42047D01*
G01D02*
Y44718D01*
G01X5612Y42047D02*
X10251D01*
G01D02*
X14890D01*
G01X10251Y73392D02*
Y76063D01*
G01D02*
Y78734D01*
G01X5612Y76063D02*
X10251D01*
G01D02*
X14890D01*
G01X26708Y39376D02*
Y42047D01*
G01D02*
Y44718D01*
G01X22069Y42047D02*
X26708D01*
G01D02*
X31347D01*
G01X26708Y73392D02*
Y76063D01*
G01D02*
Y78734D01*
G01X22069Y76063D02*
X26708D01*
G01D02*
X31347D01*
G01X28952Y68504D02*
X32705D01*
G01D02*
X37455Y73254D01*
Y73500D01*
G01X48500Y95550D02*
Y99500D01*
G01D02*
Y103450D01*
G01X44550Y99500D02*
X48500D01*
G01D02*
X52450D01*
G01X91100Y95550D02*
Y99500D01*
G01D02*
Y103450D01*
G01X87150Y99500D02*
X91100D01*
G01D02*
X95050D01*
G01X124100Y95550D02*
Y99500D01*
G01D02*
Y103450D01*
G01X120150Y99500D02*
X124100D01*
G01D02*
X128050D01*
G01X153019Y34400D02*
X155268D01*
G02X156859Y33741I0J-2250D01*
G01X157141Y33459D01*
G02X157800Y31868I-1591J-1591D01*
G01Y19000D01*
G01X153000Y38019D02*
Y38000D01*
X152991Y37991D01*
Y34400D01*
X153019D01*
G01X175400Y27550D02*
Y31500D01*
G01D02*
Y35450D01*
G01X171450Y31500D02*
X175400D01*
G01X196700Y95550D02*
Y99500D01*
G01D02*
Y103450D01*
G01X192750Y99500D02*
X196700D01*
G01D02*
X200650D01*
G01X207800Y15050D02*
Y19000D01*
G01D02*
Y22950D01*
G01X203850Y19000D02*
X207800D01*
G01D02*
X211750D01*
G01X215000Y27550D02*
Y31500D01*
G01D02*
Y35450D01*
G01X211050Y31500D02*
X215000D01*
G01D02*
X218950D01*
G01X215000Y82550D02*
Y86500D01*
G01D02*
Y90450D01*
G01X211050Y86500D02*
X215000D01*
G01D02*
X218950D01*
G01X225000Y27550D02*
Y31500D01*
G01D02*
Y35450D01*
G01X221050Y31500D02*
X225000D01*
G01D02*
X228950D01*
G01X227346Y50243D02*
Y54055D01*
G01D02*
Y57867D01*
G01X223534Y54055D02*
X227346D01*
G01D02*
X231158D01*
G01X225000Y82550D02*
Y86500D01*
G01D02*
Y90450D01*
G01X221050Y86500D02*
X225000D01*
G01D02*
X228950D01*
G54D38*
X112057Y50197D03*
Y52166D03*
Y54134D03*
Y56103D03*
Y58071D03*
Y60040D03*
Y62008D03*
Y63977D03*
Y65945D03*
Y67914D03*
Y69882D03*
Y71851D03*
G54D29*
X48500Y99500D03*
X75000Y25000D03*
X81100Y99500D03*
X71100D03*
X91100D03*
X114100D03*
X134100D03*
X124100D03*
X156700D03*
X177800Y19000D03*
X167800D03*
X175400Y31500D03*
X176700Y99500D03*
X166700D03*
X197800Y19000D03*
X187800D03*
X196700Y99500D03*
X186700D03*
X207800Y19000D03*
X202500Y31500D03*
Y86500D03*
X225000Y31500D03*
Y86500D03*
G54D48*
G01X38500Y95550D02*
Y99500D01*
G01D02*
Y103450D01*
G01X34550Y99500D02*
X38500D01*
G54D39*
X119095Y45128D03*
X117126D03*
X138780D03*
X136811D03*
X134843D03*
X132874D03*
X130906D03*
X128937D03*
X126969D03*
X125000D03*
X123032D03*
X121063D03*
G54D49*
G01X0Y5906D02*
Y112205D01*
G02X5906Y118110I5905J0D01*
G01X230315D01*
G02X236220Y112205I0J-5905D01*
G01Y5906D01*
G02X230315Y0I-5905J-1D01*
G01X5906D01*
G02X0Y5906I0J5906D01*
G01X28952Y46457D02*
X31996D01*
G02X32900Y45553I0J-904D01*
G01Y43900D01*
G01X39702Y55100D02*
X42058D01*
G01X39702Y59055D02*
X42058D01*
G01X28952Y49606D02*
X30951D01*
G02X33073Y48727I0J-3001D01*
G01X36600Y45200D01*
G01X36805Y49000D02*
X35367D01*
G02X34318Y49435I1J1484D01*
G01X34093Y49660D01*
G02X33800Y50367I706J707D01*
G01Y50900D01*
G03X32535Y52165I-1265J0D01*
G01X28952D01*
G01X36833Y49000D02*
X36805D01*
G01X28952Y60039D02*
X25908D01*
G03X24800Y58931I0J-1108D01*
G01Y57210D01*
G03X25908Y56102I1108J0D01*
G01X28952D01*
G01D02*
X33772D01*
G02X34880Y55643I0J-1567D01*
G01X34964Y55559D01*
G03X36072Y55100I1108J1108D01*
G01X37498D01*
G01D02*
Y53602D01*
G03X38700Y52400I1202J0D01*
G01X46023D01*
G03X46781Y53158I0J758D01*
G01Y55100D01*
G01X28952Y62008D02*
X33792D01*
G02X35256Y60544I0J-1464D01*
G01Y59055D01*
G01D02*
X37498D01*
G01X28952Y58071D02*
X33636D01*
G03X34722Y58521I0J1535D01*
G01X35256Y59055D01*
G01X46781Y59500D02*
Y61178D01*
G03X46594Y61629I-637J0D01*
G01X46510Y61713D01*
G03X46059Y61900I-451J-450D01*
G01X38771D01*
G03X37498Y60627I0J-1273D01*
G01Y59055D01*
G01X28952Y71653D02*
X30211D01*
X32600Y74042D01*
G01X36781Y64800D02*
X34123D01*
G03X33230Y64430I0J-1263D01*
G01X33146Y64346D01*
G02X32253Y63976I-893J893D01*
G01X28952D01*
G01X36809Y64800D02*
X36781D01*
G01X50419Y55100D02*
X56000D01*
G01X47681Y48055D02*
Y49178D01*
G02X48391Y50891I2423J-1D01*
G01X49690Y52190D01*
G03X50419Y53950I-1760J1760D01*
G01Y55100D01*
G01Y59500D02*
X52812D01*
G02X53676Y59142I0J-1222D01*
G01X53760Y59058D01*
G03X54624Y58700I864J864D01*
G01X56100D01*
G01X51319Y48055D02*
X60160D01*
G01X78649Y39006D02*
X81594D01*
G01X78621D02*
X78649D01*
G01X86181Y22800D02*
X82643D01*
G03X80521Y21921I0J-3001D01*
G01X80331Y21731D01*
G02X78209Y20852I-2122J2122D01*
G01X70391D01*
G02X68269Y21731I0J3001D01*
G01X65000Y25000D01*
G01D02*
Y30581D01*
G03X64492Y31807I-1733J0D01*
G01X64408Y31891D01*
G02X63900Y33117I1225J1226D01*
G01Y40575D01*
G01X75011Y44128D02*
Y39006D01*
G01Y34000D02*
X69400D01*
G01X75039D02*
X75011D01*
G01X78621D02*
Y29864D01*
G02X77742Y27742I-3001J0D01*
G01X75000Y25000D01*
G01X78649Y34000D02*
X86181D01*
G01X75011Y49250D02*
Y44128D01*
G01Y49250D02*
X71658D01*
G03X70317Y48694I1J-1897D01*
G01X70234Y48611D01*
G02X68893Y48055I-1342J1341D01*
G01X67640D01*
G01X78649Y44128D02*
X84028D01*
G03X86000Y46100I0J1972D01*
G01Y60057D01*
G02X86879Y62179I3001J0D01*
G01X93703Y69003D01*
G02X95825Y69882I2122J-2122D01*
G01X112057D01*
G01X78621Y44128D02*
X78649D01*
G01X79319Y67000D02*
X81600D01*
G03X82634Y68034I0J1034D01*
G01Y72799D01*
G01X86209Y18100D02*
X86181D01*
G01D02*
X83200D01*
G01X89819Y22800D02*
Y18100D01*
G01X100181Y36500D02*
X97200D01*
G01X86209Y22800D02*
X86181D01*
G01X89819Y27500D02*
Y22800D01*
G01Y27500D02*
X92400D01*
G03X94000Y29100I0J1600D01*
G01Y49607D01*
G01X112057Y67914D02*
X96757D01*
G03X94635Y67035I0J-3001D01*
G01X88779Y61179D01*
G03X87900Y59057I2122J-2122D01*
G01Y41056D01*
G02X87082Y39082I-2791J0D01*
G01X86999Y38999D01*
G03X86181Y37025I1973J-1974D01*
G01Y34000D01*
G01X112057Y65945D02*
X100336D01*
G03X99296Y65514I0J-1470D01*
G01X99213Y65431D01*
G02X98173Y65000I-1040J1039D01*
G01X96800D01*
G01X109819Y22000D02*
Y17200D01*
G01X100209Y36500D02*
X100181D01*
G01X107726Y28500D02*
X110544D01*
G03X111500Y29456I0J956D01*
G01Y32257D01*
G02X112379Y34379I3001J0D01*
G01X113943Y35943D01*
G02X115047Y36400I1104J-1105D01*
G01X117156D01*
G03X119109Y37209I0J2762D01*
G01X120184Y38284D01*
G03X121063Y40406I-2122J2122D01*
G01Y45128D01*
G01X107726Y28500D02*
Y24103D01*
X109819Y22010D01*
Y22000D01*
G01X117274Y28500D02*
X114000D01*
G02X113000Y29500I0J1000D01*
G01Y31857D01*
G02X113879Y33979I3001J0D01*
G01X114221Y34321D01*
G02X116343Y35200I2122J-2122D01*
G01X117555D01*
G03X119677Y36079I0J3001D01*
G01X122153Y38555D01*
G03X123032Y40677I-2122J2122D01*
G01Y45128D01*
G01X115181Y22000D02*
Y22010D01*
X117274Y24103D01*
Y28500D01*
G01X103819Y36500D02*
X106431D01*
G03X108553Y37379I0J3001D01*
G01X111257Y40083D01*
G02X113379Y40962I2122J-2122D01*
G01X118261D01*
G03X119095Y41796I0J834D01*
G01Y45128D01*
G01X103791Y36500D02*
X103819D01*
G01X112057Y52166D02*
X132742D01*
G01X112057Y58071D02*
X103619D01*
G01D02*
X103591D01*
G01X128937Y45128D02*
Y48241D01*
G03X127571Y49607I-1366J0D01*
G01X117000D01*
G01X112057Y56103D02*
X124702D01*
G03X126824Y56982I0J3001D01*
G01X129999Y60157D01*
G01X112057Y54134D02*
X127038D01*
G03X128223Y54625I0J1675D01*
G01X128798Y55200D01*
X128824D01*
X130226Y56602D01*
G01X116654Y66297D02*
Y68954D01*
G02X118345Y70645I1691J0D01*
G01X119095D01*
G03X120708Y71313I0J2281D01*
G01X122153Y72758D01*
G03X123032Y74880I-2122J2122D01*
G01Y76920D01*
G01X107381Y88500D02*
Y72451D01*
G03X107981Y71851I600J0D01*
G01X112057D01*
G01X101200Y63100D02*
X101760D01*
G03X102512Y63412I-1J1064D01*
G01X102680Y63580D01*
G02X103638Y63977I958J-957D01*
G01X112057D01*
G01X129873Y68980D02*
X123780Y62887D01*
G02X121658Y62008I-2122J2122D01*
G01X112057D01*
G01X129900Y64800D02*
X126019Y60919D01*
G02X123897Y60040I-2122J2122D01*
G01X112057D01*
G01X111019Y88500D02*
Y95176D01*
G02X111898Y97298I3001J0D01*
G01X114100Y99500D01*
G01X126569Y25000D02*
Y15000D01*
G01Y25000D02*
X130666D01*
G03X132800Y27134I0J2134D01*
G01Y30357D01*
G03X131921Y32479I-3001J0D01*
G01X125879Y38521D01*
G02X125000Y40643I2122J2122D01*
G01Y45128D01*
G01X141431Y25000D02*
X136300D01*
G02X134000Y27300I0J2300D01*
G01Y30855D01*
G03X133121Y32977I-3001J0D01*
G01X127848Y38250D01*
G02X126969Y40372I2122J2122D01*
G01Y45128D01*
G01X130900Y50000D02*
X130906Y49994D01*
G01X132742Y52166D02*
X134008Y50900D01*
X137300D01*
G01X149381Y34400D02*
Y38019D01*
X147100Y40300D01*
X136558D01*
X134843Y42015D01*
Y45128D01*
G01X136811Y76920D02*
Y56389D01*
G03X139066Y54134I2255J0D01*
G01X143849D01*
G01X167800Y19000D02*
X161179Y25621D01*
G02X160300Y27743I2122J2122D01*
G01Y34057D01*
G03X159421Y36179I-3001J0D01*
G01X154979Y40621D01*
G03X152857Y41500I-2122J-2122D01*
G01X137631D01*
G02X137110Y41716I0J736D01*
G01X137027Y41799D01*
G02X136811Y42320I520J521D01*
G01Y45128D01*
G01X119600Y68300D02*
X124121Y72821D01*
G03X125000Y74943I-2122J2122D01*
G01Y76920D01*
G01X156619Y79500D02*
X156591D01*
Y81599D01*
G03X155790Y82400I-801J0D01*
G01X136026D01*
G03X134843Y81217I0J-1183D01*
G01Y76920D01*
G01X202500Y86500D02*
X198079Y82079D01*
G02X195957Y81200I-2122J2122D01*
G01X169543D01*
G02X167421Y82079I0J3001D01*
G01X166460Y83040D01*
G03X164338Y83919I-2122J-2122D01*
G01X134919D01*
G03X132874Y81874I0J-2045D01*
G01Y76920D01*
G01X170681Y84000D02*
X169431D01*
G02X167500Y84800I0J2730D01*
G01X167179Y85121D01*
G03X165057Y86000I-2122J-2122D01*
G01X133600D01*
G03X130906Y83306I0J-2694D01*
G01Y76920D01*
G01X126969D02*
Y81226D01*
G02X127848Y83348I3001J0D01*
G01X133621Y89121D01*
G02X135743Y90000I2122J-2122D01*
G01X172757D01*
G03X174879Y90879I0J3001D01*
G01X176121Y92121D01*
G02X178243Y93000I2122J-2122D01*
G01X209200D01*
G01X121063Y76920D02*
Y88500D01*
G01X134100Y99500D02*
Y96695D01*
G02X133221Y94573I-3001J0D01*
G01X127971Y89323D01*
G02X125984Y88500I-1987J1987D01*
G01X124701D01*
G01X141431Y25000D02*
Y15000D01*
G01X149381Y34400D02*
Y29600D01*
G01X138780Y45128D02*
X142500D01*
G01X204681Y48600D02*
X152701D01*
G03X150992Y47892I0J-2417D01*
G01X150200Y47100D01*
G01X204681Y54055D02*
X202298D01*
G03X200176Y53176I0J-3001D01*
G01X197679Y50679D01*
G02X195557Y49800I-2122J2122D01*
G01X174600D01*
X174203Y50197D01*
X143849D01*
G01X204681Y59000D02*
X200743D01*
G03X198621Y58121I0J-3001D01*
G01X196079Y55579D01*
G02X193957Y54700I-2122J2122D01*
G01X175141D01*
G03X174559Y54459I0J-823D01*
G01X174475Y54375D01*
G02X173893Y54134I-582J582D01*
G01X143849D01*
G01X188863Y58137D02*
X187708Y56982D01*
G02X185586Y56103I-2122J2122D01*
G01X143849D01*
G01X198900Y61500D02*
X190243D01*
G03X188121Y60621I0J-3001D01*
G01X186450Y58950D01*
G02X184328Y58071I-2122J2122D01*
G01X143849D01*
G01Y52166D02*
X176800D01*
G01X204681Y64055D02*
X188298D01*
G03X186176Y63176I0J-3001D01*
G01X183919Y60919D01*
G02X181797Y60040I-2122J2122D01*
G01X143849D01*
G01X171700Y65633D02*
X169467D01*
G02X168814Y65904I1J924D01*
G01X168731Y65987D01*
G03X168078Y66258I-654J-653D01*
G01X147778D01*
X147465Y65945D01*
X143849D01*
G01X152981Y79500D02*
X148243D01*
G03X146121Y78621I0J-3001D01*
G01X145299Y77799D01*
G02X143177Y76920I-2122J2122D01*
G01X138780D01*
G01X181600Y63000D02*
X179581D01*
G03X178108Y62390I0J-2083D01*
G01X178024Y62306D01*
G02X176551Y61696I-1473J1473D01*
G01X147778D01*
X147466Y62008D01*
X143849D01*
G01Y67914D02*
X190824D01*
G03X192033Y68415I0J1709D01*
G01X192117Y68499D01*
G02X193326Y69000I1209J-1208D01*
G01X194500D01*
G01X153009Y79500D02*
X152981D01*
G01X161381D02*
X156619D01*
G01X177800Y19000D02*
X180321Y21521D01*
G03X181200Y23643I-2122J2122D01*
G01Y39139D01*
G03X180321Y41261I-3001J0D01*
G01X179441Y42141D01*
G03X177851Y42800I-1590J-1589D01*
G01X176800D01*
G01X167219Y41500D02*
Y38594D01*
G02X166351Y36499I-2962J0D01*
G01X166268Y36416D01*
G03X165400Y34321I2094J-2095D01*
G01Y31500D01*
G01X163581Y41500D02*
X159093D01*
G01X171707Y43100D02*
X170865Y42258D01*
G02X169035Y41500I-1830J1830D01*
G01X167219D01*
G01X161409Y79500D02*
X161381D01*
G01X174319Y84000D02*
X174291D01*
G01X179681D02*
X174319D01*
G01X164991Y79500D02*
X165019D01*
G01X227346Y74055D02*
X222780Y78621D01*
G03X220658Y79500I-2122J-2122D01*
G01X165019D01*
G01X187800Y19000D02*
X184579Y22221D01*
G02X183700Y24343I2122J2122D01*
G01Y40157D01*
G03X182821Y42279I-3001J0D01*
G01X181600Y43500D01*
G01X192500Y31500D02*
Y40500D01*
G01X197800Y19000D02*
Y34157D01*
G03X196921Y36279I-3001J0D01*
G01X196679Y36521D01*
G02X195800Y38643I2122J2122D01*
G01Y42040D01*
G03X195192Y43508I-2076J0D01*
G01X194500Y44200D01*
G01X188862Y40500D02*
Y43444D01*
G01X179681Y89000D02*
Y84000D01*
G01X183319D02*
X184709D01*
G03X186831Y84879I0J3001D01*
G01X187573Y85621D01*
G02X189695Y86500I2122J-2122D01*
G01X192500D01*
G01X202500Y31500D02*
Y40500D01*
G01X204709Y48600D02*
X204681D01*
G01X204709Y54055D02*
X204681D01*
G01X204709Y59000D02*
X204681D01*
G01X198862Y40500D02*
Y43444D01*
G01X208291Y48600D02*
X208319D01*
G01X217346Y44055D02*
X213680Y47721D01*
G03X211558Y48600I-2122J-2122D01*
G01X208319D01*
G01Y54055D02*
X217346D01*
G01X208291D02*
X208319D01*
G01X208291Y59000D02*
X208319D01*
G01X227346Y64055D02*
X223170Y59879D01*
G02X221048Y59000I-2122J2122D01*
G01X208319D01*
G01X204709Y64055D02*
X204681D01*
G01X217346Y74055D02*
X208319D01*
G01D02*
X208291D01*
G01X217346Y64055D02*
X208319D01*
G01D02*
X208291D01*
G01X201600Y74055D02*
X204681D01*
G01D02*
X204709D01*
M02*
