G04 ================== begin FILE IDENTIFICATION RECORD ==================*
G04 Layout Name:  E:/ST-LINK-V2/Hardware/Optimize/allegro/st-link-v2_pro_opt.brd*
G04 Film Name:    SOLDERMASK_TOP*
G04 File Format:  Gerber RS274X*
G04 File Origin:  Cadence Allegro 17.4-S035*
G04 Origin Date:  Fri Dec 22 16:05:05 2023*
G04 *
G04 Layer:  VIA CLASS/SOLDERMASK_TOP*
G04 Layer:  PIN/SOLDERMASK_TOP*
G04 Layer:  PACKAGE GEOMETRY/SOLDERMASK_TOP*
G04 Layer:  BOARD GEOMETRY/SOLDERMASK_TOP*
G04 Layer:  BOARD GEOMETRY/DESIGN_OUTLINE*
G04 *
G04 Offset:    (0.00 0.00)*
G04 Mirror:    No*
G04 Mode:      Positive*
G04 Rotation:  0*
G04 FullContactRelief:  No*
G04 UndefLineWidth:     6.00*
G04 ================== end FILE IDENTIFICATION RECORD ====================*
%FSLAX55Y55*MOIN*%
%IR0*IPPOS*OFA0.00000B0.00000*MIA0B0*SFA1.00000B1.00000*%
%AMMACRO30*
4,1,44,.01309,.02884,
-.01309,.02884,
-.014457,.028721,
-.015782,.028367,
-.017026,.027788,
-.01815,.027002,
-.019121,.026033,
-.019908,.024909,
-.020489,.023666,
-.020845,.022342,
-.020965,.020975,
-.02096,.02097,
-.02096,-.02097,
-.020845,-.022337,
-.02049,-.023662,
-.019911,-.024905,
-.019124,-.026029,
-.018154,-.026999,
-.01703,-.027786,
-.015787,-.028365,
-.014462,-.02872,
-.013095,-.02884,
-.01309,-.02884,
.01309,-.02884,
.014457,-.028721,
.015782,-.028367,
.017026,-.027788,
.01815,-.027002,
.019121,-.026033,
.019908,-.024909,
.020489,-.023666,
.020845,-.022342,
.020965,-.020975,
.02096,-.02097,
.02096,.02097,
.020845,.022337,
.02049,.023662,
.019911,.024905,
.019124,.026029,
.018154,.026999,
.01703,.027786,
.015787,.028365,
.014462,.02872,
.013095,.02884,
.01309,.02884,
0.0*
%
%ADD30MACRO30*%
%AMMACRO28*
4,1,40,.01211,.02392,
-.01211,.02392,
-.013477,.0238,
-.014802,.023445,
-.016045,.022866,
-.017169,.022079,
-.018139,.021109,
-.018926,.019985,
-.019505,.018742,
-.01986,.017417,
-.01998,.01605,
-.01998,-.01605,
-.01986,-.017417,
-.019505,-.018742,
-.018926,-.019985,
-.018139,-.021109,
-.017169,-.022079,
-.016045,-.022866,
-.014802,-.023445,
-.013477,-.0238,
-.01211,-.02392,
.01211,-.02392,
.013477,-.0238,
.014802,-.023445,
.016045,-.022866,
.017169,-.022079,
.018139,-.021109,
.018926,-.019985,
.019505,-.018742,
.01986,-.017417,
.01998,-.01605,
.01998,.01605,
.01986,.017417,
.019505,.018742,
.018926,.019985,
.018139,.021109,
.017169,.022079,
.016045,.022866,
.014802,.023445,
.013477,.0238,
.01211,.02392,
0.0*
%
%ADD28MACRO28*%
%AMMACRO43*
4,1,44,-.02294,-.00787,
.02294,-.00787,
.023315,-.007842,
.023679,-.007745,
.02402,-.007586,
.024328,-.00737,
.024595,-.007103,
.024811,-.006795,
.02497,-.006454,
.025067,-.00609,
.0251,-.005715,
.0251,-.00571,
.0251,.00571,
.025068,.006085,
.024971,.006449,
.024813,.006791,
.024598,.0071,
.024332,.007366,
.024024,.007583,
.023683,.007743,
.02332,.007841,
.022945,.007875,
.02294,.00787,
-.02294,.00787,
-.023315,.007842,
-.023679,.007745,
-.02402,.007586,
-.024328,.00737,
-.024595,.007103,
-.024811,.006795,
-.02497,.006454,
-.025067,.00609,
-.0251,.005715,
-.0251,.00571,
-.0251,-.00571,
-.025068,-.006085,
-.024971,-.006449,
-.024813,-.006791,
-.024598,-.0071,
-.024332,-.007366,
-.024024,-.007583,
-.023683,-.007743,
-.02332,-.007841,
-.022945,-.007875,
-.02294,-.00787,
0.0*
%
%ADD43MACRO43*%
%AMMACRO41*
4,1,44,.00787,-.02294,
.00787,.02294,
.007842,.023315,
.007745,.023679,
.007586,.02402,
.00737,.024328,
.007103,.024595,
.006795,.024811,
.006454,.02497,
.00609,.025067,
.005715,.0251,
.00571,.0251,
-.00571,.0251,
-.006085,.025068,
-.006449,.024971,
-.006791,.024813,
-.0071,.024598,
-.007366,.024332,
-.007583,.024024,
-.007743,.023683,
-.007841,.02332,
-.007875,.022945,
-.00787,.02294,
-.00787,-.02294,
-.007842,-.023315,
-.007745,-.023679,
-.007586,-.02402,
-.00737,-.024328,
-.007103,-.024595,
-.006795,-.024811,
-.006454,-.02497,
-.00609,-.025067,
-.005715,-.0251,
-.00571,-.0251,
.00571,-.0251,
.006085,-.025068,
.006449,-.024971,
.006791,-.024813,
.0071,-.024598,
.007366,-.024332,
.007583,-.024024,
.007743,-.023683,
.007841,-.02332,
.007875,-.022945,
.00787,-.02294,
0.0*
%
%ADD41MACRO41*%
%ADD38C,.0622*%
%ADD34R,.0622X.0622*%
%ADD15C,.02559*%
%AMMACRO22*
4,1,44,-.00665,-.00787,
.00665,-.00787,
.007334,-.007815,
.007998,-.007637,
.00862,-.007347,
.009183,-.006953,
.009668,-.006468,
.010062,-.005905,
.010352,-.005283,
.01053,-.004619,
.01059,-.003935,
.01059,-.00393,
.01059,.00393,
.010531,.004614,
.010354,.005278,
.010065,.005901,
.009671,.006464,
.009186,.00695,
.008624,.007345,
.008002,.007636,
.007339,.007814,
.006655,.007875,
.00665,.00787,
-.00665,.00787,
-.007334,.007815,
-.007998,.007637,
-.00862,.007347,
-.009183,.006953,
-.009668,.006468,
-.010062,.005905,
-.010352,.005283,
-.01053,.004619,
-.01059,.003935,
-.01059,.00393,
-.01059,-.00393,
-.010531,-.004614,
-.010354,-.005278,
-.010065,-.005901,
-.009671,-.006464,
-.009186,-.00695,
-.008624,-.007345,
-.008002,-.007636,
-.007339,-.007814,
-.006655,-.007875,
-.00665,-.00787,
0.0*
%
%ADD22MACRO22*%
%AMMACRO23*
4,1,44,-.01616,-.01096,
.01616,-.01096,
.01711,-.010883,
.018031,-.010637,
.018896,-.010235,
.019677,-.009688,
.020352,-.009015,
.0209,-.008234,
.021303,-.007371,
.021551,-.00645,
.021635,-.0055,
.02163,-.00549,
.02163,.00549,
.021553,.00644,
.021307,.007361,
.020905,.008226,
.020358,.009007,
.019685,.009682,
.018904,.01023,
.018041,.010633,
.01712,.010881,
.01617,.010965,
.01616,.01096,
-.01616,.01096,
-.01711,.010883,
-.018031,.010637,
-.018896,.010235,
-.019677,.009688,
-.020352,.009015,
-.0209,.008234,
-.021303,.007371,
-.021551,.00645,
-.021635,.0055,
-.02163,.00549,
-.02163,-.00549,
-.021553,-.00644,
-.021307,-.007361,
-.020905,-.008226,
-.020358,-.009007,
-.019685,-.009682,
-.018904,-.01023,
-.018041,-.010633,
-.01712,-.010881,
-.01617,-.010965,
-.01616,-.01096,
0.0*
%
%ADD23MACRO23*%
%AMMACRO16*
4,1,40,.02441,-.00656,
.02441,.00656,
.02433,.007472,
.024093,.008356,
.023707,.009185,
.023182,.009935,
.022535,.010582,
.021785,.011107,
.020956,.011493,
.020072,.01173,
.01916,.01181,
-.01916,.01181,
-.020072,.01173,
-.020956,.011493,
-.021785,.011107,
-.022535,.010582,
-.023182,.009935,
-.023707,.009185,
-.024093,.008356,
-.02433,.007472,
-.02441,.00656,
-.02441,-.00656,
-.02433,-.007472,
-.024093,-.008356,
-.023707,-.009185,
-.023182,-.009935,
-.022535,-.010582,
-.021785,-.011107,
-.020956,-.011493,
-.020072,-.01173,
-.01916,-.01181,
.01916,-.01181,
.020072,-.01173,
.020956,-.011493,
.021785,-.011107,
.022535,-.010582,
.023182,-.009935,
.023707,-.009185,
.024093,-.008356,
.02433,-.007472,
.02441,-.00656,
0.0*
%
%ADD16MACRO16*%
%ADD10C,.09842*%
%AMMACRO36*
4,1,44,-.01525,-.02854,
.01525,-.02854,
.016104,-.028471,
.016933,-.02825,
.017711,-.027888,
.018414,-.027397,
.019021,-.026791,
.019513,-.026089,
.019877,-.025312,
.020099,-.024484,
.020175,-.02363,
.02017,-.02362,
.02017,.02362,
.020101,.024474,
.01988,.025303,
.019518,.026081,
.019027,.026784,
.018421,.027391,
.017719,.027883,
.016942,.028247,
.016114,.028469,
.01526,.028545,
.01525,.02854,
-.01525,.02854,
-.016104,.028471,
-.016933,.02825,
-.017711,.027888,
-.018414,.027397,
-.019021,.026791,
-.019513,.026089,
-.019877,.025312,
-.020099,.024484,
-.020175,.02363,
-.02017,.02362,
-.02017,-.02362,
-.020101,-.024474,
-.01988,-.025303,
-.019518,-.026081,
-.019027,-.026784,
-.018421,-.027391,
-.017719,-.027883,
-.016942,-.028247,
-.016114,-.028469,
-.01526,-.028545,
-.01525,-.02854,
0.0*
%
%ADD36MACRO36*%
%AMMACRO24*
4,1,44,.01238,-.01409,
.01238,.01409,
.012287,.015163,
.012009,.016204,
.011555,.017181,
.010937,.018064,
.010176,.018826,
.009294,.019445,
.008318,.019901,
.007278,.02018,
.006205,.020275,
.0062,.02027,
-.0062,.02027,
-.007273,.020181,
-.008314,.019902,
-.00929,.019447,
-.010172,.018829,
-.010934,.018067,
-.011552,.017185,
-.012007,.016209,
-.012286,.015168,
-.01238,.014095,
-.01238,.01409,
-.01238,-.01409,
-.012287,-.015163,
-.012009,-.016204,
-.011555,-.017181,
-.010937,-.018064,
-.010176,-.018826,
-.009294,-.019445,
-.008318,-.019901,
-.007278,-.02018,
-.006205,-.020275,
-.0062,-.02027,
.0062,-.02027,
.007273,-.020181,
.008314,-.019902,
.00929,-.019447,
.010172,-.018829,
.010934,-.018067,
.011552,-.017185,
.012007,-.016209,
.012286,-.015168,
.01238,-.014095,
.01238,-.01409,
0.0*
%
%ADD24MACRO24*%
%AMMACRO20*
4,1,40,-.00565,-.01142,
.00565,-.01142,
.006635,-.011334,
.007589,-.011078,
.008485,-.01066,
.009295,-.010093,
.009993,-.009395,
.01056,-.008585,
.010978,-.007689,
.011234,-.006735,
.01132,-.00575,
.01132,.00575,
.011234,.006735,
.010978,.007689,
.01056,.008585,
.009993,.009395,
.009295,.010093,
.008485,.01066,
.007589,.011078,
.006635,.011334,
.00565,.01142,
-.00565,.01142,
-.006635,.011334,
-.007589,.011078,
-.008485,.01066,
-.009295,.010093,
-.009993,.009395,
-.01056,.008585,
-.010978,.007689,
-.011234,.006735,
-.01132,.00575,
-.01132,-.00575,
-.011234,-.006735,
-.010978,-.007689,
-.01056,-.008585,
-.009993,-.009395,
-.009295,-.010093,
-.008485,-.01066,
-.007589,-.011078,
-.006635,-.011334,
-.00565,-.01142,
0.0*
%
%ADD20MACRO20*%
%AMMACRO27*
4,1,44,-.00926,-.01315,
.00926,-.01315,
.010403,-.013051,
.011511,-.012755,
.012551,-.012271,
.013491,-.011614,
.014302,-.010803,
.014961,-.009864,
.015446,-.008825,
.015744,-.007718,
.015845,-.006575,
.01584,-.00657,
.01584,.00657,
.015745,.007713,
.015448,.00882,
.014963,.00986,
.014306,.0108,
.013495,.011611,
.012555,.012268,
.011515,.012753,
.010408,.01305,
.009265,.01315,
.00926,.01315,
-.00926,.01315,
-.010403,.013051,
-.011511,.012755,
-.012551,.012271,
-.013491,.011614,
-.014302,.010803,
-.014961,.009864,
-.015446,.008825,
-.015744,.007718,
-.015845,.006575,
-.01584,.00657,
-.01584,-.00657,
-.015745,-.007713,
-.015448,-.00882,
-.014963,-.00986,
-.014306,-.0108,
-.013495,-.011611,
-.012555,-.012268,
-.011515,-.012753,
-.010408,-.01305,
-.009265,-.01315,
-.00926,-.01315,
0.0*
%
%ADD27MACRO27*%
%ADD12C,.06496*%
%AMMACRO17*
4,1,44,.02441,-.00262,
.02441,.00262,
.024331,.003532,
.024095,.004416,
.023709,.005246,
.023185,.005996,
.022538,.006644,
.021789,.007169,
.02096,.007557,
.020077,.007794,
.019165,.007875,
.01916,.00787,
-.01916,.00787,
-.020072,.007795,
-.020956,.007558,
-.021785,.007172,
-.022535,.006647,
-.023182,.006,
-.023707,.00525,
-.024093,.004421,
-.02433,.003537,
-.02441,.002625,
-.02441,.00262,
-.02441,-.00262,
-.024331,-.003532,
-.024095,-.004416,
-.023709,-.005246,
-.023185,-.005996,
-.022538,-.006644,
-.021789,-.007169,
-.02096,-.007557,
-.020077,-.007794,
-.019165,-.007875,
-.01916,-.00787,
.01916,-.00787,
.020072,-.007795,
.020956,-.007558,
.021785,-.007172,
.022535,-.006647,
.023182,-.006,
.023707,-.00525,
.024093,-.004421,
.02433,-.003537,
.02441,-.002625,
.02441,-.00262,
0.0*
%
%ADD17MACRO17*%
%AMMACRO39*
4,1,44,.02805,.05019,
-.02805,.05019,
-.028904,.05012,
-.029733,.049898,
-.03051,.049536,
-.031213,.049044,
-.031819,.048438,
-.032311,.047735,
-.032673,.046958,
-.032895,.046129,
-.03297,.045275,
-.03297,.04527,
-.03297,-.04527,
-.032896,-.046124,
-.032675,-.046953,
-.032313,-.047731,
-.031822,-.048434,
-.031216,-.049041,
-.030514,-.049533,
-.029737,-.049897,
-.028909,-.050119,
-.028055,-.050195,
-.02805,-.05019,
.02805,-.05019,
.028904,-.05012,
.029733,-.049898,
.03051,-.049536,
.031213,-.049044,
.031819,-.048438,
.032311,-.047735,
.032673,-.046958,
.032895,-.046129,
.03297,-.045275,
.03297,-.04527,
.03297,.04527,
.032896,.046124,
.032675,.046953,
.032313,.047731,
.031822,.048434,
.031216,.049041,
.030514,.049533,
.029737,.049897,
.028909,.050119,
.028055,.050195,
.02805,.05019,
0.0*
%
%ADD39MACRO39*%
%ADD13R,.06496X.06496*%
%AMMACRO14*
4,1,40,-.00827,-.01829,
.00827,-.01829,
.009637,-.01817,
.010962,-.017815,
.012205,-.017236,
.013329,-.016449,
.014299,-.015479,
.015086,-.014355,
.015665,-.013112,
.01602,-.011787,
.01614,-.01042,
.01614,.01042,
.01602,.011787,
.015665,.013112,
.015086,.014355,
.014299,.015479,
.013329,.016449,
.012205,.017236,
.010962,.017815,
.009637,.01817,
.00827,.01829,
-.00827,.01829,
-.009637,.01817,
-.010962,.017815,
-.012205,.017236,
-.013329,.016449,
-.014299,.015479,
-.015086,.014355,
-.015665,.013112,
-.01602,.011787,
-.01614,.01042,
-.01614,-.01042,
-.01602,-.011787,
-.015665,-.013112,
-.015086,-.014355,
-.014299,-.015479,
-.013329,-.016449,
-.012205,-.017236,
-.010962,-.017815,
-.009637,-.01817,
-.00827,-.01829,
0.0*
%
%ADD14MACRO14*%
%AMMACRO21*
4,1,40,-.01408,-.02392,
.01408,-.02392,
.015447,-.0238,
.016772,-.023445,
.018015,-.022866,
.019139,-.022079,
.020109,-.021109,
.020896,-.019985,
.021475,-.018742,
.02183,-.017417,
.02195,-.01605,
.02195,.01605,
.02183,.017417,
.021475,.018742,
.020896,.019985,
.020109,.021109,
.019139,.022079,
.018015,.022866,
.016772,.023445,
.015447,.0238,
.01408,.02392,
-.01408,.02392,
-.015447,.0238,
-.016772,.023445,
-.018015,.022866,
-.019139,.022079,
-.020109,.021109,
-.020896,.019985,
-.021475,.018742,
-.02183,.017417,
-.02195,.01605,
-.02195,-.01605,
-.02183,-.017417,
-.021475,-.018742,
-.020896,-.019985,
-.020109,-.021109,
-.019139,-.022079,
-.018015,-.022866,
-.016772,-.023445,
-.015447,-.0238,
-.01408,-.02392,
0.0*
%
%ADD21MACRO21*%
%AMMACRO31*
4,1,44,-.01309,-.02884,
.01309,-.02884,
.014457,-.028721,
.015782,-.028367,
.017026,-.027788,
.01815,-.027002,
.019121,-.026033,
.019908,-.024909,
.020489,-.023666,
.020845,-.022342,
.020965,-.020975,
.02096,-.02097,
.02096,.02097,
.020845,.022337,
.02049,.023662,
.019911,.024905,
.019124,.026029,
.018154,.026999,
.01703,.027786,
.015787,.028365,
.014462,.02872,
.013095,.02884,
.01309,.02884,
-.01309,.02884,
-.014457,.028721,
-.015782,.028367,
-.017026,.027788,
-.01815,.027002,
-.019121,.026033,
-.019908,.024909,
-.020489,.023666,
-.020845,.022342,
-.020965,.020975,
-.02096,.02097,
-.02096,-.02097,
-.020845,-.022337,
-.02049,-.023662,
-.019911,-.024905,
-.019124,-.026029,
-.018154,-.026999,
-.01703,-.027786,
-.015787,-.028365,
-.014462,-.02872,
-.013095,-.02884,
-.01309,-.02884,
0.0*
%
%ADD31MACRO31*%
%AMMACRO40*
4,1,44,-.00787,.02294,
-.00787,-.02294,
-.007842,-.023315,
-.007745,-.023679,
-.007586,-.02402,
-.00737,-.024328,
-.007103,-.024595,
-.006795,-.024811,
-.006454,-.02497,
-.00609,-.025067,
-.005715,-.0251,
-.00571,-.0251,
.00571,-.0251,
.006085,-.025068,
.006449,-.024971,
.006791,-.024813,
.0071,-.024598,
.007366,-.024332,
.007583,-.024024,
.007743,-.023683,
.007841,-.02332,
.007875,-.022945,
.00787,-.02294,
.00787,.02294,
.007842,.023315,
.007745,.023679,
.007586,.02402,
.00737,.024328,
.007103,.024595,
.006795,.024811,
.006454,.02497,
.00609,.025067,
.005715,.0251,
.00571,.0251,
-.00571,.0251,
-.006085,.025068,
-.006449,.024971,
-.006791,.024813,
-.0071,.024598,
-.007366,.024332,
-.007583,.024024,
-.007743,.023683,
-.007841,.02332,
-.007875,.022945,
-.00787,.02294,
0.0*
%
%ADD40MACRO40*%
%AMMACRO37*
4,1,44,.02294,.00787,
-.02294,.00787,
-.023315,.007842,
-.023679,.007745,
-.02402,.007586,
-.024328,.00737,
-.024595,.007103,
-.024811,.006795,
-.02497,.006454,
-.025067,.00609,
-.0251,.005715,
-.0251,.00571,
-.0251,-.00571,
-.025068,-.006085,
-.024971,-.006449,
-.024813,-.006791,
-.024598,-.0071,
-.024332,-.007366,
-.024024,-.007583,
-.023683,-.007743,
-.02332,-.007841,
-.022945,-.007875,
-.02294,-.00787,
.02294,-.00787,
.023315,-.007842,
.023679,-.007745,
.02402,-.007586,
.024328,-.00737,
.024595,-.007103,
.024811,-.006795,
.02497,-.006454,
.025067,-.00609,
.0251,-.005715,
.0251,-.00571,
.0251,.00571,
.025068,.006085,
.024971,.006449,
.024813,.006791,
.024598,.0071,
.024332,.007366,
.024024,.007583,
.023683,.007743,
.02332,.007841,
.022945,.007875,
.02294,.00787,
0.0*
%
%ADD37MACRO37*%
%ADD11O,.08071X.04134*%
%AMMACRO42*
4,1,44,-.02805,-.05019,
.02805,-.05019,
.028904,-.05012,
.029733,-.049898,
.03051,-.049536,
.031213,-.049044,
.031819,-.048438,
.032311,-.047735,
.032673,-.046958,
.032895,-.046129,
.03297,-.045275,
.03297,-.04527,
.03297,.04527,
.032896,.046124,
.032675,.046953,
.032313,.047731,
.031822,.048434,
.031216,.049041,
.030514,.049533,
.029737,.049897,
.028909,.050119,
.028055,.050195,
.02805,.05019,
-.02805,.05019,
-.028904,.05012,
-.029733,.049898,
-.03051,.049536,
-.031213,.049044,
-.031819,.048438,
-.032311,.047735,
-.032673,.046958,
-.032895,.046129,
-.03297,.045275,
-.03297,.04527,
-.03297,-.04527,
-.032896,-.046124,
-.032675,-.046953,
-.032313,-.047731,
-.031822,-.048434,
-.031216,-.049041,
-.030514,-.049533,
-.029737,-.049897,
-.028909,-.050119,
-.028055,-.050195,
-.02805,-.05019,
0.0*
%
%ADD42MACRO42*%
%AMMACRO29*
4,1,44,.00665,.00787,
-.00665,.00787,
-.007334,.007815,
-.007998,.007637,
-.00862,.007347,
-.009183,.006953,
-.009668,.006468,
-.010062,.005905,
-.010352,.005283,
-.01053,.004619,
-.01059,.003935,
-.01059,.00393,
-.01059,-.00393,
-.010531,-.004614,
-.010354,-.005278,
-.010065,-.005901,
-.009671,-.006464,
-.009186,-.00695,
-.008624,-.007345,
-.008002,-.007636,
-.007339,-.007814,
-.006655,-.007875,
-.00665,-.00787,
.00665,-.00787,
.007334,-.007815,
.007998,-.007637,
.00862,-.007347,
.009183,-.006953,
.009668,-.006468,
.010062,-.005905,
.010352,-.005283,
.01053,-.004619,
.01059,-.003935,
.01059,-.00393,
.01059,.00393,
.010531,.004614,
.010354,.005278,
.010065,.005901,
.009671,.006464,
.009186,.00695,
.008624,.007345,
.008002,.007636,
.007339,.007814,
.006655,.007875,
.00665,.00787,
0.0*
%
%ADD29MACRO29*%
%AMMACRO32*
4,1,44,.01616,.01096,
-.01616,.01096,
-.01711,.010883,
-.018031,.010637,
-.018896,.010235,
-.019677,.009688,
-.020352,.009015,
-.0209,.008234,
-.021303,.007371,
-.021551,.00645,
-.021635,.0055,
-.02163,.00549,
-.02163,-.00549,
-.021553,-.00644,
-.021307,-.007361,
-.020905,-.008226,
-.020358,-.009007,
-.019685,-.009682,
-.018904,-.01023,
-.018041,-.010633,
-.01712,-.010881,
-.01617,-.010965,
-.01616,-.01096,
.01616,-.01096,
.01711,-.010883,
.018031,-.010637,
.018896,-.010235,
.019677,-.009688,
.020352,-.009015,
.0209,-.008234,
.021303,-.007371,
.021551,-.00645,
.021635,-.0055,
.02163,-.00549,
.02163,.00549,
.021553,.00644,
.021307,.007361,
.020905,.008226,
.020358,.009007,
.019685,.009682,
.018904,.01023,
.018041,.010633,
.01712,.010881,
.01617,.010965,
.01616,.01096,
0.0*
%
%ADD32MACRO32*%
%AMMACRO25*
4,1,44,-.01238,.01409,
-.01238,-.01409,
-.012287,-.015163,
-.012009,-.016204,
-.011555,-.017181,
-.010937,-.018064,
-.010176,-.018826,
-.009294,-.019445,
-.008318,-.019901,
-.007278,-.02018,
-.006205,-.020275,
-.0062,-.02027,
.0062,-.02027,
.007273,-.020181,
.008314,-.019902,
.00929,-.019447,
.010172,-.018829,
.010934,-.018067,
.011552,-.017185,
.012007,-.016209,
.012286,-.015168,
.01238,-.014095,
.01238,-.01409,
.01238,.01409,
.012287,.015163,
.012009,.016204,
.011555,.017181,
.010937,.018064,
.010176,.018826,
.009294,.019445,
.008318,.019901,
.007278,.02018,
.006205,.020275,
.0062,.02027,
-.0062,.02027,
-.007273,.020181,
-.008314,.019902,
-.00929,.019447,
-.010172,.018829,
-.010934,.018067,
-.011552,.017185,
-.012007,.016209,
-.012286,.015168,
-.01238,.014095,
-.01238,.01409,
0.0*
%
%ADD25MACRO25*%
%AMMACRO35*
4,1,44,.01525,.02854,
-.01525,.02854,
-.016104,.028471,
-.016933,.02825,
-.017711,.027888,
-.018414,.027397,
-.019021,.026791,
-.019513,.026089,
-.019877,.025312,
-.020099,.024484,
-.020175,.02363,
-.02017,.02362,
-.02017,-.02362,
-.020101,-.024474,
-.01988,-.025303,
-.019518,-.026081,
-.019027,-.026784,
-.018421,-.027391,
-.017719,-.027883,
-.016942,-.028247,
-.016114,-.028469,
-.01526,-.028545,
-.01525,-.02854,
.01525,-.02854,
.016104,-.028471,
.016933,-.02825,
.017711,-.027888,
.018414,-.027397,
.019021,-.026791,
.019513,-.026089,
.019877,-.025312,
.020099,-.024484,
.020175,-.02363,
.02017,-.02362,
.02017,.02362,
.020101,.024474,
.01988,.025303,
.019518,.026081,
.019027,.026784,
.018421,.027391,
.017719,.027883,
.016942,.028247,
.016114,.028469,
.01526,.028545,
.01525,.02854,
0.0*
%
%ADD35MACRO35*%
%AMMACRO26*
4,1,40,.00565,.01142,
-.00565,.01142,
-.006635,.011334,
-.007589,.011078,
-.008485,.01066,
-.009295,.010093,
-.009993,.009395,
-.01056,.008585,
-.010978,.007689,
-.011234,.006735,
-.01132,.00575,
-.01132,-.00575,
-.011234,-.006735,
-.010978,-.007689,
-.01056,-.008585,
-.009993,-.009395,
-.009295,-.010093,
-.008485,-.01066,
-.007589,-.011078,
-.006635,-.011334,
-.00565,-.01142,
.00565,-.01142,
.006635,-.011334,
.007589,-.011078,
.008485,-.01066,
.009295,-.010093,
.009993,-.009395,
.01056,-.008585,
.010978,-.007689,
.011234,-.006735,
.01132,-.00575,
.01132,.00575,
.011234,.006735,
.010978,.007689,
.01056,.008585,
.009993,.009395,
.009295,.010093,
.008485,.01066,
.007589,.011078,
.006635,.011334,
.00565,.01142,
0.0*
%
%ADD26MACRO26*%
%AMMACRO33*
4,1,44,.00926,.01315,
-.00926,.01315,
-.010403,.013051,
-.011511,.012755,
-.012551,.012271,
-.013491,.011614,
-.014302,.010803,
-.014961,.009864,
-.015446,.008825,
-.015744,.007718,
-.015845,.006575,
-.01584,.00657,
-.01584,-.00657,
-.015745,-.007713,
-.015448,-.00882,
-.014963,-.00986,
-.014306,-.0108,
-.013495,-.011611,
-.012555,-.012268,
-.011515,-.012753,
-.010408,-.01305,
-.009265,-.01315,
-.00926,-.01315,
.00926,-.01315,
.010403,-.013051,
.011511,-.012755,
.012551,-.012271,
.013491,-.011614,
.014302,-.010803,
.014961,-.009864,
.015446,-.008825,
.015744,-.007718,
.015845,-.006575,
.01584,-.00657,
.01584,.00657,
.015745,.007713,
.015448,.00882,
.014963,.00986,
.014306,.0108,
.013495,.011611,
.012555,.012268,
.011515,.012753,
.010408,.01305,
.009265,.01315,
.00926,.01315,
0.0*
%
%ADD33MACRO33*%
%ADD18R,.07493X.04737*%
%AMMACRO19*
4,1,40,.00827,.01829,
-.00827,.01829,
-.009637,.01817,
-.010962,.017815,
-.012205,.017236,
-.013329,.016449,
-.014299,.015479,
-.015086,.014355,
-.015665,.013112,
-.01602,.011787,
-.01614,.01042,
-.01614,-.01042,
-.01602,-.011787,
-.015665,-.013112,
-.015086,-.014355,
-.014299,-.015479,
-.013329,-.016449,
-.012205,-.017236,
-.010962,-.017815,
-.009637,-.01817,
-.00827,-.01829,
.00827,-.01829,
.009637,-.01817,
.010962,-.017815,
.012205,-.017236,
.013329,-.016449,
.014299,-.015479,
.015086,-.014355,
.015665,-.013112,
.01602,-.011787,
.01614,-.01042,
.01614,.01042,
.01602,.011787,
.015665,.013112,
.015086,.014355,
.014299,.015479,
.013329,.016449,
.012205,.017236,
.010962,.017815,
.009637,.01817,
.00827,.01829,
0.0*
%
%ADD19MACRO19*%
%ADD44C,.006*%
G75*
%LPD*%
G75*
G54D10*
X10000Y10000D03*
Y107500D03*
X226220Y10000D03*
Y107500D03*
G54D11*
X10543Y41988D03*
Y76004D03*
X27000Y41988D03*
Y76004D03*
G54D20*
X48866Y35000D03*
Y39400D03*
Y43898D03*
Y62500D03*
X60581Y45000D03*
X70181D03*
X60581Y50500D03*
Y56000D03*
X88181Y25000D03*
X77581D03*
Y32500D03*
X82708Y66299D03*
X83181Y56043D03*
X95681Y17500D03*
X105681D03*
X93181Y37500D03*
Y42500D03*
Y32500D03*
Y56043D03*
Y65886D03*
X95681Y82500D03*
X108881Y85200D03*
X95681Y87600D03*
X93181Y70600D03*
X95681Y95600D03*
X108881Y94000D03*
X128724Y15000D03*
X117500D03*
X117581Y94000D03*
X142381Y28100D03*
Y23500D03*
Y32600D03*
X132481Y95700D03*
X153181Y61949D03*
Y66200D03*
Y74800D03*
Y79100D03*
Y70500D03*
X178181Y48169D03*
Y43100D03*
Y66200D03*
Y52700D03*
Y57300D03*
Y61700D03*
Y70800D03*
Y75400D03*
X180881Y90000D03*
Y94600D03*
X189281Y90000D03*
G54D21*
X44386Y70000D03*
G54D12*
X32500Y7500D03*
X66400D03*
X56400D03*
X57500Y110000D03*
X67500D03*
X86400Y7500D03*
X76400D03*
X96400D03*
X150000D03*
X147500Y110000D03*
X160000Y7500D03*
X170000D03*
X157500Y110000D03*
X167500D03*
X177500D03*
X187500D03*
X217500Y27500D03*
Y90000D03*
G54D30*
X70570D03*
X88445Y82500D03*
G54D40*
X127384Y43100D03*
X125415D03*
X123447D03*
X121478D03*
X119510D03*
X117541D03*
X115573D03*
X113604D03*
X135258D03*
X133289D03*
X131321D03*
X129352D03*
G54D31*
X63680Y90000D03*
X81555Y82500D03*
G54D13*
X22500Y7500D03*
X46400D03*
X77500Y110000D03*
X180000Y7500D03*
X207500Y27500D03*
Y90000D03*
X197500Y110000D03*
G54D22*
X47551Y50500D03*
Y56000D03*
G54D32*
X54976Y79500D03*
G54D14*
X28628Y28300D03*
Y20800D03*
X42628Y28300D03*
Y20800D03*
X64153Y82000D03*
X81555Y75000D03*
X82028Y97500D03*
Y90900D03*
X154056Y25000D03*
Y18700D03*
X170028Y25000D03*
Y18700D03*
G54D23*
X46394Y79500D03*
G54D41*
X113604Y74892D03*
X115573D03*
X117541D03*
X119510D03*
X121478D03*
X123447D03*
X125415D03*
X127384D03*
X129352D03*
X131321D03*
X133289D03*
X135258D03*
G54D33*
X74421Y66299D03*
Y73701D03*
G54D42*
X132362Y25000D03*
G54D24*
X62400Y31260D03*
G54D15*
X25032Y47736D03*
Y70374D03*
G54D25*
X58660Y38740D03*
X66140D03*
G54D16*
X29244Y49547D03*
Y46398D03*
Y68445D03*
Y71594D03*
G54D34*
X92500Y110000D03*
X217500Y44055D03*
G54D43*
X140327Y48169D03*
Y67854D03*
Y65886D03*
Y63917D03*
Y61949D03*
Y59980D03*
Y58012D03*
Y56043D03*
Y54075D03*
Y52106D03*
Y50138D03*
Y69823D03*
G54D44*
G01X0Y11811D02*
G03X11811Y0I11811J0D01*
G01X224410D01*
G03X236221Y11811I0J11811D01*
G01Y106299D01*
G03X224410Y118110I-11811J0D01*
G01X11811D01*
G03X0Y106299I0J-11811D01*
G01Y11811D01*
G54D26*
X52504Y35000D03*
Y39400D03*
X64219Y45000D03*
X52504Y43898D03*
X64219Y50500D03*
Y56000D03*
X52504Y62500D03*
X81219Y25000D03*
X73819Y45000D03*
X81219Y32500D03*
X86346Y66299D03*
X86819Y56043D03*
X99319Y17500D03*
X109319D03*
X91819Y25000D03*
X96819Y37500D03*
Y42500D03*
Y32500D03*
Y56043D03*
Y65886D03*
X99319Y82500D03*
Y87600D03*
X96819Y70600D03*
X99319Y95600D03*
X121138Y15000D03*
X112519Y85200D03*
X121219Y94000D03*
X112519D03*
X132362Y15000D03*
X146019Y28100D03*
Y23500D03*
Y32600D03*
X136119Y95700D03*
X156819Y61949D03*
Y66200D03*
Y74800D03*
Y79100D03*
Y70500D03*
X181819Y48169D03*
Y43100D03*
Y66200D03*
Y52700D03*
Y57300D03*
Y61700D03*
Y70800D03*
Y75400D03*
X184519Y90000D03*
Y94600D03*
X192919Y90000D03*
G54D35*
X97726Y25000D03*
G54D17*
X29244Y52106D03*
Y54075D03*
Y56043D03*
Y58012D03*
Y59980D03*
Y61949D03*
Y63917D03*
Y65886D03*
G54D18*
X19508Y87716D03*
Y102284D03*
X45492Y87716D03*
Y102284D03*
X144508Y85216D03*
Y99784D03*
X170492Y85216D03*
Y99784D03*
G54D27*
X64153Y66299D03*
Y70000D03*
Y73701D03*
G54D36*
X107274Y25000D03*
G54D19*
X34572Y28300D03*
Y20800D03*
X48572Y28300D03*
Y20800D03*
X70097Y82000D03*
X87499Y75000D03*
X87972Y97500D03*
Y90900D03*
X160000Y25000D03*
Y18700D03*
X175972Y25000D03*
Y18700D03*
G54D37*
X108535Y48169D03*
Y50138D03*
Y52106D03*
Y54075D03*
Y56043D03*
Y58012D03*
Y59980D03*
Y61949D03*
Y63917D03*
Y65886D03*
Y67854D03*
Y69823D03*
G54D28*
X57181Y70000D03*
G54D29*
X53819Y50500D03*
Y56000D03*
G54D38*
X112500Y110000D03*
X102500D03*
X122500D03*
X132500D03*
X207500Y44055D03*
Y64055D03*
Y54055D03*
Y74055D03*
X217500Y64055D03*
Y54055D03*
Y74055D03*
G54D39*
X117500Y25000D03*
M02*
