M48
INCH,TZ
T01C.01181
T02C.04134
T03C.04331
T04C.05512
T05C.02559
;LEADER: 12 
;HEADER: 
;CODE  : ASCII 
;FILE  : st-link-v2_pro_opt-1-2.drl for board E:/ST-LINK-V2/Hardware/Optimize/allegro/#Taaaaar09572.tmp ... layers TOP and BOTTOM
;T01 Holesize 1. = 11.810000 Tolerance = +0.000000/-0.000000 PLATED MILS Quantity = 199
;T02 Holesize 2. = 41.340000 Tolerance = +0.000000/-0.000000 PLATED MILS Quantity = 13
;T03 Holesize 3. = 43.310000 Tolerance = +0.000000/-0.000000 PLATED MILS Quantity = 25
;T04 Holesize 4. = 55.120000 Tolerance = +0.000000/-0.000000 PLATED MILS Quantity = 4
;T05 Holesize 5. = 25.590000 Tolerance = +0.000000/-0.000000 NON_PLATED MILS Quantity = 2
%
G90
T01
X15500Y4600
X37288Y4681
X46200Y14700
X61500Y4200
X81400Y4200
X92868Y17500
X102400Y14400
X107288Y4681
X112132Y17500
X117288Y4681
X124700Y15000
X124800Y19400
X127288Y4681
X136800Y17100
X137288Y4681
X154800Y4300
X165000Y4200
X165200Y16000
X187288Y4681
X189600Y19000
X197288Y4681
X207288Y4681
X217288Y4681
X231540Y14323
X231540Y34323
X231540Y24323
X201300Y39900
X199400Y30200
X195100Y39800
X190600Y39400
X190000Y31600
X185400Y39400
X183300Y29300
X180800Y39300
X175800Y31000
X170900Y39600
X170600Y31100
X157200Y31300
X155600Y39200
X151200Y39200
X148832Y32600
X142381Y35600
X139800Y23500
X138500Y29100
X128400Y32800
X127384Y36800
X124500Y23400
X120100Y33000
X111800Y24500
X109000Y30300
X102500Y22300
X99500Y30000
X96819Y39919
X90400Y37500
X90400Y32500
X88181Y22177
X77581Y21381
X62500Y38100
X62400Y21400
X52400Y28300
X45800Y35000
X28628Y31972
X23700Y36900
X4681Y31694
X4681Y21694
X4681Y41694
X4681Y51694
X21600Y49300
X21900Y56400
X33653Y49547
X34100Y43400
X44400Y53300
X44600Y47700
X55098Y43898
X56600Y50500
X56559Y56000
X62800Y41500
X67032Y50500
X70700Y50500
X71100Y40700
X71100Y56400
X80543Y56043
X81100Y46500
X89657Y56043
X90400Y42500
X104600Y43300
X109900Y43300
X112700Y50138
X120300Y50100
X120300Y53800
X128500Y54500
X130400Y48400
X131900Y52500
X135238Y50138
X159600Y40000
X166000Y40100
X166000Y45700
X185400Y57300
X188000Y55200
X195400Y56800
X212200Y49800
X231540Y44323
X231540Y54323
X231540Y74323
X231540Y64323
X196000Y62500
X190600Y61700
X182800Y79700
X165800Y77000
X159751Y61949
X159700Y70500
X159700Y66200
X159600Y74800
X145400Y66700
X145200Y75700
X138600Y75500
X136080Y59980
X135714Y65886
X125415Y62400
X123447Y78886
X120100Y64300
X118250Y66950
X116100Y69800
X101900Y68900
X101900Y62800
X99300Y79900
X90794Y75000
X88899Y66299
X72200Y78300
X71100Y61400
X70600Y69800
X63500Y61100
X60860Y70000
X55317Y62500
X53500Y70000
X43700Y60100
X36800Y61500
X34000Y74200
X33700Y68500
X24100Y62600
X4681Y71694
X4681Y61694
X4681Y81694
X4681Y91694
X24536Y87716
X40464Y87716
X53300Y85700
X63300Y97500
X70700Y95100
X73200Y82000
X74000Y90000
X77600Y82500
X78733Y97500
X92100Y82500
X108881Y88023
X114300Y88100
X116200Y99100
X121900Y83900
X129668Y95700
X134200Y90900
X138700Y95700
X139000Y84600
X149536Y85216
X165464Y85216
X177000Y81800
X177400Y99500
X178100Y90000
X191700Y95100
X198700Y87300
X215300Y96800
X231540Y84323
X231540Y94323
X231700Y101300
X216682Y113429
X206682Y113429
X206500Y106100
X191900Y113900
X191800Y103300
X183600Y100000
X182600Y113300
X172400Y113400
X162600Y113400
X152100Y113400
X140000Y108100
X138000Y113400
X131000Y102400
X126682Y113429
X118200Y104000
X118100Y113500
X107500Y113500
X98100Y113700
X86682Y113429
X71700Y114200
X62200Y113400
X46682Y113429
X36682Y113429
X26682Y113429
X16682Y113429
X4681Y101694
T02
X207500Y44055
X217500Y44055
X217500Y54055
X207500Y54055
X207500Y64055
X217500Y64055
X217500Y74055
X207500Y74055
X132500Y110000
X122500Y110000
X112500Y110000
X102500Y110000
X92500Y110000
T03
X22500Y7500
X32500Y7500
X46400Y7500
X56400Y7500
X66400Y7500
X76400Y7500
X86400Y7500
X96400Y7500
X150000Y7500
X160000Y7500
X170000Y7500
X180000Y7500
X207500Y27500
X217500Y27500
X217500Y90000
X207500Y90000
X197500Y110000
X187500Y110000
X177500Y110000
X167500Y110000
X157500Y110000
X147500Y110000
X77500Y110000
X67500Y110000
X57500Y110000
T04
X10000Y10000
X10000Y107500
X226220Y107500
X226220Y10000
T05
X25032Y47736
X25032Y70374
M30
