G04 ================== begin FILE IDENTIFICATION RECORD ==================*
G04 Layout Name:  C:/tempPCBDir/da63df5eb16a2966413e2d3adebf328a/HQBrdTmp.brd*
G04 Film Name:    FABPTH*
G04 File Format:  Gerber RS274X*
G04 File Origin:  Cadence Allegro -unreleased*
G04 Origin Date:  Thu Nov 30 17:35:43 2023*
G04 *
G04 Layer:  BOARD GEOMETRY/OUTLINE*
G04 Layer:  BOARD GEOMETRY/CUTOUT*
G04 Layer:  BOARD GEOMETRY/DESIGN_OUTLINE*
G04 Layer:  BOARD GEOMETRY/DIMENSION*
G04 Layer:  DRAWING FORMAT/OUTLINE*
G04 Layer:  DRAWING FORMAT/REVISION_BLOCK*
G04 Layer:  DRAWING FORMAT/TITLE_BLOCK*
G04 Layer:  MANUFACTURING/NCLEGEND-1-2*
G04 *
G04 Offset:    (0.00 0.00)*
G04 Mirror:    No*
G04 Mode:      Positive*
G04 Rotation:  0*
G04 FullContactRelief:  No*
G04 UndefLineWidth:     0.11*
G04 ================== end FILE IDENTIFICATION RECORD ====================*
%FSLAX25Y25*MOIN*%
%IR0*IPPOS*OFA0.00000B0.00000*MIA0B0*SFA1.00000B1.00000*%
%AMMACRO15*
1,1,.00011,.005905,0.0*
20,1,.00011,.005905,0.0,-.005905,0.0,0.0*
1,1,.00011,-.005905,0.0*
1,1,.00011,0.0,.005905*
20,1,.00011,0.0,.005905,0.0,-.005905,0.0*
1,1,.00011,0.0,-.005905*
%
%ADD15MACRO15*%
%AMMACRO14*
1,1,.00011,.02067,.02067*
20,1,.00011,.02067,.02067,.02067,-.02067,0.0*
1,1,.00011,.02067,-.02067*
20,1,.00011,.02067,-.02067,-.02067,-.02067,0.0*
1,1,.00011,-.02067,-.02067*
20,1,.00011,-.02067,-.02067,-.02067,.02067,0.0*
1,1,.00011,-.02067,.02067*
20,1,.00011,-.02067,.02067,.02067,.02067,0.0*
1,1,.00011,.02067,.02067*
%
%ADD14MACRO14*%
%AMMACRO11*
1,1,.00011,.0053,-.012795*
20,1,.00011,.0053,-.012795,-.0053,-.012795,0.0*
1,1,.00011,-.0053,-.012795*
20,1,.00011,-.0053,-.012795,-.012795,-.0053,0.0*
1,1,.00011,-.012795,-.0053*
20,1,.00011,-.012795,-.0053,-.012795,.0053,0.0*
1,1,.00011,-.012795,.0053*
20,1,.00011,-.012795,.0053,-.0053,.012795,0.0*
1,1,.00011,-.0053,.012795*
20,1,.00011,-.0053,.012795,.0053,.012795,0.0*
1,1,.00011,.0053,.012795*
20,1,.00011,.0053,.012795,.012795,.0053,0.0*
1,1,.00011,.012795,.0053*
20,1,.00011,.012795,.0053,.012795,-.0053,0.0*
1,1,.00011,.012795,-.0053*
20,1,.00011,.012795,-.0053,.0053,-.012795,0.0*
1,1,.00011,.0053,-.012795*
%
%ADD11MACRO11*%
%AMMACRO13*
1,1,.00011,.021655,0.0*
20,1,.00011,.021655,0.0,.010828,.018754,0.0*
1,1,.00011,.010828,.018754*
20,1,.00011,.010828,.018754,-.010827,.018754,0.0*
1,1,.00011,-.010827,.018754*
20,1,.00011,-.010827,.018754,-.021655,0.0,0.0*
1,1,.00011,-.021655,0.0*
20,1,.00011,-.021655,0.0,-.010828,-.018754,0.0*
1,1,.00011,-.010828,-.018754*
20,1,.00011,-.010828,-.018754,.010827,-.018754,0.0*
1,1,.00011,.010827,-.018754*
20,1,.00011,.010827,-.018754,.021655,0.0,0.0*
1,1,.00011,.021655,0.0*
%
%ADD13MACRO13*%
%AMMACRO12*
1,1,.00011,0.0,.02756*
20,1,.00011,0.0,.02756,-.023868,.01378,0.0*
1,1,.00011,-.023868,.01378*
20,1,.00011,-.023868,.01378,-.023868,-.01378,0.0*
1,1,.00011,-.023868,-.01378*
20,1,.00011,-.023868,-.01378,0.0,-.02756,0.0*
1,1,.00011,0.0,-.02756*
20,1,.00011,0.0,-.02756,.023868,-.01378,0.0*
1,1,.00011,.023868,-.01378*
20,1,.00011,.023868,-.01378,.023868,.01378,0.0*
1,1,.00011,.023868,.01378*
20,1,.00011,.023868,.01378,0.0,.02756,0.0*
1,1,.00011,0.0,.02756*
%
%ADD12MACRO12*%
%AMMACRO10*
1,1,.00011,-.021655,.01181*
20,1,.00011,-.021655,.01181,.021655,.01181,0.0*
1,1,.00011,.021655,.01181*
20,1,.00011,.021655,.01181,.023706,.011631,0.0*
1,1,.00011,.023706,.011631*
20,1,.00011,.023706,.011631,.025694,.011098,0.0*
1,1,.00011,.025694,.011098*
20,1,.00011,.025694,.011098,.02756,.010228,0.0*
1,1,.00011,.02756,.010228*
20,1,.00011,.02756,.010228,.029246,.009047,0.0*
1,1,.00011,.029246,.009047*
20,1,.00011,.029246,.009047,.030702,.007591,0.0*
1,1,.00011,.030702,.007591*
20,1,.00011,.030702,.007591,.031883,.005905,0.0*
1,1,.00011,.031883,.005905*
20,1,.00011,.031883,.005905,.032753,.004039,0.0*
1,1,.00011,.032753,.004039*
20,1,.00011,.032753,.004039,.033286,.002051,0.0*
1,1,.00011,.033286,.002051*
20,1,.00011,.033286,.002051,.033465,0.0,0.0*
1,1,.00011,.033465,0.0*
20,1,.00011,.033465,0.0,.033286,-.002051,0.0*
1,1,.00011,.033286,-.002051*
20,1,.00011,.033286,-.002051,.032753,-.004039,0.0*
1,1,.00011,.032753,-.004039*
20,1,.00011,.032753,-.004039,.031883,-.005905,0.0*
1,1,.00011,.031883,-.005905*
20,1,.00011,.031883,-.005905,.030702,-.007591,0.0*
1,1,.00011,.030702,-.007591*
20,1,.00011,.030702,-.007591,.029246,-.009047,0.0*
1,1,.00011,.029246,-.009047*
20,1,.00011,.029246,-.009047,.02756,-.010228,0.0*
1,1,.00011,.02756,-.010228*
20,1,.00011,.02756,-.010228,.025694,-.011098,0.0*
1,1,.00011,.025694,-.011098*
20,1,.00011,.025694,-.011098,.023706,-.011631,0.0*
1,1,.00011,.023706,-.011631*
20,1,.00011,.023706,-.011631,.021655,-.01181,0.0*
1,1,.00011,.021655,-.01181*
20,1,.00011,.021655,-.01181,-.021655,-.01181,0.0*
1,1,.00011,-.021655,-.01181*
20,1,.00011,-.021655,-.01181,-.023706,-.011631,0.0*
1,1,.00011,-.023706,-.011631*
20,1,.00011,-.023706,-.011631,-.025694,-.011098,0.0*
1,1,.00011,-.025694,-.011098*
20,1,.00011,-.025694,-.011098,-.02756,-.010228,0.0*
1,1,.00011,-.02756,-.010228*
20,1,.00011,-.02756,-.010228,-.029246,-.009047,0.0*
1,1,.00011,-.029246,-.009047*
20,1,.00011,-.029246,-.009047,-.030702,-.007591,0.0*
1,1,.00011,-.030702,-.007591*
20,1,.00011,-.030702,-.007591,-.031883,-.005905,0.0*
1,1,.00011,-.031883,-.005905*
20,1,.00011,-.031883,-.005905,-.032753,-.004039,0.0*
1,1,.00011,-.032753,-.004039*
20,1,.00011,-.032753,-.004039,-.033286,-.002051,0.0*
1,1,.00011,-.033286,-.002051*
20,1,.00011,-.033286,-.002051,-.033465,0.0,0.0*
1,1,.00011,-.033465,0.0*
20,1,.00011,-.033465,0.0,-.033286,.002051,0.0*
1,1,.00011,-.033286,.002051*
20,1,.00011,-.033286,.002051,-.032753,.004039,0.0*
1,1,.00011,-.032753,.004039*
20,1,.00011,-.032753,.004039,-.031883,.005905,0.0*
1,1,.00011,-.031883,.005905*
20,1,.00011,-.031883,.005905,-.030702,.007591,0.0*
1,1,.00011,-.030702,.007591*
20,1,.00011,-.030702,.007591,-.029246,.009047,0.0*
1,1,.00011,-.029246,.009047*
20,1,.00011,-.029246,.009047,-.02756,.010228,0.0*
1,1,.00011,-.02756,.010228*
20,1,.00011,-.02756,.010228,-.025694,.011098,0.0*
1,1,.00011,-.025694,.011098*
20,1,.00011,-.025694,.011098,-.023706,.011631,0.0*
1,1,.00011,-.023706,.011631*
20,1,.00011,-.023706,.011631,-.021655,.01181,0.0*
1,1,.00011,-.021655,.01181*
1,1,.00011,-.00591,-.0059*
20,1,.00011,-.00591,-.0059,-.00748,-.0057,0.0*
1,1,.00011,-.00748,-.0057*
20,1,.00011,-.00748,-.0057,-.00886,-.00492,0.0*
1,1,.00011,-.00886,-.00492*
20,1,.00011,-.00886,-.00492,-.01004,-.00373,0.0*
1,1,.00011,-.01004,-.00373*
20,1,.00011,-.01004,-.00373,-.01083,-.00236,0.0*
1,1,.00011,-.01083,-.00236*
20,1,.00011,-.01083,-.00236,-.01122,-.00078,0.0*
1,1,.00011,-.01122,-.00078*
20,1,.00011,-.01122,-.00078,-.01122,.00079,0.0*
1,1,.00011,-.01122,.00079*
20,1,.00011,-.01122,.00079,-.01083,.00237,0.0*
1,1,.00011,-.01083,.00237*
20,1,.00011,-.01083,.00237,-.01004,.00374,0.0*
1,1,.00011,-.01004,.00374*
20,1,.00011,-.01004,.00374,-.00886,.00493,0.0*
1,1,.00011,-.00886,.00493*
20,1,.00011,-.00886,.00493,-.00748,.00571,0.0*
1,1,.00011,-.00748,.00571*
20,1,.00011,-.00748,.00571,-.00591,.00591,0.0*
1,1,.00011,-.00591,.00591*
20,1,.00011,-.00591,.00591,-.00433,.00571,0.0*
1,1,.00011,-.00433,.00571*
20,1,.00011,-.00433,.00571,-.00295,.00493,0.0*
1,1,.00011,-.00295,.00493*
20,1,.00011,-.00295,.00493,-.00177,.00374,0.0*
1,1,.00011,-.00177,.00374*
20,1,.00011,-.00177,.00374,-.00098,.00237,0.0*
1,1,.00011,-.00098,.00237*
20,1,.00011,-.00098,.00237,-.00059,.00079,0.0*
1,1,.00011,-.00059,.00079*
20,1,.00011,-.00059,.00079,-.00059,-.00078,0.0*
1,1,.00011,-.00059,-.00078*
20,1,.00011,-.00059,-.00078,-.00098,-.00236,0.0*
1,1,.00011,-.00098,-.00236*
20,1,.00011,-.00098,-.00236,-.00177,-.00373,0.0*
1,1,.00011,-.00177,-.00373*
20,1,.00011,-.00177,-.00373,-.00295,-.00492,0.0*
1,1,.00011,-.00295,-.00492*
20,1,.00011,-.00295,-.00492,-.00433,-.0057,0.0*
1,1,.00011,-.00433,-.0057*
20,1,.00011,-.00433,-.0057,-.00591,-.0059,0.0*
1,1,.00011,-.00591,-.0059*
1,1,.00011,.00099,-.0059*
20,1,.00011,.00099,-.0059,.00591,.00591,0.0*
1,1,.00011,.00591,.00591*
20,1,.00011,.00591,.00591,.01084,-.0059,0.0*
1,1,.00011,.01084,-.0059*
1,1,.00011,.00906,-.00177*
20,1,.00011,.00906,-.00177,.00277,-.00177,0.0*
1,1,.00011,.00277,-.00177*
%
%ADD10MACRO10*%
%ADD16C,.00011*%
G75*
%LPD*%
G75*
G54D10*
X17150Y-179600D03*
X90251Y122047D03*
Y156063D03*
X106708Y122047D03*
Y156063D03*
G54D11*
X17150Y-154600D03*
X104739Y127795D03*
Y150433D03*
G54D12*
X17150Y-129600D03*
X95000Y95000D03*
Y183000D03*
X301000Y95000D03*
Y183000D03*
G54D13*
X17150Y-104600D03*
X118500Y179500D03*
X141100D03*
X128500D03*
X155000Y105000D03*
X145000D03*
X161100Y179500D03*
X151100D03*
X171100D03*
X194100D03*
X184100D03*
X214100D03*
X204100D03*
X237800Y99000D03*
X236700Y179500D03*
X226700D03*
X257800Y99000D03*
X247800D03*
X255400Y111500D03*
X245400D03*
X256700Y179500D03*
X246700D03*
X277800Y99000D03*
X267800D03*
X272500Y111500D03*
Y166500D03*
X276700Y179500D03*
X266700D03*
X287800Y99000D03*
X282500Y111500D03*
X295000D03*
X282500Y166500D03*
X295000D03*
X305000Y111500D03*
Y166500D03*
G54D14*
X17150Y-79600D03*
G54D15*
Y-54600D03*
X100634Y86819D03*
X86900Y86900D03*
X86819Y96063D03*
X99567Y115433D03*
X86819Y106063D03*
Y116063D03*
X101000Y125200D03*
X86819Y126063D03*
Y136063D03*
X101000Y152000D03*
X86819Y146063D03*
X101300Y168300D03*
X86819Y166063D03*
Y176063D03*
Y191291D03*
X96819D03*
X120634Y86819D03*
X110634D03*
X115400Y120700D03*
X112900Y123900D03*
X116600Y125200D03*
X112600Y154042D03*
X101700Y161400D03*
X111800Y164900D03*
X108000Y168300D03*
X115400Y171600D03*
X106819Y191291D03*
X116819D03*
X124000Y94100D03*
X140634Y86819D03*
X130634D03*
X127700Y109600D03*
X135200Y109400D03*
X140200Y116400D03*
X121900Y125700D03*
X126300Y122500D03*
X132300Y122600D03*
X122058Y139055D03*
Y135100D03*
X136000D03*
X136100Y138700D03*
X136600Y121600D03*
X130545Y149358D03*
X138000Y149405D03*
X135900Y143200D03*
X125200Y157400D03*
X126300Y174100D03*
X138500Y169400D03*
X126819Y191291D03*
X136819D03*
X149200Y93500D03*
X160634Y86819D03*
X150634D03*
X141200Y111000D03*
X149400Y114000D03*
X141200Y134800D03*
X146000Y150193D03*
X152700Y147000D03*
X146800Y143500D03*
X147100Y169500D03*
X157700Y165500D03*
X146819Y191291D03*
X156819D03*
X163200Y98100D03*
X170634Y86819D03*
X170805Y117748D03*
X177200Y116500D03*
X163200Y107500D03*
X175800Y104100D03*
X161594Y119006D03*
X161952Y129250D03*
X177100Y126500D03*
Y121500D03*
X170700Y127300D03*
X174000Y129607D03*
X161400Y142800D03*
X174500Y141700D03*
X177900Y141600D03*
X169000Y149996D03*
X176800Y145000D03*
X163500Y172300D03*
X177000Y174500D03*
X166819Y191291D03*
X176819D03*
X182900Y96800D03*
X194900Y97100D03*
X190000Y93500D03*
X190634Y86819D03*
X180634D03*
X183000Y102000D03*
Y109600D03*
X187700Y113800D03*
X197100Y118681D03*
X191500Y117100D03*
X184600Y134700D03*
X187000Y126500D03*
X197000Y129607D03*
X181732Y153301D03*
X199095Y152926D03*
X191240Y160400D03*
X196654Y146297D03*
X199600Y148300D03*
X181800Y159800D03*
X199766Y144563D03*
X181200Y143100D03*
X181700Y163400D03*
X198200D03*
X186819Y191291D03*
X196819D03*
X202600Y95000D03*
X217600Y91100D03*
X210400Y91200D03*
X210634Y86819D03*
X200634D03*
X200300Y113060D03*
X201291Y105200D03*
Y109600D03*
X216622Y111300D03*
X207400Y113400D03*
X204000Y116500D03*
X209700Y120200D03*
X217540Y118019D03*
X217300Y130900D03*
X209999Y140157D03*
X210226Y136602D03*
X212200Y152100D03*
X209873Y148980D03*
X209900Y144800D03*
X204300Y164100D03*
X206819Y191291D03*
X216819D03*
X225100Y95000D03*
X230634Y86819D03*
X220634D03*
X221260Y112100D03*
X232991Y106391D03*
X225300Y114200D03*
X227100Y101900D03*
X233000Y118019D03*
X236700Y125400D03*
X239093Y121500D03*
X230200Y127100D03*
X222500Y125128D03*
X229000Y151200D03*
X228723Y143977D03*
X232991Y151900D03*
X226819Y191291D03*
X236819D03*
X250634Y86819D03*
X240634D03*
X246300Y105500D03*
X252500Y104900D03*
X248100Y126000D03*
X251707Y123100D03*
X256800Y122800D03*
Y132166D03*
X239700Y154500D03*
X248700D03*
X258700D03*
X255700Y144700D03*
X251700Y145633D03*
X246819Y191291D03*
X256819D03*
X270634Y86819D03*
X260634D03*
X272900Y104200D03*
X266600Y113900D03*
X265300Y125900D03*
X268862Y123444D03*
X268863Y138137D03*
X278862Y123444D03*
X261600Y123500D03*
X274500Y124200D03*
X269300Y154000D03*
X278900Y141500D03*
X261600Y143000D03*
X274500Y149000D03*
X278100Y170200D03*
X266000Y169600D03*
X266819Y191291D03*
X276819D03*
X290634Y86819D03*
X280634D03*
X283800Y104400D03*
X288800Y113900D03*
X285600Y124400D03*
X292000Y131300D03*
X290900Y122100D03*
X280500Y148700D03*
X288700D03*
X292100Y156700D03*
X281600Y154055D03*
X283300Y179500D03*
X289200Y173000D03*
X286819Y191291D03*
X296819D03*
X309500Y86900D03*
X309400Y96400D03*
X309900Y116900D03*
X309500Y107000D03*
X301500Y129100D03*
X310700Y138500D03*
X302100Y149500D03*
X309401Y171630D03*
Y161630D03*
X298800Y174100D03*
X306819Y191291D03*
X309401Y181630D03*
G54D16*
G01X-27800Y-192100D02*
Y32900D01*
X468200D01*
Y-192100D01*
X-27800D01*
G01Y-167100D02*
X468200D01*
G01X-27800Y-142100D02*
X468200D01*
G01X-27800Y-117100D02*
X468200D01*
G01X-27800Y-92100D02*
X468200D01*
G01X-27800Y-67100D02*
X468200D01*
G01X-16795Y-35850D02*
Y-23350D01*
X-10905D01*
G01X-13075Y-29392D02*
X-16795D01*
G01X-3310Y-23350D02*
X410D01*
G01X-1450D02*
Y-35850D01*
G01X-3310D02*
X410D01*
G01X11880Y-29600D02*
X14980D01*
Y-33350D01*
X14050Y-34600D01*
X12965Y-35433D01*
X11415Y-35850D01*
X9865Y-35433D01*
X8780Y-34600D01*
X7850Y-33350D01*
X7230Y-31892D01*
X6920Y-30225D01*
Y-28767D01*
X7230Y-27517D01*
X7850Y-26058D01*
X8780Y-24808D01*
X9710Y-23975D01*
X10950Y-23350D01*
X12035D01*
X13275Y-23767D01*
X14205Y-24600D01*
G01X19940Y-23350D02*
Y-32308D01*
X20560Y-34184D01*
X21800Y-35433D01*
X23350Y-35850D01*
X24900Y-35433D01*
X26140Y-34184D01*
X26760Y-32308D01*
Y-23350D01*
G01X32650Y-35850D02*
Y-23350D01*
X36525D01*
X37765Y-23975D01*
X38540Y-24808D01*
X38850Y-26475D01*
X38540Y-28142D01*
X37610Y-29183D01*
X36525Y-29808D01*
X32650D01*
G01X36525D02*
X38850Y-35850D01*
G01X51250D02*
X45050D01*
Y-23350D01*
X51250D01*
G01X48770Y-29392D02*
X45050D01*
G01X-27800Y-42100D02*
X468200D01*
G01X-27800Y-17100D02*
X468200D01*
G01X-27800Y7900D02*
X468200D01*
G01X-24100Y133750D02*
Y146250D01*
X-25960Y143750D01*
G01Y133750D02*
X-22240D01*
G01X-11700Y133333D02*
X-12010Y133542D01*
Y133958D01*
X-11700Y134167D01*
X-11390Y133958D01*
Y133542D01*
X-11700Y133333D01*
G01X700Y133750D02*
Y146250D01*
X-1160Y143750D01*
G01Y133750D02*
X2560D01*
G01X13100D02*
X14185Y133958D01*
X15425Y134583D01*
X16200Y135625D01*
X16510Y137083D01*
X16200Y138541D01*
X15270Y139792D01*
X13875Y140417D01*
X12325D01*
X11395Y140833D01*
X10620Y141875D01*
X10310Y143333D01*
X10775Y144792D01*
X11860Y145833D01*
X13100Y146250D01*
X14340Y145833D01*
X15425Y144792D01*
X15890Y143333D01*
X15580Y141875D01*
X14805Y140833D01*
X13875Y140417D01*
X12325D01*
X10930Y139792D01*
X10000Y138541D01*
X9690Y137083D01*
X10000Y135625D01*
X10775Y134583D01*
X12015Y133958D01*
X13100Y133750D01*
G01X120250Y80000D02*
X12657D01*
G01X20040Y95748D02*
X22500Y80000D01*
X24960Y95748D01*
X20040D01*
G01X108877Y198110D02*
X12657D01*
G01X24960Y182362D02*
X22500Y198110D01*
X20040Y182362D01*
X24960D01*
G01X22500Y124375D02*
Y80000D01*
G01X38100Y133750D02*
X33450D01*
Y146250D01*
X38100D01*
G01X22500Y155625D02*
Y198110D01*
G01X61790Y14150D02*
Y26650D01*
X64890D01*
X66130Y26025D01*
X67060Y25192D01*
X67835Y23942D01*
X68455Y22483D01*
X68610Y20400D01*
X68455Y18317D01*
X67835Y16858D01*
X67060Y15608D01*
X66130Y14775D01*
X64890Y14150D01*
X61790D01*
G01X74500D02*
Y26650D01*
X78375D01*
X79615Y26025D01*
X80390Y25192D01*
X80700Y23525D01*
X80390Y21858D01*
X79460Y20817D01*
X78375Y20192D01*
X74500D01*
G01X78375D02*
X80700Y14150D01*
G01X88140Y26650D02*
X91860D01*
G01X90000D02*
Y14150D01*
G01X88140D02*
X91860D01*
G01X99300Y26650D02*
Y14150D01*
X105500D01*
G01X111700Y26650D02*
Y14150D01*
X117900D01*
G01X143010Y25608D02*
X142080Y26233D01*
X140995Y26650D01*
X139755D01*
X138360Y26025D01*
X137275Y24983D01*
X136500Y23733D01*
X135880Y21650D01*
X135725Y19775D01*
X136035Y17900D01*
X136500Y16650D01*
X137430Y15400D01*
X138515Y14567D01*
X139600Y14150D01*
X140685D01*
X141770Y14567D01*
X142700Y15191D01*
X143475Y16025D01*
G01X148745Y14150D02*
Y26650D01*
G01X155255D02*
Y14150D01*
G01Y20400D02*
X148745D01*
G01X160525Y14150D02*
X164400Y26650D01*
X168275Y14150D01*
G01X166880Y18525D02*
X161920D01*
G01X173700Y14150D02*
Y26650D01*
X177575D01*
X178815Y26025D01*
X179590Y25192D01*
X179900Y23525D01*
X179590Y21858D01*
X178660Y20817D01*
X177575Y20192D01*
X173700D01*
G01X177575D02*
X179900Y14150D01*
G01X189200Y26650D02*
Y14150D01*
G01X185635Y26650D02*
X192765D01*
G01X201600Y13733D02*
X201290Y13942D01*
Y14358D01*
X201600Y14567D01*
X201910Y14358D01*
Y13942D01*
X201600Y13733D01*
G01Y19358D02*
X201290Y19567D01*
Y19983D01*
X201600Y20192D01*
X201910Y19983D01*
Y19567D01*
X201600Y19358D01*
G01X226400Y26650D02*
Y14150D01*
G01X222835Y26650D02*
X229965D01*
G01X238800Y14150D02*
X237560Y14358D01*
X236475Y15191D01*
X235545Y16442D01*
X234925Y17900D01*
X234615Y19567D01*
Y21233D01*
X234925Y22900D01*
X235545Y24358D01*
X236475Y25608D01*
X237560Y26442D01*
X238800Y26650D01*
X240040Y26442D01*
X241125Y25608D01*
X242055Y24358D01*
X242675Y22900D01*
X242985Y21233D01*
Y19567D01*
X242675Y17900D01*
X242055Y16442D01*
X241125Y15191D01*
X240040Y14358D01*
X238800Y14150D01*
G01X248100D02*
Y26650D01*
X251820D01*
X253060Y26025D01*
X253990Y24567D01*
X254300Y22900D01*
X253990Y21233D01*
X253215Y19983D01*
X251820Y19358D01*
X248100D01*
G01X276000Y26650D02*
Y14150D01*
G01X273830Y22483D02*
X278170D01*
G01X288400Y14150D02*
X287470Y14358D01*
X286540Y15191D01*
X285920Y16650D01*
X285610Y18317D01*
X285920Y19983D01*
X286540Y21442D01*
X287470Y22275D01*
X288400Y22483D01*
X289330Y22275D01*
X290260Y21442D01*
X290880Y19983D01*
X291035Y18317D01*
X290880Y16650D01*
X290260Y15191D01*
X289330Y14358D01*
X288400Y14150D01*
G01X314440Y20817D02*
X315060Y21442D01*
X315525Y22483D01*
X315835Y23942D01*
X315525Y25192D01*
X314905Y26025D01*
X313820Y26650D01*
X309635D01*
Y14150D01*
X314750D01*
X315835Y14983D01*
X316455Y16233D01*
X316765Y17692D01*
X316455Y19150D01*
X315525Y20400D01*
X314440Y20817D01*
X309635D01*
G01X325600Y14150D02*
X324360Y14358D01*
X323275Y15191D01*
X322345Y16442D01*
X321725Y17900D01*
X321415Y19567D01*
Y21233D01*
X321725Y22900D01*
X322345Y24358D01*
X323275Y25608D01*
X324360Y26442D01*
X325600Y26650D01*
X326840Y26442D01*
X327925Y25608D01*
X328855Y24358D01*
X329475Y22900D01*
X329785Y21233D01*
Y19567D01*
X329475Y17900D01*
X328855Y16442D01*
X327925Y15191D01*
X326840Y14358D01*
X325600Y14150D01*
G01X338000Y26650D02*
Y14150D01*
G01X334435Y26650D02*
X341565D01*
G01X350400D02*
Y14150D01*
G01X346835Y26650D02*
X353965D01*
G01X362800Y14150D02*
X361560Y14358D01*
X360475Y15191D01*
X359545Y16442D01*
X358925Y17900D01*
X358615Y19567D01*
Y21233D01*
X358925Y22900D01*
X359545Y24358D01*
X360475Y25608D01*
X361560Y26442D01*
X362800Y26650D01*
X364040Y26442D01*
X365125Y25608D01*
X366055Y24358D01*
X366675Y22900D01*
X366985Y21233D01*
Y19567D01*
X366675Y17900D01*
X366055Y16442D01*
X365125Y15191D01*
X364040Y14358D01*
X362800Y14150D01*
G01X371170D02*
Y26650D01*
X375200Y16233D01*
X379230Y26650D01*
Y14150D01*
G01X43990Y136250D02*
X44920Y134791D01*
X46160Y133958D01*
X47555Y133750D01*
X48795Y133958D01*
X50035Y135000D01*
X50810Y136250D01*
X50965Y137500D01*
X50655Y138958D01*
X49570Y140000D01*
X48485Y140417D01*
X47090D01*
G01X48485D02*
X49415Y141042D01*
X50190Y142083D01*
X50500Y143333D01*
X50190Y144583D01*
X49415Y145625D01*
X48020Y146250D01*
X46625Y146042D01*
X45230Y145208D01*
G01X59800Y146250D02*
X58560Y145833D01*
X57630Y144792D01*
X57010Y143542D01*
X56545Y141875D01*
X56390Y140000D01*
X56545Y138125D01*
X57010Y136458D01*
X57630Y135208D01*
X58560Y134167D01*
X59800Y133750D01*
X61040Y134167D01*
X61970Y135208D01*
X62590Y136458D01*
X63055Y138125D01*
X63210Y140000D01*
X63055Y141875D01*
X62590Y143542D01*
X61970Y144792D01*
X61040Y145833D01*
X59800Y146250D01*
G01X62100Y-17100D02*
Y-192100D01*
G01X80000Y115919D02*
Y53657D01*
G01X147875Y63500D02*
X80000D01*
G01X95748Y65960D02*
X80000Y63500D01*
X95748Y61040D01*
Y65960D01*
G01X80000Y85906D02*
Y192205D01*
G02X85906Y198110I5905J0D01*
G01X310315D01*
G02X316220Y192205I0J-5905D01*
G01Y85906D01*
G02X310315Y80000I-5905J-1D01*
G01X85906D01*
G02X80000Y85906I0J5906D01*
G01X69100Y133750D02*
X73750D01*
Y146250D01*
X69100D01*
G01X97905Y-180642D02*
X98990Y-179183D01*
X99920Y-178350D01*
X101160Y-177933D01*
X102245Y-178350D01*
X103020Y-179183D01*
X103640Y-180433D01*
X103795Y-181892D01*
X103640Y-183142D01*
X103020Y-184392D01*
X102090Y-185433D01*
X101005Y-185850D01*
X99765Y-185433D01*
X98680Y-184184D01*
X98060Y-182308D01*
X97905Y-180225D01*
X98215Y-177517D01*
X98680Y-176058D01*
X99455Y-174600D01*
X100540Y-173558D01*
X101625Y-173350D01*
X102710Y-173767D01*
X103485Y-174808D01*
G01X110305Y-180642D02*
X111390Y-179183D01*
X112320Y-178350D01*
X113560Y-177933D01*
X114645Y-178350D01*
X115420Y-179183D01*
X116040Y-180433D01*
X116195Y-181892D01*
X116040Y-183142D01*
X115420Y-184392D01*
X114490Y-185433D01*
X113405Y-185850D01*
X112165Y-185433D01*
X111080Y-184184D01*
X110460Y-182308D01*
X110305Y-180225D01*
X110615Y-177517D01*
X111080Y-176058D01*
X111855Y-174600D01*
X112940Y-173558D01*
X114025Y-173350D01*
X115110Y-173767D01*
X115885Y-174808D01*
G01X125650Y-186267D02*
X125340Y-186058D01*
Y-185642D01*
X125650Y-185433D01*
X125960Y-185642D01*
Y-186058D01*
X125650Y-186267D01*
G01X135415Y-184392D02*
X136500Y-185433D01*
X137740Y-185850D01*
X138980Y-185433D01*
X140065Y-184184D01*
X140840Y-182308D01*
X141150Y-180433D01*
Y-178142D01*
X140840Y-176267D01*
X140065Y-174600D01*
X139135Y-173767D01*
X138050Y-173350D01*
X136810Y-173767D01*
X135880Y-174600D01*
X135260Y-175850D01*
X134950Y-177517D01*
X135260Y-178975D01*
X136035Y-180433D01*
X136965Y-181267D01*
X138050Y-181475D01*
X139290Y-181059D01*
X140220Y-180017D01*
X141150Y-178142D01*
G01X147040Y-183350D02*
X147970Y-184809D01*
X149210Y-185642D01*
X150605Y-185850D01*
X151845Y-185642D01*
X153085Y-184600D01*
X153860Y-183350D01*
X154015Y-182100D01*
X153705Y-180642D01*
X152620Y-179600D01*
X151535Y-179183D01*
X150140D01*
G01X151535D02*
X152465Y-178558D01*
X153240Y-177517D01*
X153550Y-176267D01*
X153240Y-175017D01*
X152465Y-173975D01*
X151070Y-173350D01*
X149675Y-173558D01*
X148280Y-174392D01*
G01X160525Y-177517D02*
X165175Y-185850D01*
G01Y-177517D02*
X160525Y-185850D01*
G01X172305Y-175433D02*
X173235Y-174184D01*
X174320Y-173558D01*
X175560Y-173350D01*
X177110Y-173767D01*
X178195Y-174808D01*
X178505Y-176058D01*
X178350Y-177309D01*
X177730Y-178350D01*
X174630Y-180433D01*
X173235Y-181892D01*
X172305Y-183975D01*
X171995Y-185850D01*
X178505D01*
G01X184240Y-183350D02*
X185170Y-184809D01*
X186410Y-185642D01*
X187805Y-185850D01*
X189045Y-185642D01*
X190285Y-184600D01*
X191060Y-183350D01*
X191215Y-182100D01*
X190905Y-180642D01*
X189820Y-179600D01*
X188735Y-179183D01*
X187340D01*
G01X188735D02*
X189665Y-178558D01*
X190440Y-177517D01*
X190750Y-176267D01*
X190440Y-175017D01*
X189665Y-173975D01*
X188270Y-173350D01*
X186875Y-173558D01*
X185480Y-174392D01*
G01X200050Y-186267D02*
X199740Y-186058D01*
Y-185642D01*
X200050Y-185433D01*
X200360Y-185642D01*
Y-186058D01*
X200050Y-186267D01*
G01X209505Y-180642D02*
X210590Y-179183D01*
X211520Y-178350D01*
X212760Y-177933D01*
X213845Y-178350D01*
X214620Y-179183D01*
X215240Y-180433D01*
X215395Y-181892D01*
X215240Y-183142D01*
X214620Y-184392D01*
X213690Y-185433D01*
X212605Y-185850D01*
X211365Y-185433D01*
X210280Y-184184D01*
X209660Y-182308D01*
X209505Y-180225D01*
X209815Y-177517D01*
X210280Y-176058D01*
X211055Y-174600D01*
X212140Y-173558D01*
X213225Y-173350D01*
X214310Y-173767D01*
X215085Y-174808D01*
G01X221905Y-175433D02*
X222835Y-174184D01*
X223920Y-173558D01*
X225160Y-173350D01*
X226710Y-173767D01*
X227795Y-174808D01*
X228105Y-176058D01*
X227950Y-177309D01*
X227330Y-178350D01*
X224230Y-180433D01*
X222835Y-181892D01*
X221905Y-183975D01*
X221595Y-185850D01*
X228105D01*
G01X85505Y-35850D02*
Y-23350D01*
X91395D01*
G01X89225Y-29392D02*
X85505D01*
G01X98990Y-23350D02*
X102710D01*
G01X100850D02*
Y-35850D01*
G01X98990D02*
X102710D01*
G01X109685D02*
Y-23350D01*
X116815Y-35850D01*
Y-23350D01*
G01X123790D02*
X127510D01*
G01X125650D02*
Y-35850D01*
G01X123790D02*
X127510D01*
G01X134795Y-34184D02*
X136035Y-35225D01*
X137430Y-35850D01*
X138670D01*
X139910Y-35225D01*
X140840Y-34184D01*
X141305Y-32725D01*
X140995Y-31267D01*
X140220Y-30017D01*
X138825Y-29183D01*
X136965Y-28767D01*
X135880Y-27933D01*
X135415Y-26475D01*
X135725Y-25017D01*
X136500Y-23975D01*
X137585Y-23350D01*
X138670D01*
X139755Y-23767D01*
X140685Y-24808D01*
G01X147195Y-35850D02*
Y-23350D01*
G01X153705D02*
Y-35850D01*
G01Y-29600D02*
X147195D01*
G01X165950Y-35850D02*
X159750D01*
Y-23350D01*
X165950D01*
G01X163470Y-29392D02*
X159750D01*
G01X171840Y-35850D02*
Y-23350D01*
X174940D01*
X176180Y-23975D01*
X177110Y-24808D01*
X177885Y-26058D01*
X178505Y-27517D01*
X178660Y-29600D01*
X178505Y-31683D01*
X177885Y-33142D01*
X177110Y-34392D01*
X176180Y-35225D01*
X174940Y-35850D01*
X171840D01*
G01X183000Y-40017D02*
X192300D01*
G01X196795Y-34184D02*
X198035Y-35225D01*
X199430Y-35850D01*
X200670D01*
X201910Y-35225D01*
X202840Y-34184D01*
X203305Y-32725D01*
X202995Y-31267D01*
X202220Y-30017D01*
X200825Y-29183D01*
X198965Y-28767D01*
X197880Y-27933D01*
X197415Y-26475D01*
X197725Y-25017D01*
X198500Y-23975D01*
X199585Y-23350D01*
X200670D01*
X201755Y-23767D01*
X202685Y-24808D01*
G01X210590Y-23350D02*
X214310D01*
G01X212450D02*
Y-35850D01*
G01X210590D02*
X214310D01*
G01X221905Y-23350D02*
X227795D01*
X221905Y-35850D01*
X227795D01*
G01X240350D02*
X234150D01*
Y-23350D01*
X240350D01*
G01X237870Y-29392D02*
X234150D01*
G01X92325Y-10850D02*
X96200Y1650D01*
X100075Y-10850D01*
G01X98680Y-6475D02*
X93720D01*
G01X105500Y1650D02*
Y-10850D01*
X111700D01*
G01X117900Y1650D02*
Y-10850D01*
X124100D01*
G01X142390Y1650D02*
Y-7308D01*
X143010Y-9184D01*
X144250Y-10433D01*
X145800Y-10850D01*
X147350Y-10433D01*
X148590Y-9184D01*
X149210Y-7308D01*
Y1650D01*
G01X154635Y-10850D02*
Y1650D01*
X161765Y-10850D01*
Y1650D01*
G01X168740D02*
X172460D01*
G01X170600D02*
Y-10850D01*
G01X168740D02*
X172460D01*
G01X183000Y1650D02*
Y-10850D01*
G01X179435Y1650D02*
X186565D01*
G01X192145Y-9184D02*
X193385Y-10225D01*
X194780Y-10850D01*
X196020D01*
X197260Y-10225D01*
X198190Y-9184D01*
X198655Y-7725D01*
X198345Y-6267D01*
X197570Y-5017D01*
X196175Y-4183D01*
X194315Y-3767D01*
X193230Y-2933D01*
X192765Y-1475D01*
X193075Y-17D01*
X193850Y1025D01*
X194935Y1650D01*
X196020D01*
X197105Y1233D01*
X198035Y192D01*
G01X216325Y-10850D02*
X220200Y1650D01*
X224075Y-10850D01*
G01X222680Y-6475D02*
X217720D01*
G01X229500Y-10850D02*
Y1650D01*
X233375D01*
X234615Y1025D01*
X235390Y192D01*
X235700Y-1475D01*
X235390Y-3142D01*
X234460Y-4183D01*
X233375Y-4808D01*
X229500D01*
G01X233375D02*
X235700Y-10850D01*
G01X248100D02*
X241900D01*
Y1650D01*
X248100D01*
G01X245620Y-4392D02*
X241900D01*
G01X267940Y1650D02*
X271660D01*
G01X269800D02*
Y-10850D01*
G01X267940D02*
X271660D01*
G01X278635D02*
Y1650D01*
X285765Y-10850D01*
Y1650D01*
G01X302970Y-10850D02*
Y1650D01*
X307000Y-8767D01*
X311030Y1650D01*
Y-10850D01*
G01X317540Y1650D02*
X321260D01*
G01X319400D02*
Y-10850D01*
G01X317540D02*
X321260D01*
G01X328700Y1650D02*
Y-10850D01*
X334900D01*
G01X340945Y-9184D02*
X342185Y-10225D01*
X343580Y-10850D01*
X344820D01*
X346060Y-10225D01*
X346990Y-9184D01*
X347455Y-7725D01*
X347145Y-6267D01*
X346370Y-5017D01*
X344975Y-4183D01*
X343115Y-3767D01*
X342030Y-2933D01*
X341565Y-1475D01*
X341875Y-17D01*
X342650Y1025D01*
X343735Y1650D01*
X344820D01*
X345905Y1233D01*
X346835Y192D01*
G01X135105Y-150433D02*
X136035Y-149184D01*
X137120Y-148558D01*
X138360Y-148350D01*
X139910Y-148767D01*
X140995Y-149808D01*
X141305Y-151058D01*
X141150Y-152309D01*
X140530Y-153350D01*
X137430Y-155433D01*
X136035Y-156892D01*
X135105Y-158975D01*
X134795Y-160850D01*
X141305D01*
G01X147040Y-158975D02*
X147970Y-160017D01*
X149055Y-160642D01*
X150450Y-160850D01*
X151845Y-160433D01*
X152930Y-159600D01*
X153705Y-158142D01*
X153860Y-156475D01*
X153550Y-154808D01*
X152775Y-153767D01*
X151690Y-152933D01*
X150605Y-152725D01*
X149520Y-152933D01*
X148125Y-153767D01*
X148590Y-148350D01*
X152775D01*
G01X162850Y-161267D02*
X162540Y-161058D01*
Y-160642D01*
X162850Y-160433D01*
X163160Y-160642D01*
Y-161058D01*
X162850Y-161267D01*
G01X171840Y-158975D02*
X172770Y-160017D01*
X173855Y-160642D01*
X175250Y-160850D01*
X176645Y-160433D01*
X177730Y-159600D01*
X178505Y-158142D01*
X178660Y-156475D01*
X178350Y-154808D01*
X177575Y-153767D01*
X176490Y-152933D01*
X175405Y-152725D01*
X174320Y-152933D01*
X172925Y-153767D01*
X173390Y-148350D01*
X177575D01*
G01X185015Y-159392D02*
X186100Y-160433D01*
X187340Y-160850D01*
X188580Y-160433D01*
X189665Y-159184D01*
X190440Y-157308D01*
X190750Y-155433D01*
Y-153142D01*
X190440Y-151267D01*
X189665Y-149600D01*
X188735Y-148767D01*
X187650Y-148350D01*
X186410Y-148767D01*
X185480Y-149600D01*
X184860Y-150850D01*
X184550Y-152517D01*
X184860Y-153975D01*
X185635Y-155433D01*
X186565Y-156267D01*
X187650Y-156475D01*
X188890Y-156059D01*
X189820Y-155017D01*
X190750Y-153142D01*
G01X134640Y-133975D02*
X135570Y-135017D01*
X136655Y-135642D01*
X138050Y-135850D01*
X139445Y-135433D01*
X140530Y-134600D01*
X141305Y-133142D01*
X141460Y-131475D01*
X141150Y-129808D01*
X140375Y-128767D01*
X139290Y-127933D01*
X138205Y-127725D01*
X137120Y-127933D01*
X135725Y-128767D01*
X136190Y-123350D01*
X140375D01*
G01X147040Y-133975D02*
X147970Y-135017D01*
X149055Y-135642D01*
X150450Y-135850D01*
X151845Y-135433D01*
X152930Y-134600D01*
X153705Y-133142D01*
X153860Y-131475D01*
X153550Y-129808D01*
X152775Y-128767D01*
X151690Y-127933D01*
X150605Y-127725D01*
X149520Y-127933D01*
X148125Y-128767D01*
X148590Y-123350D01*
X152775D01*
G01X162850Y-136267D02*
X162540Y-136058D01*
Y-135642D01*
X162850Y-135433D01*
X163160Y-135642D01*
Y-136058D01*
X162850Y-136267D01*
G01X175250Y-135850D02*
Y-123350D01*
X173390Y-125850D01*
G01Y-135850D02*
X177110D01*
G01X184705Y-125433D02*
X185635Y-124184D01*
X186720Y-123558D01*
X187960Y-123350D01*
X189510Y-123767D01*
X190595Y-124808D01*
X190905Y-126058D01*
X190750Y-127309D01*
X190130Y-128350D01*
X187030Y-130433D01*
X185635Y-131892D01*
X184705Y-133975D01*
X184395Y-135850D01*
X190905D01*
G01X139910Y-110850D02*
Y-98350D01*
X134175Y-107308D01*
X141925D01*
G01X147040Y-108350D02*
X147970Y-109809D01*
X149210Y-110642D01*
X150605Y-110850D01*
X151845Y-110642D01*
X153085Y-109600D01*
X153860Y-108350D01*
X154015Y-107100D01*
X153705Y-105642D01*
X152620Y-104600D01*
X151535Y-104183D01*
X150140D01*
G01X151535D02*
X152465Y-103558D01*
X153240Y-102517D01*
X153550Y-101267D01*
X153240Y-100017D01*
X152465Y-98975D01*
X151070Y-98350D01*
X149675Y-98558D01*
X148280Y-99392D01*
G01X162850Y-111267D02*
X162540Y-111058D01*
Y-110642D01*
X162850Y-110433D01*
X163160Y-110642D01*
Y-111058D01*
X162850Y-111267D01*
G01X171840Y-108350D02*
X172770Y-109809D01*
X174010Y-110642D01*
X175405Y-110850D01*
X176645Y-110642D01*
X177885Y-109600D01*
X178660Y-108350D01*
X178815Y-107100D01*
X178505Y-105642D01*
X177420Y-104600D01*
X176335Y-104183D01*
X174940D01*
G01X176335D02*
X177265Y-103558D01*
X178040Y-102517D01*
X178350Y-101267D01*
X178040Y-100017D01*
X177265Y-98975D01*
X175870Y-98350D01*
X174475Y-98558D01*
X173080Y-99392D01*
G01X187650Y-110850D02*
Y-98350D01*
X185790Y-100850D01*
G01Y-110850D02*
X189510D01*
G01X139910Y-85850D02*
Y-73350D01*
X134175Y-82308D01*
X141925D01*
G01X150450Y-85850D02*
Y-73350D01*
X148590Y-75850D01*
G01Y-85850D02*
X152310D01*
G01X162850Y-86267D02*
X162540Y-86058D01*
Y-85642D01*
X162850Y-85433D01*
X163160Y-85642D01*
Y-86058D01*
X162850Y-86267D01*
G01X171840Y-83350D02*
X172770Y-84809D01*
X174010Y-85642D01*
X175405Y-85850D01*
X176645Y-85642D01*
X177885Y-84600D01*
X178660Y-83350D01*
X178815Y-82100D01*
X178505Y-80642D01*
X177420Y-79600D01*
X176335Y-79183D01*
X174940D01*
G01X176335D02*
X177265Y-78558D01*
X178040Y-77517D01*
X178350Y-76267D01*
X178040Y-75017D01*
X177265Y-73975D01*
X175870Y-73350D01*
X174475Y-73558D01*
X173080Y-74392D01*
G01X189510Y-85850D02*
Y-73350D01*
X183775Y-82308D01*
X191525D01*
G01X138050Y-60850D02*
Y-48350D01*
X136190Y-50850D01*
G01Y-60850D02*
X139910D01*
G01X150450D02*
Y-48350D01*
X148590Y-50850D01*
G01Y-60850D02*
X152310D01*
G01X162850Y-61267D02*
X162540Y-61058D01*
Y-60642D01*
X162850Y-60433D01*
X163160Y-60642D01*
Y-61058D01*
X162850Y-61267D01*
G01X175250Y-60850D02*
X176335Y-60642D01*
X177575Y-60017D01*
X178350Y-58975D01*
X178660Y-57517D01*
X178350Y-56059D01*
X177420Y-54808D01*
X176025Y-54183D01*
X174475D01*
X173545Y-53767D01*
X172770Y-52725D01*
X172460Y-51267D01*
X172925Y-49808D01*
X174010Y-48767D01*
X175250Y-48350D01*
X176490Y-48767D01*
X177575Y-49808D01*
X178040Y-51267D01*
X177730Y-52725D01*
X176955Y-53767D01*
X176025Y-54183D01*
X174475D01*
X173080Y-54808D01*
X172150Y-56059D01*
X171840Y-57517D01*
X172150Y-58975D01*
X172925Y-60017D01*
X174165Y-60642D01*
X175250Y-60850D01*
G01X187650D02*
Y-48350D01*
X185790Y-50850D01*
G01Y-60850D02*
X189510D01*
G01X158955Y67667D02*
X159885Y68916D01*
X160970Y69542D01*
X162210Y69750D01*
X163760Y69333D01*
X164845Y68292D01*
X165155Y67042D01*
X165000Y65791D01*
X164380Y64750D01*
X161280Y62667D01*
X159885Y61208D01*
X158955Y59125D01*
X158645Y57250D01*
X165155D01*
G01X174300Y56833D02*
X173990Y57042D01*
Y57458D01*
X174300Y57667D01*
X174610Y57458D01*
Y57042D01*
X174300Y56833D01*
G01X183290Y59750D02*
X184220Y58291D01*
X185460Y57458D01*
X186855Y57250D01*
X188095Y57458D01*
X189335Y58500D01*
X190110Y59750D01*
X190265Y61000D01*
X189955Y62458D01*
X188870Y63500D01*
X187785Y63917D01*
X186390D01*
G01X187785D02*
X188715Y64542D01*
X189490Y65583D01*
X189800Y66833D01*
X189490Y68083D01*
X188715Y69125D01*
X187320Y69750D01*
X185925Y69542D01*
X184530Y68708D01*
G01X196155Y62458D02*
X197240Y63917D01*
X198170Y64750D01*
X199410Y65167D01*
X200495Y64750D01*
X201270Y63917D01*
X201890Y62667D01*
X202045Y61208D01*
X201890Y59958D01*
X201270Y58708D01*
X200340Y57667D01*
X199255Y57250D01*
X198015Y57667D01*
X196930Y58916D01*
X196310Y60792D01*
X196155Y62875D01*
X196465Y65583D01*
X196930Y67042D01*
X197705Y68500D01*
X198790Y69542D01*
X199875Y69750D01*
X200960Y69333D01*
X201735Y68292D01*
G01X230455Y62458D02*
X231540Y63917D01*
X232470Y64750D01*
X233710Y65167D01*
X234795Y64750D01*
X235570Y63917D01*
X236190Y62667D01*
X236345Y61208D01*
X236190Y59958D01*
X235570Y58708D01*
X234640Y57667D01*
X233555Y57250D01*
X232315Y57667D01*
X231230Y58916D01*
X230610Y60792D01*
X230455Y62875D01*
X230765Y65583D01*
X231230Y67042D01*
X232005Y68500D01*
X233090Y69542D01*
X234175Y69750D01*
X235260Y69333D01*
X236035Y68292D01*
G01X245800Y69750D02*
X244560Y69333D01*
X243630Y68292D01*
X243010Y67042D01*
X242545Y65375D01*
X242390Y63500D01*
X242545Y61625D01*
X243010Y59958D01*
X243630Y58708D01*
X244560Y57667D01*
X245800Y57250D01*
X247040Y57667D01*
X247970Y58708D01*
X248590Y59958D01*
X249055Y61625D01*
X249210Y63500D01*
X249055Y65375D01*
X248590Y67042D01*
X247970Y68292D01*
X247040Y69333D01*
X245800Y69750D01*
G01X224100Y57250D02*
X219450D01*
Y69750D01*
X224100D01*
G01X255100Y57250D02*
X259750D01*
Y69750D01*
X255100D01*
G01X263600Y-17100D02*
Y-192100D01*
G01X267785Y-160850D02*
Y-148350D01*
X274915Y-160850D01*
Y-148350D01*
G01X283750Y-160850D02*
X282510Y-160642D01*
X281425Y-159809D01*
X280495Y-158558D01*
X279875Y-157100D01*
X279565Y-155433D01*
Y-153767D01*
X279875Y-152100D01*
X280495Y-150642D01*
X281425Y-149392D01*
X282510Y-148558D01*
X283750Y-148350D01*
X284990Y-148558D01*
X286075Y-149392D01*
X287005Y-150642D01*
X287625Y-152100D01*
X287935Y-153767D01*
Y-155433D01*
X287625Y-157100D01*
X287005Y-158558D01*
X286075Y-159809D01*
X284990Y-160642D01*
X283750Y-160850D01*
G01X292585D02*
Y-148350D01*
X299715Y-160850D01*
Y-148350D01*
G01X306535Y-156683D02*
X310565D01*
G01X317850Y-160850D02*
Y-148350D01*
X321570D01*
X322810Y-148975D01*
X323740Y-150433D01*
X324050Y-152100D01*
X323740Y-153767D01*
X322965Y-155017D01*
X321570Y-155642D01*
X317850D01*
G01X330250Y-148350D02*
Y-160850D01*
X336450D01*
G01X341875D02*
X345750Y-148350D01*
X349625Y-160850D01*
G01X348230Y-156475D02*
X343270D01*
G01X358150Y-148350D02*
Y-160850D01*
G01X354585Y-148350D02*
X361715D01*
G01X373650Y-160850D02*
X367450D01*
Y-148350D01*
X373650D01*
G01X371170Y-154392D02*
X367450D01*
G01X379540Y-160850D02*
Y-148350D01*
X382640D01*
X383880Y-148975D01*
X384810Y-149808D01*
X385585Y-151058D01*
X386205Y-152517D01*
X386360Y-154600D01*
X386205Y-156683D01*
X385585Y-158142D01*
X384810Y-159392D01*
X383880Y-160225D01*
X382640Y-160850D01*
X379540D01*
G01X269125Y63500D02*
X316220D01*
G01X293050Y-185850D02*
Y-173350D01*
X296770D01*
X298010Y-173975D01*
X298940Y-175433D01*
X299250Y-177100D01*
X298940Y-178767D01*
X298165Y-180017D01*
X296770Y-180642D01*
X293050D01*
G01X305450Y-173350D02*
Y-185850D01*
X311650D01*
G01X317075D02*
X320950Y-173350D01*
X324825Y-185850D01*
G01X323430Y-181475D02*
X318470D01*
G01X333350Y-173350D02*
Y-185850D01*
G01X329785Y-173350D02*
X336915D01*
G01X348850Y-185850D02*
X342650D01*
Y-173350D01*
X348850D01*
G01X346370Y-179392D02*
X342650D01*
G01X354740Y-185850D02*
Y-173350D01*
X357840D01*
X359080Y-173975D01*
X360010Y-174808D01*
X360785Y-176058D01*
X361405Y-177517D01*
X361560Y-179600D01*
X361405Y-181683D01*
X360785Y-183142D01*
X360010Y-184392D01*
X359080Y-185225D01*
X357840Y-185850D01*
X354740D01*
G01X293050Y-135850D02*
Y-123350D01*
X296770D01*
X298010Y-123975D01*
X298940Y-125433D01*
X299250Y-127100D01*
X298940Y-128767D01*
X298165Y-130017D01*
X296770Y-130642D01*
X293050D01*
G01X305450Y-123350D02*
Y-135850D01*
X311650D01*
G01X317075D02*
X320950Y-123350D01*
X324825Y-135850D01*
G01X323430Y-131475D02*
X318470D01*
G01X333350Y-123350D02*
Y-135850D01*
G01X329785Y-123350D02*
X336915D01*
G01X348850Y-135850D02*
X342650D01*
Y-123350D01*
X348850D01*
G01X346370Y-129392D02*
X342650D01*
G01X354740Y-135850D02*
Y-123350D01*
X357840D01*
X359080Y-123975D01*
X360010Y-124808D01*
X360785Y-126058D01*
X361405Y-127517D01*
X361560Y-129600D01*
X361405Y-131683D01*
X360785Y-133142D01*
X360010Y-134392D01*
X359080Y-135225D01*
X357840Y-135850D01*
X354740D01*
G01X293050Y-110850D02*
Y-98350D01*
X296770D01*
X298010Y-98975D01*
X298940Y-100433D01*
X299250Y-102100D01*
X298940Y-103767D01*
X298165Y-105017D01*
X296770Y-105642D01*
X293050D01*
G01X305450Y-98350D02*
Y-110850D01*
X311650D01*
G01X317075D02*
X320950Y-98350D01*
X324825Y-110850D01*
G01X323430Y-106475D02*
X318470D01*
G01X333350Y-98350D02*
Y-110850D01*
G01X329785Y-98350D02*
X336915D01*
G01X348850Y-110850D02*
X342650D01*
Y-98350D01*
X348850D01*
G01X346370Y-104392D02*
X342650D01*
G01X354740Y-110850D02*
Y-98350D01*
X357840D01*
X359080Y-98975D01*
X360010Y-99808D01*
X360785Y-101058D01*
X361405Y-102517D01*
X361560Y-104600D01*
X361405Y-106683D01*
X360785Y-108142D01*
X360010Y-109392D01*
X359080Y-110225D01*
X357840Y-110850D01*
X354740D01*
G01X293050Y-85850D02*
Y-73350D01*
X296770D01*
X298010Y-73975D01*
X298940Y-75433D01*
X299250Y-77100D01*
X298940Y-78767D01*
X298165Y-80017D01*
X296770Y-80642D01*
X293050D01*
G01X305450Y-73350D02*
Y-85850D01*
X311650D01*
G01X317075D02*
X320950Y-73350D01*
X324825Y-85850D01*
G01X323430Y-81475D02*
X318470D01*
G01X333350Y-73350D02*
Y-85850D01*
G01X329785Y-73350D02*
X336915D01*
G01X348850Y-85850D02*
X342650D01*
Y-73350D01*
X348850D01*
G01X346370Y-79392D02*
X342650D01*
G01X354740Y-85850D02*
Y-73350D01*
X357840D01*
X359080Y-73975D01*
X360010Y-74808D01*
X360785Y-76058D01*
X361405Y-77517D01*
X361560Y-79600D01*
X361405Y-81683D01*
X360785Y-83142D01*
X360010Y-84392D01*
X359080Y-85225D01*
X357840Y-85850D01*
X354740D01*
G01X293050Y-60850D02*
Y-48350D01*
X296770D01*
X298010Y-48975D01*
X298940Y-50433D01*
X299250Y-52100D01*
X298940Y-53767D01*
X298165Y-55017D01*
X296770Y-55642D01*
X293050D01*
G01X305450Y-48350D02*
Y-60850D01*
X311650D01*
G01X317075D02*
X320950Y-48350D01*
X324825Y-60850D01*
G01X323430Y-56475D02*
X318470D01*
G01X333350Y-48350D02*
Y-60850D01*
G01X329785Y-48350D02*
X336915D01*
G01X348850Y-60850D02*
X342650D01*
Y-48350D01*
X348850D01*
G01X346370Y-54392D02*
X342650D01*
G01X354740Y-60850D02*
Y-48350D01*
X357840D01*
X359080Y-48975D01*
X360010Y-49808D01*
X360785Y-51058D01*
X361405Y-52517D01*
X361560Y-54600D01*
X361405Y-56683D01*
X360785Y-58142D01*
X360010Y-59392D01*
X359080Y-60225D01*
X357840Y-60850D01*
X354740D01*
G01X293050Y-35850D02*
Y-23350D01*
X296770D01*
X298010Y-23975D01*
X298940Y-25433D01*
X299250Y-27100D01*
X298940Y-28767D01*
X298165Y-30017D01*
X296770Y-30642D01*
X293050D01*
G01X305450Y-23350D02*
Y-35850D01*
X311650D01*
G01X317075D02*
X320950Y-23350D01*
X324825Y-35850D01*
G01X323430Y-31475D02*
X318470D01*
G01X333350Y-23350D02*
Y-35850D01*
G01X329785Y-23350D02*
X336915D01*
G01X348850Y-35850D02*
X342650D01*
Y-23350D01*
X348850D01*
G01X346370Y-29392D02*
X342650D01*
G01X354740Y-35850D02*
Y-23350D01*
X357840D01*
X359080Y-23975D01*
X360010Y-24808D01*
X360785Y-26058D01*
X361405Y-27517D01*
X361560Y-29600D01*
X361405Y-31683D01*
X360785Y-33142D01*
X360010Y-34392D01*
X359080Y-35225D01*
X357840Y-35850D01*
X354740D01*
G01X316220Y109218D02*
Y53657D01*
G01X300472Y61040D02*
X316220Y63500D01*
X300472Y65960D01*
Y61040D01*
G01X390700Y-17100D02*
Y-192100D01*
G01X414105Y-50433D02*
X415035Y-49184D01*
X416120Y-48558D01*
X417360Y-48350D01*
X418910Y-48767D01*
X419995Y-49808D01*
X420305Y-51058D01*
X420150Y-52309D01*
X419530Y-53350D01*
X416430Y-55433D01*
X415035Y-56892D01*
X414105Y-58975D01*
X413795Y-60850D01*
X420305D01*
G01X429450Y-48350D02*
X428210Y-48767D01*
X427280Y-49808D01*
X426660Y-51058D01*
X426195Y-52725D01*
X426040Y-54600D01*
X426195Y-56475D01*
X426660Y-58142D01*
X427280Y-59392D01*
X428210Y-60433D01*
X429450Y-60850D01*
X430690Y-60433D01*
X431620Y-59392D01*
X432240Y-58142D01*
X432705Y-56475D01*
X432860Y-54600D01*
X432705Y-52725D01*
X432240Y-51058D01*
X431620Y-49808D01*
X430690Y-48767D01*
X429450Y-48350D01*
G01X441850Y-60850D02*
X442935Y-60642D01*
X444175Y-60017D01*
X444950Y-58975D01*
X445260Y-57517D01*
X444950Y-56059D01*
X444020Y-54808D01*
X442625Y-54183D01*
X441075D01*
X440145Y-53767D01*
X439370Y-52725D01*
X439060Y-51267D01*
X439525Y-49808D01*
X440610Y-48767D01*
X441850Y-48350D01*
X443090Y-48767D01*
X444175Y-49808D01*
X444640Y-51267D01*
X444330Y-52725D01*
X443555Y-53767D01*
X442625Y-54183D01*
X441075D01*
X439680Y-54808D01*
X438750Y-56059D01*
X438440Y-57517D01*
X438750Y-58975D01*
X439525Y-60017D01*
X440765Y-60642D01*
X441850Y-60850D01*
G01X417050Y-35850D02*
X415810Y-35642D01*
X414725Y-34809D01*
X413795Y-33558D01*
X413175Y-32100D01*
X412865Y-30433D01*
Y-28767D01*
X413175Y-27100D01*
X413795Y-25642D01*
X414725Y-24392D01*
X415810Y-23558D01*
X417050Y-23350D01*
X418290Y-23558D01*
X419375Y-24392D01*
X420305Y-25642D01*
X420925Y-27100D01*
X421235Y-28767D01*
Y-30433D01*
X420925Y-32100D01*
X420305Y-33558D01*
X419375Y-34809D01*
X418290Y-35642D01*
X417050Y-35850D01*
G01X418290Y-32517D02*
X420150Y-35850D01*
G01X429450Y-23350D02*
Y-35850D01*
G01X425885Y-23350D02*
X433015D01*
G01X441850Y-35850D02*
Y-30225D01*
X438750Y-23350D01*
G01X444950D02*
X441850Y-30225D01*
G01X431310Y-185850D02*
Y-173350D01*
X425575Y-182308D01*
X433325D01*
G01X426505Y-150433D02*
X427435Y-149184D01*
X428520Y-148558D01*
X429760Y-148350D01*
X431310Y-148767D01*
X432395Y-149808D01*
X432705Y-151058D01*
X432550Y-152309D01*
X431930Y-153350D01*
X428830Y-155433D01*
X427435Y-156892D01*
X426505Y-158975D01*
X426195Y-160850D01*
X432705D01*
G01X431310Y-135850D02*
Y-123350D01*
X425575Y-132308D01*
X433325D01*
G01X419840Y-108350D02*
X420770Y-109809D01*
X422010Y-110642D01*
X423405Y-110850D01*
X424645Y-110642D01*
X425885Y-109600D01*
X426660Y-108350D01*
X426815Y-107100D01*
X426505Y-105642D01*
X425420Y-104600D01*
X424335Y-104183D01*
X422940D01*
G01X424335D02*
X425265Y-103558D01*
X426040Y-102517D01*
X426350Y-101267D01*
X426040Y-100017D01*
X425265Y-98975D01*
X423870Y-98350D01*
X422475Y-98558D01*
X421080Y-99392D01*
G01X437510Y-110850D02*
Y-98350D01*
X431775Y-107308D01*
X439525D01*
G01X429450Y-85850D02*
X430535Y-85642D01*
X431775Y-85017D01*
X432550Y-83975D01*
X432860Y-82517D01*
X432550Y-81059D01*
X431620Y-79808D01*
X430225Y-79183D01*
X428675D01*
X427745Y-78767D01*
X426970Y-77725D01*
X426660Y-76267D01*
X427125Y-74808D01*
X428210Y-73767D01*
X429450Y-73350D01*
X430690Y-73767D01*
X431775Y-74808D01*
X432240Y-76267D01*
X431930Y-77725D01*
X431155Y-78767D01*
X430225Y-79183D01*
X428675D01*
X427280Y-79808D01*
X426350Y-81059D01*
X426040Y-82517D01*
X426350Y-83975D01*
X427125Y-85017D01*
X428365Y-85642D01*
X429450Y-85850D01*
M02*
