G04 ================== begin FILE IDENTIFICATION RECORD ==================*
G04 Layout Name:  C:/tempPCBDir/da63df5eb16a2966413e2d3adebf328a/HQBrdTmp.brd*
G04 Film Name:    TOP*
G04 File Format:  Gerber RS274X*
G04 File Origin:  Cadence Allegro -unreleased*
G04 Origin Date:  Thu Nov 30 17:35:43 2023*
G04 *
G04 Layer:  ETCH/TOP*
G04 Layer:  PIN/TOP*
G04 Layer:  VIA CLASS/TOP*
G04 *
G04 Offset:    (0.00 0.00)*
G04 Mirror:    No*
G04 Mode:      Positive*
G04 Rotation:  0*
G04 FullContactRelief:  No*
G04 UndefLineWidth:     0.11*
G04 ================== end FILE IDENTIFICATION RECORD ====================*
%FSLAX25Y25*MOIN*%
%IR0*IPPOS*OFA0.00000B0.00000*MIA0B0*SFA1.00000B1.00000*%
%AMMACRO27*
4,1,44,-.02884,.01309,
-.02884,-.01309,
-.028721,-.014457,
-.028367,-.015782,
-.027788,-.017026,
-.027002,-.01815,
-.026033,-.019121,
-.024909,-.019908,
-.023666,-.020489,
-.022342,-.020845,
-.020975,-.020965,
-.02097,-.02096,
.02097,-.02096,
.022337,-.020845,
.023662,-.02049,
.024905,-.019911,
.026029,-.019124,
.026999,-.018154,
.027786,-.01703,
.028365,-.015787,
.02872,-.014462,
.02884,-.013095,
.02884,-.01309,
.02884,.01309,
.028721,.014457,
.028367,.015782,
.027788,.017026,
.027002,.01815,
.026033,.019121,
.024909,.019908,
.023666,.020489,
.022342,.020845,
.020975,.020965,
.02097,.02096,
-.02097,.02096,
-.022337,.020845,
-.023662,.02049,
-.024905,.019911,
-.026029,.019124,
-.026999,.018154,
-.027786,.01703,
-.028365,.015787,
-.02872,.014462,
-.02884,.013095,
-.02884,.01309,
0.0*
%
%ADD27MACRO27*%
%AMMACRO28*
4,1,44,.01211,.02391,
-.01211,.02391,
-.013477,.023795,
-.014802,.02344,
-.016045,.022861,
-.017169,.022074,
-.018139,.021104,
-.018926,.01998,
-.019505,.018737,
-.01986,.017412,
-.01998,.016045,
-.01998,.01604,
-.01998,-.01604,
-.019861,-.017407,
-.019507,-.018732,
-.018928,-.019976,
-.018142,-.0211,
-.017173,-.022071,
-.016049,-.022858,
-.014806,-.023439,
-.013482,-.023795,
-.012115,-.023915,
-.01211,-.02391,
.01211,-.02391,
.013477,-.023795,
.014802,-.02344,
.016045,-.022861,
.017169,-.022074,
.018139,-.021104,
.018926,-.01998,
.019505,-.018737,
.01986,-.017412,
.01998,-.016045,
.01998,-.01604,
.01998,.01604,
.019861,.017407,
.019507,.018732,
.018928,.019976,
.018142,.0211,
.017173,.022071,
.016049,.022858,
.014806,.023439,
.013482,.023795,
.012115,.023915,
.01211,.02391,
0.0*
%
%ADD28MACRO28*%
%ADD44C,.0622*%
%ADD11C,.02362*%
%AMMACRO43*
4,1,44,-.02096,-.0059,
.02096,-.0059,
.021337,-.005872,
.021702,-.005774,
.022045,-.005614,
.022355,-.005397,
.022622,-.00513,
.022839,-.00482,
.022999,-.004477,
.023097,-.004112,
.02313,-.003735,
.02313,-.00373,
.02313,.00373,
.023098,.004107,
.023001,.004472,
.022842,.004816,
.022626,.005126,
.022359,.005394,
.022049,.005612,
.021707,.005772,
.021342,.005871,
.020965,.005905,
.02096,.0059,
-.02096,.0059,
-.021337,.005872,
-.021702,.005774,
-.022045,.005614,
-.022355,.005397,
-.022622,.00513,
-.022839,.00482,
-.022999,.004477,
-.023097,.004112,
-.02313,.003735,
-.02313,.00373,
-.02313,-.00373,
-.023098,-.004107,
-.023001,-.004472,
-.022842,-.004816,
-.022626,-.005126,
-.022359,-.005394,
-.022049,-.005612,
-.021707,-.005772,
-.021342,-.005871,
-.020965,-.005905,
-.02096,-.0059,
0.0*
%
%ADD43MACRO43*%
%AMMACRO40*
4,1,44,.0059,-.02096,
.0059,.02096,
.005872,.021337,
.005774,.021702,
.005614,.022045,
.005397,.022355,
.00513,.022622,
.00482,.022839,
.004477,.022999,
.004112,.023097,
.003735,.02313,
.00373,.02313,
-.00373,.02313,
-.004107,.023098,
-.004472,.023001,
-.004816,.022842,
-.005126,.022626,
-.005394,.022359,
-.005612,.022049,
-.005772,.021707,
-.005871,.021342,
-.005905,.020965,
-.0059,.02096,
-.0059,-.02096,
-.005872,-.021337,
-.005774,-.021702,
-.005614,-.022045,
-.005397,-.022355,
-.00513,-.022622,
-.00482,-.022839,
-.004477,-.022999,
-.004112,-.023097,
-.003735,-.02313,
-.00373,-.02313,
.00373,-.02313,
.004107,-.023098,
.004472,-.023001,
.004816,-.022842,
.005126,-.022626,
.005394,-.022359,
.005612,-.022049,
.005772,-.021707,
.005871,-.021342,
.005905,-.020965,
.0059,-.02096,
0.0*
%
%ADD40MACRO40*%
%ADD45R,.0622X.0622*%
%ADD16C,.02559*%
%ADD13C,.03937*%
%AMMACRO24*
4,1,44,-.01616,-.01096,
.01616,-.01096,
.01711,-.010883,
.018031,-.010637,
.018896,-.010235,
.019677,-.009688,
.020352,-.009015,
.0209,-.008234,
.021303,-.007371,
.021551,-.00645,
.021635,-.0055,
.02163,-.00549,
.02163,.00549,
.021553,.00644,
.021307,.007361,
.020905,.008226,
.020358,.009007,
.019685,.009682,
.018904,.01023,
.018041,.010633,
.01712,.010881,
.01617,.010965,
.01616,.01096,
-.01616,.01096,
-.01711,.010883,
-.018031,.010637,
-.018896,.010235,
-.019677,.009688,
-.020352,.009015,
-.0209,.008234,
-.021303,.007371,
-.021551,.00645,
-.021635,.0055,
-.02163,.00549,
-.02163,-.00549,
-.021553,-.00644,
-.021307,-.007361,
-.020905,-.008226,
-.020358,-.009007,
-.019685,-.009682,
-.018904,-.01023,
-.018041,-.010633,
-.01712,-.010881,
-.01617,-.010965,
-.01616,-.01096,
0.0*
%
%ADD24MACRO24*%
%AMMACRO19*
4,1,44,-.00565,-.01141,
.00565,-.01141,
.006635,-.011329,
.007589,-.011073,
.008485,-.010655,
.009295,-.010088,
.009993,-.00939,
.01056,-.00858,
.010978,-.007684,
.011234,-.00673,
.01132,-.005745,
.01132,-.00574,
.01132,.00574,
.011235,.006725,
.01098,.00768,
.010563,.008576,
.009997,.009386,
.009298,.010085,
.008489,.010653,
.007594,.011071,
.00664,.011328,
.005655,.011415,
.00565,.01141,
-.00565,.01141,
-.006635,.011329,
-.007589,.011073,
-.008485,.010655,
-.009295,.010088,
-.009993,.00939,
-.01056,.00858,
-.010978,.007684,
-.011234,.00673,
-.01132,.005745,
-.01132,.00574,
-.01132,-.00574,
-.011235,-.006725,
-.01098,-.00768,
-.010563,-.008576,
-.009997,-.009386,
-.009298,-.010085,
-.008489,-.010653,
-.007594,-.011071,
-.00664,-.011328,
-.005655,-.011415,
-.00565,-.01141,
0.0*
%
%ADD19MACRO19*%
%AMMACRO37*
4,1,44,-.01525,-.02854,
.01525,-.02854,
.016104,-.028471,
.016933,-.02825,
.017711,-.027888,
.018414,-.027397,
.019021,-.026791,
.019513,-.026089,
.019877,-.025312,
.020099,-.024484,
.020175,-.02363,
.02017,-.02362,
.02017,.02362,
.020101,.024474,
.01988,.025303,
.019518,.026081,
.019027,.026784,
.018421,.027391,
.017719,.027883,
.016942,.028247,
.016114,.028469,
.01526,.028545,
.01525,.02854,
-.01525,.02854,
-.016104,.028471,
-.016933,.02825,
-.017711,.027888,
-.018414,.027397,
-.019021,.026791,
-.019513,.026089,
-.019877,.025312,
-.020099,.024484,
-.020175,.02363,
-.02017,.02362,
-.02017,-.02362,
-.020101,-.024474,
-.01988,-.025303,
-.019518,-.026081,
-.019027,-.026784,
-.018421,-.027391,
-.017719,-.027883,
-.016942,-.028247,
-.016114,-.028469,
-.01526,-.028545,
-.01525,-.02854,
0.0*
%
%ADD37MACRO37*%
%AMMACRO31*
4,1,44,.01238,-.01409,
.01238,.01409,
.012287,.015163,
.012009,.016204,
.011555,.017181,
.010937,.018064,
.010176,.018826,
.009294,.019445,
.008318,.019901,
.007278,.02018,
.006205,.020275,
.0062,.02027,
-.0062,.02027,
-.007273,.020181,
-.008314,.019902,
-.00929,.019447,
-.010172,.018829,
-.010934,.018067,
-.011552,.017185,
-.012007,.016209,
-.012286,.015168,
-.01238,.014095,
-.01238,.01409,
-.01238,-.01409,
-.012287,-.015163,
-.012009,-.016204,
-.011555,-.017181,
-.010937,-.018064,
-.010176,-.018826,
-.009294,-.019445,
-.008318,-.019901,
-.007278,-.02018,
-.006205,-.020275,
-.0062,-.02027,
.0062,-.02027,
.007273,-.020181,
.008314,-.019902,
.00929,-.019447,
.010172,-.018829,
.010934,-.018067,
.011552,-.017185,
.012007,-.016209,
.012286,-.015168,
.01238,-.014095,
.01238,-.01409,
0.0*
%
%ADD31MACRO31*%
%AMMACRO32*
4,1,44,-.00926,-.01315,
.00926,-.01315,
.010403,-.013051,
.011511,-.012755,
.012551,-.012271,
.013491,-.011614,
.014302,-.010803,
.014961,-.009864,
.015446,-.008825,
.015744,-.007718,
.015845,-.006575,
.01584,-.00657,
.01584,.00657,
.015745,.007713,
.015448,.00882,
.014963,.00986,
.014306,.0108,
.013495,.011611,
.012555,.012268,
.011515,.012753,
.010408,.01305,
.009265,.01315,
.00926,.01315,
-.00926,.01315,
-.010403,.013051,
-.011511,.012755,
-.012551,.012271,
-.013491,.011614,
-.014302,.010803,
-.014961,.009864,
-.015446,.008825,
-.015744,.007718,
-.015845,.006575,
-.01584,.00657,
-.01584,-.00657,
-.015745,-.007713,
-.015448,-.00882,
-.014963,-.00986,
-.014306,-.0108,
-.013495,-.011611,
-.012555,-.012268,
-.011515,-.012753,
-.010408,-.01305,
-.009265,-.01315,
-.00926,-.01315,
0.0*
%
%ADD32MACRO32*%
%ADD29C,.06496*%
%ADD10C,.09449*%
%AMMACRO41*
4,1,44,.02805,.05019,
-.02805,.05019,
-.028904,.05012,
-.029733,.049898,
-.03051,.049536,
-.031213,.049044,
-.031819,.048438,
-.032311,.047735,
-.032673,.046958,
-.032895,.046129,
-.03297,.045275,
-.03297,.04527,
-.03297,-.04527,
-.032896,-.046124,
-.032675,-.046953,
-.032313,-.047731,
-.031822,-.048434,
-.031216,-.049041,
-.030514,-.049533,
-.029737,-.049897,
-.028909,-.050119,
-.028055,-.050195,
-.02805,-.05019,
.02805,-.05019,
.028904,-.05012,
.029733,-.049898,
.03051,-.049536,
.031213,-.049044,
.031819,-.048438,
.032311,-.047735,
.032673,-.046958,
.032895,-.046129,
.03297,-.045275,
.03297,-.04527,
.03297,.04527,
.032896,.046124,
.032675,.046953,
.032313,.047731,
.031822,.048434,
.031216,.049041,
.030514,.049533,
.029737,.049897,
.028909,.050119,
.028055,.050195,
.02805,.05019,
0.0*
%
%ADD41MACRO41*%
%ADD23R,.06496X.06496*%
%AMMACRO33*
4,1,44,.01828,-.00827,
.01828,.00827,
.018165,.009637,
.01781,.010962,
.017231,.012205,
.016444,.013329,
.015474,.014299,
.01435,.015086,
.013107,.015665,
.011782,.01602,
.010415,.01614,
.01041,.01614,
-.01041,.01614,
-.011777,.016021,
-.013102,.015667,
-.014346,.015088,
-.01547,.014302,
-.016441,.013333,
-.017228,.012209,
-.017809,.010966,
-.018165,.009642,
-.018285,.008275,
-.01828,.00827,
-.01828,-.00827,
-.018165,-.009637,
-.01781,-.010962,
-.017231,-.012205,
-.016444,-.013329,
-.015474,-.014299,
-.01435,-.015086,
-.013107,-.015665,
-.011782,-.01602,
-.010415,-.01614,
-.01041,-.01614,
.01041,-.01614,
.011777,-.016021,
.013102,-.015667,
.014346,-.015088,
.01547,-.014302,
.016441,-.013333,
.017228,-.012209,
.017809,-.010966,
.018165,-.009642,
.018285,-.008275,
.01828,-.00827,
0.0*
%
%ADD33MACRO33*%
%AMMACRO14*
4,1,44,-.00827,-.01828,
.00827,-.01828,
.009637,-.018165,
.010962,-.01781,
.012205,-.017231,
.013329,-.016444,
.014299,-.015474,
.015086,-.01435,
.015665,-.013107,
.01602,-.011782,
.01614,-.010415,
.01614,-.01041,
.01614,.01041,
.016021,.011777,
.015667,.013102,
.015088,.014346,
.014302,.01547,
.013333,.016441,
.012209,.017228,
.010966,.017809,
.009642,.018165,
.008275,.018285,
.00827,.01828,
-.00827,.01828,
-.009637,.018165,
-.010962,.01781,
-.012205,.017231,
-.013329,.016444,
-.014299,.015474,
-.015086,.01435,
-.015665,.013107,
-.01602,.011782,
-.01614,.010415,
-.01614,.01041,
-.01614,-.01041,
-.016021,-.011777,
-.015667,-.013102,
-.015088,-.014346,
-.014302,-.01547,
-.013333,-.016441,
-.012209,-.017228,
-.010966,-.017809,
-.009642,-.018165,
-.008275,-.018285,
-.00827,-.01828,
0.0*
%
%ADD14MACRO14*%
%AMMACRO22*
4,1,44,-.01408,-.02391,
.01408,-.02391,
.015447,-.023795,
.016772,-.02344,
.018015,-.022861,
.019139,-.022074,
.020109,-.021104,
.020896,-.01998,
.021475,-.018737,
.02183,-.017412,
.02195,-.016045,
.02195,-.01604,
.02195,.01604,
.021831,.017407,
.021477,.018732,
.020898,.019976,
.020112,.0211,
.019143,.022071,
.018019,.022858,
.016776,.023439,
.015452,.023795,
.014085,.023915,
.01408,.02391,
-.01408,.02391,
-.015447,.023795,
-.016772,.02344,
-.018015,.022861,
-.019139,.022074,
-.020109,.021104,
-.020896,.01998,
-.021475,.018737,
-.02183,.017412,
-.02195,.016045,
-.02195,.01604,
-.02195,-.01604,
-.021831,-.017407,
-.021477,-.018732,
-.020898,-.019976,
-.020112,-.0211,
-.019143,-.022071,
-.018019,-.022858,
-.016776,-.023439,
-.015452,-.023795,
-.014085,-.023915,
-.01408,-.02391,
0.0*
%
%ADD22MACRO22*%
%AMMACRO26*
4,1,44,.02884,-.01309,
.02884,.01309,
.028721,.014457,
.028367,.015782,
.027788,.017026,
.027002,.01815,
.026033,.019121,
.024909,.019908,
.023666,.020489,
.022342,.020845,
.020975,.020965,
.02097,.02096,
-.02097,.02096,
-.022337,.020845,
-.023662,.02049,
-.024905,.019911,
-.026029,.019124,
-.026999,.018154,
-.027786,.01703,
-.028365,.015787,
-.02872,.014462,
-.02884,.013095,
-.02884,.01309,
-.02884,-.01309,
-.028721,-.014457,
-.028367,-.015782,
-.027788,-.017026,
-.027002,-.01815,
-.026033,-.019121,
-.024909,-.019908,
-.023666,-.020489,
-.022342,-.020845,
-.020975,-.020965,
-.02097,-.02096,
.02097,-.02096,
.022337,-.020845,
.023662,-.02049,
.024905,-.019911,
.026029,-.019124,
.026999,-.018154,
.027786,-.01703,
.028365,-.015787,
.02872,-.014462,
.02884,-.013095,
.02884,-.01309,
0.0*
%
%ADD26MACRO26*%
%ADD21R,.0135X.01543*%
%AMMACRO39*
4,1,44,-.0059,.02096,
-.0059,-.02096,
-.005872,-.021337,
-.005774,-.021702,
-.005614,-.022045,
-.005397,-.022355,
-.00513,-.022622,
-.00482,-.022839,
-.004477,-.022999,
-.004112,-.023097,
-.003735,-.02313,
-.00373,-.02313,
.00373,-.02313,
.004107,-.023098,
.004472,-.023001,
.004816,-.022842,
.005126,-.022626,
.005394,-.022359,
.005612,-.022049,
.005772,-.021707,
.005871,-.021342,
.005905,-.020965,
.0059,-.02096,
.0059,.02096,
.005872,.021337,
.005774,.021702,
.005614,.022045,
.005397,.022355,
.00513,.022622,
.00482,.022839,
.004477,.022999,
.004112,.023097,
.003735,.02313,
.00373,.02313,
-.00373,.02313,
-.004107,.023098,
-.004472,.023001,
-.004816,.022842,
-.005126,.022626,
-.005394,.022359,
-.005612,.022049,
-.005772,.021707,
-.005871,.021342,
-.005905,.020965,
-.0059,.02096,
0.0*
%
%ADD39MACRO39*%
%AMMACRO38*
4,1,44,.02096,.0059,
-.02096,.0059,
-.021337,.005872,
-.021702,.005774,
-.022045,.005614,
-.022355,.005397,
-.022622,.00513,
-.022839,.00482,
-.022999,.004477,
-.023097,.004112,
-.02313,.003735,
-.02313,.00373,
-.02313,-.00373,
-.023098,-.004107,
-.023001,-.004472,
-.022842,-.004816,
-.022626,-.005126,
-.022359,-.005394,
-.022049,-.005612,
-.021707,-.005772,
-.021342,-.005871,
-.020965,-.005905,
-.02096,-.0059,
.02096,-.0059,
.021337,-.005872,
.021702,-.005774,
.022045,-.005614,
.022355,-.005397,
.022622,-.00513,
.022839,-.00482,
.022999,-.004477,
.023097,-.004112,
.02313,-.003735,
.02313,-.00373,
.02313,.00373,
.023098,.004107,
.023001,.004472,
.022842,.004816,
.022626,.005126,
.022359,.005394,
.022049,.005612,
.021707,.005772,
.021342,.005871,
.020965,.005905,
.02096,.0059,
0.0*
%
%ADD38MACRO38*%
%ADD18R,.04488X.01181*%
%AMMACRO42*
4,1,44,-.02805,-.05019,
.02805,-.05019,
.028904,-.05012,
.029733,-.049898,
.03051,-.049536,
.031213,-.049044,
.031819,-.048438,
.032311,-.047735,
.032673,-.046958,
.032895,-.046129,
.03297,-.045275,
.03297,-.04527,
.03297,.04527,
.032896,.046124,
.032675,.046953,
.032313,.047731,
.031822,.048434,
.031216,.049041,
.030514,.049533,
.029737,.049897,
.028909,.050119,
.028055,.050195,
.02805,.05019,
-.02805,.05019,
-.028904,.05012,
-.029733,.049898,
-.03051,.049536,
-.031213,.049044,
-.031819,.048438,
-.032311,.047735,
-.032673,.046958,
-.032895,.046129,
-.03297,.045275,
-.03297,.04527,
-.03297,-.04527,
-.032896,-.046124,
-.032675,-.046953,
-.032313,-.047731,
-.031822,-.048434,
-.031216,-.049041,
-.030514,-.049533,
-.029737,-.049897,
-.028909,-.050119,
-.028055,-.050195,
-.02805,-.05019,
0.0*
%
%ADD42MACRO42*%
%AMMACRO30*
4,1,44,.01616,.01096,
-.01616,.01096,
-.01711,.010883,
-.018031,.010637,
-.018896,.010235,
-.019677,.009688,
-.020352,.009015,
-.0209,.008234,
-.021303,.007371,
-.021551,.00645,
-.021635,.0055,
-.02163,.00549,
-.02163,-.00549,
-.021553,-.00644,
-.021307,-.007361,
-.020905,-.008226,
-.020358,-.009007,
-.019685,-.009682,
-.018904,-.01023,
-.018041,-.010633,
-.01712,-.010881,
-.01617,-.010965,
-.01616,-.01096,
.01616,-.01096,
.01711,-.010883,
.018031,-.010637,
.018896,-.010235,
.019677,-.009688,
.020352,-.009015,
.0209,-.008234,
.021303,-.007371,
.021551,-.00645,
.021635,-.0055,
.02163,-.00549,
.02163,.00549,
.021553,.00644,
.021307,.007361,
.020905,.008226,
.020358,.009007,
.019685,.009682,
.018904,.01023,
.018041,.010633,
.01712,.010881,
.01617,.010965,
.01616,.01096,
0.0*
%
%ADD30MACRO30*%
%AMMACRO25*
4,1,44,-.01238,.01409,
-.01238,-.01409,
-.012287,-.015163,
-.012009,-.016204,
-.011555,-.017181,
-.010937,-.018064,
-.010176,-.018826,
-.009294,-.019445,
-.008318,-.019901,
-.007278,-.02018,
-.006205,-.020275,
-.0062,-.02027,
.0062,-.02027,
.007273,-.020181,
.008314,-.019902,
.00929,-.019447,
.010172,-.018829,
.010934,-.018067,
.011552,-.017185,
.012007,-.016209,
.012286,-.015168,
.01238,-.014095,
.01238,-.01409,
.01238,.01409,
.012287,.015163,
.012009,.016204,
.011555,.017181,
.010937,.018064,
.010176,.018826,
.009294,.019445,
.008318,.019901,
.007278,.02018,
.006205,.020275,
.0062,.02027,
-.0062,.02027,
-.007273,.020181,
-.008314,.019902,
-.00929,.019447,
-.010172,.018829,
-.010934,.018067,
-.011552,.017185,
-.012007,.016209,
-.012286,.015168,
-.01238,.014095,
-.01238,.01409,
0.0*
%
%ADD25MACRO25*%
%AMMACRO20*
4,1,44,.00565,.01141,
-.00565,.01141,
-.006635,.011329,
-.007589,.011073,
-.008485,.010655,
-.009295,.010088,
-.009993,.00939,
-.01056,.00858,
-.010978,.007684,
-.011234,.00673,
-.01132,.005745,
-.01132,.00574,
-.01132,-.00574,
-.011235,-.006725,
-.01098,-.00768,
-.010563,-.008576,
-.009997,-.009386,
-.009298,-.010085,
-.008489,-.010653,
-.007594,-.011071,
-.00664,-.011328,
-.005655,-.011415,
-.00565,-.01141,
.00565,-.01141,
.006635,-.011329,
.007589,-.011073,
.008485,-.010655,
.009295,-.010088,
.009993,-.00939,
.01056,-.00858,
.010978,-.007684,
.011234,-.00673,
.01132,-.005745,
.01132,-.00574,
.01132,.00574,
.011235,.006725,
.01098,.00768,
.010563,.008576,
.009997,.009386,
.009298,.010085,
.008489,.010653,
.007594,.011071,
.00664,.011328,
.005655,.011415,
.00565,.01141,
0.0*
%
%ADD20MACRO20*%
%AMMACRO36*
4,1,44,.01525,.02854,
-.01525,.02854,
-.016104,.028471,
-.016933,.02825,
-.017711,.027888,
-.018414,.027397,
-.019021,.026791,
-.019513,.026089,
-.019877,.025312,
-.020099,.024484,
-.020175,.02363,
-.02017,.02362,
-.02017,-.02362,
-.020101,-.024474,
-.01988,-.025303,
-.019518,-.026081,
-.019027,-.026784,
-.018421,-.027391,
-.017719,-.027883,
-.016942,-.028247,
-.016114,-.028469,
-.01526,-.028545,
-.01525,-.02854,
.01525,-.02854,
.016104,-.028471,
.016933,-.02825,
.017711,-.027888,
.018414,-.027397,
.019021,-.026791,
.019513,-.026089,
.019877,-.025312,
.020099,-.024484,
.020175,-.02363,
.02017,-.02362,
.02017,.02362,
.020101,.024474,
.01988,.025303,
.019518,.026081,
.019027,.026784,
.018421,.027391,
.017719,.027883,
.016942,.028247,
.016114,.028469,
.01526,.028545,
.01525,.02854,
0.0*
%
%ADD36MACRO36*%
%AMMACRO35*
4,1,44,.00926,.01315,
-.00926,.01315,
-.010403,.013051,
-.011511,.012755,
-.012551,.012271,
-.013491,.011614,
-.014302,.010803,
-.014961,.009864,
-.015446,.008825,
-.015744,.007718,
-.015845,.006575,
-.01584,.00657,
-.01584,-.00657,
-.015745,-.007713,
-.015448,-.00882,
-.014963,-.00986,
-.014306,-.0108,
-.013495,-.011611,
-.012555,-.012268,
-.011515,-.012753,
-.010408,-.01305,
-.009265,-.01315,
-.00926,-.01315,
.00926,-.01315,
.010403,-.013051,
.011511,-.012755,
.012551,-.012271,
.013491,-.011614,
.014302,-.010803,
.014961,-.009864,
.015446,-.008825,
.015744,-.007718,
.015845,-.006575,
.01584,-.00657,
.01584,.00657,
.015745,.007713,
.015448,.00882,
.014963,.00986,
.014306,.0108,
.013495,.011611,
.012555,.012268,
.011515,.012753,
.010408,.01305,
.009265,.01315,
.00926,.01315,
0.0*
%
%ADD35MACRO35*%
%ADD12O,.07874X.03937*%
%AMMACRO34*
4,1,44,-.01828,.00827,
-.01828,-.00827,
-.018165,-.009637,
-.01781,-.010962,
-.017231,-.012205,
-.016444,-.013329,
-.015474,-.014299,
-.01435,-.015086,
-.013107,-.015665,
-.011782,-.01602,
-.010415,-.01614,
-.01041,-.01614,
.01041,-.01614,
.011777,-.016021,
.013102,-.015667,
.014346,-.015088,
.01547,-.014302,
.016441,-.013333,
.017228,-.012209,
.017809,-.010966,
.018165,-.009642,
.018285,-.008275,
.01828,-.00827,
.01828,.00827,
.018165,.009637,
.01781,.010962,
.017231,.012205,
.016444,.013329,
.015474,.014299,
.01435,.015086,
.013107,.015665,
.011782,.01602,
.010415,.01614,
.01041,.01614,
-.01041,.01614,
-.011777,.016021,
-.013102,.015667,
-.014346,.015088,
-.01547,.014302,
-.016441,.013333,
-.017228,.012209,
-.017809,.010966,
-.018165,.009642,
-.018285,.008275,
-.01828,.00827,
0.0*
%
%ADD34MACRO34*%
%ADD17R,.04488X.01969*%
%AMMACRO15*
4,1,44,.00827,.01828,
-.00827,.01828,
-.009637,.018165,
-.010962,.01781,
-.012205,.017231,
-.013329,.016444,
-.014299,.015474,
-.015086,.01435,
-.015665,.013107,
-.01602,.011782,
-.01614,.010415,
-.01614,.01041,
-.01614,-.01041,
-.016021,-.011777,
-.015667,-.013102,
-.015088,-.014346,
-.014302,-.01547,
-.013333,-.016441,
-.012209,-.017228,
-.010966,-.017809,
-.009642,-.018165,
-.008275,-.018285,
-.00827,-.01828,
.00827,-.01828,
.009637,-.018165,
.010962,-.01781,
.012205,-.017231,
.013329,-.016444,
.014299,-.015474,
.015086,-.01435,
.015665,-.013107,
.01602,-.011782,
.01614,-.010415,
.01614,-.01041,
.01614,.01041,
.016021,.011777,
.015667,.013102,
.015088,.014346,
.014302,.01547,
.013333,.016441,
.012209,.017228,
.010966,.017809,
.009642,.018165,
.008275,.018285,
.00827,.01828,
0.0*
%
%ADD15MACRO15*%
%ADD46C,.01*%
%ADD47C,.02*%
%ADD48C,.03*%
%ADD49C,.006*%
%ADD51C,.075*%
%ADD50C,.0634*%
%ADD52C,.07224*%
%ADD53C,.089*%
G75*
%LPD*%
G75*
G36*
G01X84200Y84200D02*
Y193800D01*
X312200D01*
Y84200D01*
X84200D01*
G37*
%LPC*%
G75*
G36*
G01X130987Y130398D02*
X131884D01*
G02X133390Y129556I0J-1768D01*
G01X137715D01*
X137740Y129728D01*
G02X139540Y131284I1800J-263D01*
G01X140780D01*
G02X142600Y129464I0J-1820D01*
G01Y126646D01*
G02X140780Y124826I-1820J0D01*
G01X139540D01*
G02X137740Y126382I0J1819D01*
G01X137715Y126554D01*
X133390D01*
G02X131884Y125712I-1506J926D01*
G01X130754D01*
G02X129500Y126234I1J1769D01*
G02X128246Y125712I-1255J1247D01*
G01X127116D01*
G02X125348Y127481I1J1769D01*
G01Y128629D01*
G02X126317Y130207I1769J0D01*
G02X126367Y130376I3787J-1029D01*
G03X125987Y130898I-381J122D01*
G01X119331D01*
G03X118970Y130328I1J-400D01*
G02X119138Y129577I-1600J-752D01*
G01Y128426D01*
G02X118318Y126933I-1769J0D01*
G03X118208Y126361I214J-338D01*
G02X118583Y125201I-1608J-1160D01*
G01Y125200D01*
G02X116600Y123217I-1983J0D01*
G02X114629Y124986I0J1983D01*
G01X114621Y125056D01*
X111980Y127697D01*
X111844Y127610D01*
G02X111196Y127420I-648J1011D01*
G01X106792D01*
X106753Y127270D01*
G02X104739Y125714I-2014J525D01*
G02X102658Y127795I0J2081D01*
G02X102990Y128922I2081J-1D01*
G03X102930Y129199I-168J109D01*
G02X101398Y131999I1793J2800D01*
G01Y146300D01*
G02X102914Y149051I3254J0D01*
G03X102977Y149326I-107J169D01*
G02X102658Y150433I1761J1107D01*
G02X104739Y152514I2081J0D01*
G02X106778Y150850I0J-2081D01*
G01X106811Y150690D01*
X108691D01*
X108702Y150691D01*
G02X108952Y150706I257J-2187D01*
G01X111706D01*
X113898Y152898D01*
Y162798D01*
X115502Y164402D01*
X122098D01*
X123402Y163098D01*
Y152802D01*
X118139Y147540D01*
G03X118223Y146910I283J-283D01*
G02X119114Y145375I-877J-1535D01*
G01Y144224D01*
G02X119080Y143880I-1768J1D01*
G03X119473Y143402I392J-78D01*
G01X126059D01*
G02X127572Y142774I-1J-2139D01*
G01X127655Y142691D01*
G02X128241Y141600I-1511J-1514D01*
G02X128600Y141321I-897J-1524D01*
G02X129853Y141842I1253J-1247D01*
G01X130986D01*
G02X132490Y141002I-1J-1768D01*
G01X132812D01*
G02X134739Y140202I0J-2721D01*
G01X134806D01*
G02X136100Y140683I1295J-1502D01*
G02X138083Y138700I0J-1983D01*
G02X137357Y137166I-1984J0D01*
G03X137340Y136562I253J-309D01*
G02X137983Y135100I-1341J-1462D01*
G02X136000Y133117I-1983J0D01*
G02X134705Y133598I0J1984D01*
G01X132490D01*
G02X131794Y132954I-1505J929D01*
G02X130752Y131128I-3865J995D01*
G01X130704Y131080D01*
G03X130987Y130398I283J-282D01*
G37*
G36*
G01X184508Y110863D02*
G02X186200Y112556I1693J0D01*
G01X189252D01*
G02X189568Y112526I-1J-1693D01*
G03X190040Y112864I76J393D01*
G02X191317Y115441I4461J-606D01*
G01X192882Y117005D01*
G02X195047Y117902I2166J-2167D01*
G01X197156D01*
G03X198047Y118271I0J1260D01*
G01X198554Y118778D01*
G03X198271Y119461I-283J283D01*
G01X198270D01*
G02X198261Y119460I-261J2307D01*
G01X193379D01*
G03X192319Y119021I0J-1499D01*
G01X189615Y116317D01*
G02X186431Y114998I-3184J3184D01*
G01X185890D01*
G02X184386Y114158I-1505J928D01*
G01X183254D01*
G02X181486Y115926I0J1768D01*
G01Y117075D01*
G02X182441Y118645I1768J0D01*
G03Y119355I-183J355D01*
G02X181486Y120925I813J1570D01*
G01Y122074D01*
G02X182118Y123429I1769J0D01*
G01Y124571D01*
G02X181486Y125926I1137J1355D01*
G01Y127074D01*
G02X182118Y128429I1769J0D01*
G01Y128919D01*
G02X185097Y131898I2979J0D01*
G01X189463D01*
X189495Y131910D01*
G02X189723Y131968I462J-1341D01*
G03Y132363I-34J197D01*
G02X188542Y133761I237J1398D01*
G01Y134507D01*
G02X188681Y135118I1419J-1D01*
G02X188542Y135730I1280J612D01*
G01Y136570D01*
X185690D01*
G02X184184Y135728I-1506J926D01*
G01X183054D01*
G02X181286Y137497I1J1769D01*
G01Y138647D01*
G02X183054Y140414I1768J-1D01*
G01X184184D01*
G02X185690Y139572I0J-1768D01*
G01X188542D01*
Y140413D01*
G02X188681Y141024I1419J-1D01*
G02X188542Y141635I1280J612D01*
G01Y142476D01*
X183699D01*
X183574Y142351D01*
G02X182665Y141764I-1815J1813D01*
G02X181200Y141117I-1465J1335D01*
G02X179217Y143100I0J1983D01*
G02X179218Y143166I1983J3D01*
G03X178741Y143553I-400J-5D01*
G02X178173Y143498I-569J2917D01*
G01X178097D01*
X178042Y143454D01*
G02X176800Y143017I-1242J1546D01*
G02X174918Y144375I0J1983D01*
G03X174256Y144532I-379J-126D01*
G01X169841Y140117D01*
G03X169402Y139057I1060J-1060D01*
G01Y121056D01*
G02X168144Y118020I-4292J0D01*
G01X168061Y117937D01*
X168060D01*
G03X167682Y117025I911J-912D01*
G01Y116074D01*
G02X168514Y114574I-936J-1500D01*
G01Y113426D01*
G02X166746Y111658I-1768J0D01*
G01X165614D01*
G02X164110Y112498I1J1768D01*
G01X160720D01*
G02X160122Y111909I-1505J929D01*
G01Y109862D01*
G02X159019Y106911I-4502J1D01*
G02X159450Y105000I-4019J-1911D01*
G02X159287Y103806I-4450J-1D01*
G03X159915Y103381I385J-107D01*
G02X162643Y104302I2729J-3582D01*
G01X164110D01*
G02X165614Y105142I1505J-928D01*
G01X166747D01*
G02X168000Y104621I0J-1768D01*
G02X168318Y104874I1253J-1248D01*
G01Y105426D01*
G02X167486Y106926I936J1500D01*
G01Y108074D01*
G02X169254Y109842I1768J0D01*
G01X170386D01*
G02X171890Y109002I-1J-1768D01*
G01X172400D01*
G03X172498Y109100I0J98D01*
G01Y128312D01*
G02X172017Y129607I1503J1295D01*
G02X175983I1983J0D01*
G02X175502Y128312I-1984J0D01*
G01Y109100D01*
G02X172400Y105998I-3102J0D01*
G01X171890D01*
G02X171320Y105426I-1505J929D01*
G01Y104874D01*
G02X172152Y103374I-936J-1500D01*
G01Y102226D01*
G02X171320Y100726I-1768J0D01*
G01Y100174D01*
G02X172152Y98674I-936J-1500D01*
G01Y97526D01*
G02X170384Y95758I-1768J0D01*
G01X169254D01*
G02X167486Y97526I0J1768D01*
G01Y98674D01*
G02X168318Y100174I1768J0D01*
G01Y100726D01*
G02X168000Y100979I935J1501D01*
G02X166747Y100458I-1253J1247D01*
G01X165614D01*
G02X164110Y101298I1J1768D01*
G01X162643D01*
G03X161583Y100859I0J-1499D01*
G01X161393Y100669D01*
G02X158209Y99350I-3184J3184D01*
G01X150391D01*
G02X147331Y100550I0J4502D01*
G01X141752D01*
G02X140550Y101752I0J1202D01*
G01Y103298D01*
X103620D01*
G02X100918Y106001I1J2703D01*
G01Y106673D01*
G02X99804Y108459I875J1786D01*
G01Y110543D01*
G02X101792Y112530I1988J-1D01*
G01X103446D01*
G02X105232Y111416I0J-1989D01*
G03X105950I359J176D01*
G02X106559Y112144I1786J-875D01*
G03Y112789I-236J323D01*
G02X105748Y114391I1177J1602D01*
G01Y116474D01*
G02X107736Y118462I1988J0D01*
G01X109390D01*
G02X111218Y117256I0J-1988D01*
G01X111270Y117134D01*
X113921D01*
X113973Y117256D01*
G02X115801Y118462I1828J-782D01*
G01X117456D01*
G02X119241Y117349I0J-1988D01*
G03X119959I359J176D01*
G02X121744Y118462I1785J-875D01*
G01X123399D01*
G02X125227Y117256I0J-1988D01*
G01X125279Y117134D01*
X129728D01*
X134676Y122082D01*
X134690Y122133D01*
G02X136600Y123583I1910J-533D01*
G02X138583Y121600I0J-1983D01*
G02X137133Y119690I-1983J0D01*
G01X137082Y119676D01*
X131636Y114230D01*
G02X130433Y113732I-1203J1204D01*
G01X125279D01*
X125227Y113610D01*
G02X124375Y112660I-1828J782D01*
G01X124274Y112602D01*
Y112331D01*
X124375Y112273D01*
G02X125388Y110541I-976J-1733D01*
G01Y108459D01*
G02X125035Y107329I-1989J1D01*
G03X125364Y106702I329J-227D01*
G01X140550D01*
Y108248D01*
G02X141752Y109450I1202J0D01*
G01X143498D01*
Y110581D01*
G03X143431Y110745I-232J1D01*
G01X143430D01*
X143346Y110829D01*
G02X142398Y113117I2287J2288D01*
G01Y117574D01*
G02X141460Y119166I882J1592D01*
G01Y121984D01*
G02X143280Y123804I1820J0D01*
G01X144520D01*
G02X146340Y121984I0J-1820D01*
G01Y119166D01*
G02X145402Y117574I-1820J0D01*
G01Y113117D01*
G03X145469Y112953I232J-1D01*
G01X145470D01*
X145554Y112869D01*
G02X146502Y110581I-2287J-2288D01*
G01Y109450D01*
X148248D01*
G02X149450Y108248I0J-1202D01*
G01Y102686D01*
G03X150391Y102354I941J1168D01*
G01X150702D01*
G03X151056Y102939I0J400D01*
G02X150550Y105000I3944J2061D01*
G02X155000Y109450I4450J0D01*
G02X156871Y109037I-1J-4450D01*
G03X157120Y109864I-1251J828D01*
G01Y111944D01*
G02X156830Y112179I962J1484D01*
G02X155577Y111658I-1253J1247D01*
G01X154444D01*
G02X152940Y112498I1J1768D01*
G01X150695D01*
G02X149400Y112017I-1295J1503D01*
G02Y115983I0J1983D01*
G02X150695Y115502I0J-1984D01*
G01X152940D01*
G02X153638Y116147I1505J-929D01*
G03Y116859I-183J356D01*
G02X152678Y118432I809J1573D01*
G01Y119580D01*
G02X153510Y121080I1768J0D01*
G01Y122054D01*
G02X152678Y123554I936J1500D01*
G01Y124702D01*
G02X153510Y126202I1768J0D01*
G01Y127176D01*
G02X152940Y127748I935J1501D01*
G01X151657D01*
G03X151379Y127633I1J-395D01*
G01Y127632D01*
X151296Y127549D01*
G02X150082Y126768I-2404J2402D01*
G01Y126646D01*
G02X148260Y124824I-1822J0D01*
G01X147020D01*
G02X145198Y126646I0J1822D01*
G01Y129464D01*
G02X147020Y131286I1822J0D01*
G01X148260D01*
G02X149819Y130406I0J-1821D01*
G03X150067Y130356I155J127D01*
G02X151657Y130751I1590J-3003D01*
G01X151658Y130752D01*
X152940D01*
G02X154444Y131592I1505J-928D01*
G01X155576D01*
G02X157344Y129824I0J-1768D01*
G01Y128676D01*
G02X156512Y127176I-1768J0D01*
G01Y126202D01*
G02X156830Y125949I-935J-1501D01*
G02X158083Y126470I1253J-1247D01*
G01X159216D01*
G02X160720Y125630I-1J-1768D01*
G01X164028D01*
G03X164498Y126100I0J470D01*
G01Y140057D01*
G02X165817Y143241I4503J0D01*
G01X172641Y150065D01*
G02X175825Y151384I3184J-3184D01*
G01X185571D01*
G03X185956Y151890I-1J400D01*
G02X185880Y152449I2025J560D01*
G01Y166426D01*
G02X185048Y167926I936J1500D01*
G01Y169074D01*
G02X186816Y170842I1768J0D01*
G01X187947D01*
G02X189200Y170321I0J-1768D01*
G02X189518Y170574I1253J-1248D01*
G01Y175177D01*
G02X190143Y177465I4502J0D01*
G02X189650Y179500I3957J2036D01*
G02X194100Y175050I4450J0D01*
G02X193018Y175184I2J4450D01*
G03X192520Y174796I-98J-388D01*
G01Y170574D01*
G02X193352Y169074I-936J-1500D01*
G01Y167926D01*
G02X191584Y166158I-1768J0D01*
G01X190453D01*
G02X189200Y166679I0J1768D01*
G02X188882Y166426I-1253J1248D01*
G01Y153911D01*
G03X189432Y153540I400J0D01*
G02X189959Y153642I528J-1316D01*
G01X194155D01*
G02X195572Y152224I-1J-1418D01*
G01Y151650D01*
G03X196236Y151350I400J0D01*
G02X198345Y152146I2109J-2396D01*
G01X199095D01*
G03X199646Y152375I-1J780D01*
G01X200177Y152906D01*
G03X200070Y153548I-283J283D01*
G02X199445Y154143I619J1276D01*
G03X198744I-351J-191D01*
G02X197501Y153406I-1244J682D01*
G01X196751D01*
G02X195334Y154824I1J1418D01*
G01Y155329D01*
X195201Y155376D01*
G02X194168Y156026I918J2604D01*
G01X194025Y156169D01*
G02X193218Y158120I1955J1951D01*
G01Y161471D01*
G02X192586Y162826I1137J1355D01*
G01Y163974D01*
G02X194354Y165742I1768J0D01*
G01X195486D01*
G02X196790Y165167I-1J-1768D01*
G01X196849Y165102D01*
X197180D01*
X197226Y165127D01*
G02X198200Y165383I975J-1727D01*
G02X199000Y165214I-1J-1983D01*
G03X199562Y165580I162J366D01*
G01Y166426D01*
G02X198730Y167926I936J1500D01*
G01Y169074D01*
G02X200498Y170842I1768J0D01*
G01X201629D01*
G02X202882Y170321I0J-1768D01*
G02X204135Y170842I1253J-1247D01*
G01X205266D01*
G02X206645Y170181I0J-1769D01*
G03X206909Y170385I-662J1129D01*
G01X211701Y175176D01*
G03X211639Y175792I-283J283D01*
G02X209650Y179500I2462J3708D01*
G02X218550I4450J0D01*
G02X215357Y175231I-4450J0D01*
G02X214283Y173511I-4258J1464D01*
G01X209033Y168261D01*
G02X206819Y167080I-3049J3049D01*
G02X205266Y166158I-1553J847D01*
G01X204135D01*
G02X202882Y166679I0J1768D01*
G02X202564Y166426I-1253J1248D01*
G01Y160434D01*
X203407D01*
G02X204016Y160296I-1J-1418D01*
G02X204625Y160434I610J-1280D01*
G01X205468D01*
Y161228D01*
G02X206786Y164410I4502J-1D01*
G01X212559Y170183D01*
G02X215743Y171502I3184J-3184D01*
G01X252757D01*
G03X253817Y171941I0J1499D01*
G01X255059Y173183D01*
G02X258243Y174502I3184J-3184D01*
G01X287905D01*
G02X289200Y174983I1295J-1503D01*
G02Y171017I0J-1983D01*
G02X287905Y171498I0J1984D01*
G01X261788D01*
G03X261504Y170817I0J-400D01*
G02X262014Y169575I-1258J-1242D01*
G01Y168426D01*
G02X261182Y166926I-1768J0D01*
G01Y166074D01*
G02X261500Y165821I-935J-1501D01*
G02X262753Y166342I1253J-1247D01*
G01X263884D01*
G02X265306Y165625I0J-1769D01*
G03X265769Y165941I-599J1375D01*
G01X266511Y166683D01*
G02X268050Y167690I3183J-3185D01*
G01Y169748D01*
G02X269252Y170950I1202J0D01*
G01X275748D01*
G02X276950Y169748I0J-1202D01*
G01Y164039D01*
G03X277632Y163756I400J0D01*
G01X278475Y164598D01*
X278420Y164723D01*
G02X278050Y166499I4080J1777D01*
G01Y166500D01*
G02X282500Y162050I4450J0D01*
G01X282499D01*
G02X280723Y162420I1J4450D01*
G01X280598Y162475D01*
X279808Y161684D01*
G03X280091Y161002I283J-282D01*
G01X300658D01*
G02X303842Y159683I0J-4503D01*
G01X305548Y157977D01*
X305672Y158029D01*
G02X307345Y158367I1674J-3974D01*
G01X307346D01*
G02Y149743I0J-4312D01*
G02X303503Y152100I0J4311D01*
G01X301189D01*
G02X297346Y149743I-3843J1954D01*
G02X293304Y152554I0J4312D01*
G01X290390D01*
G02X288884Y151712I-1506J926D01*
G01X287754D01*
G02X286500Y152234I1J1769D01*
G02X285246Y151712I-1255J1247D01*
G01X284116D01*
G02X282708Y152411I1J1769D01*
G02X281600Y152072I-1109J1644D01*
G02Y156038I0J1983D01*
G02X282708Y155699I-1J-1983D01*
G02X284116Y156398I1409J-1070D01*
G01X285246D01*
G02X286500Y155876I-1J-1769D01*
G02X287754Y156398I1255J-1247D01*
G01X288884D01*
G02X290390Y155556I0J-1768D01*
G01X293304D01*
G02X294504Y157298I4042J-1500D01*
G03X294240Y157998I-264J300D01*
G01X247090D01*
G02X245586Y157158I-1505J928D01*
G01X244453D01*
G02X243200Y157679I0J1768D01*
G02X241947Y157158I-1253J1247D01*
G01X240814D01*
G02X239310Y157998I1J1768D01*
G01X238690D01*
G02X237186Y157158I-1505J928D01*
G01X236053D01*
G02X234886Y157599I1J1768D01*
G03X234617Y156882I-27J-399D01*
G02X235314Y155476I-1072J-1407D01*
G01Y154325D01*
G02X234694Y152980I-1770J0D01*
G01Y152917D01*
G02X234974Y151901I-1703J-1016D01*
G01Y151900D01*
G02X231008I-1983J0D01*
G02X231288Y152916I1983J0D01*
G01Y152964D01*
G02X231054Y153198I1128J1362D01*
G01X227670D01*
G03X227291Y152672I0J-400D01*
G02X227364Y152224I-1346J-449D01*
G01Y151478D01*
G02X226626Y150233I-1419J0D01*
G03Y149532I191J-350D01*
G02X226804Y149416I-683J-1243D01*
G01X270824D01*
G03X270971Y149476I1J208D01*
G01Y149477D01*
X271031Y149537D01*
G02X271054Y149561I1096J-1027D01*
G02X273203Y150500I2271J-2270D01*
G02X274500Y150983I1297J-1500D01*
G02Y147017I0J-1983D01*
G02X273356Y147380I0J1984D01*
G01X273226Y147472D01*
G03X273180Y147437I101J-181D01*
G02X273155Y147413I-1053J1072D01*
G01X273095Y147353D01*
G02X270824Y146412I-2271J2270D01*
G01X254052D01*
G03X253658Y145949I1J-400D01*
G02X253683Y145633I-1958J-314D01*
G02X251700Y143650I-1983J0D01*
G02X250405Y144132I1J1983D01*
G01X249466D01*
G02X247843Y144756I1J2425D01*
G01X228383D01*
G02X227465Y144444I-916J1190D01*
G01X226804D01*
G02X226626Y144327I-866J1123D01*
G03Y143626I191J-350D01*
G02X226804Y143510I-683J-1243D01*
G01X227466D01*
G02X228382Y143198I0J-1501D01*
G01X256551D01*
G03X256962Y143368I0J582D01*
G01X257046Y143452D01*
G02X259581Y144502I2535J-2535D01*
G01X260305D01*
G02X261600Y144983I1295J-1503D01*
G02X263520Y143496I0J-1983D01*
G03X264190Y143313I387J100D01*
G01X265114Y144238D01*
G02X268296Y145556I3183J-3184D01*
G01X282610D01*
G02X284116Y146398I1506J-926D01*
G01X285246D01*
G02X286500Y145876I-1J-1769D01*
G02X287754Y146398I1255J-1247D01*
G01X288884D01*
G02X290390Y145556I0J-1768D01*
G01X293304D01*
G02X297346Y148367I4042J-1501D01*
G02X301289Y145800I0J-4312D01*
G01X303403D01*
G02X307346Y148367I3943J-1745D01*
G02Y139743I0J-4312D01*
G01X307345D01*
G02X305672Y140081I1J4312D01*
G01X305548Y140133D01*
X304232Y138817D01*
G02X301048Y137498I-3184J3184D01*
G01X300943D01*
G03X300638Y136840I0J-400D01*
G02X301658Y134055I-3292J-2785D01*
G02X297346Y129743I-4312J0D01*
G02X293304Y132554I0J4312D01*
G01X290390D01*
G02X289800Y131968I-1506J927D01*
G01Y130687D01*
G02X290390Y130102I-915J-1513D01*
G01X291558D01*
G02X294742Y128783I0J-4503D01*
G01X295548Y127977D01*
X295672Y128029D01*
G02X297345Y128367I1674J-3974D01*
G01X297346D01*
G02X293034Y124055I0J-4312D01*
G01Y124056D01*
G02X293372Y125729I4312J-1D01*
G01X293424Y125853D01*
X292618Y126659D01*
G03X291558Y127098I-1060J-1060D01*
G01X290390D01*
G02X288886Y126258I-1505J928D01*
G01X287753D01*
G02X286500Y126779I0J1768D01*
G02X285247Y126258I-1253J1247D01*
G01X284114D01*
G02X282610Y127098I1J1768D01*
G01X232699D01*
G03X232176Y126933I1J-915D01*
G02X230200Y125117I-1976J167D01*
G02X228217Y127100I0J1983D01*
G02X228485Y128095I1983J0D01*
G03X228139Y128696I-346J201D01*
G01X226804D01*
G02X225945Y128406I-859J1127D01*
G01X221751D01*
G02X220334Y129824I1J1418D01*
G01Y130570D01*
G02X220473Y131182I1419J0D01*
G02X220334Y131793I1280J612D01*
G01Y132632D01*
X219066D01*
G02X215310Y136389I1J3757D01*
G01Y153406D01*
X214470D01*
G02X213858Y153544I-2J1418D01*
G02X213249Y153406I-610J1280D01*
G01X212499D01*
G02X211890Y153544I1J1418D01*
G02X211281Y153406I-610J1280D01*
G01X210316D01*
G02X209084Y151475I-4983J1821D01*
G01X208594Y150984D01*
X208839Y150672D01*
G02X209873Y150963I1034J-1692D01*
G02X211856Y148980I0J-1983D01*
G02X210837Y147247I-1983J0D01*
G03X210841Y146545I194J-350D01*
G02X211883Y144800I-940J-1745D01*
G02X210114Y142829I-1983J0D01*
G01X210044Y142821D01*
X209558Y142334D01*
X209764Y142128D01*
X209855Y142135D01*
G02X209999Y142140I141J-1978D01*
G02X211982Y140157I0J-1983D01*
G02X211408Y138762I-1982J0D01*
G03X211446Y138165I284J-282D01*
G02X212209Y136602I-1219J-1563D01*
G02X210440Y134631I-1983J0D01*
G01X210370Y134623D01*
X209886Y134138D01*
G02X209707Y133986I-1058J1065D01*
G01X209285Y133563D01*
G02X207038Y132632I-2247J2246D01*
G01X195012D01*
G02X194834Y132516I-861J1127D01*
G03Y131815I191J-351D01*
G02X195332Y131358I-683J-1244D01*
G03X195889Y131249I333J223D01*
G02X197000Y131590I1112J-1642D01*
G02X198295Y131108I-1J-1983D01*
G01X207571D01*
G02X210438Y128241I0J-2867D01*
G01Y128086D01*
X210474Y128034D01*
G02X210555Y127905I-1159J-818D01*
G03X211256I350J191D01*
G02X212499Y128642I1244J-682D01*
G01X213249D01*
G02X213858Y128504I-1J-1418D01*
G02X214470Y128642I610J-1280D01*
G01X215218D01*
G02X215827Y128504I-1J-1418D01*
G02X216436Y128642I610J-1280D01*
G01X217184D01*
G02X217796Y128504I2J-1418D01*
G02X218405Y128642I610J-1280D01*
G01X219155D01*
G02X220572Y127224I-1J-1418D01*
G01Y126630D01*
X221203D01*
X221258Y126674D01*
G02X222500Y127111I1242J-1546D01*
G02X224483Y125128I0J-1983D01*
G02X223867Y123691I-1984J0D01*
G03X224142Y123002I276J-289D01*
G01X232857D01*
G02X236041Y121683I0J-4503D01*
G01X236428Y121295D01*
G03X237111Y121565I283J283D01*
G02X239093Y123483I1982J-65D01*
G02X240388Y123002I0J-1984D01*
G01X241510D01*
G02X243014Y123842I1505J-928D01*
G01X244147D01*
G02X245400Y123321I0J-1768D01*
G02X246653Y123842I1253J-1247D01*
G01X247784D01*
G02X249273Y123028I0J-1769D01*
G03X249730Y123253I-238J1060D01*
G02X251707Y125083I1977J-153D01*
G02X253690Y123100I0J-1983D01*
G02X251851Y121122I-1983J0D01*
G02X249295Y120007I-2815J2966D01*
G02X248720Y119426I-1510J920D01*
G01Y118591D01*
G02X248217Y116534I-4464J1D01*
G03X248571Y115950I355J-184D01*
G01X248648D01*
G02X249850Y114748I0J-1202D01*
G01Y108252D01*
G02X248648Y107050I-1202J0D01*
G01X242839D01*
G03X242556Y106368I0J-400D01*
G01X245898Y103025D01*
X246023Y103080D01*
G02X247799Y103450I1777J-4080D01*
G01X247800D01*
G02X243350Y99000I0J-4450D01*
G02X243776Y100900I4450J0D01*
G01X242932Y101744D01*
G03X242250Y101461I-282J-283D01*
G01Y95752D01*
G02X241048Y94550I-1202J0D01*
G01X234552D01*
G02X233350Y95752I0J1202D01*
G01Y102248D01*
G02X234552Y103450I1202J0D01*
G01X235598D01*
Y111868D01*
G03X235583Y111901I-47J-2D01*
G02X235535Y111951I1565J1551D01*
G01X235351Y112135D01*
G02X235301Y112183I1501J1613D01*
G03X235268Y112198I-35J-32D01*
G01X234277D01*
X234241Y112184D01*
G02X233587Y112058I-656J1642D01*
G01X232453D01*
G02X231200Y112579I0J1768D01*
G02X230882Y112326I-1253J1248D01*
G01Y111674D01*
G02X231714Y110174I-936J-1500D01*
G01Y109026D01*
G02X229946Y107258I-1768J0D01*
G01X228816D01*
G02X227048Y109026I0J1768D01*
G01Y110174D01*
G02X227880Y111674I1768J0D01*
G01Y112326D01*
G02X227048Y113826I936J1500D01*
G01Y114974D01*
G02X227880Y116474I1768J0D01*
G01Y117397D01*
X226478Y118798D01*
X219892D01*
G03X219498Y118335I1J-400D01*
G02X219523Y118019I-1958J-314D01*
G02X219423Y117397I-1983J0D01*
G02X219914Y116174I-1278J-1223D01*
G01Y115026D01*
G02X218146Y113258I-1768J0D01*
G01X217016D01*
G02X215248Y115026I0J1768D01*
G01Y116319D01*
G02X211172Y120503I109J4184D01*
G01Y122534D01*
X211161Y122566D01*
G02X211103Y122794I1341J462D01*
G03X210708I-198J-34D01*
G02X209310Y121614I-1398J238D01*
G01X208470D01*
Y120372D01*
G03X208910Y119312I1499J1D01*
G01X214183Y114039D01*
G02X215502Y110855I-3184J-3184D01*
G01Y107300D01*
G03X216300Y106502I798J0D01*
G01X216932D01*
Y109527D01*
G02X218626Y111220I1694J-1D01*
G01X224238D01*
G02X225930Y109527I-1J-1693D01*
G01Y100473D01*
G02X224236Y98780I-1694J1D01*
G01X222932D01*
Y97074D01*
G02X223764Y95574I-936J-1500D01*
G01Y94426D01*
G02X221996Y92658I-1768J0D01*
G01X220866D01*
G02X219098Y94426I0J1768D01*
G01Y95574D01*
G02X219930Y97074I1768J0D01*
G01Y98780D01*
X218624D01*
G02X216932Y100473I1J1693D01*
G01Y103498D01*
X216300D01*
G02X213721Y104507I1J3802D01*
G03X213174Y104502I-271J-294D01*
G02X211236Y103543I-2509J2632D01*
G01X211068Y103517D01*
Y100473D01*
G02X209374Y98780I-1694J1D01*
G01X208070D01*
Y97074D01*
G02X208902Y95574I-936J-1500D01*
G01Y94426D01*
G02X207134Y92658I-1768J0D01*
G01X206004D01*
G02X204236Y94426I0J1768D01*
G01Y95574D01*
G02X205068Y97074I1768J0D01*
G01Y98780D01*
X203762D01*
G02X202070Y100473I1J1693D01*
G01Y109527D01*
G02X203764Y111220I1694J-1D01*
G01X209375D01*
G02X210916Y110228I0J-1693D01*
G03X211298Y110304I182J83D01*
G03X210859Y111417I-1498J52D01*
G01X204817Y117459D01*
G02X204330Y118036I3185J3182D01*
G03X203680Y118039I-326J-231D01*
G02X203215Y117493I-3650J2637D01*
G01X200739Y115017D01*
G02X197555Y113698I-3184J3184D01*
G01X196343D01*
G03X195283Y113259I0J-1499D01*
G01X195251Y113227D01*
G03X195575Y112547I283J-282D01*
G02X195748Y112556I174J-1684D01*
G01X198800D01*
G02X200492Y110863I-1J-1693D01*
G01Y106137D01*
G02X198776Y104445I-1693J1D01*
G01Y104103D01*
G02X198336Y103041I-1502J0D01*
G01X197514Y102220D01*
Y101426D01*
G02X195746Y99658I-1768J0D01*
G01X194616D01*
G02X192848Y101426I0J1768D01*
G01Y102574D01*
G02X194294Y104313I1769J0D01*
G03X194513Y104980I-73J393D01*
G02X194056Y106137I1236J1157D01*
G01Y106802D01*
G03X193866Y107002I-200J0D01*
G02X192263Y107700I134J2498D01*
G02X191099Y107062I-1719J1756D01*
G01X190944Y107026D01*
Y106137D01*
G02X190487Y104980I-1693J0D01*
G03X190706Y104313I292J-274D01*
G02X192152Y102574I-323J-1739D01*
G01Y101426D01*
G02X191320Y99926I-1768J0D01*
G01Y99274D01*
G02X192152Y97774I-936J-1500D01*
G01Y96626D01*
G02X190384Y94858I-1768J0D01*
G01X189254D01*
G02X187486Y96626I0J1768D01*
G01Y97774D01*
G02X188318Y99274I1768J0D01*
G01Y99926D01*
G02X187486Y101426I936J1500D01*
G01Y102220D01*
X186664Y103041D01*
G02X186224Y104103I1062J1062D01*
G01Y104445D01*
G02X184508Y106137I-23J1693D01*
G01Y110863D01*
G37*
G36*
G01X291250Y163252D02*
Y169748D01*
G02X291752Y170250I502J0D01*
G01X298248D01*
G02X298750Y169748I0J-502D01*
G01Y163252D01*
G02X298248Y162750I-502J0D01*
G01X291752D01*
G02X291250Y163252I0J502D01*
G37*
G36*
G01X222250Y176252D02*
Y182748D01*
G02X223452Y183950I1202J0D01*
G01X229948D01*
G02X231150Y182748I0J-1202D01*
G01Y176252D01*
G02X229948Y175050I-1202J0D01*
G01X223452D01*
G02X222250Y176252I0J1202D01*
G37*
G36*
G01X179650D02*
Y182748D01*
G02X180852Y183950I1202J0D01*
G01X187348D01*
G02X188550Y182748I0J-1202D01*
G01Y176252D01*
G02X187348Y175050I-1202J0D01*
G01X180852D01*
G02X179650Y176252I0J1202D01*
G37*
G36*
G01X136650D02*
Y182748D01*
G02X137852Y183950I1202J0D01*
G01X144348D01*
G02X145550Y182748I0J-1202D01*
G01Y176252D01*
G02X144348Y175050I-1202J0D01*
G01X137852D01*
G02X136650Y176252I0J1202D01*
G37*
G36*
G01X104739Y158533D02*
X108677D01*
G02Y153593I0J-2470D01*
G01X104739D01*
G02Y158533I0J2470D01*
G37*
G36*
G01X88282D02*
X92220D01*
G02Y153593I-1J-2470D01*
G01X88282D01*
G02Y158533I1J2470D01*
G37*
G36*
G01X304236Y128366D02*
X310458D01*
G02X311658Y127165I-1J-1201D01*
G01Y120945D01*
G02X310456Y119744I-1202J1D01*
G01X304234D01*
G02X303034Y120945I1J1201D01*
G01Y127165D01*
G02X304236Y128366I1202J-1D01*
G37*
G36*
G01X291250Y108252D02*
Y114748D01*
G02X291752Y115250I502J0D01*
G01X298248D01*
G02X298750Y114748I0J-502D01*
G01Y108252D01*
G02X298248Y107750I-502J0D01*
G01X291752D01*
G02X291250Y108252I0J502D01*
G37*
G36*
G01X104739Y124517D02*
X108677D01*
G02Y119577I0J-2470D01*
G01X104739D01*
G02Y124517I0J2470D01*
G37*
G36*
G01X88282D02*
X92220D01*
G02Y119577I-1J-2470D01*
G01X88282D01*
G02Y124517I1J2470D01*
G37*
G36*
G01X162002Y156298D02*
X159798Y158502D01*
Y163998D01*
X162002Y166202D01*
X183198D01*
X184602Y164798D01*
Y158402D01*
X182498Y156298D01*
X162002D01*
G37*
G36*
G01X259698Y119139D02*
G03X259259Y120199I-1499J0D01*
G01X258379Y121080D01*
G03X258060Y121269I-528J-527D01*
G02X256800Y120817I-1260J1530D01*
G02Y124783I0J1983D01*
G02X258105Y124293I0J-1983D01*
G02X259246Y124032I-255J-3740D01*
G03X259765Y124252I149J371D01*
G02X261600Y125483I1835J-752D01*
G02X263571Y123714I0J-1983D01*
G01X263579Y123644D01*
X263883Y123341D01*
G02X265202Y120157I-3184J-3184D01*
G01Y104342D01*
G03X265948Y103046I1499J0D01*
G02X267800Y103450I1853J-4046D01*
G02X263350Y99000I0J-4450D01*
G01Y99001D01*
G02X263720Y100777I4450J-1D01*
G01X263775Y100902D01*
X263517Y101159D01*
G02X262979Y101809I3184J3183D01*
G03X262285Y101752I-331J-225D01*
G02X261803Y100944I-4086J1890D01*
G02X262250Y99000I-4004J-1944D01*
G02X257800Y103450I-4450J0D01*
G02X259175Y103232I-1J-4450D01*
G03X259698Y103612I123J380D01*
G01Y119139D01*
G37*
G36*
G01X161132Y150369D02*
X161008Y150419D01*
G02X159848Y152142I700J1723D01*
G01Y153456D01*
G02X161708Y155316I1860J0D01*
G01X163560D01*
G02X165420Y153456I0J-1860D01*
G01Y152142D01*
G02X164260Y150419I-1860J0D01*
G01X164136Y150369D01*
Y148034D01*
G02X161600Y145498I-2536J0D01*
G01X161393D01*
X161334Y145413D01*
G02X159886Y144658I-1449J1013D01*
G01X158754D01*
G02X156986Y146426I0J1768D01*
G01Y147574D01*
G02X158754Y149342I1768J0D01*
G01X159884D01*
G02X160576Y149201I0J-1769D01*
G03X161132Y149569I156J368D01*
G01Y150369D01*
G37*
G36*
G01X156558Y161001D02*
Y161000D01*
X157103Y160455D01*
G02Y152545I-3956J-3955D01*
G01X156998Y152440D01*
G02X154922Y151248I-3240J3239D01*
G02X153292Y150282I-1631J894D01*
G01X151440D01*
G02X149580Y152142I0J1860D01*
G01Y153456D01*
G02X151440Y155316I1860J0D01*
G01X153292D01*
G02X154555Y154821I0J-1859D01*
G03X155338Y156500I-1407J1678D01*
G03X154555Y158179I-2190J1D01*
G02X153292Y157684I-1263J1364D01*
G01X151440D01*
G02X150417Y157991I1J1860D01*
G01X150280Y158081D01*
X148498Y156298D01*
X128902D01*
X124798Y160402D01*
Y170798D01*
X126202Y172202D01*
X130998D01*
X132202Y170998D01*
Y165498D01*
X133998Y163702D01*
X153998D01*
X155202Y162498D01*
Y161794D01*
X155339Y161749D01*
G02X156558Y161001I-959J-2930D01*
G37*
G36*
G01X281934Y122842D02*
X283067D01*
G02X284834Y121074I-1J-1768D01*
G01Y119926D01*
G02X284002Y118426I-1768J0D01*
G01Y115689D01*
G02X286950Y111500I-1502J-4189D01*
G02X282500Y107050I-4450J0D01*
G02X279932Y107866I0J4449D01*
G03X279302Y107539I-230J-327D01*
G01Y103189D01*
G02X282250Y99000I-1502J-4189D01*
G02X273350I-4450J0D01*
G02X276298Y103189I4450J0D01*
G01Y107050D01*
X269252D01*
G02X268050Y108252I0J1202D01*
G01Y114748D01*
G02X269252Y115950I1202J0D01*
G01X270998D01*
Y118426D01*
G02X270681Y118679I937J1500D01*
G02X269428Y118158I-1253J1247D01*
G01X268295D01*
G02X266528Y119926I1J1768D01*
G01Y121074D01*
G02X267159Y122428I1768J0D01*
G02X266879Y123444I1703J1016D01*
G02X270845I1983J0D01*
G01Y123441D01*
G02X270827Y123176I-1983J2D01*
G03X271354Y122744I396J-54D01*
G02X271934Y122842I580J-1670D01*
G01X272318D01*
G03X272684Y123403I0J400D01*
G02X272517Y124199I1816J797D01*
G01Y124200D01*
G02X274500Y126183I1983J0D01*
G02X276479Y124322I0J-1983D01*
G02X276653Y124094I-2755J-2283D01*
G03X277005Y124138I164J114D01*
G02X278862Y125427I1857J-693D01*
G02X280845Y123444I0J-1983D01*
G01Y123441D01*
G02X280827Y123176I-1983J2D01*
G03X281354Y122744I396J-54D01*
G02X281934Y122842I580J-1670D01*
G37*
G36*
G01X121598Y166598D02*
X113602D01*
X111098Y169102D01*
Y185198D01*
X113102Y187202D01*
X120298D01*
X123302Y184198D01*
Y168302D01*
X121598Y166598D01*
G37*
G54D51*
X287800Y99000D03*
X255400Y111500D03*
X305000D03*
X128500Y179500D03*
X171100D03*
X204100D03*
X276700D03*
X305000Y166500D03*
G54D50*
X114500Y98100D03*
X289100Y180900D03*
X105500Y183000D03*
G54D52*
X307346Y134055D03*
G54D53*
X161100Y179500D03*
X151100D03*
X236700D03*
X256700D03*
X246700D03*
X266700D03*
%LPD*%
G75*
G36*
G01X119765Y140398D02*
X124448D01*
Y138926D01*
G03X125046Y137600I1769J0D01*
G02Y137000I-265J-300D01*
G03X124448Y135674I1171J-1326D01*
G01Y134526D01*
G03X124457Y134343I1768J-5D01*
G02X124059Y133902I-398J-41D01*
G01X119374D01*
Y135872D01*
G03X118964Y136776I-1201J0D01*
G02Y137379I263J301D01*
G03X119374Y138284I-791J904D01*
G01Y139826D01*
G03X119368Y139956I-1201J10D01*
G02X119765Y140398I397J42D01*
G37*
G36*
G01X115100Y162300D02*
X116000Y163200D01*
X121600D01*
X122200Y162600D01*
Y153300D01*
X116400Y147500D01*
X112500D01*
X112200Y147800D01*
Y149500D01*
X115100Y152400D01*
Y162300D01*
G37*
G36*
G01X113600Y186000D02*
X119800D01*
X122100Y183700D01*
Y183233D01*
X121878D01*
X121857Y183238D01*
G03X121748Y183250I-109J-489D01*
G01X115252D01*
G03X114750Y182748I0J-502D01*
G01Y176252D01*
G03X115252Y175750I502J0D01*
G01X122100D01*
Y168800D01*
X121100Y167800D01*
X114100D01*
X112300Y169600D01*
Y184700D01*
X113600Y186000D01*
G37*
G36*
G01X130500Y171000D02*
X131000Y170500D01*
Y165000D01*
X133500Y162500D01*
X153500D01*
X154000Y162000D01*
Y160000D01*
X153500Y159500D01*
X150000D01*
X148000Y157500D01*
X129400D01*
X126000Y160900D01*
Y170300D01*
X126700Y171000D01*
X130500D01*
G37*
G36*
G01X182700Y165000D02*
X183400Y164300D01*
Y158900D01*
X182000Y157500D01*
X162500D01*
X161000Y159000D01*
Y163500D01*
X162500Y165000D01*
X182700D01*
G37*
G54D10*
X95000Y95000D03*
Y183000D03*
X301000Y95000D03*
Y183000D03*
G54D20*
X120443Y129000D03*
X120419Y144800D03*
X130419Y135100D03*
Y139500D03*
X131319Y128055D03*
X158649Y119006D03*
Y114000D03*
Y129250D03*
Y124128D03*
X159319Y147000D03*
X169819Y98100D03*
Y102800D03*
Y114000D03*
Y107500D03*
X189819Y97200D03*
X183819Y116500D03*
X189819Y102000D03*
X198819D03*
X183619Y138071D03*
X183819Y121500D03*
Y126500D03*
X191019Y168500D03*
X194919Y163400D03*
X210207Y95000D03*
X204701Y168500D03*
X221431Y95000D03*
X233019Y109600D03*
Y114400D03*
X221219Y115600D03*
X236619Y159500D03*
Y154900D03*
X247219Y121500D03*
X245019Y159500D03*
X254319Y164000D03*
X272500Y120500D03*
X263319Y164000D03*
Y169000D03*
X282500Y120500D03*
X288319Y128600D03*
Y134055D03*
Y139000D03*
Y144055D03*
Y154055D03*
G54D11*
X100634Y86819D03*
X86900Y86900D03*
X86819Y96063D03*
X99567Y115433D03*
X86819Y106063D03*
Y116063D03*
X101000Y125200D03*
X86819Y126063D03*
Y136063D03*
X101000Y152000D03*
X86819Y146063D03*
X101300Y168300D03*
X86819Y166063D03*
Y176063D03*
Y191291D03*
X96819D03*
X120634Y86819D03*
X110634D03*
X115400Y120700D03*
X112900Y123900D03*
X116600Y125200D03*
X112600Y154042D03*
X101700Y161400D03*
X111800Y164900D03*
X108000Y168300D03*
X115400Y171600D03*
X106819Y191291D03*
X116819D03*
X124000Y94100D03*
X140634Y86819D03*
X130634D03*
X127700Y109600D03*
X135200Y109400D03*
X140200Y116400D03*
X121900Y125700D03*
X126300Y122500D03*
X132300Y122600D03*
X122058Y139055D03*
Y135100D03*
X136000D03*
X136100Y138700D03*
X136600Y121600D03*
X130545Y149358D03*
X138000Y149405D03*
X135900Y143200D03*
X125200Y157400D03*
X126300Y174100D03*
X138500Y169400D03*
X126819Y191291D03*
X136819D03*
X149200Y93500D03*
X160634Y86819D03*
X150634D03*
X141200Y111000D03*
X149400Y114000D03*
X141200Y134800D03*
X146000Y150193D03*
X152700Y147000D03*
X146800Y143500D03*
X147100Y169500D03*
X157700Y165500D03*
X146819Y191291D03*
X156819D03*
X163200Y98100D03*
X170634Y86819D03*
X170805Y117748D03*
X177200Y116500D03*
X163200Y107500D03*
X175800Y104100D03*
X161594Y119006D03*
X161952Y129250D03*
X177100Y126500D03*
Y121500D03*
X170700Y127300D03*
X174000Y129607D03*
X161400Y142800D03*
X174500Y141700D03*
X177900Y141600D03*
X169000Y149996D03*
X176800Y145000D03*
X163500Y172300D03*
X177000Y174500D03*
X166819Y191291D03*
X176819D03*
X182900Y96800D03*
X194900Y97100D03*
X190000Y93500D03*
X190634Y86819D03*
X180634D03*
X183000Y102000D03*
Y109600D03*
X187700Y113800D03*
X197100Y118681D03*
X191500Y117100D03*
X184600Y134700D03*
X187000Y126500D03*
X197000Y129607D03*
X181732Y153301D03*
X199095Y152926D03*
X191240Y160400D03*
X196654Y146297D03*
X199600Y148300D03*
X181800Y159800D03*
X199766Y144563D03*
X181200Y143100D03*
X181700Y163400D03*
X198200D03*
X186819Y191291D03*
X196819D03*
X202600Y95000D03*
X217600Y91100D03*
X210400Y91200D03*
X210634Y86819D03*
X200634D03*
X200300Y113060D03*
X201291Y105200D03*
Y109600D03*
X216622Y111300D03*
X207400Y113400D03*
X204000Y116500D03*
X209700Y120200D03*
X217540Y118019D03*
X217300Y130900D03*
X209999Y140157D03*
X210226Y136602D03*
X212200Y152100D03*
X209873Y148980D03*
X209900Y144800D03*
X204300Y164100D03*
X206819Y191291D03*
X216819D03*
X225100Y95000D03*
X230634Y86819D03*
X220634D03*
X221260Y112100D03*
X232991Y106391D03*
X225300Y114200D03*
X227100Y101900D03*
X233000Y118019D03*
X236700Y125400D03*
X239093Y121500D03*
X230200Y127100D03*
X222500Y125128D03*
X229000Y151200D03*
X228723Y143977D03*
X232991Y151900D03*
X226819Y191291D03*
X236819D03*
X250634Y86819D03*
X240634D03*
X246300Y105500D03*
X252500Y104900D03*
X248100Y126000D03*
X251707Y123100D03*
X256800Y122800D03*
Y132166D03*
X239700Y154500D03*
X248700D03*
X258700D03*
X255700Y144700D03*
X251700Y145633D03*
X246819Y191291D03*
X256819D03*
X270634Y86819D03*
X260634D03*
X272900Y104200D03*
X266600Y113900D03*
X265300Y125900D03*
X268862Y123444D03*
X268863Y138137D03*
X278862Y123444D03*
X261600Y123500D03*
X274500Y124200D03*
X269300Y154000D03*
X278900Y141500D03*
X261600Y143000D03*
X274500Y149000D03*
X278100Y170200D03*
X266000Y169600D03*
X266819Y191291D03*
X276819D03*
X290634Y86819D03*
X280634D03*
X283800Y104400D03*
X288800Y113900D03*
X285600Y124400D03*
X292000Y131300D03*
X290900Y122100D03*
X280500Y148700D03*
X288700D03*
X292100Y156700D03*
X281600Y154055D03*
X283300Y179500D03*
X289200Y173000D03*
X286819Y191291D03*
X296819D03*
X309500Y86900D03*
X309400Y96400D03*
X309900Y116900D03*
X309500Y107000D03*
X301500Y129100D03*
X310700Y138500D03*
X302100Y149500D03*
X309401Y171630D03*
Y161630D03*
X298800Y174100D03*
X306819Y191291D03*
X309401Y181630D03*
G54D12*
X90251Y122047D03*
Y156063D03*
X106708Y122047D03*
Y156063D03*
G54D30*
X128291Y169500D03*
Y162000D03*
G54D21*
X117498Y135100D03*
X119702D03*
X117498Y139055D03*
X119702D03*
G54D22*
X117701Y153500D03*
G54D31*
X143900Y120575D03*
G54D13*
X114500Y98100D03*
X105500Y183000D03*
X289100Y180900D03*
G54D40*
X197126Y156920D03*
X199095D03*
X201063D03*
X203032D03*
X205000D03*
X206969D03*
X208937D03*
X210906D03*
X212874D03*
X214843D03*
X216811D03*
X218780D03*
G54D14*
X116628Y109500D03*
Y115433D03*
X102619Y109500D03*
Y115433D03*
G54D23*
X118500Y179500D03*
X141100D03*
X145000Y105000D03*
X184100Y179500D03*
X237800Y99000D03*
X226700Y179500D03*
X245400Y111500D03*
X272500D03*
Y166500D03*
X295000Y111500D03*
Y166500D03*
G54D41*
X206569Y105000D03*
G54D32*
X152366Y152799D03*
Y156500D03*
Y160201D03*
G54D15*
X108563Y109500D03*
Y115433D03*
X122572Y109500D03*
Y115433D03*
G54D42*
X221431Y105000D03*
G54D33*
X146000Y153528D03*
X169000D03*
G54D24*
X119709Y169500D03*
Y162000D03*
G54D34*
X146000Y159472D03*
X169000D03*
G54D25*
X140160Y128055D03*
X147640D03*
G54D16*
X104739Y127795D03*
Y150433D03*
G54D43*
X223849Y140040D03*
Y138071D03*
Y136103D03*
Y134134D03*
Y132166D03*
Y130197D03*
Y151851D03*
Y149882D03*
Y147914D03*
Y145945D03*
Y143977D03*
Y142008D03*
G54D17*
X108952Y129606D03*
Y126457D03*
Y148504D03*
Y151653D03*
G54D35*
X162634Y160201D03*
Y152799D03*
G54D26*
X138000Y153055D03*
X177000D03*
G54D44*
X297346Y134055D03*
Y124055D03*
Y154055D03*
Y144055D03*
X307346Y134055D03*
Y154055D03*
Y144055D03*
G54D36*
X187726Y108500D03*
G54D18*
X108952Y132165D03*
Y134134D03*
Y136102D03*
Y138071D03*
Y140039D03*
Y142008D03*
Y143976D03*
Y145945D03*
G54D45*
X307346Y124055D03*
G54D27*
X138000Y159945D03*
X177000D03*
G54D46*
G01X102437Y115433D02*
X99567D01*
G01X116628D02*
X108563D01*
G01X116628Y109500D02*
X108563D01*
G01X102619D02*
Y106001D01*
G03X103620Y105000I1001J0D01*
G01X145000D01*
G01X108952Y148504D02*
X108301Y147853D01*
X104653D01*
G03X103100Y146300I0J-1553D01*
G01Y131999D01*
G03X104724Y130375I1624J0D01*
G01X107739D01*
G02X108497Y130061I0J-1072D01*
G01X108952Y129606D01*
G01X122572Y109500D02*
Y115433D01*
G01D02*
X130433D01*
X136600Y121600D01*
G01X130545Y153500D02*
Y149358D01*
G01X138000Y153301D02*
Y153055D01*
G01D02*
Y149405D01*
G01X158649Y114000D02*
X158621D01*
G01Y129250D02*
X158649D01*
G01D02*
X161952D01*
G01X146000Y153941D02*
Y153528D01*
G01X155640Y147000D02*
X152700D01*
G01X146000Y153528D02*
Y150193D01*
G01X152366Y160201D02*
X154379D01*
G02X155355Y159797I0J-1381D01*
G01X155900Y159252D01*
G02Y153748I-2752J-2752D01*
G01X155795Y153643D01*
G02X153758Y152799I-2037J2036D01*
G01X152366D01*
G01X170805Y114000D02*
Y117748D01*
G01X166140Y107500D02*
X163200D01*
G01X180140Y126500D02*
X177100D01*
G01X180140Y121500D02*
X177100D01*
G01X169000Y153941D02*
Y153528D01*
G01X177000Y153301D02*
X181732D01*
G01X169000Y153528D02*
Y149996D01*
G01X180009Y138071D02*
Y135772D01*
X181081Y134700D01*
X184600D01*
G01D02*
X187134Y132166D01*
G01D02*
X192057D01*
G01X183819Y121500D02*
Y126500D01*
G01X187000D02*
X183819D01*
G01Y121500D02*
X185759D01*
G03X188731Y122731I0J4203D01*
G01X189663Y123663D01*
G02X193200Y125128I3537J-3537D01*
G01X197126D01*
G01X183819Y126500D02*
Y128919D01*
G02X185097Y130197I1278J0D01*
G01X192057D01*
G01X197126Y156920D02*
X196119D01*
G02X195370Y157230I0J1060D01*
G01X195229Y157371D01*
G02X194919Y158120I750J749D01*
G01Y163400D01*
G01X191240D02*
Y160400D01*
G01X194919Y163400D02*
X198200D01*
G01X209700Y120200D02*
X210906Y121406D01*
G01X217581Y115600D02*
Y117978D01*
X217540Y118019D01*
G01X212874Y125128D02*
Y120503D01*
G03X215358Y118019I2484J0D01*
G01X217540D01*
G01X210906Y129994D02*
Y125128D01*
G01Y121406D02*
Y125128D01*
G01X199095Y152926D02*
Y156920D01*
G01D02*
Y157116D01*
G01X199766Y144563D02*
X207881Y152678D01*
G03X208937Y155227I-2548J2549D01*
G01Y156920D01*
G01X221260Y115100D02*
Y112100D01*
G01X232991Y109600D02*
Y106391D01*
G01X236660Y154900D02*
X237060Y154500D01*
X239700D01*
G01X223849Y143977D02*
X228723D01*
G01X223849Y149882D02*
X227682D01*
G01D02*
X229000Y151200D01*
G01X232991Y151900D02*
Y154890D01*
X232981Y154900D01*
G01X223849Y151851D02*
X223800Y151900D01*
G02Y153800I950J950D01*
G01X223945Y153945D01*
G02X226250Y154900I2305J-2304D01*
G01X232981D01*
G54D37*
X197274Y108500D03*
G54D19*
X116805Y129000D03*
X116781Y144800D03*
X126781Y135100D03*
Y139500D03*
X127681Y128055D03*
X155011Y119006D03*
Y114000D03*
Y129250D03*
Y124128D03*
X155681Y147000D03*
X166181Y98100D03*
Y102800D03*
Y114000D03*
Y107500D03*
X186181Y97200D03*
X180181Y116500D03*
X186181Y102000D03*
X195181D03*
X179981Y138071D03*
X180181Y121500D03*
Y126500D03*
X187381Y168500D03*
X191281Y163400D03*
X217793Y95000D03*
X206569D03*
X217581Y115600D03*
X201063Y168500D03*
X229381Y109600D03*
Y114400D03*
X232981Y159500D03*
Y154900D03*
X243581Y121500D03*
X241381Y159500D03*
X250681Y164000D03*
X268862Y120500D03*
X259681Y164000D03*
Y169000D03*
X278862Y120500D03*
X284681Y128600D03*
Y134055D03*
Y139000D03*
Y144055D03*
Y154055D03*
G54D28*
X130496Y153500D03*
G54D47*
G01X90251Y119376D02*
Y122047D01*
G01D02*
Y124718D01*
G01X85612Y122047D02*
X90251D01*
G01D02*
X94890D01*
G01X90251Y153392D02*
Y156063D01*
G01D02*
Y158734D01*
G01X85612Y156063D02*
X90251D01*
G01D02*
X94890D01*
G01X106708Y119376D02*
Y122047D01*
G01D02*
Y124718D01*
G01X102069Y122047D02*
X106708D01*
G01D02*
X111347D01*
G01X106708Y153392D02*
Y156063D01*
G01D02*
Y158734D01*
G01X102069Y156063D02*
X106708D01*
G01D02*
X111347D01*
G01X108952Y148504D02*
X112705D01*
G01D02*
X117455Y153254D01*
Y153500D01*
G01X128500Y175550D02*
Y179500D01*
G01D02*
Y183450D01*
G01X124550Y179500D02*
X128500D01*
G01D02*
X132450D01*
G01X171100Y175550D02*
Y179500D01*
G01D02*
Y183450D01*
G01X167150Y179500D02*
X171100D01*
G01D02*
X175050D01*
G01X204100Y175550D02*
Y179500D01*
G01D02*
Y183450D01*
G01X200150Y179500D02*
X204100D01*
G01D02*
X208050D01*
G01X233019Y114400D02*
X235268D01*
G02X236859Y113741I0J-2250D01*
G01X237141Y113459D01*
G02X237800Y111868I-1591J-1591D01*
G01Y99000D01*
G01X233000Y118019D02*
Y118000D01*
X232991Y117991D01*
Y114400D01*
X233019D01*
G01X255400Y107550D02*
Y111500D01*
G01D02*
Y115450D01*
G01X251450Y111500D02*
X255400D01*
G01X276700Y175550D02*
Y179500D01*
G01D02*
Y183450D01*
G01X272750Y179500D02*
X276700D01*
G01D02*
X280650D01*
G01X287800Y95050D02*
Y99000D01*
G01D02*
Y102950D01*
G01X283850Y99000D02*
X287800D01*
G01D02*
X291750D01*
G01X295000Y107550D02*
Y111500D01*
G01D02*
Y115450D01*
G01X291050Y111500D02*
X295000D01*
G01D02*
X298950D01*
G01X295000Y162550D02*
Y166500D01*
G01D02*
Y170450D01*
G01X291050Y166500D02*
X295000D01*
G01D02*
X298950D01*
G01X305000Y107550D02*
Y111500D01*
G01D02*
Y115450D01*
G01X301050Y111500D02*
X305000D01*
G01D02*
X308950D01*
G01X307346Y130243D02*
Y134055D01*
G01D02*
Y137867D01*
G01X303534Y134055D02*
X307346D01*
G01D02*
X311158D01*
G01X305000Y162550D02*
Y166500D01*
G01D02*
Y170450D01*
G01X301050Y166500D02*
X305000D01*
G01D02*
X308950D01*
G54D38*
X192057Y130197D03*
Y132166D03*
Y134134D03*
Y136103D03*
Y138071D03*
Y140040D03*
Y142008D03*
Y143977D03*
Y145945D03*
Y147914D03*
Y149882D03*
Y151851D03*
G54D29*
X128500Y179500D03*
X155000Y105000D03*
X161100Y179500D03*
X151100D03*
X171100D03*
X194100D03*
X214100D03*
X204100D03*
X236700D03*
X257800Y99000D03*
X247800D03*
X255400Y111500D03*
X256700Y179500D03*
X246700D03*
X277800Y99000D03*
X267800D03*
X276700Y179500D03*
X266700D03*
X287800Y99000D03*
X282500Y111500D03*
Y166500D03*
X305000Y111500D03*
Y166500D03*
G54D48*
G01X118500Y175550D02*
Y179500D01*
G01D02*
Y183450D01*
G01X114550Y179500D02*
X118500D01*
G54D39*
X199095Y125128D03*
X197126D03*
X218780D03*
X216811D03*
X214843D03*
X212874D03*
X210906D03*
X208937D03*
X206969D03*
X205000D03*
X203032D03*
X201063D03*
G54D49*
G01X108952Y126457D02*
X111996D01*
G02X112900Y125553I0J-904D01*
G01Y123900D01*
G01X119702Y135100D02*
X122058D01*
G01X119702Y139055D02*
X122058D01*
G01X108952Y129606D02*
X110951D01*
G02X113073Y128727I0J-3001D01*
G01X116600Y125200D01*
G01X116805Y129000D02*
X115367D01*
G02X114318Y129435I1J1484D01*
G01X114093Y129660D01*
G02X113800Y130367I706J707D01*
G01Y130900D01*
G03X112535Y132165I-1265J0D01*
G01X108952D01*
G01X116833Y129000D02*
X116805D01*
G01X108952Y140039D02*
X105908D01*
G03X104800Y138931I0J-1108D01*
G01Y137210D01*
G03X105908Y136102I1108J0D01*
G01X108952D01*
G01D02*
X113772D01*
G02X114880Y135643I0J-1567D01*
G01X114964Y135559D01*
G03X116072Y135100I1108J1108D01*
G01X117498D01*
G01D02*
Y133602D01*
G03X118700Y132400I1202J0D01*
G01X126023D01*
G03X126781Y133158I0J758D01*
G01Y135100D01*
G01X108952Y142008D02*
X113792D01*
G02X115256Y140544I0J-1464D01*
G01Y139055D01*
G01D02*
X117498D01*
G01X108952Y138071D02*
X113636D01*
G03X114722Y138521I0J1535D01*
G01X115256Y139055D01*
G01X126781Y139500D02*
Y141178D01*
G03X126594Y141629I-637J0D01*
G01X126510Y141713D01*
G03X126059Y141900I-451J-450D01*
G01X118771D01*
G03X117498Y140627I0J-1273D01*
G01Y139055D01*
G01X108952Y151653D02*
X110211D01*
X112600Y154042D01*
G01X116781Y144800D02*
X114123D01*
G03X113230Y144430I0J-1263D01*
G01X113146Y144346D01*
G02X112253Y143976I-893J893D01*
G01X108952D01*
G01X116809Y144800D02*
X116781D01*
G01X130419Y135100D02*
X136000D01*
G01X127681Y128055D02*
Y129178D01*
G02X128391Y130891I2423J-1D01*
G01X129690Y132190D01*
G03X130419Y133950I-1760J1760D01*
G01Y135100D01*
G01Y139500D02*
X132812D01*
G02X133676Y139142I0J-1222D01*
G01X133760Y139058D01*
G03X134624Y138700I864J864D01*
G01X136100D01*
G01X131319Y128055D02*
X140160D01*
G01X158649Y119006D02*
X161594D01*
G01X158621D02*
X158649D01*
G01X166181Y102800D02*
X162643D01*
G03X160521Y101921I0J-3001D01*
G01X160331Y101731D01*
G02X158209Y100852I-2122J2122D01*
G01X150391D01*
G02X148269Y101731I0J3001D01*
G01X145000Y105000D01*
G01D02*
Y110581D01*
G03X144492Y111807I-1733J0D01*
G01X144408Y111891D01*
G02X143900Y113117I1225J1226D01*
G01Y120575D01*
G01X155011Y124128D02*
Y119006D01*
G01Y114000D02*
X149400D01*
G01X155039D02*
X155011D01*
G01X158621D02*
Y109864D01*
G02X157742Y107742I-3001J0D01*
G01X155000Y105000D01*
G01X158649Y114000D02*
X166181D01*
G01X155011Y129250D02*
Y124128D01*
G01Y129250D02*
X151658D01*
G03X150317Y128694I1J-1897D01*
G01X150234Y128611D01*
G02X148893Y128055I-1342J1341D01*
G01X147640D01*
G01X158649Y124128D02*
X164028D01*
G03X166000Y126100I0J1972D01*
G01Y140057D01*
G02X166879Y142179I3001J0D01*
G01X173703Y149003D01*
G02X175825Y149882I2122J-2122D01*
G01X192057D01*
G01X158621Y124128D02*
X158649D01*
G01X159319Y147000D02*
X161600D01*
G03X162634Y148034I0J1034D01*
G01Y152799D01*
G01X166209Y98100D02*
X166181D01*
G01D02*
X163200D01*
G01X169819Y102800D02*
Y98100D01*
G01X180181Y116500D02*
X177200D01*
G01X166209Y102800D02*
X166181D01*
G01X169819Y107500D02*
Y102800D01*
G01Y107500D02*
X172400D01*
G03X174000Y109100I0J1600D01*
G01Y129607D01*
G01X192057Y147914D02*
X176757D01*
G03X174635Y147035I0J-3001D01*
G01X168779Y141179D01*
G03X167900Y139057I2122J-2122D01*
G01Y121056D01*
G02X167082Y119082I-2791J0D01*
G01X166999Y118999D01*
G03X166181Y117025I1973J-1974D01*
G01Y114000D01*
G01X192057Y145945D02*
X180336D01*
G03X179296Y145514I0J-1470D01*
G01X179213Y145431D01*
G02X178173Y145000I-1040J1039D01*
G01X176800D01*
G01X189819Y102000D02*
Y97200D01*
G01X180209Y116500D02*
X180181D01*
G01X187726Y108500D02*
X190544D01*
G03X191500Y109456I0J956D01*
G01Y112257D01*
G02X192379Y114379I3001J0D01*
G01X193943Y115943D01*
G02X195047Y116400I1104J-1105D01*
G01X197156D01*
G03X199109Y117209I0J2762D01*
G01X200184Y118284D01*
G03X201063Y120406I-2122J2122D01*
G01Y125128D01*
G01X187726Y108500D02*
Y104103D01*
X189819Y102010D01*
Y102000D01*
G01X197274Y108500D02*
X194000D01*
G02X193000Y109500I0J1000D01*
G01Y111857D01*
G02X193879Y113979I3001J0D01*
G01X194221Y114321D01*
G02X196343Y115200I2122J-2122D01*
G01X197555D01*
G03X199677Y116079I0J3001D01*
G01X202153Y118555D01*
G03X203032Y120677I-2122J2122D01*
G01Y125128D01*
G01X195181Y102000D02*
Y102010D01*
X197274Y104103D01*
Y108500D01*
G01X183819Y116500D02*
X186431D01*
G03X188553Y117379I0J3001D01*
G01X191257Y120083D01*
G02X193379Y120962I2122J-2122D01*
G01X198261D01*
G03X199095Y121796I0J834D01*
G01Y125128D01*
G01X183791Y116500D02*
X183819D01*
G01X192057Y132166D02*
X212742D01*
G01X192057Y138071D02*
X183619D01*
G01D02*
X183591D01*
G01X208937Y125128D02*
Y128241D01*
G03X207571Y129607I-1366J0D01*
G01X197000D01*
G01X192057Y136103D02*
X204702D01*
G03X206824Y136982I0J3001D01*
G01X209999Y140157D01*
G01X192057Y134134D02*
X207038D01*
G03X208223Y134625I0J1675D01*
G01X208798Y135200D01*
X208824D01*
X210226Y136602D01*
G01X196654Y146297D02*
Y148954D01*
G02X198345Y150645I1691J0D01*
G01X199095D01*
G03X200708Y151313I0J2281D01*
G01X202153Y152758D01*
G03X203032Y154880I-2122J2122D01*
G01Y156920D01*
G01X187381Y168500D02*
Y152451D01*
G03X187981Y151851I600J0D01*
G01X192057D01*
G01X181200Y143100D02*
X181760D01*
G03X182512Y143412I-1J1064D01*
G01X182680Y143580D01*
G02X183638Y143977I958J-957D01*
G01X192057D01*
G01X209873Y148980D02*
X203780Y142887D01*
G02X201658Y142008I-2122J2122D01*
G01X192057D01*
G01X209900Y144800D02*
X206019Y140919D01*
G02X203897Y140040I-2122J2122D01*
G01X192057D01*
G01X191019Y168500D02*
Y175176D01*
G02X191898Y177298I3001J0D01*
G01X194100Y179500D01*
G01X206569Y105000D02*
Y95000D01*
G01Y105000D02*
X210666D01*
G03X212800Y107134I0J2134D01*
G01Y110357D01*
G03X211921Y112479I-3001J0D01*
G01X205879Y118521D01*
G02X205000Y120643I2122J2122D01*
G01Y125128D01*
G01X221431Y105000D02*
X216300D01*
G02X214000Y107300I0J2300D01*
G01Y110855D01*
G03X213121Y112977I-3001J0D01*
G01X207848Y118250D01*
G02X206969Y120372I2122J2122D01*
G01Y125128D01*
G01X210900Y130000D02*
X210906Y129994D01*
G01X212742Y132166D02*
X214008Y130900D01*
X217300D01*
G01X229381Y114400D02*
Y118019D01*
X227100Y120300D01*
X216558D01*
X214843Y122015D01*
Y125128D01*
G01X216811Y156920D02*
Y136389D01*
G03X219066Y134134I2255J0D01*
G01X223849D01*
G01X247800Y99000D02*
X241179Y105621D01*
G02X240300Y107743I2122J2122D01*
G01Y114057D01*
G03X239421Y116179I-3001J0D01*
G01X234979Y120621D01*
G03X232857Y121500I-2122J-2122D01*
G01X217631D01*
G02X217110Y121716I0J736D01*
G01X217027Y121799D01*
G02X216811Y122320I520J521D01*
G01Y125128D01*
G01X199600Y148300D02*
X204121Y152821D01*
G03X205000Y154943I-2122J2122D01*
G01Y156920D01*
G01X236619Y159500D02*
X236591D01*
Y161599D01*
G03X235790Y162400I-801J0D01*
G01X216026D01*
G03X214843Y161217I0J-1183D01*
G01Y156920D01*
G01X282500Y166500D02*
X278079Y162079D01*
G02X275957Y161200I-2122J2122D01*
G01X249543D01*
G02X247421Y162079I0J3001D01*
G01X246460Y163040D01*
G03X244338Y163919I-2122J-2122D01*
G01X214919D01*
G03X212874Y161874I0J-2045D01*
G01Y156920D01*
G01X250681Y164000D02*
X249431D01*
G02X247500Y164800I0J2730D01*
G01X247179Y165121D01*
G03X245057Y166000I-2122J-2122D01*
G01X213600D01*
G03X210906Y163306I0J-2694D01*
G01Y156920D01*
G01X206969D02*
Y161226D01*
G02X207848Y163348I3001J0D01*
G01X213621Y169121D01*
G02X215743Y170000I2122J-2122D01*
G01X252757D01*
G03X254879Y170879I0J3001D01*
G01X256121Y172121D01*
G02X258243Y173000I2122J-2122D01*
G01X289200D01*
G01X201063Y156920D02*
Y168500D01*
G01X214100Y179500D02*
Y176695D01*
G02X213221Y174573I-3001J0D01*
G01X207971Y169323D01*
G02X205984Y168500I-1987J1987D01*
G01X204701D01*
G01X221431Y105000D02*
Y95000D01*
G01X229381Y114400D02*
Y109600D01*
G01X218780Y125128D02*
X222500D01*
G01X284681Y128600D02*
X232701D01*
G03X230992Y127892I0J-2417D01*
G01X230200Y127100D01*
G01X284681Y134055D02*
X282298D01*
G03X280176Y133176I0J-3001D01*
G01X277679Y130679D01*
G02X275557Y129800I-2122J2122D01*
G01X254600D01*
X254203Y130197D01*
X223849D01*
G01X284681Y139000D02*
X280743D01*
G03X278621Y138121I0J-3001D01*
G01X276079Y135579D01*
G02X273957Y134700I-2122J2122D01*
G01X255141D01*
G03X254559Y134459I0J-823D01*
G01X254475Y134375D01*
G02X253893Y134134I-582J582D01*
G01X223849D01*
G01X268863Y138137D02*
X267708Y136982D01*
G02X265586Y136103I-2122J2122D01*
G01X223849D01*
G01X278900Y141500D02*
X270243D01*
G03X268121Y140621I0J-3001D01*
G01X266450Y138950D01*
G02X264328Y138071I-2122J2122D01*
G01X223849D01*
G01Y132166D02*
X256800D01*
G01X284681Y144055D02*
X268298D01*
G03X266176Y143176I0J-3001D01*
G01X263919Y140919D01*
G02X261797Y140040I-2122J2122D01*
G01X223849D01*
G01X251700Y145633D02*
X249467D01*
G02X248814Y145904I1J924D01*
G01X248731Y145987D01*
G03X248078Y146258I-654J-653D01*
G01X227778D01*
X227465Y145945D01*
X223849D01*
G01X232981Y159500D02*
X228243D01*
G03X226121Y158621I0J-3001D01*
G01X225299Y157799D01*
G02X223177Y156920I-2122J2122D01*
G01X218780D01*
G01X261600Y143000D02*
X259581D01*
G03X258108Y142390I0J-2083D01*
G01X258024Y142306D01*
G02X256551Y141696I-1473J1473D01*
G01X227778D01*
X227466Y142008D01*
X223849D01*
G01Y147914D02*
X270824D01*
G03X272033Y148415I0J1709D01*
G01X272117Y148499D01*
G02X273326Y149000I1209J-1208D01*
G01X274500D01*
G01X233009Y159500D02*
X232981D01*
G01X241381D02*
X236619D01*
G01X257800Y99000D02*
X260321Y101521D01*
G03X261200Y103643I-2122J2122D01*
G01Y119139D01*
G03X260321Y121261I-3001J0D01*
G01X259441Y122141D01*
G03X257851Y122800I-1590J-1589D01*
G01X256800D01*
G01X247219Y121500D02*
Y118594D01*
G02X246351Y116499I-2962J0D01*
G01X246268Y116416D01*
G03X245400Y114321I2094J-2095D01*
G01Y111500D01*
G01X243581Y121500D02*
X239093D01*
G01X251707Y123100D02*
X250865Y122258D01*
G02X249035Y121500I-1830J1830D01*
G01X247219D01*
G01X241409Y159500D02*
X241381D01*
G01X254319Y164000D02*
X254291D01*
G01X259681D02*
X254319D01*
G01X244991Y159500D02*
X245019D01*
G01X307346Y154055D02*
X302780Y158621D01*
G03X300658Y159500I-2122J-2122D01*
G01X245019D01*
G01X267800Y99000D02*
X264579Y102221D01*
G02X263700Y104343I2122J2122D01*
G01Y120157D01*
G03X262821Y122279I-3001J0D01*
G01X261600Y123500D01*
G01X272500Y111500D02*
Y120500D01*
G01X277800Y99000D02*
Y114157D01*
G03X276921Y116279I-3001J0D01*
G01X276679Y116521D01*
G02X275800Y118643I2122J2122D01*
G01Y122040D01*
G03X275192Y123508I-2076J0D01*
G01X274500Y124200D01*
G01X268862Y120500D02*
Y123444D01*
G01X259681Y169000D02*
Y164000D01*
G01X263319D02*
X264709D01*
G03X266831Y164879I0J3001D01*
G01X267573Y165621D01*
G02X269695Y166500I2122J-2122D01*
G01X272500D01*
G01X282500Y111500D02*
Y120500D01*
G01X284709Y128600D02*
X284681D01*
G01X284709Y134055D02*
X284681D01*
G01X284709Y139000D02*
X284681D01*
G01X278862Y120500D02*
Y123444D01*
G01X288291Y128600D02*
X288319D01*
G01X297346Y124055D02*
X293680Y127721D01*
G03X291558Y128600I-2122J-2122D01*
G01X288319D01*
G01Y134055D02*
X297346D01*
G01X288291D02*
X288319D01*
G01X288291Y139000D02*
X288319D01*
G01X307346Y144055D02*
X303170Y139879D01*
G02X301048Y139000I-2122J2122D01*
G01X288319D01*
G01X284709Y144055D02*
X284681D01*
G01X297346Y154055D02*
X288319D01*
G01D02*
X288291D01*
G01X297346Y144055D02*
X288319D01*
G01D02*
X288291D01*
G01X281600Y154055D02*
X284681D01*
G01D02*
X284709D01*
M02*
