G04 ================== begin FILE IDENTIFICATION RECORD ==================*
G04 Layout Name:  F:/ST-LINK-V2/Hardware/Optimize/allegro/st-link-v2_pro_opt.brd*
G04 Film Name:    DRILL*
G04 File Format:  Gerber RS274X*
G04 File Origin:  Cadence Allegro 17.4-S035*
G04 Origin Date:  Sat Dec 23 13:48:44 2023*
G04 *
G04 Layer:  MANUFACTURING/PHOTOPLOT_OUTLINE*
G04 Layer:  MANUFACTURING/NCDRILL_LEGEND*
G04 Layer:  MANUFACTURING/NCDRILL_FIGURE*
G04 Layer:  MANUFACTURING/NCLEGEND-1-2*
G04 Layer:  BOARD GEOMETRY/DIMENSION*
G04 Layer:  BOARD GEOMETRY/DESIGN_OUTLINE*
G04 *
G04 Offset:    (0.00 0.00)*
G04 Mirror:    No*
G04 Mode:      Positive*
G04 Rotation:  0*
G04 FullContactRelief:  No*
G04 UndefLineWidth:     6.00*
G04 ================== end FILE IDENTIFICATION RECORD ====================*
%FSLAX55Y55*MOIN*%
%IR0*IPPOS*OFA0.00000B0.00000*MIA0B0*SFA1.00000B1.00000*%
%AMMACRO11*
1,1,.006,.005905,0.0*
20,1,.006,.005905,0.0,-.005905,0.0,0.0*
1,1,.006,-.005905,0.0*
1,1,.006,0.0,.005905*
20,1,.006,0.0,.005905,0.0,-.005905,0.0*
1,1,.006,0.0,-.005905*
%
%ADD11MACRO11*%
%AMMACRO15*
1,1,.006,.02067,.02067*
20,1,.006,.02067,.02067,.02067,-.02067,0.0*
1,1,.006,.02067,-.02067*
20,1,.006,.02067,-.02067,-.02067,-.02067,0.0*
1,1,.006,-.02067,-.02067*
20,1,.006,-.02067,-.02067,-.02067,.02067,0.0*
1,1,.006,-.02067,.02067*
20,1,.006,-.02067,.02067,.02067,.02067,0.0*
1,1,.006,.02067,.02067*
%
%ADD15MACRO15*%
%AMMACRO14*
1,1,.006,.0053,-.012795*
20,1,.006,.0053,-.012795,-.0053,-.012795,0.0*
1,1,.006,-.0053,-.012795*
20,1,.006,-.0053,-.012795,-.012795,-.0053,0.0*
1,1,.006,-.012795,-.0053*
20,1,.006,-.012795,-.0053,-.012795,.0053,0.0*
1,1,.006,-.012795,.0053*
20,1,.006,-.012795,.0053,-.0053,.012795,0.0*
1,1,.006,-.0053,.012795*
20,1,.006,-.0053,.012795,.0053,.012795,0.0*
1,1,.006,.0053,.012795*
20,1,.006,.0053,.012795,.012795,.0053,0.0*
1,1,.006,.012795,.0053*
20,1,.006,.012795,.0053,.012795,-.0053,0.0*
1,1,.006,.012795,-.0053*
20,1,.006,.012795,-.0053,.0053,-.012795,0.0*
1,1,.006,.0053,-.012795*
%
%ADD14MACRO14*%
%AMMACRO13*
1,1,.006,.021655,0.0*
20,1,.006,.021655,0.0,.010828,.018754,0.0*
1,1,.006,.010828,.018754*
20,1,.006,.010828,.018754,-.010827,.018754,0.0*
1,1,.006,-.010827,.018754*
20,1,.006,-.010827,.018754,-.021655,0.0,0.0*
1,1,.006,-.021655,0.0*
20,1,.006,-.021655,0.0,-.010828,-.018754,0.0*
1,1,.006,-.010828,-.018754*
20,1,.006,-.010828,-.018754,.010827,-.018754,0.0*
1,1,.006,.010827,-.018754*
20,1,.006,.010827,-.018754,.021655,0.0,0.0*
1,1,.006,.021655,0.0*
%
%ADD13MACRO13*%
%AMMACRO10*
1,1,.006,0.0,.02756*
20,1,.006,0.0,.02756,-.023868,.01378,0.0*
1,1,.006,-.023868,.01378*
20,1,.006,-.023868,.01378,-.023868,-.01378,0.0*
1,1,.006,-.023868,-.01378*
20,1,.006,-.023868,-.01378,0.0,-.02756,0.0*
1,1,.006,0.0,-.02756*
20,1,.006,0.0,-.02756,.023868,-.01378,0.0*
1,1,.006,.023868,-.01378*
20,1,.006,.023868,-.01378,.023868,.01378,0.0*
1,1,.006,.023868,.01378*
20,1,.006,.023868,.01378,0.0,.02756,0.0*
1,1,.006,0.0,.02756*
%
%ADD10MACRO10*%
%AMMACRO12*
1,1,.006,-.021655,.01181*
20,1,.006,-.021655,.01181,.021655,.01181,0.0*
1,1,.006,.021655,.01181*
20,1,.006,.021655,.01181,.023706,.011631,0.0*
1,1,.006,.023706,.011631*
20,1,.006,.023706,.011631,.025694,.011098,0.0*
1,1,.006,.025694,.011098*
20,1,.006,.025694,.011098,.02756,.010228,0.0*
1,1,.006,.02756,.010228*
20,1,.006,.02756,.010228,.029246,.009047,0.0*
1,1,.006,.029246,.009047*
20,1,.006,.029246,.009047,.030702,.007591,0.0*
1,1,.006,.030702,.007591*
20,1,.006,.030702,.007591,.031883,.005905,0.0*
1,1,.006,.031883,.005905*
20,1,.006,.031883,.005905,.032753,.004039,0.0*
1,1,.006,.032753,.004039*
20,1,.006,.032753,.004039,.033286,.002051,0.0*
1,1,.006,.033286,.002051*
20,1,.006,.033286,.002051,.033465,0.0,0.0*
1,1,.006,.033465,0.0*
20,1,.006,.033465,0.0,.033286,-.002051,0.0*
1,1,.006,.033286,-.002051*
20,1,.006,.033286,-.002051,.032753,-.004039,0.0*
1,1,.006,.032753,-.004039*
20,1,.006,.032753,-.004039,.031883,-.005905,0.0*
1,1,.006,.031883,-.005905*
20,1,.006,.031883,-.005905,.030702,-.007591,0.0*
1,1,.006,.030702,-.007591*
20,1,.006,.030702,-.007591,.029246,-.009047,0.0*
1,1,.006,.029246,-.009047*
20,1,.006,.029246,-.009047,.02756,-.010228,0.0*
1,1,.006,.02756,-.010228*
20,1,.006,.02756,-.010228,.025694,-.011098,0.0*
1,1,.006,.025694,-.011098*
20,1,.006,.025694,-.011098,.023706,-.011631,0.0*
1,1,.006,.023706,-.011631*
20,1,.006,.023706,-.011631,.021655,-.01181,0.0*
1,1,.006,.021655,-.01181*
20,1,.006,.021655,-.01181,-.021655,-.01181,0.0*
1,1,.006,-.021655,-.01181*
20,1,.006,-.021655,-.01181,-.023706,-.011631,0.0*
1,1,.006,-.023706,-.011631*
20,1,.006,-.023706,-.011631,-.025694,-.011098,0.0*
1,1,.006,-.025694,-.011098*
20,1,.006,-.025694,-.011098,-.02756,-.010228,0.0*
1,1,.006,-.02756,-.010228*
20,1,.006,-.02756,-.010228,-.029246,-.009047,0.0*
1,1,.006,-.029246,-.009047*
20,1,.006,-.029246,-.009047,-.030702,-.007591,0.0*
1,1,.006,-.030702,-.007591*
20,1,.006,-.030702,-.007591,-.031883,-.005905,0.0*
1,1,.006,-.031883,-.005905*
20,1,.006,-.031883,-.005905,-.032753,-.004039,0.0*
1,1,.006,-.032753,-.004039*
20,1,.006,-.032753,-.004039,-.033286,-.002051,0.0*
1,1,.006,-.033286,-.002051*
20,1,.006,-.033286,-.002051,-.033465,0.0,0.0*
1,1,.006,-.033465,0.0*
20,1,.006,-.033465,0.0,-.033286,.002051,0.0*
1,1,.006,-.033286,.002051*
20,1,.006,-.033286,.002051,-.032753,.004039,0.0*
1,1,.006,-.032753,.004039*
20,1,.006,-.032753,.004039,-.031883,.005905,0.0*
1,1,.006,-.031883,.005905*
20,1,.006,-.031883,.005905,-.030702,.007591,0.0*
1,1,.006,-.030702,.007591*
20,1,.006,-.030702,.007591,-.029246,.009047,0.0*
1,1,.006,-.029246,.009047*
20,1,.006,-.029246,.009047,-.02756,.010228,0.0*
1,1,.006,-.02756,.010228*
20,1,.006,-.02756,.010228,-.025694,.011098,0.0*
1,1,.006,-.025694,.011098*
20,1,.006,-.025694,.011098,-.023706,.011631,0.0*
1,1,.006,-.023706,.011631*
20,1,.006,-.023706,.011631,-.021655,.01181,0.0*
1,1,.006,-.021655,.01181*
1,1,.006,-.00591,-.0059*
20,1,.006,-.00591,-.0059,-.00748,-.0057,0.0*
1,1,.006,-.00748,-.0057*
20,1,.006,-.00748,-.0057,-.00886,-.00492,0.0*
1,1,.006,-.00886,-.00492*
20,1,.006,-.00886,-.00492,-.01004,-.00373,0.0*
1,1,.006,-.01004,-.00373*
20,1,.006,-.01004,-.00373,-.01083,-.00236,0.0*
1,1,.006,-.01083,-.00236*
20,1,.006,-.01083,-.00236,-.01122,-.00078,0.0*
1,1,.006,-.01122,-.00078*
20,1,.006,-.01122,-.00078,-.01122,.00079,0.0*
1,1,.006,-.01122,.00079*
20,1,.006,-.01122,.00079,-.01083,.00237,0.0*
1,1,.006,-.01083,.00237*
20,1,.006,-.01083,.00237,-.01004,.00374,0.0*
1,1,.006,-.01004,.00374*
20,1,.006,-.01004,.00374,-.00886,.00493,0.0*
1,1,.006,-.00886,.00493*
20,1,.006,-.00886,.00493,-.00748,.00571,0.0*
1,1,.006,-.00748,.00571*
20,1,.006,-.00748,.00571,-.00591,.00591,0.0*
1,1,.006,-.00591,.00591*
20,1,.006,-.00591,.00591,-.00433,.00571,0.0*
1,1,.006,-.00433,.00571*
20,1,.006,-.00433,.00571,-.00295,.00493,0.0*
1,1,.006,-.00295,.00493*
20,1,.006,-.00295,.00493,-.00177,.00374,0.0*
1,1,.006,-.00177,.00374*
20,1,.006,-.00177,.00374,-.00098,.00237,0.0*
1,1,.006,-.00098,.00237*
20,1,.006,-.00098,.00237,-.00059,.00079,0.0*
1,1,.006,-.00059,.00079*
20,1,.006,-.00059,.00079,-.00059,-.00078,0.0*
1,1,.006,-.00059,-.00078*
20,1,.006,-.00059,-.00078,-.00098,-.00236,0.0*
1,1,.006,-.00098,-.00236*
20,1,.006,-.00098,-.00236,-.00177,-.00373,0.0*
1,1,.006,-.00177,-.00373*
20,1,.006,-.00177,-.00373,-.00295,-.00492,0.0*
1,1,.006,-.00295,-.00492*
20,1,.006,-.00295,-.00492,-.00433,-.0057,0.0*
1,1,.006,-.00433,-.0057*
20,1,.006,-.00433,-.0057,-.00591,-.0059,0.0*
1,1,.006,-.00591,-.0059*
1,1,.006,.00099,-.0059*
20,1,.006,.00099,-.0059,.00591,.00591,0.0*
1,1,.006,.00591,.00591*
20,1,.006,.00591,.00591,.01084,-.0059,0.0*
1,1,.006,.01084,-.0059*
1,1,.006,.00906,-.00177*
20,1,.006,.00906,-.00177,.00277,-.00177,0.0*
1,1,.006,.00277,-.00177*
%
%ADD12MACRO12*%
%ADD16C,.006*%
G75*
%LPD*%
G75*
G54D10*
X10000Y10000D03*
Y107500D03*
X43950Y-180000D03*
X226220Y10000D03*
Y107500D03*
G54D11*
X4681Y21694D03*
Y31694D03*
Y41694D03*
Y51694D03*
Y61694D03*
Y71694D03*
Y81694D03*
Y91694D03*
Y101694D03*
X15500Y4600D03*
X28628Y31972D03*
X21600Y49300D03*
X23700Y36900D03*
X24100Y62600D03*
X21900Y56400D03*
X24536Y87716D03*
X16682Y113429D03*
X26682D03*
X43950Y-105000D03*
X37288Y4681D03*
X46200Y14700D03*
X34100Y43400D03*
X45800Y35000D03*
X44600Y47700D03*
X33653Y49547D03*
X44400Y53300D03*
X36800Y61500D03*
X43700Y60100D03*
X33700Y68500D03*
X34000Y74200D03*
X40464Y87716D03*
X36682Y113429D03*
X46682D03*
X61500Y4200D03*
X62400Y21400D03*
X52400Y28300D03*
X55098Y43898D03*
X56600Y50500D03*
X71100Y40700D03*
X62500Y38100D03*
X62800Y41500D03*
X67032Y50500D03*
X70700D03*
X55317Y62500D03*
X53500Y70000D03*
X60860D03*
X56559Y56000D03*
X70600Y69800D03*
X71100Y56400D03*
X63500Y61100D03*
X71100Y61400D03*
X53300Y85700D03*
X63300Y97500D03*
X70700Y95100D03*
X71700Y114200D03*
X62200Y113400D03*
X81400Y4200D03*
X88181Y22177D03*
X77581Y21381D03*
X90400Y32500D03*
Y37500D03*
Y42500D03*
X81100Y46500D03*
X88899Y66299D03*
X80543Y56043D03*
X89657D03*
X73200Y82000D03*
X74000Y90000D03*
X90794Y75000D03*
X72200Y78300D03*
X77600Y82500D03*
X78733Y97500D03*
X86682Y113429D03*
X107288Y4681D03*
X92868Y17500D03*
X99500Y30000D03*
X102500Y22300D03*
X102400Y14400D03*
X109000Y30300D03*
X104600Y43300D03*
X109900D03*
X96819Y39919D03*
X101900Y62800D03*
Y68900D03*
X92100Y82500D03*
X108881Y88023D03*
X99300Y79900D03*
X98100Y113700D03*
X107500Y113500D03*
X127288Y4681D03*
X117288D03*
X112132Y17500D03*
X124700Y15000D03*
X111800Y24500D03*
X124500Y23400D03*
X124800Y19400D03*
X127384Y36800D03*
X112700Y50138D03*
X120100Y33000D03*
X128400Y32800D03*
X120300Y50100D03*
X128500Y54500D03*
X116100Y69800D03*
X118250Y66950D03*
X120300Y53800D03*
X125415Y62400D03*
X120100Y64300D03*
X121900Y83900D03*
X114300Y88100D03*
X123447Y78886D03*
X129668Y95700D03*
X116200Y99100D03*
X118200Y104000D03*
X126682Y113429D03*
X118100Y113500D03*
X137288Y4681D03*
X139800Y23500D03*
X138500Y29100D03*
X136800Y17100D03*
X148832Y32600D03*
X142381Y35600D03*
X130400Y48400D03*
X135238Y50138D03*
X145400Y66700D03*
X131900Y52500D03*
X136080Y59980D03*
X135714Y65886D03*
X149536Y85216D03*
X139000Y84600D03*
X138600Y75500D03*
X145200Y75700D03*
X134200Y90900D03*
X131000Y102400D03*
X140000Y108100D03*
X138700Y95700D03*
X138000Y113400D03*
X165000Y4200D03*
X154800Y4300D03*
X157200Y31300D03*
X165200Y16000D03*
X151200Y39200D03*
X155600D03*
X166000Y45700D03*
Y40100D03*
X159600Y40000D03*
X159751Y61949D03*
X159700Y66200D03*
Y70500D03*
X165464Y85216D03*
X159600Y74800D03*
X165800Y77000D03*
X152100Y113400D03*
X162600D03*
X187288Y4681D03*
X170600Y31100D03*
X175800Y31000D03*
X183300Y29300D03*
X170900Y39600D03*
X180800Y39300D03*
X185400Y39400D03*
X188000Y55200D03*
X185400Y57300D03*
X178100Y90000D03*
X177000Y81800D03*
X182800Y79700D03*
X177400Y99500D03*
X183600Y100000D03*
X172400Y113400D03*
X182600Y113300D03*
X207288Y4681D03*
X197288D03*
X189600Y19000D03*
X199400Y30200D03*
X190000Y31600D03*
X195100Y39800D03*
X201300Y39900D03*
X190600Y39400D03*
X195400Y56800D03*
X196000Y62500D03*
X190600Y61700D03*
X198700Y87300D03*
X191700Y95100D03*
X191800Y103300D03*
X206500Y106100D03*
X206682Y113429D03*
X191900Y113900D03*
X217288Y4681D03*
X212200Y49800D03*
X215300Y96800D03*
X216682Y113429D03*
X231540Y24323D03*
Y14323D03*
Y44323D03*
Y34323D03*
Y64323D03*
Y54323D03*
Y84323D03*
Y74323D03*
Y94323D03*
X231700Y101300D03*
G54D12*
X10543Y41988D03*
Y76004D03*
X27000Y41988D03*
Y76004D03*
X43950Y-230000D03*
G54D13*
X32500Y7500D03*
X22500D03*
X43950Y-155000D03*
X46400Y7500D03*
X66400D03*
X56400D03*
X57500Y110000D03*
X67500D03*
X86400Y7500D03*
X76400D03*
X77500Y110000D03*
X96400Y7500D03*
X150000D03*
X147500Y110000D03*
X160000Y7500D03*
X170000D03*
X157500Y110000D03*
X167500D03*
X180000Y7500D03*
X177500Y110000D03*
X187500D03*
X207500Y27500D03*
Y90000D03*
X197500Y110000D03*
X217500Y27500D03*
Y90000D03*
G54D14*
X25032Y47736D03*
Y70374D03*
X43950Y-205000D03*
G54D15*
Y-130000D03*
X92500Y110000D03*
X112500D03*
X102500D03*
X122500D03*
X132500D03*
X207500Y44055D03*
Y64055D03*
Y54055D03*
Y74055D03*
X217500Y44055D03*
Y64055D03*
Y54055D03*
Y74055D03*
G54D16*
G01X-1000Y-242500D02*
Y-17500D01*
X495000D01*
Y-242500D01*
X-1000D01*
G01Y-217500D02*
X495000D01*
G01X-1000Y-192500D02*
X495000D01*
G01X-1000Y-167500D02*
X495000D01*
G01X-1000Y-142500D02*
X495000D01*
G01X-1000Y-117500D02*
X495000D01*
G01X10005Y-86250D02*
Y-73750D01*
X15895D01*
G01X13725Y-79792D02*
X10005D01*
G01X23490Y-73750D02*
X27210D01*
G01X25350D02*
Y-86250D01*
G01X23490D02*
X27210D01*
G01X38680Y-80000D02*
X41780D01*
Y-83750D01*
X40850Y-85000D01*
X39765Y-85833D01*
X38215Y-86250D01*
X36665Y-85833D01*
X35580Y-85000D01*
X34650Y-83750D01*
X34030Y-82292D01*
X33720Y-80625D01*
Y-79167D01*
X34030Y-77917D01*
X34650Y-76458D01*
X35580Y-75208D01*
X36510Y-74375D01*
X37750Y-73750D01*
X38835D01*
X40075Y-74167D01*
X41005Y-75000D01*
G01X46740Y-73750D02*
Y-82708D01*
X47360Y-84584D01*
X48600Y-85833D01*
X50150Y-86250D01*
X51700Y-85833D01*
X52940Y-84584D01*
X53560Y-82708D01*
Y-73750D01*
G01X59450Y-86250D02*
Y-73750D01*
X63325D01*
X64565Y-74375D01*
X65340Y-75208D01*
X65650Y-76875D01*
X65340Y-78542D01*
X64410Y-79583D01*
X63325Y-80208D01*
X59450D01*
G01X63325D02*
X65650Y-86250D01*
G01X78050D02*
X71850D01*
Y-73750D01*
X78050D01*
G01X75570Y-79792D02*
X71850D01*
G01X-1000Y-92500D02*
X495000D01*
G01X-1000Y-67500D02*
X495000D01*
G01X-1000Y-42500D02*
X495000D01*
G01X0Y11811D02*
G03X11811Y0I11811J0D01*
G01X224410D01*
G03X236221Y11811I0J11811D01*
G01Y106299D01*
G03X224410Y118110I-11811J0D01*
G01X11811D01*
G03X0Y106299I0J-11811D01*
G01Y11811D01*
G01X88900Y-67500D02*
Y-242500D01*
G01X88590Y-36250D02*
Y-23750D01*
X91690D01*
X92930Y-24375D01*
X93860Y-25208D01*
X94635Y-26458D01*
X95255Y-27917D01*
X95410Y-30000D01*
X95255Y-32083D01*
X94635Y-33542D01*
X93860Y-34792D01*
X92930Y-35625D01*
X91690Y-36250D01*
X88590D01*
G01X101300D02*
Y-23750D01*
X105175D01*
X106415Y-24375D01*
X107190Y-25208D01*
X107500Y-26875D01*
X107190Y-28542D01*
X106260Y-29583D01*
X105175Y-30208D01*
X101300D01*
G01X105175D02*
X107500Y-36250D01*
G01X114940Y-23750D02*
X118660D01*
G01X116800D02*
Y-36250D01*
G01X114940D02*
X118660D01*
G01X126100Y-23750D02*
Y-36250D01*
X132300D01*
G01X138500Y-23750D02*
Y-36250D01*
X144700D01*
G01X169810Y-24792D02*
X168880Y-24167D01*
X167795Y-23750D01*
X166555D01*
X165160Y-24375D01*
X164075Y-25417D01*
X163300Y-26667D01*
X162680Y-28750D01*
X162525Y-30625D01*
X162835Y-32500D01*
X163300Y-33750D01*
X164230Y-35000D01*
X165315Y-35833D01*
X166400Y-36250D01*
X167485D01*
X168570Y-35833D01*
X169500Y-35209D01*
X170275Y-34375D01*
G01X175545Y-36250D02*
Y-23750D01*
G01X182055D02*
Y-36250D01*
G01Y-30000D02*
X175545D01*
G01X187325Y-36250D02*
X191200Y-23750D01*
X195075Y-36250D01*
G01X193680Y-31875D02*
X188720D01*
G01X200500Y-36250D02*
Y-23750D01*
X204375D01*
X205615Y-24375D01*
X206390Y-25208D01*
X206700Y-26875D01*
X206390Y-28542D01*
X205460Y-29583D01*
X204375Y-30208D01*
X200500D01*
G01X204375D02*
X206700Y-36250D01*
G01X216000Y-23750D02*
Y-36250D01*
G01X212435Y-23750D02*
X219565D01*
G01X228400Y-36667D02*
X228090Y-36458D01*
Y-36042D01*
X228400Y-35833D01*
X228710Y-36042D01*
Y-36458D01*
X228400Y-36667D01*
G01Y-31042D02*
X228090Y-30833D01*
Y-30417D01*
X228400Y-30208D01*
X228710Y-30417D01*
Y-30833D01*
X228400Y-31042D01*
G01X253200Y-23750D02*
Y-36250D01*
G01X249635Y-23750D02*
X256765D01*
G01X265600Y-36250D02*
X264360Y-36042D01*
X263275Y-35209D01*
X262345Y-33958D01*
X261725Y-32500D01*
X261415Y-30833D01*
Y-29167D01*
X261725Y-27500D01*
X262345Y-26042D01*
X263275Y-24792D01*
X264360Y-23958D01*
X265600Y-23750D01*
X266840Y-23958D01*
X267925Y-24792D01*
X268855Y-26042D01*
X269475Y-27500D01*
X269785Y-29167D01*
Y-30833D01*
X269475Y-32500D01*
X268855Y-33958D01*
X267925Y-35209D01*
X266840Y-36042D01*
X265600Y-36250D01*
G01X274900D02*
Y-23750D01*
X278620D01*
X279860Y-24375D01*
X280790Y-25833D01*
X281100Y-27500D01*
X280790Y-29167D01*
X280015Y-30417D01*
X278620Y-31042D01*
X274900D01*
G01X302800Y-23750D02*
Y-36250D01*
G01X300630Y-27917D02*
X304970D01*
G01X315200Y-36250D02*
X314270Y-36042D01*
X313340Y-35209D01*
X312720Y-33750D01*
X312410Y-32083D01*
X312720Y-30417D01*
X313340Y-28958D01*
X314270Y-28125D01*
X315200Y-27917D01*
X316130Y-28125D01*
X317060Y-28958D01*
X317680Y-30417D01*
X317835Y-32083D01*
X317680Y-33750D01*
X317060Y-35209D01*
X316130Y-36042D01*
X315200Y-36250D01*
G01X341240Y-29583D02*
X341860Y-28958D01*
X342325Y-27917D01*
X342635Y-26458D01*
X342325Y-25208D01*
X341705Y-24375D01*
X340620Y-23750D01*
X336435D01*
Y-36250D01*
X341550D01*
X342635Y-35417D01*
X343255Y-34167D01*
X343565Y-32708D01*
X343255Y-31250D01*
X342325Y-30000D01*
X341240Y-29583D01*
X336435D01*
G01X352400Y-36250D02*
X351160Y-36042D01*
X350075Y-35209D01*
X349145Y-33958D01*
X348525Y-32500D01*
X348215Y-30833D01*
Y-29167D01*
X348525Y-27500D01*
X349145Y-26042D01*
X350075Y-24792D01*
X351160Y-23958D01*
X352400Y-23750D01*
X353640Y-23958D01*
X354725Y-24792D01*
X355655Y-26042D01*
X356275Y-27500D01*
X356585Y-29167D01*
Y-30833D01*
X356275Y-32500D01*
X355655Y-33958D01*
X354725Y-35209D01*
X353640Y-36042D01*
X352400Y-36250D01*
G01X364800Y-23750D02*
Y-36250D01*
G01X361235Y-23750D02*
X368365D01*
G01X377200D02*
Y-36250D01*
G01X373635Y-23750D02*
X380765D01*
G01X389600Y-36250D02*
X388360Y-36042D01*
X387275Y-35209D01*
X386345Y-33958D01*
X385725Y-32500D01*
X385415Y-30833D01*
Y-29167D01*
X385725Y-27500D01*
X386345Y-26042D01*
X387275Y-24792D01*
X388360Y-23958D01*
X389600Y-23750D01*
X390840Y-23958D01*
X391925Y-24792D01*
X392855Y-26042D01*
X393475Y-27500D01*
X393785Y-29167D01*
Y-30833D01*
X393475Y-32500D01*
X392855Y-33958D01*
X391925Y-35209D01*
X390840Y-36042D01*
X389600Y-36250D01*
G01X397970D02*
Y-23750D01*
X402000Y-34167D01*
X406030Y-23750D01*
Y-36250D01*
G01X124705Y-231042D02*
X125790Y-229583D01*
X126720Y-228750D01*
X127960Y-228333D01*
X129045Y-228750D01*
X129820Y-229583D01*
X130440Y-230833D01*
X130595Y-232292D01*
X130440Y-233542D01*
X129820Y-234792D01*
X128890Y-235833D01*
X127805Y-236250D01*
X126565Y-235833D01*
X125480Y-234584D01*
X124860Y-232708D01*
X124705Y-230625D01*
X125015Y-227917D01*
X125480Y-226458D01*
X126255Y-225000D01*
X127340Y-223958D01*
X128425Y-223750D01*
X129510Y-224167D01*
X130285Y-225208D01*
G01X137105Y-231042D02*
X138190Y-229583D01*
X139120Y-228750D01*
X140360Y-228333D01*
X141445Y-228750D01*
X142220Y-229583D01*
X142840Y-230833D01*
X142995Y-232292D01*
X142840Y-233542D01*
X142220Y-234792D01*
X141290Y-235833D01*
X140205Y-236250D01*
X138965Y-235833D01*
X137880Y-234584D01*
X137260Y-232708D01*
X137105Y-230625D01*
X137415Y-227917D01*
X137880Y-226458D01*
X138655Y-225000D01*
X139740Y-223958D01*
X140825Y-223750D01*
X141910Y-224167D01*
X142685Y-225208D01*
G01X152450Y-236667D02*
X152140Y-236458D01*
Y-236042D01*
X152450Y-235833D01*
X152760Y-236042D01*
Y-236458D01*
X152450Y-236667D01*
G01X162215Y-234792D02*
X163300Y-235833D01*
X164540Y-236250D01*
X165780Y-235833D01*
X166865Y-234584D01*
X167640Y-232708D01*
X167950Y-230833D01*
Y-228542D01*
X167640Y-226667D01*
X166865Y-225000D01*
X165935Y-224167D01*
X164850Y-223750D01*
X163610Y-224167D01*
X162680Y-225000D01*
X162060Y-226250D01*
X161750Y-227917D01*
X162060Y-229375D01*
X162835Y-230833D01*
X163765Y-231667D01*
X164850Y-231875D01*
X166090Y-231459D01*
X167020Y-230417D01*
X167950Y-228542D01*
G01X173840Y-233750D02*
X174770Y-235209D01*
X176010Y-236042D01*
X177405Y-236250D01*
X178645Y-236042D01*
X179885Y-235000D01*
X180660Y-233750D01*
X180815Y-232500D01*
X180505Y-231042D01*
X179420Y-230000D01*
X178335Y-229583D01*
X176940D01*
G01X178335D02*
X179265Y-228958D01*
X180040Y-227917D01*
X180350Y-226667D01*
X180040Y-225417D01*
X179265Y-224375D01*
X177870Y-223750D01*
X176475Y-223958D01*
X175080Y-224792D01*
G01X187325Y-227917D02*
X191975Y-236250D01*
G01Y-227917D02*
X187325Y-236250D01*
G01X199105Y-225833D02*
X200035Y-224584D01*
X201120Y-223958D01*
X202360Y-223750D01*
X203910Y-224167D01*
X204995Y-225208D01*
X205305Y-226458D01*
X205150Y-227709D01*
X204530Y-228750D01*
X201430Y-230833D01*
X200035Y-232292D01*
X199105Y-234375D01*
X198795Y-236250D01*
X205305D01*
G01X211040Y-233750D02*
X211970Y-235209D01*
X213210Y-236042D01*
X214605Y-236250D01*
X215845Y-236042D01*
X217085Y-235000D01*
X217860Y-233750D01*
X218015Y-232500D01*
X217705Y-231042D01*
X216620Y-230000D01*
X215535Y-229583D01*
X214140D01*
G01X215535D02*
X216465Y-228958D01*
X217240Y-227917D01*
X217550Y-226667D01*
X217240Y-225417D01*
X216465Y-224375D01*
X215070Y-223750D01*
X213675Y-223958D01*
X212280Y-224792D01*
G01X226850Y-236667D02*
X226540Y-236458D01*
Y-236042D01*
X226850Y-235833D01*
X227160Y-236042D01*
Y-236458D01*
X226850Y-236667D01*
G01X236305Y-231042D02*
X237390Y-229583D01*
X238320Y-228750D01*
X239560Y-228333D01*
X240645Y-228750D01*
X241420Y-229583D01*
X242040Y-230833D01*
X242195Y-232292D01*
X242040Y-233542D01*
X241420Y-234792D01*
X240490Y-235833D01*
X239405Y-236250D01*
X238165Y-235833D01*
X237080Y-234584D01*
X236460Y-232708D01*
X236305Y-230625D01*
X236615Y-227917D01*
X237080Y-226458D01*
X237855Y-225000D01*
X238940Y-223958D01*
X240025Y-223750D01*
X241110Y-224167D01*
X241885Y-225208D01*
G01X248705Y-225833D02*
X249635Y-224584D01*
X250720Y-223958D01*
X251960Y-223750D01*
X253510Y-224167D01*
X254595Y-225208D01*
X254905Y-226458D01*
X254750Y-227709D01*
X254130Y-228750D01*
X251030Y-230833D01*
X249635Y-232292D01*
X248705Y-234375D01*
X248395Y-236250D01*
X254905D01*
G01X112305Y-86250D02*
Y-73750D01*
X118195D01*
G01X116025Y-79792D02*
X112305D01*
G01X125790Y-73750D02*
X129510D01*
G01X127650D02*
Y-86250D01*
G01X125790D02*
X129510D01*
G01X136485D02*
Y-73750D01*
X143615Y-86250D01*
Y-73750D01*
G01X150590D02*
X154310D01*
G01X152450D02*
Y-86250D01*
G01X150590D02*
X154310D01*
G01X161595Y-84584D02*
X162835Y-85625D01*
X164230Y-86250D01*
X165470D01*
X166710Y-85625D01*
X167640Y-84584D01*
X168105Y-83125D01*
X167795Y-81667D01*
X167020Y-80417D01*
X165625Y-79583D01*
X163765Y-79167D01*
X162680Y-78333D01*
X162215Y-76875D01*
X162525Y-75417D01*
X163300Y-74375D01*
X164385Y-73750D01*
X165470D01*
X166555Y-74167D01*
X167485Y-75208D01*
G01X173995Y-86250D02*
Y-73750D01*
G01X180505D02*
Y-86250D01*
G01Y-80000D02*
X173995D01*
G01X192750Y-86250D02*
X186550D01*
Y-73750D01*
X192750D01*
G01X190270Y-79792D02*
X186550D01*
G01X198640Y-86250D02*
Y-73750D01*
X201740D01*
X202980Y-74375D01*
X203910Y-75208D01*
X204685Y-76458D01*
X205305Y-77917D01*
X205460Y-80000D01*
X205305Y-82083D01*
X204685Y-83542D01*
X203910Y-84792D01*
X202980Y-85625D01*
X201740Y-86250D01*
X198640D01*
G01X209800Y-90417D02*
X219100D01*
G01X223595Y-84584D02*
X224835Y-85625D01*
X226230Y-86250D01*
X227470D01*
X228710Y-85625D01*
X229640Y-84584D01*
X230105Y-83125D01*
X229795Y-81667D01*
X229020Y-80417D01*
X227625Y-79583D01*
X225765Y-79167D01*
X224680Y-78333D01*
X224215Y-76875D01*
X224525Y-75417D01*
X225300Y-74375D01*
X226385Y-73750D01*
X227470D01*
X228555Y-74167D01*
X229485Y-75208D01*
G01X237390Y-73750D02*
X241110D01*
G01X239250D02*
Y-86250D01*
G01X237390D02*
X241110D01*
G01X248705Y-73750D02*
X254595D01*
X248705Y-86250D01*
X254595D01*
G01X267150D02*
X260950D01*
Y-73750D01*
X267150D01*
G01X264670Y-79792D02*
X260950D01*
G01X119125Y-61250D02*
X123000Y-48750D01*
X126875Y-61250D01*
G01X125480Y-56875D02*
X120520D01*
G01X132300Y-48750D02*
Y-61250D01*
X138500D01*
G01X144700Y-48750D02*
Y-61250D01*
X150900D01*
G01X169190Y-48750D02*
Y-57708D01*
X169810Y-59584D01*
X171050Y-60833D01*
X172600Y-61250D01*
X174150Y-60833D01*
X175390Y-59584D01*
X176010Y-57708D01*
Y-48750D01*
G01X181435Y-61250D02*
Y-48750D01*
X188565Y-61250D01*
Y-48750D01*
G01X195540D02*
X199260D01*
G01X197400D02*
Y-61250D01*
G01X195540D02*
X199260D01*
G01X209800Y-48750D02*
Y-61250D01*
G01X206235Y-48750D02*
X213365D01*
G01X218945Y-59584D02*
X220185Y-60625D01*
X221580Y-61250D01*
X222820D01*
X224060Y-60625D01*
X224990Y-59584D01*
X225455Y-58125D01*
X225145Y-56667D01*
X224370Y-55417D01*
X222975Y-54583D01*
X221115Y-54167D01*
X220030Y-53333D01*
X219565Y-51875D01*
X219875Y-50417D01*
X220650Y-49375D01*
X221735Y-48750D01*
X222820D01*
X223905Y-49167D01*
X224835Y-50208D01*
G01X243125Y-61250D02*
X247000Y-48750D01*
X250875Y-61250D01*
G01X249480Y-56875D02*
X244520D01*
G01X256300Y-61250D02*
Y-48750D01*
X260175D01*
X261415Y-49375D01*
X262190Y-50208D01*
X262500Y-51875D01*
X262190Y-53542D01*
X261260Y-54583D01*
X260175Y-55208D01*
X256300D01*
G01X260175D02*
X262500Y-61250D01*
G01X274900D02*
X268700D01*
Y-48750D01*
X274900D01*
G01X272420Y-54792D02*
X268700D01*
G01X294740Y-48750D02*
X298460D01*
G01X296600D02*
Y-61250D01*
G01X294740D02*
X298460D01*
G01X305435D02*
Y-48750D01*
X312565Y-61250D01*
Y-48750D01*
G01X329770Y-61250D02*
Y-48750D01*
X333800Y-59167D01*
X337830Y-48750D01*
Y-61250D01*
G01X344340Y-48750D02*
X348060D01*
G01X346200D02*
Y-61250D01*
G01X344340D02*
X348060D01*
G01X355500Y-48750D02*
Y-61250D01*
X361700D01*
G01X367745Y-59584D02*
X368985Y-60625D01*
X370380Y-61250D01*
X371620D01*
X372860Y-60625D01*
X373790Y-59584D01*
X374255Y-58125D01*
X373945Y-56667D01*
X373170Y-55417D01*
X371775Y-54583D01*
X369915Y-54167D01*
X368830Y-53333D01*
X368365Y-51875D01*
X368675Y-50417D01*
X369450Y-49375D01*
X370535Y-48750D01*
X371620D01*
X372705Y-49167D01*
X373635Y-50208D01*
G01X161905Y-200833D02*
X162835Y-199584D01*
X163920Y-198958D01*
X165160Y-198750D01*
X166710Y-199167D01*
X167795Y-200208D01*
X168105Y-201458D01*
X167950Y-202709D01*
X167330Y-203750D01*
X164230Y-205833D01*
X162835Y-207292D01*
X161905Y-209375D01*
X161595Y-211250D01*
X168105D01*
G01X173840Y-209375D02*
X174770Y-210417D01*
X175855Y-211042D01*
X177250Y-211250D01*
X178645Y-210833D01*
X179730Y-210000D01*
X180505Y-208542D01*
X180660Y-206875D01*
X180350Y-205208D01*
X179575Y-204167D01*
X178490Y-203333D01*
X177405Y-203125D01*
X176320Y-203333D01*
X174925Y-204167D01*
X175390Y-198750D01*
X179575D01*
G01X189650Y-211667D02*
X189340Y-211458D01*
Y-211042D01*
X189650Y-210833D01*
X189960Y-211042D01*
Y-211458D01*
X189650Y-211667D01*
G01X198640Y-209375D02*
X199570Y-210417D01*
X200655Y-211042D01*
X202050Y-211250D01*
X203445Y-210833D01*
X204530Y-210000D01*
X205305Y-208542D01*
X205460Y-206875D01*
X205150Y-205208D01*
X204375Y-204167D01*
X203290Y-203333D01*
X202205Y-203125D01*
X201120Y-203333D01*
X199725Y-204167D01*
X200190Y-198750D01*
X204375D01*
G01X211815Y-209792D02*
X212900Y-210833D01*
X214140Y-211250D01*
X215380Y-210833D01*
X216465Y-209584D01*
X217240Y-207708D01*
X217550Y-205833D01*
Y-203542D01*
X217240Y-201667D01*
X216465Y-200000D01*
X215535Y-199167D01*
X214450Y-198750D01*
X213210Y-199167D01*
X212280Y-200000D01*
X211660Y-201250D01*
X211350Y-202917D01*
X211660Y-204375D01*
X212435Y-205833D01*
X213365Y-206667D01*
X214450Y-206875D01*
X215690Y-206459D01*
X216620Y-205417D01*
X217550Y-203542D01*
G01X161440Y-184375D02*
X162370Y-185417D01*
X163455Y-186042D01*
X164850Y-186250D01*
X166245Y-185833D01*
X167330Y-185000D01*
X168105Y-183542D01*
X168260Y-181875D01*
X167950Y-180208D01*
X167175Y-179167D01*
X166090Y-178333D01*
X165005Y-178125D01*
X163920Y-178333D01*
X162525Y-179167D01*
X162990Y-173750D01*
X167175D01*
G01X173840Y-184375D02*
X174770Y-185417D01*
X175855Y-186042D01*
X177250Y-186250D01*
X178645Y-185833D01*
X179730Y-185000D01*
X180505Y-183542D01*
X180660Y-181875D01*
X180350Y-180208D01*
X179575Y-179167D01*
X178490Y-178333D01*
X177405Y-178125D01*
X176320Y-178333D01*
X174925Y-179167D01*
X175390Y-173750D01*
X179575D01*
G01X189650Y-186667D02*
X189340Y-186458D01*
Y-186042D01*
X189650Y-185833D01*
X189960Y-186042D01*
Y-186458D01*
X189650Y-186667D01*
G01X202050Y-186250D02*
Y-173750D01*
X200190Y-176250D01*
G01Y-186250D02*
X203910D01*
G01X211505Y-175833D02*
X212435Y-174584D01*
X213520Y-173958D01*
X214760Y-173750D01*
X216310Y-174167D01*
X217395Y-175208D01*
X217705Y-176458D01*
X217550Y-177709D01*
X216930Y-178750D01*
X213830Y-180833D01*
X212435Y-182292D01*
X211505Y-184375D01*
X211195Y-186250D01*
X217705D01*
G01X166710Y-161250D02*
Y-148750D01*
X160975Y-157708D01*
X168725D01*
G01X173840Y-158750D02*
X174770Y-160209D01*
X176010Y-161042D01*
X177405Y-161250D01*
X178645Y-161042D01*
X179885Y-160000D01*
X180660Y-158750D01*
X180815Y-157500D01*
X180505Y-156042D01*
X179420Y-155000D01*
X178335Y-154583D01*
X176940D01*
G01X178335D02*
X179265Y-153958D01*
X180040Y-152917D01*
X180350Y-151667D01*
X180040Y-150417D01*
X179265Y-149375D01*
X177870Y-148750D01*
X176475Y-148958D01*
X175080Y-149792D01*
G01X189650Y-161667D02*
X189340Y-161458D01*
Y-161042D01*
X189650Y-160833D01*
X189960Y-161042D01*
Y-161458D01*
X189650Y-161667D01*
G01X198640Y-158750D02*
X199570Y-160209D01*
X200810Y-161042D01*
X202205Y-161250D01*
X203445Y-161042D01*
X204685Y-160000D01*
X205460Y-158750D01*
X205615Y-157500D01*
X205305Y-156042D01*
X204220Y-155000D01*
X203135Y-154583D01*
X201740D01*
G01X203135D02*
X204065Y-153958D01*
X204840Y-152917D01*
X205150Y-151667D01*
X204840Y-150417D01*
X204065Y-149375D01*
X202670Y-148750D01*
X201275Y-148958D01*
X199880Y-149792D01*
G01X214450Y-161250D02*
Y-148750D01*
X212590Y-151250D01*
G01Y-161250D02*
X216310D01*
G01X166710Y-136250D02*
Y-123750D01*
X160975Y-132708D01*
X168725D01*
G01X177250Y-136250D02*
Y-123750D01*
X175390Y-126250D01*
G01Y-136250D02*
X179110D01*
G01X189650Y-136667D02*
X189340Y-136458D01*
Y-136042D01*
X189650Y-135833D01*
X189960Y-136042D01*
Y-136458D01*
X189650Y-136667D01*
G01X198640Y-133750D02*
X199570Y-135209D01*
X200810Y-136042D01*
X202205Y-136250D01*
X203445Y-136042D01*
X204685Y-135000D01*
X205460Y-133750D01*
X205615Y-132500D01*
X205305Y-131042D01*
X204220Y-130000D01*
X203135Y-129583D01*
X201740D01*
G01X203135D02*
X204065Y-128958D01*
X204840Y-127917D01*
X205150Y-126667D01*
X204840Y-125417D01*
X204065Y-124375D01*
X202670Y-123750D01*
X201275Y-123958D01*
X199880Y-124792D01*
G01X216310Y-136250D02*
Y-123750D01*
X210575Y-132708D01*
X218325D01*
G01X164850Y-111250D02*
Y-98750D01*
X162990Y-101250D01*
G01Y-111250D02*
X166710D01*
G01X177250D02*
Y-98750D01*
X175390Y-101250D01*
G01Y-111250D02*
X179110D01*
G01X189650Y-111667D02*
X189340Y-111458D01*
Y-111042D01*
X189650Y-110833D01*
X189960Y-111042D01*
Y-111458D01*
X189650Y-111667D01*
G01X202050Y-111250D02*
X203135Y-111042D01*
X204375Y-110417D01*
X205150Y-109375D01*
X205460Y-107917D01*
X205150Y-106459D01*
X204220Y-105208D01*
X202825Y-104583D01*
X201275D01*
X200345Y-104167D01*
X199570Y-103125D01*
X199260Y-101667D01*
X199725Y-100208D01*
X200810Y-99167D01*
X202050Y-98750D01*
X203290Y-99167D01*
X204375Y-100208D01*
X204840Y-101667D01*
X204530Y-103125D01*
X203755Y-104167D01*
X202825Y-104583D01*
X201275D01*
X199880Y-105208D01*
X198950Y-106459D01*
X198640Y-107917D01*
X198950Y-109375D01*
X199725Y-110417D01*
X200965Y-111042D01*
X202050Y-111250D01*
G01X214450D02*
Y-98750D01*
X212590Y-101250D01*
G01Y-111250D02*
X216310D01*
G01X290400Y-67500D02*
Y-242500D01*
G01X294585Y-211250D02*
Y-198750D01*
X301715Y-211250D01*
Y-198750D01*
G01X310550Y-211250D02*
X309310Y-211042D01*
X308225Y-210209D01*
X307295Y-208958D01*
X306675Y-207500D01*
X306365Y-205833D01*
Y-204167D01*
X306675Y-202500D01*
X307295Y-201042D01*
X308225Y-199792D01*
X309310Y-198958D01*
X310550Y-198750D01*
X311790Y-198958D01*
X312875Y-199792D01*
X313805Y-201042D01*
X314425Y-202500D01*
X314735Y-204167D01*
Y-205833D01*
X314425Y-207500D01*
X313805Y-208958D01*
X312875Y-210209D01*
X311790Y-211042D01*
X310550Y-211250D01*
G01X319385D02*
Y-198750D01*
X326515Y-211250D01*
Y-198750D01*
G01X333335Y-207083D02*
X337365D01*
G01X344650Y-211250D02*
Y-198750D01*
X348370D01*
X349610Y-199375D01*
X350540Y-200833D01*
X350850Y-202500D01*
X350540Y-204167D01*
X349765Y-205417D01*
X348370Y-206042D01*
X344650D01*
G01X357050Y-198750D02*
Y-211250D01*
X363250D01*
G01X368675D02*
X372550Y-198750D01*
X376425Y-211250D01*
G01X375030Y-206875D02*
X370070D01*
G01X384950Y-198750D02*
Y-211250D01*
G01X381385Y-198750D02*
X388515D01*
G01X400450Y-211250D02*
X394250D01*
Y-198750D01*
X400450D01*
G01X397970Y-204792D02*
X394250D01*
G01X406340Y-211250D02*
Y-198750D01*
X409440D01*
X410680Y-199375D01*
X411610Y-200208D01*
X412385Y-201458D01*
X413005Y-202917D01*
X413160Y-205000D01*
X413005Y-207083D01*
X412385Y-208542D01*
X411610Y-209792D01*
X410680Y-210625D01*
X409440Y-211250D01*
X406340D01*
G01X319850Y-236250D02*
Y-223750D01*
X323570D01*
X324810Y-224375D01*
X325740Y-225833D01*
X326050Y-227500D01*
X325740Y-229167D01*
X324965Y-230417D01*
X323570Y-231042D01*
X319850D01*
G01X332250Y-223750D02*
Y-236250D01*
X338450D01*
G01X343875D02*
X347750Y-223750D01*
X351625Y-236250D01*
G01X350230Y-231875D02*
X345270D01*
G01X360150Y-223750D02*
Y-236250D01*
G01X356585Y-223750D02*
X363715D01*
G01X375650Y-236250D02*
X369450D01*
Y-223750D01*
X375650D01*
G01X373170Y-229792D02*
X369450D01*
G01X381540Y-236250D02*
Y-223750D01*
X384640D01*
X385880Y-224375D01*
X386810Y-225208D01*
X387585Y-226458D01*
X388205Y-227917D01*
X388360Y-230000D01*
X388205Y-232083D01*
X387585Y-233542D01*
X386810Y-234792D01*
X385880Y-235625D01*
X384640Y-236250D01*
X381540D01*
G01X319850Y-186250D02*
Y-173750D01*
X323570D01*
X324810Y-174375D01*
X325740Y-175833D01*
X326050Y-177500D01*
X325740Y-179167D01*
X324965Y-180417D01*
X323570Y-181042D01*
X319850D01*
G01X332250Y-173750D02*
Y-186250D01*
X338450D01*
G01X343875D02*
X347750Y-173750D01*
X351625Y-186250D01*
G01X350230Y-181875D02*
X345270D01*
G01X360150Y-173750D02*
Y-186250D01*
G01X356585Y-173750D02*
X363715D01*
G01X375650Y-186250D02*
X369450D01*
Y-173750D01*
X375650D01*
G01X373170Y-179792D02*
X369450D01*
G01X381540Y-186250D02*
Y-173750D01*
X384640D01*
X385880Y-174375D01*
X386810Y-175208D01*
X387585Y-176458D01*
X388205Y-177917D01*
X388360Y-180000D01*
X388205Y-182083D01*
X387585Y-183542D01*
X386810Y-184792D01*
X385880Y-185625D01*
X384640Y-186250D01*
X381540D01*
G01X319850Y-161250D02*
Y-148750D01*
X323570D01*
X324810Y-149375D01*
X325740Y-150833D01*
X326050Y-152500D01*
X325740Y-154167D01*
X324965Y-155417D01*
X323570Y-156042D01*
X319850D01*
G01X332250Y-148750D02*
Y-161250D01*
X338450D01*
G01X343875D02*
X347750Y-148750D01*
X351625Y-161250D01*
G01X350230Y-156875D02*
X345270D01*
G01X360150Y-148750D02*
Y-161250D01*
G01X356585Y-148750D02*
X363715D01*
G01X375650Y-161250D02*
X369450D01*
Y-148750D01*
X375650D01*
G01X373170Y-154792D02*
X369450D01*
G01X381540Y-161250D02*
Y-148750D01*
X384640D01*
X385880Y-149375D01*
X386810Y-150208D01*
X387585Y-151458D01*
X388205Y-152917D01*
X388360Y-155000D01*
X388205Y-157083D01*
X387585Y-158542D01*
X386810Y-159792D01*
X385880Y-160625D01*
X384640Y-161250D01*
X381540D01*
G01X319850Y-136250D02*
Y-123750D01*
X323570D01*
X324810Y-124375D01*
X325740Y-125833D01*
X326050Y-127500D01*
X325740Y-129167D01*
X324965Y-130417D01*
X323570Y-131042D01*
X319850D01*
G01X332250Y-123750D02*
Y-136250D01*
X338450D01*
G01X343875D02*
X347750Y-123750D01*
X351625Y-136250D01*
G01X350230Y-131875D02*
X345270D01*
G01X360150Y-123750D02*
Y-136250D01*
G01X356585Y-123750D02*
X363715D01*
G01X375650Y-136250D02*
X369450D01*
Y-123750D01*
X375650D01*
G01X373170Y-129792D02*
X369450D01*
G01X381540Y-136250D02*
Y-123750D01*
X384640D01*
X385880Y-124375D01*
X386810Y-125208D01*
X387585Y-126458D01*
X388205Y-127917D01*
X388360Y-130000D01*
X388205Y-132083D01*
X387585Y-133542D01*
X386810Y-134792D01*
X385880Y-135625D01*
X384640Y-136250D01*
X381540D01*
G01X319850Y-111250D02*
Y-98750D01*
X323570D01*
X324810Y-99375D01*
X325740Y-100833D01*
X326050Y-102500D01*
X325740Y-104167D01*
X324965Y-105417D01*
X323570Y-106042D01*
X319850D01*
G01X332250Y-98750D02*
Y-111250D01*
X338450D01*
G01X343875D02*
X347750Y-98750D01*
X351625Y-111250D01*
G01X350230Y-106875D02*
X345270D01*
G01X360150Y-98750D02*
Y-111250D01*
G01X356585Y-98750D02*
X363715D01*
G01X375650Y-111250D02*
X369450D01*
Y-98750D01*
X375650D01*
G01X373170Y-104792D02*
X369450D01*
G01X381540Y-111250D02*
Y-98750D01*
X384640D01*
X385880Y-99375D01*
X386810Y-100208D01*
X387585Y-101458D01*
X388205Y-102917D01*
X388360Y-105000D01*
X388205Y-107083D01*
X387585Y-108542D01*
X386810Y-109792D01*
X385880Y-110625D01*
X384640Y-111250D01*
X381540D01*
G01X319850Y-86250D02*
Y-73750D01*
X323570D01*
X324810Y-74375D01*
X325740Y-75833D01*
X326050Y-77500D01*
X325740Y-79167D01*
X324965Y-80417D01*
X323570Y-81042D01*
X319850D01*
G01X332250Y-73750D02*
Y-86250D01*
X338450D01*
G01X343875D02*
X347750Y-73750D01*
X351625Y-86250D01*
G01X350230Y-81875D02*
X345270D01*
G01X360150Y-73750D02*
Y-86250D01*
G01X356585Y-73750D02*
X363715D01*
G01X375650Y-86250D02*
X369450D01*
Y-73750D01*
X375650D01*
G01X373170Y-79792D02*
X369450D01*
G01X381540Y-86250D02*
Y-73750D01*
X384640D01*
X385880Y-74375D01*
X386810Y-75208D01*
X387585Y-76458D01*
X388205Y-77917D01*
X388360Y-80000D01*
X388205Y-82083D01*
X387585Y-83542D01*
X386810Y-84792D01*
X385880Y-85625D01*
X384640Y-86250D01*
X381540D01*
G01X417500Y-67500D02*
Y-242500D01*
G01X443850Y-111250D02*
Y-98750D01*
X441990Y-101250D01*
G01Y-111250D02*
X445710D01*
G01X453615Y-109792D02*
X454700Y-110833D01*
X455940Y-111250D01*
X457180Y-110833D01*
X458265Y-109584D01*
X459040Y-107708D01*
X459350Y-105833D01*
Y-103542D01*
X459040Y-101667D01*
X458265Y-100000D01*
X457335Y-99167D01*
X456250Y-98750D01*
X455010Y-99167D01*
X454080Y-100000D01*
X453460Y-101250D01*
X453150Y-102917D01*
X453460Y-104375D01*
X454235Y-105833D01*
X455165Y-106667D01*
X456250Y-106875D01*
X457490Y-106459D01*
X458420Y-105417D01*
X459350Y-103542D01*
G01X466015Y-109792D02*
X467100Y-110833D01*
X468340Y-111250D01*
X469580Y-110833D01*
X470665Y-109584D01*
X471440Y-107708D01*
X471750Y-105833D01*
Y-103542D01*
X471440Y-101667D01*
X470665Y-100000D01*
X469735Y-99167D01*
X468650Y-98750D01*
X467410Y-99167D01*
X466480Y-100000D01*
X465860Y-101250D01*
X465550Y-102917D01*
X465860Y-104375D01*
X466635Y-105833D01*
X467565Y-106667D01*
X468650Y-106875D01*
X469890Y-106459D01*
X470820Y-105417D01*
X471750Y-103542D01*
G01X443850Y-86250D02*
X442610Y-86042D01*
X441525Y-85209D01*
X440595Y-83958D01*
X439975Y-82500D01*
X439665Y-80833D01*
Y-79167D01*
X439975Y-77500D01*
X440595Y-76042D01*
X441525Y-74792D01*
X442610Y-73958D01*
X443850Y-73750D01*
X445090Y-73958D01*
X446175Y-74792D01*
X447105Y-76042D01*
X447725Y-77500D01*
X448035Y-79167D01*
Y-80833D01*
X447725Y-82500D01*
X447105Y-83958D01*
X446175Y-85209D01*
X445090Y-86042D01*
X443850Y-86250D01*
G01X445090Y-82917D02*
X446950Y-86250D01*
G01X456250Y-73750D02*
Y-86250D01*
G01X452685Y-73750D02*
X459815D01*
G01X468650Y-86250D02*
Y-80625D01*
X465550Y-73750D01*
G01X471750D02*
X468650Y-80625D01*
G01X458110Y-236250D02*
Y-223750D01*
X452375Y-232708D01*
X460125D01*
G01X453305Y-200833D02*
X454235Y-199584D01*
X455320Y-198958D01*
X456560Y-198750D01*
X458110Y-199167D01*
X459195Y-200208D01*
X459505Y-201458D01*
X459350Y-202709D01*
X458730Y-203750D01*
X455630Y-205833D01*
X454235Y-207292D01*
X453305Y-209375D01*
X452995Y-211250D01*
X459505D01*
G01X458110Y-186250D02*
Y-173750D01*
X452375Y-182708D01*
X460125D01*
G01X447105Y-150833D02*
X448035Y-149584D01*
X449120Y-148958D01*
X450360Y-148750D01*
X451910Y-149167D01*
X452995Y-150208D01*
X453305Y-151458D01*
X453150Y-152709D01*
X452530Y-153750D01*
X449430Y-155833D01*
X448035Y-157292D01*
X447105Y-159375D01*
X446795Y-161250D01*
X453305D01*
G01X459040Y-159375D02*
X459970Y-160417D01*
X461055Y-161042D01*
X462450Y-161250D01*
X463845Y-160833D01*
X464930Y-160000D01*
X465705Y-158542D01*
X465860Y-156875D01*
X465550Y-155208D01*
X464775Y-154167D01*
X463690Y-153333D01*
X462605Y-153125D01*
X461520Y-153333D01*
X460125Y-154167D01*
X460590Y-148750D01*
X464775D01*
G01X450050Y-136250D02*
Y-123750D01*
X448190Y-126250D01*
G01Y-136250D02*
X451910D01*
G01X459040Y-133750D02*
X459970Y-135209D01*
X461210Y-136042D01*
X462605Y-136250D01*
X463845Y-136042D01*
X465085Y-135000D01*
X465860Y-133750D01*
X466015Y-132500D01*
X465705Y-131042D01*
X464620Y-130000D01*
X463535Y-129583D01*
X462140D01*
G01X463535D02*
X464465Y-128958D01*
X465240Y-127917D01*
X465550Y-126667D01*
X465240Y-125417D01*
X464465Y-124375D01*
X463070Y-123750D01*
X461675Y-123958D01*
X460280Y-124792D01*
M02*
