%FSLAX25Y25*%
%MOIN*%
%ADD10C,0.006*%
%ADD11C,0.0393701*%
%ADD12C,0.00433*%
%IPPOS*%
G75*
G54D12*
X0Y11811D02*
G03X11811Y0I11811J0D01*
G01X224410D01*
G03X236221Y11811I-00000J11811D01*
G01Y106299D01*
G03X224410Y118110I-11811J-00000D01*
G01X11811D01*
G03X0Y106299I-00000J-11811D01*
G01Y11811D01*
Y129921D02*
G03X11811Y118110I11811J0D01*
G01X224410D01*
G03X236221Y129921I-00000J11811D01*
G01Y224409D01*
G03X224410Y236220I-11811J-00000D01*
G01X11811D01*
G03X0Y224409I-00000J-11811D01*
G01Y129921D01*
X240148Y11811D02*
G03X251959Y0I11811J0D01*
G01X464558D01*
G03X476369Y11811I-00000J11811D01*
G01Y106299D01*
G03X464558Y118110I-11811J-00000D01*
G01X251959D01*
G03X240148Y106299I-00000J-11811D01*
G01Y11811D01*
Y129921D02*
G03X251959Y118110I11811J0D01*
G01X464558D01*
G03X476369Y129921I-00000J11811D01*
G01Y224409D01*
G03X464558Y236220I-11811J-00000D01*
G01X251959D01*
G03X240148Y224409I-00000J-11811D01*
G01Y129921D01*
G54D10*
X476359Y251968D02*
G03X472422Y255905I-03937J0D01*
X3937D02*
G03X0Y251968I0J-03937D01*
Y236220D02*
G01X476359D01*
Y251968D01*
X472422Y255905D02*
X3937D01*
X0Y251968D02*
Y236220D01*
X31496Y246063D02*
G03I-03937J0D01*
X460611D02*
G03I-03937J0D01*
G54D11*
X47244Y240157D03*
X436989D03*
G54D10*
X0Y-15748D02*
G03X3937Y-19685I3937J0D01*
X472422D02*
G03X476359Y-15748I0J3937D01*
X3937Y-19685D02*
G01X472422D01*
X476359Y-15748D02*
Y0D01*
X0D01*
Y-15748D01*
X23622Y-09843D02*
G03I-03937J0D01*
X460611D02*
G03I-03937J0D01*
G54D11*
X39370Y-03937D03*
X436989D03*
M02*
