G04 ================== begin FILE IDENTIFICATION RECORD ==================*
G04 Layout Name:  F:/ST-LINK-V2/Hardware/Optimize/allegro/st-link-v2_pro_opt.brd*
G04 Film Name:    SILKSCREEN_TOP*
G04 File Format:  Gerber RS274X*
G04 File Origin:  Cadence Allegro 17.4-S035*
G04 Origin Date:  Sat Dec 23 13:48:44 2023*
G04 *
G04 Layer:  REF DES/SILKSCREEN_TOP*
G04 Layer:  PACKAGE GEOMETRY/SILKSCREEN_TOP*
G04 Layer:  BOARD GEOMETRY/SILKSCREEN_TOP*
G04 Layer:  BOARD GEOMETRY/DESIGN_OUTLINE*
G04 *
G04 Offset:    (0.00 0.00)*
G04 Mirror:    No*
G04 Mode:      Positive*
G04 Rotation:  0*
G04 FullContactRelief:  No*
G04 UndefLineWidth:     6.00*
G04 ================== end FILE IDENTIFICATION RECORD ====================*
%FSLAX55Y55*MOIN*%
%IR0*IPPOS*OFA0.00000B0.00000*MIA0B0*SFA1.00000B1.00000*%
%ADD10C,.01*%
%ADD11C,.006*%
%ADD12C,.00472*%
%ADD13C,.00984*%
%ADD14C,.00787*%
G75*
%LPD*%
G75*
G36*
G01X114194Y37047D02*
G02I-590J0D01*
G37*
G54D10*
G01X36441Y87910D02*
X28960D01*
G01D02*
X25410Y91460D01*
G01X27480Y84960D02*
X23956Y88484D01*
G01X37520Y84960D02*
X27480D01*
G01X25410Y98540D02*
Y91460D01*
G01X29350Y102480D02*
X25410Y98540D01*
G01X36041Y102480D02*
X29350D01*
G01X27480Y105040D02*
X23956Y101516D01*
G01X37520Y105040D02*
X27480D01*
G01X37522Y95000D02*
G03I-5021J0D01*
G01X39591Y91060D02*
X36441Y87910D01*
G01X41044Y88484D02*
X37520Y84960D01*
G01X39591Y98930D02*
X36041Y102480D01*
G01X39591Y98930D02*
Y91060D01*
G01X41044Y101516D02*
X37520Y105040D01*
G01X161440Y85410D02*
X153960D01*
G01D02*
X150410Y88960D01*
G01X164590Y96430D02*
Y88560D01*
G01D02*
X161440Y85410D01*
G01X152480Y82460D02*
X148956Y85984D01*
G01X166044D02*
X162520Y82460D01*
G01D02*
X152480D01*
G01X162521Y92500D02*
G03I-5021J0D01*
G01X150410Y96040D02*
Y88960D01*
G01X154350Y99980D02*
X150410Y96040D01*
G01X161040Y99980D02*
X154350D01*
G01X164590Y96430D02*
X161040Y99980D01*
G01X152480Y102540D02*
X148956Y99016D01*
G01X166044D02*
X162520Y102540D01*
G01D02*
X152480D01*
G54D11*
G01X0Y11811D02*
G03X11811Y0I11811J0D01*
G01X224410D01*
G03X236221Y11811I0J11811D01*
G01Y106299D01*
G03X224410Y118110I-11811J0D01*
G01X11811D01*
G03X0Y106299I0J-11811D01*
G01Y11811D01*
G01X5750Y16300D02*
X6150Y16050D01*
X6600Y15900D01*
X7000D01*
X7400Y16050D01*
X7700Y16300D01*
X7850Y16650D01*
X7750Y17000D01*
X7500Y17300D01*
X7050Y17500D01*
X6450Y17600D01*
X6100Y17800D01*
X5950Y18150D01*
X6050Y18500D01*
X6300Y18750D01*
X6650Y18900D01*
X7000D01*
X7350Y18800D01*
X7650Y18550D01*
G01X9350Y15900D02*
Y18900D01*
G01X11450D02*
Y15900D01*
G01Y17400D02*
X9350D01*
G01X14000Y15900D02*
Y18900D01*
X13400Y18300D01*
G01Y15900D02*
X14600D01*
G01X5150Y94000D02*
X5550Y93750D01*
X6000Y93600D01*
X6400D01*
X6800Y93750D01*
X7100Y94000D01*
X7250Y94350D01*
X7150Y94700D01*
X6900Y95000D01*
X6450Y95200D01*
X5850Y95300D01*
X5500Y95500D01*
X5350Y95850D01*
X5450Y96200D01*
X5700Y96450D01*
X6050Y96600D01*
X6400D01*
X6750Y96500D01*
X7050Y96250D01*
G01X8300Y96600D02*
X9000Y93600D01*
X9800Y96600D01*
X10600Y93600D01*
X11300Y96600D01*
G01X13400Y93600D02*
Y96600D01*
X12800Y96000D01*
G01Y93600D02*
X14000D01*
G01X4950Y99700D02*
X5350Y99450D01*
X5800Y99300D01*
X6200D01*
X6600Y99450D01*
X6900Y99700D01*
X7050Y100050D01*
X6950Y100400D01*
X6700Y100700D01*
X6250Y100900D01*
X5650Y101000D01*
X5300Y101200D01*
X5150Y101550D01*
X5250Y101900D01*
X5500Y102150D01*
X5850Y102300D01*
X6200D01*
X6550Y102200D01*
X6850Y101950D01*
G01X8550Y99300D02*
Y102300D01*
G01X10650D02*
Y99300D01*
G01Y100800D02*
X8550D01*
G01X13800Y99300D02*
Y102300D01*
X11950Y100150D01*
X14450D01*
G01X16900Y26800D02*
Y29800D01*
X17900D01*
X18300Y29650D01*
X18600Y29450D01*
X18850Y29150D01*
X19050Y28800D01*
X19100Y28300D01*
X19050Y27800D01*
X18850Y27450D01*
X18600Y27150D01*
X18300Y26950D01*
X17900Y26800D01*
X16900D01*
G01X21600D02*
X21950Y26850D01*
X22350Y27000D01*
X22600Y27250D01*
X22700Y27600D01*
X22600Y27950D01*
X22300Y28250D01*
X21850Y28400D01*
X21350D01*
X21050Y28500D01*
X20800Y28750D01*
X20700Y29100D01*
X20850Y29450D01*
X21200Y29700D01*
X21600Y29800D01*
X22000Y29700D01*
X22350Y29450D01*
X22500Y29100D01*
X22400Y28750D01*
X22150Y28500D01*
X21850Y28400D01*
X21350D01*
X20900Y28250D01*
X20600Y27950D01*
X20500Y27600D01*
X20600Y27250D01*
X20850Y27000D01*
X21250Y26850D01*
X21600Y26800D01*
G01X16800Y19400D02*
Y22400D01*
X17800D01*
X18200Y22250D01*
X18500Y22050D01*
X18750Y21750D01*
X18950Y21400D01*
X19000Y20900D01*
X18950Y20400D01*
X18750Y20050D01*
X18500Y19750D01*
X18200Y19550D01*
X17800Y19400D01*
X16800D01*
G01X20650Y19750D02*
X21000Y19500D01*
X21400Y19400D01*
X21800Y19500D01*
X22150Y19800D01*
X22400Y20250D01*
X22500Y20700D01*
Y21250D01*
X22400Y21700D01*
X22150Y22100D01*
X21850Y22300D01*
X21500Y22400D01*
X21100Y22300D01*
X20800Y22100D01*
X20600Y21800D01*
X20500Y21400D01*
X20600Y21050D01*
X20850Y20700D01*
X21150Y20500D01*
X21500Y20450D01*
X21900Y20550D01*
X22200Y20800D01*
X22500Y21250D01*
G01X16800Y15100D02*
X17050Y14800D01*
X17350Y14600D01*
X17700Y14500D01*
X18100Y14600D01*
X18400Y14800D01*
X18700Y15100D01*
X18800Y15500D01*
Y17500D01*
G01X20300Y15100D02*
X20600Y14750D01*
X21000Y14550D01*
X21450Y14500D01*
X21850Y14550D01*
X22250Y14800D01*
X22500Y15100D01*
X22550Y15400D01*
X22450Y15750D01*
X22100Y16000D01*
X21750Y16100D01*
X21300D01*
G01X21750D02*
X22050Y16250D01*
X22300Y16500D01*
X22400Y16800D01*
X22300Y17100D01*
X22050Y17350D01*
X21600Y17500D01*
X21150Y17450D01*
X20700Y17250D01*
G01X16400Y79500D02*
X16650Y79200D01*
X16950Y79000D01*
X17300Y78900D01*
X17700Y79000D01*
X18000Y79200D01*
X18300Y79500D01*
X18400Y79900D01*
Y81900D01*
G01X21000Y78900D02*
Y81900D01*
X20400Y81300D01*
G01Y78900D02*
X21600D01*
G01X38500Y49000D02*
Y52000D01*
X39500D01*
X39900Y51850D01*
X40200Y51650D01*
X40450Y51350D01*
X40650Y51000D01*
X40700Y50500D01*
X40650Y50000D01*
X40450Y49650D01*
X40200Y49350D01*
X39900Y49150D01*
X39500Y49000D01*
X38500D01*
G01X43800D02*
Y52000D01*
X41950Y49850D01*
X44450D01*
G01X34800Y33700D02*
Y36700D01*
X36050D01*
X36450Y36550D01*
X36700Y36350D01*
X36800Y35950D01*
X36700Y35550D01*
X36400Y35300D01*
X36050Y35150D01*
X34800D01*
G01X36050D02*
X36800Y33700D01*
G01X39400D02*
Y36700D01*
X38800Y36100D01*
G01Y33700D02*
X40000D01*
G01X42050Y36200D02*
X42350Y36500D01*
X42700Y36650D01*
X43100Y36700D01*
X43600Y36600D01*
X43950Y36350D01*
X44050Y36050D01*
X44000Y35750D01*
X43800Y35500D01*
X42800Y35000D01*
X42350Y34650D01*
X42050Y34150D01*
X41950Y33700D01*
X44050D01*
G01X38500Y38200D02*
Y41200D01*
X39750D01*
X40150Y41050D01*
X40400Y40850D01*
X40500Y40450D01*
X40400Y40050D01*
X40100Y39800D01*
X39750Y39650D01*
X38500D01*
G01X39750D02*
X40500Y38200D01*
G01X43000D02*
X43100Y38850D01*
X43250Y39400D01*
X43450Y39900D01*
X43700Y40450D01*
X44100Y41200D01*
X42100D01*
G01X38600Y42400D02*
Y45400D01*
X39850D01*
X40250Y45250D01*
X40500Y45050D01*
X40600Y44650D01*
X40500Y44250D01*
X40200Y44000D01*
X39850Y43850D01*
X38600D01*
G01X39850D02*
X40600Y42400D01*
G01X42100Y42850D02*
X42400Y42600D01*
X42750Y42450D01*
X43200Y42400D01*
X43650Y42500D01*
X44000Y42700D01*
X44250Y43050D01*
X44300Y43450D01*
X44200Y43850D01*
X43950Y44100D01*
X43600Y44300D01*
X43250Y44350D01*
X42900Y44300D01*
X42450Y44100D01*
X42600Y45400D01*
X43950D01*
G01X38500Y54700D02*
Y57700D01*
X39500D01*
X39900Y57550D01*
X40200Y57350D01*
X40450Y57050D01*
X40650Y56700D01*
X40700Y56200D01*
X40650Y55700D01*
X40450Y55350D01*
X40200Y55050D01*
X39900Y54850D01*
X39500Y54700D01*
X38500D01*
G01X42100Y55300D02*
X42400Y54950D01*
X42800Y54750D01*
X43250Y54700D01*
X43650Y54750D01*
X44050Y55000D01*
X44300Y55300D01*
X44350Y55600D01*
X44250Y55950D01*
X43900Y56200D01*
X43550Y56300D01*
X43100D01*
G01X43550D02*
X43850Y56450D01*
X44100Y56700D01*
X44200Y57000D01*
X44100Y57300D01*
X43850Y57550D01*
X43400Y57700D01*
X42950Y57650D01*
X42500Y57450D01*
G01X38700Y61100D02*
Y64100D01*
X39950D01*
X40350Y63950D01*
X40600Y63750D01*
X40700Y63350D01*
X40600Y62950D01*
X40300Y62700D01*
X39950Y62550D01*
X38700D01*
G01X39950D02*
X40700Y61100D01*
G01X43900D02*
Y64100D01*
X42050Y61950D01*
X44550D01*
G01X53200Y92150D02*
X52900Y92300D01*
X52550Y92400D01*
X52150D01*
X51700Y92250D01*
X51350Y92000D01*
X51100Y91700D01*
X50900Y91200D01*
X50850Y90750D01*
X50950Y90300D01*
X51100Y90000D01*
X51400Y89700D01*
X51750Y89500D01*
X52100Y89400D01*
X52450D01*
X52800Y89500D01*
X53100Y89650D01*
X53350Y89850D01*
G01X54750Y91900D02*
X55050Y92200D01*
X55400Y92350D01*
X55800Y92400D01*
X56300Y92300D01*
X56650Y92050D01*
X56750Y91750D01*
X56700Y91450D01*
X56500Y91200D01*
X55500Y90700D01*
X55050Y90350D01*
X54750Y89850D01*
X54650Y89400D01*
X56750D01*
G01X53300Y87450D02*
X53000Y87600D01*
X52650Y87700D01*
X52250D01*
X51800Y87550D01*
X51450Y87300D01*
X51200Y87000D01*
X51000Y86500D01*
X50950Y86050D01*
X51050Y85600D01*
X51200Y85300D01*
X51500Y85000D01*
X51850Y84800D01*
X52200Y84700D01*
X52550D01*
X52900Y84800D01*
X53200Y84950D01*
X53450Y85150D01*
G01X54700Y85300D02*
X55000Y84950D01*
X55400Y84750D01*
X55850Y84700D01*
X56250Y84750D01*
X56650Y85000D01*
X56900Y85300D01*
X56950Y85600D01*
X56850Y85950D01*
X56500Y86200D01*
X56150Y86300D01*
X55700D01*
G01X56150D02*
X56450Y86450D01*
X56700Y86700D01*
X56800Y87000D01*
X56700Y87300D01*
X56450Y87550D01*
X56000Y87700D01*
X55550Y87650D01*
X55100Y87450D01*
G01X36200Y79300D02*
Y82300D01*
X37200D01*
X37600Y82150D01*
X37900Y81950D01*
X38150Y81650D01*
X38350Y81300D01*
X38400Y80800D01*
X38350Y80300D01*
X38150Y79950D01*
X37900Y79650D01*
X37600Y79450D01*
X37200Y79300D01*
X36200D01*
G01X40900D02*
Y82300D01*
X40300Y81700D01*
G01Y79300D02*
X41500D01*
G01X36100Y74800D02*
Y77800D01*
X37100D01*
X37500Y77650D01*
X37800Y77450D01*
X38050Y77150D01*
X38250Y76800D01*
X38300Y76300D01*
X38250Y75800D01*
X38050Y75450D01*
X37800Y75150D01*
X37500Y74950D01*
X37100Y74800D01*
X36100D01*
G01X39850Y77300D02*
X40150Y77600D01*
X40500Y77750D01*
X40900Y77800D01*
X41400Y77700D01*
X41750Y77450D01*
X41850Y77150D01*
X41800Y76850D01*
X41600Y76600D01*
X40600Y76100D01*
X40150Y75750D01*
X39850Y75250D01*
X39750Y74800D01*
X41850D01*
G01X66200Y27500D02*
X65800Y27550D01*
X65450Y27750D01*
X65150Y28050D01*
X64950Y28400D01*
X64850Y28800D01*
Y29200D01*
X64950Y29600D01*
X65150Y29950D01*
X65450Y30250D01*
X65800Y30450D01*
X66200Y30500D01*
X66600Y30450D01*
X66950Y30250D01*
X67250Y29950D01*
X67450Y29600D01*
X67550Y29200D01*
Y28800D01*
X67450Y28400D01*
X67250Y28050D01*
X66950Y27750D01*
X66600Y27550D01*
X66200Y27500D01*
G01X66600Y28300D02*
X67200Y27500D01*
G01X69800D02*
Y30500D01*
X69200Y29900D01*
G01Y27500D02*
X70400D01*
G01X63900Y19200D02*
Y22200D01*
X65150D01*
X65550Y22050D01*
X65800Y21850D01*
X65900Y21450D01*
X65800Y21050D01*
X65500Y20800D01*
X65150Y20650D01*
X63900D01*
G01X65150D02*
X65900Y19200D01*
G01X69100D02*
Y22200D01*
X67250Y20050D01*
X69750D01*
G01X72100Y19200D02*
Y22200D01*
X71500Y21600D01*
G01Y19200D02*
X72700D01*
G01X63900Y14900D02*
Y17900D01*
X65150D01*
X65550Y17750D01*
X65800Y17550D01*
X65900Y17150D01*
X65800Y16750D01*
X65500Y16500D01*
X65150Y16350D01*
X63900D01*
G01X65150D02*
X65900Y14900D01*
G01X69100D02*
Y17900D01*
X67250Y15750D01*
X69750D01*
G01X71150Y17400D02*
X71450Y17700D01*
X71800Y17850D01*
X72200Y17900D01*
X72700Y17800D01*
X73050Y17550D01*
X73150Y17250D01*
X73100Y16950D01*
X72900Y16700D01*
X71900Y16200D01*
X71450Y15850D01*
X71150Y15350D01*
X71050Y14900D01*
X73150D01*
G01X53400Y24500D02*
Y27500D01*
X54650D01*
X55050Y27350D01*
X55300Y27150D01*
X55400Y26750D01*
X55300Y26350D01*
X55000Y26100D01*
X54650Y25950D01*
X53400D01*
G01X54650D02*
X55400Y24500D01*
G01X56900Y25100D02*
X57200Y24750D01*
X57600Y24550D01*
X58050Y24500D01*
X58450Y24550D01*
X58850Y24800D01*
X59100Y25100D01*
X59150Y25400D01*
X59050Y25750D01*
X58700Y26000D01*
X58350Y26100D01*
X57900D01*
G01X58350D02*
X58650Y26250D01*
X58900Y26500D01*
X59000Y26800D01*
X58900Y27100D01*
X58650Y27350D01*
X58200Y27500D01*
X57750Y27450D01*
X57300Y27250D01*
G01X61600Y27500D02*
X61200Y27400D01*
X60900Y27150D01*
X60700Y26850D01*
X60550Y26450D01*
X60500Y26000D01*
X60550Y25550D01*
X60700Y25150D01*
X60900Y24850D01*
X61200Y24600D01*
X61600Y24500D01*
X62000Y24600D01*
X62300Y24850D01*
X62500Y25150D01*
X62650Y25550D01*
X62700Y26000D01*
X62650Y26450D01*
X62500Y26850D01*
X62300Y27150D01*
X62000Y27400D01*
X61600Y27500D01*
G01X53400Y19500D02*
Y22500D01*
X54650D01*
X55050Y22350D01*
X55300Y22150D01*
X55400Y21750D01*
X55300Y21350D01*
X55000Y21100D01*
X54650Y20950D01*
X53400D01*
G01X54650D02*
X55400Y19500D01*
G01X56900Y20100D02*
X57200Y19750D01*
X57600Y19550D01*
X58050Y19500D01*
X58450Y19550D01*
X58850Y19800D01*
X59100Y20100D01*
X59150Y20400D01*
X59050Y20750D01*
X58700Y21000D01*
X58350Y21100D01*
X57900D01*
G01X58350D02*
X58650Y21250D01*
X58900Y21500D01*
X59000Y21800D01*
X58900Y22100D01*
X58650Y22350D01*
X58200Y22500D01*
X57750Y22450D01*
X57300Y22250D01*
G01X60650Y20750D02*
X61000Y21100D01*
X61300Y21300D01*
X61700Y21400D01*
X62050Y21300D01*
X62300Y21100D01*
X62500Y20800D01*
X62550Y20450D01*
X62500Y20150D01*
X62300Y19850D01*
X62000Y19600D01*
X61650Y19500D01*
X61250Y19600D01*
X60900Y19900D01*
X60700Y20350D01*
X60650Y20850D01*
X60750Y21500D01*
X60900Y21850D01*
X61150Y22200D01*
X61500Y22450D01*
X61850Y22500D01*
X62200Y22400D01*
X62450Y22150D01*
G01X68600Y49700D02*
Y52700D01*
X69850D01*
X70250Y52550D01*
X70500Y52350D01*
X70600Y51950D01*
X70500Y51550D01*
X70200Y51300D01*
X69850Y51150D01*
X68600D01*
G01X69850D02*
X70600Y49700D01*
G01X73200D02*
Y52700D01*
X72600Y52100D01*
G01Y49700D02*
X73800D01*
G01X76800D02*
Y52700D01*
X76200Y52100D01*
G01Y49700D02*
X77400D01*
G01X69100Y38700D02*
Y41700D01*
X70350D01*
X70750Y41550D01*
X71000Y41350D01*
X71100Y40950D01*
X71000Y40550D01*
X70700Y40300D01*
X70350Y40150D01*
X69100D01*
G01X70350D02*
X71100Y38700D01*
G01X73700D02*
Y41700D01*
X73100Y41100D01*
G01Y38700D02*
X74300D01*
G01X77900D02*
Y41700D01*
X76050Y39550D01*
X78550D01*
G01X68800Y54800D02*
Y57800D01*
X70050D01*
X70450Y57650D01*
X70700Y57450D01*
X70800Y57050D01*
X70700Y56650D01*
X70400Y56400D01*
X70050Y56250D01*
X68800D01*
G01X70050D02*
X70800Y54800D01*
G01X73400D02*
X73750Y54850D01*
X74150Y55000D01*
X74400Y55250D01*
X74500Y55600D01*
X74400Y55950D01*
X74100Y56250D01*
X73650Y56400D01*
X73150D01*
X72850Y56500D01*
X72600Y56750D01*
X72500Y57100D01*
X72650Y57450D01*
X73000Y57700D01*
X73400Y57800D01*
X73800Y57700D01*
X74150Y57450D01*
X74300Y57100D01*
X74200Y56750D01*
X73950Y56500D01*
X73650Y56400D01*
X73150D01*
X72700Y56250D01*
X72400Y55950D01*
X72300Y55600D01*
X72400Y55250D01*
X72650Y55000D01*
X73050Y54850D01*
X73400Y54800D01*
G01X51600Y100500D02*
X51850Y100200D01*
X52150Y100000D01*
X52500Y99900D01*
X52900Y100000D01*
X53200Y100200D01*
X53500Y100500D01*
X53600Y100900D01*
Y102900D01*
G01X55250Y102400D02*
X55550Y102700D01*
X55900Y102850D01*
X56300Y102900D01*
X56800Y102800D01*
X57150Y102550D01*
X57250Y102250D01*
X57200Y101950D01*
X57000Y101700D01*
X56000Y101200D01*
X55550Y100850D01*
X55250Y100350D01*
X55150Y99900D01*
X57250D01*
G01X70900Y103150D02*
X70600Y103300D01*
X70250Y103400D01*
X69850D01*
X69400Y103250D01*
X69050Y103000D01*
X68800Y102700D01*
X68600Y102200D01*
X68550Y101750D01*
X68650Y101300D01*
X68800Y101000D01*
X69100Y100700D01*
X69450Y100500D01*
X69800Y100400D01*
X70150D01*
X70500Y100500D01*
X70800Y100650D01*
X71050Y100850D01*
G01X74000Y100400D02*
Y103400D01*
X72150Y101250D01*
X74650D01*
G01X70800Y98750D02*
X70500Y98900D01*
X70150Y99000D01*
X69750D01*
X69300Y98850D01*
X68950Y98600D01*
X68700Y98300D01*
X68500Y97800D01*
X68450Y97350D01*
X68550Y96900D01*
X68700Y96600D01*
X69000Y96300D01*
X69350Y96100D01*
X69700Y96000D01*
X70050D01*
X70400Y96100D01*
X70700Y96250D01*
X70950Y96450D01*
G01X72200D02*
X72500Y96200D01*
X72850Y96050D01*
X73300Y96000D01*
X73750Y96100D01*
X74100Y96300D01*
X74350Y96650D01*
X74400Y97050D01*
X74300Y97450D01*
X74050Y97700D01*
X73700Y97900D01*
X73350Y97950D01*
X73000Y97900D01*
X72550Y97700D01*
X72700Y99000D01*
X74050D01*
G01X60500Y100300D02*
Y103300D01*
X61500D01*
X61900Y103150D01*
X62200Y102950D01*
X62450Y102650D01*
X62650Y102300D01*
X62700Y101800D01*
X62650Y101300D01*
X62450Y100950D01*
X62200Y100650D01*
X61900Y100450D01*
X61500Y100300D01*
X60500D01*
G01X64100Y100750D02*
X64400Y100500D01*
X64750Y100350D01*
X65200Y100300D01*
X65650Y100400D01*
X66000Y100600D01*
X66250Y100950D01*
X66300Y101350D01*
X66200Y101750D01*
X65950Y102000D01*
X65600Y102200D01*
X65250Y102250D01*
X64900Y102200D01*
X64450Y102000D01*
X64600Y103300D01*
X65950D01*
G01X60700Y96000D02*
Y99000D01*
X61950D01*
X62350Y98850D01*
X62600Y98650D01*
X62700Y98250D01*
X62600Y97850D01*
X62300Y97600D01*
X61950Y97450D01*
X60700D01*
G01X61950D02*
X62700Y96000D01*
G01X64350Y97250D02*
X64700Y97600D01*
X65000Y97800D01*
X65400Y97900D01*
X65750Y97800D01*
X66000Y97600D01*
X66200Y97300D01*
X66250Y96950D01*
X66200Y96650D01*
X66000Y96350D01*
X65700Y96100D01*
X65350Y96000D01*
X64950Y96100D01*
X64600Y96400D01*
X64400Y96850D01*
X64350Y97350D01*
X64450Y98000D01*
X64600Y98350D01*
X64850Y98700D01*
X65200Y98950D01*
X65550Y99000D01*
X65900Y98900D01*
X66150Y98650D01*
G01X74700Y14900D02*
Y17900D01*
X75950D01*
X76350Y17750D01*
X76600Y17550D01*
X76700Y17150D01*
X76600Y16750D01*
X76300Y16500D01*
X75950Y16350D01*
X74700D01*
G01X75950D02*
X76700Y14900D01*
G01X79300D02*
Y17900D01*
X78700Y17300D01*
G01Y14900D02*
X79900D01*
G01X82900Y17900D02*
X82500Y17800D01*
X82200Y17550D01*
X82000Y17250D01*
X81850Y16850D01*
X81800Y16400D01*
X81850Y15950D01*
X82000Y15550D01*
X82200Y15250D01*
X82500Y15000D01*
X82900Y14900D01*
X83300Y15000D01*
X83600Y15250D01*
X83800Y15550D01*
X83950Y15950D01*
X84000Y16400D01*
X83950Y16850D01*
X83800Y17250D01*
X83600Y17550D01*
X83300Y17800D01*
X82900Y17900D01*
G01X87400Y18200D02*
Y19550D01*
X86400Y21200D01*
G01X88400D02*
X87400Y19550D01*
G01X90050Y20700D02*
X90350Y21000D01*
X90700Y21150D01*
X91100Y21200D01*
X91600Y21100D01*
X91950Y20850D01*
X92050Y20550D01*
X92000Y20250D01*
X91800Y20000D01*
X90800Y19500D01*
X90350Y19150D01*
X90050Y18650D01*
X89950Y18200D01*
X92050D01*
G01X92100Y47950D02*
X91800Y48100D01*
X91450Y48200D01*
X91050D01*
X90600Y48050D01*
X90250Y47800D01*
X90000Y47500D01*
X89800Y47000D01*
X89750Y46550D01*
X89850Y46100D01*
X90000Y45800D01*
X90300Y45500D01*
X90650Y45300D01*
X91000Y45200D01*
X91350D01*
X91700Y45300D01*
X92000Y45450D01*
X92250Y45650D01*
G01X94600Y45200D02*
Y48200D01*
X94000Y47600D01*
G01Y45200D02*
X95200D01*
G01X97100Y45650D02*
X97400Y45400D01*
X97750Y45250D01*
X98200Y45200D01*
X98650Y45300D01*
X99000Y45500D01*
X99250Y45850D01*
X99300Y46250D01*
X99200Y46650D01*
X98950Y46900D01*
X98600Y47100D01*
X98250Y47150D01*
X97900Y47100D01*
X97450Y46900D01*
X97600Y48200D01*
X98950D01*
G01X79400Y38700D02*
Y41700D01*
X80650D01*
X81050Y41550D01*
X81300Y41350D01*
X81400Y40950D01*
X81300Y40550D01*
X81000Y40300D01*
X80650Y40150D01*
X79400D01*
G01X80650D02*
X81400Y38700D01*
G01X83150Y39050D02*
X83500Y38800D01*
X83900Y38700D01*
X84300Y38800D01*
X84650Y39100D01*
X84900Y39550D01*
X85000Y40000D01*
Y40550D01*
X84900Y41000D01*
X84650Y41400D01*
X84350Y41600D01*
X84000Y41700D01*
X83600Y41600D01*
X83300Y41400D01*
X83100Y41100D01*
X83000Y40700D01*
X83100Y40350D01*
X83350Y40000D01*
X83650Y39800D01*
X84000Y39750D01*
X84400Y39850D01*
X84700Y40100D01*
X85000Y40550D01*
G01X80700Y49500D02*
Y52500D01*
X81950D01*
X82350Y52350D01*
X82600Y52150D01*
X82700Y51750D01*
X82600Y51350D01*
X82300Y51100D01*
X81950Y50950D01*
X80700D01*
G01X81950D02*
X82700Y49500D01*
G01X85900D02*
Y52500D01*
X84050Y50350D01*
X86550D01*
G01X88900Y52500D02*
X88500Y52400D01*
X88200Y52150D01*
X88000Y51850D01*
X87850Y51450D01*
X87800Y51000D01*
X87850Y50550D01*
X88000Y50150D01*
X88200Y49850D01*
X88500Y49600D01*
X88900Y49500D01*
X89300Y49600D01*
X89600Y49850D01*
X89800Y50150D01*
X89950Y50550D01*
X90000Y51000D01*
X89950Y51450D01*
X89800Y51850D01*
X89600Y52150D01*
X89300Y52400D01*
X88900Y52500D01*
G01X73300Y62100D02*
Y59950D01*
X73500Y59500D01*
X73900Y59200D01*
X74400Y59100D01*
X74900Y59200D01*
X75300Y59500D01*
X75500Y59950D01*
Y62100D01*
G01X78000Y59100D02*
Y62100D01*
X77400Y61500D01*
G01Y59100D02*
X78600D01*
G01X83900Y62450D02*
X83600Y62600D01*
X83250Y62700D01*
X82850D01*
X82400Y62550D01*
X82050Y62300D01*
X81800Y62000D01*
X81600Y61500D01*
X81550Y61050D01*
X81650Y60600D01*
X81800Y60300D01*
X82100Y60000D01*
X82450Y59800D01*
X82800Y59700D01*
X83150D01*
X83500Y59800D01*
X83800Y59950D01*
X84050Y60150D01*
G01X86300Y59700D02*
X86400Y60350D01*
X86550Y60900D01*
X86750Y61400D01*
X87000Y61950D01*
X87400Y62700D01*
X85400D01*
G01X81300Y101500D02*
X81550Y101200D01*
X81850Y101000D01*
X82200Y100900D01*
X82600Y101000D01*
X82900Y101200D01*
X83200Y101500D01*
X83300Y101900D01*
Y103900D01*
G01X86500Y100900D02*
Y103900D01*
X84650Y101750D01*
X87150D01*
G01X104900Y2900D02*
X105150Y2600D01*
X105450Y2400D01*
X105800Y2300D01*
X106200Y2400D01*
X106500Y2600D01*
X106800Y2900D01*
X106900Y3300D01*
Y5300D01*
G01X108400Y2750D02*
X108700Y2500D01*
X109050Y2350D01*
X109500Y2300D01*
X109950Y2400D01*
X110300Y2600D01*
X110550Y2950D01*
X110600Y3350D01*
X110500Y3750D01*
X110250Y4000D01*
X109900Y4200D01*
X109550Y4250D01*
X109200Y4200D01*
X108750Y4000D01*
X108900Y5300D01*
X110250D01*
G01X106900Y9650D02*
X106600Y9800D01*
X106250Y9900D01*
X105850D01*
X105400Y9750D01*
X105050Y9500D01*
X104800Y9200D01*
X104600Y8700D01*
X104550Y8250D01*
X104650Y7800D01*
X104800Y7500D01*
X105100Y7200D01*
X105450Y7000D01*
X105800Y6900D01*
X106150D01*
X106500Y7000D01*
X106800Y7150D01*
X107050Y7350D01*
G01X108550Y7250D02*
X108900Y7000D01*
X109300Y6900D01*
X109700Y7000D01*
X110050Y7300D01*
X110300Y7750D01*
X110400Y8200D01*
Y8750D01*
X110300Y9200D01*
X110050Y9600D01*
X109750Y9800D01*
X109400Y9900D01*
X109000Y9800D01*
X108700Y9600D01*
X108500Y9300D01*
X108400Y8900D01*
X108500Y8550D01*
X108750Y8200D01*
X109050Y8000D01*
X109400Y7950D01*
X109800Y8050D01*
X110100Y8300D01*
X110400Y8750D01*
G01X102900Y38450D02*
X102600Y38600D01*
X102250Y38700D01*
X101850D01*
X101400Y38550D01*
X101050Y38300D01*
X100800Y38000D01*
X100600Y37500D01*
X100550Y37050D01*
X100650Y36600D01*
X100800Y36300D01*
X101100Y36000D01*
X101450Y35800D01*
X101800Y35700D01*
X102150D01*
X102500Y35800D01*
X102800Y35950D01*
X103050Y36150D01*
G01X105400Y35700D02*
Y38700D01*
X104800Y38100D01*
G01Y35700D02*
X106000D01*
G01X109600D02*
Y38700D01*
X107750Y36550D01*
X110250D01*
G01X92300Y49500D02*
Y52500D01*
X93550D01*
X93950Y52350D01*
X94200Y52150D01*
X94300Y51750D01*
X94200Y51350D01*
X93900Y51100D01*
X93550Y50950D01*
X92300D01*
G01X93550D02*
X94300Y49500D01*
G01X96900D02*
Y52500D01*
X96300Y51900D01*
G01Y49500D02*
X97500D01*
G01X101100Y31500D02*
Y34500D01*
X102350D01*
X102750Y34350D01*
X103000Y34150D01*
X103100Y33750D01*
X103000Y33350D01*
X102700Y33100D01*
X102350Y32950D01*
X101100D01*
G01X102350D02*
X103100Y31500D01*
G01X105700D02*
Y34500D01*
X105100Y33900D01*
G01Y31500D02*
X106300D01*
G01X108200Y32100D02*
X108500Y31750D01*
X108900Y31550D01*
X109350Y31500D01*
X109750Y31550D01*
X110150Y31800D01*
X110400Y32100D01*
X110450Y32400D01*
X110350Y32750D01*
X110000Y33000D01*
X109650Y33100D01*
X109200D01*
G01X109650D02*
X109950Y33250D01*
X110200Y33500D01*
X110300Y33800D01*
X110200Y34100D01*
X109950Y34350D01*
X109500Y34500D01*
X109050Y34450D01*
X108600Y34250D01*
G01X90900Y59700D02*
Y62700D01*
X92150D01*
X92550Y62550D01*
X92800Y62350D01*
X92900Y61950D01*
X92800Y61550D01*
X92500Y61300D01*
X92150Y61150D01*
X90900D01*
G01X92150D02*
X92900Y59700D01*
G01X94550Y62200D02*
X94850Y62500D01*
X95200Y62650D01*
X95600Y62700D01*
X96100Y62600D01*
X96450Y62350D01*
X96550Y62050D01*
X96500Y61750D01*
X96300Y61500D01*
X95300Y61000D01*
X94850Y60650D01*
X94550Y60150D01*
X94450Y59700D01*
X96550D01*
G01X98000Y60150D02*
X98300Y59900D01*
X98650Y59750D01*
X99100Y59700D01*
X99550Y59800D01*
X99900Y60000D01*
X100150Y60350D01*
X100200Y60750D01*
X100100Y61150D01*
X99850Y61400D01*
X99500Y61600D01*
X99150Y61650D01*
X98800Y61600D01*
X98350Y61400D01*
X98500Y62700D01*
X99850D01*
G01X104400Y81550D02*
X104100Y81700D01*
X103750Y81800D01*
X103350D01*
X102900Y81650D01*
X102550Y81400D01*
X102300Y81100D01*
X102100Y80600D01*
X102050Y80150D01*
X102150Y79700D01*
X102300Y79400D01*
X102600Y79100D01*
X102950Y78900D01*
X103300Y78800D01*
X103650D01*
X104000Y78900D01*
X104300Y79050D01*
X104550Y79250D01*
G01X106900Y78800D02*
X107250Y78850D01*
X107650Y79000D01*
X107900Y79250D01*
X108000Y79600D01*
X107900Y79950D01*
X107600Y80250D01*
X107150Y80400D01*
X106650D01*
X106350Y80500D01*
X106100Y80750D01*
X106000Y81100D01*
X106150Y81450D01*
X106500Y81700D01*
X106900Y81800D01*
X107300Y81700D01*
X107650Y81450D01*
X107800Y81100D01*
X107700Y80750D01*
X107450Y80500D01*
X107150Y80400D01*
X106650D01*
X106200Y80250D01*
X105900Y79950D01*
X105800Y79600D01*
X105900Y79250D01*
X106150Y79000D01*
X106550Y78850D01*
X106900Y78800D01*
G01X107800Y90750D02*
X107500Y90900D01*
X107150Y91000D01*
X106750D01*
X106300Y90850D01*
X105950Y90600D01*
X105700Y90300D01*
X105500Y89800D01*
X105450Y89350D01*
X105550Y88900D01*
X105700Y88600D01*
X106000Y88300D01*
X106350Y88100D01*
X106700Y88000D01*
X107050D01*
X107400Y88100D01*
X107700Y88250D01*
X107950Y88450D01*
G01X110300Y88000D02*
Y91000D01*
X109700Y90400D01*
G01Y88000D02*
X110900D01*
G01X112950Y89250D02*
X113300Y89600D01*
X113600Y89800D01*
X114000Y89900D01*
X114350Y89800D01*
X114600Y89600D01*
X114800Y89300D01*
X114850Y88950D01*
X114800Y88650D01*
X114600Y88350D01*
X114300Y88100D01*
X113950Y88000D01*
X113550Y88100D01*
X113200Y88400D01*
X113000Y88850D01*
X112950Y89350D01*
X113050Y90000D01*
X113200Y90350D01*
X113450Y90700D01*
X113800Y90950D01*
X114150Y91000D01*
X114500Y90900D01*
X114750Y90650D01*
G01X90900Y73500D02*
Y76500D01*
X92150D01*
X92550Y76350D01*
X92800Y76150D01*
X92900Y75750D01*
X92800Y75350D01*
X92500Y75100D01*
X92150Y74950D01*
X90900D01*
G01X92150D02*
X92900Y73500D01*
G01X94550Y76000D02*
X94850Y76300D01*
X95200Y76450D01*
X95600Y76500D01*
X96100Y76400D01*
X96450Y76150D01*
X96550Y75850D01*
X96500Y75550D01*
X96300Y75300D01*
X95300Y74800D01*
X94850Y74450D01*
X94550Y73950D01*
X94450Y73500D01*
X96550D01*
G01X98150Y76000D02*
X98450Y76300D01*
X98800Y76450D01*
X99200Y76500D01*
X99700Y76400D01*
X100050Y76150D01*
X100150Y75850D01*
X100100Y75550D01*
X99900Y75300D01*
X98900Y74800D01*
X98450Y74450D01*
X98150Y73950D01*
X98050Y73500D01*
X100150D01*
G01X94600Y90200D02*
Y93200D01*
X95850D01*
X96250Y93050D01*
X96500Y92850D01*
X96600Y92450D01*
X96500Y92050D01*
X96200Y91800D01*
X95850Y91650D01*
X94600D01*
G01X95850D02*
X96600Y90200D01*
G01X98250Y92700D02*
X98550Y93000D01*
X98900Y93150D01*
X99300Y93200D01*
X99800Y93100D01*
X100150Y92850D01*
X100250Y92550D01*
X100200Y92250D01*
X100000Y92000D01*
X99000Y91500D01*
X98550Y91150D01*
X98250Y90650D01*
X98150Y90200D01*
X100250D01*
G01X93200Y98300D02*
Y101300D01*
X94450D01*
X94850Y101150D01*
X95100Y100950D01*
X95200Y100550D01*
X95100Y100150D01*
X94800Y99900D01*
X94450Y99750D01*
X93200D01*
G01X94450D02*
X95200Y98300D01*
G01X97800D02*
Y101300D01*
X97200Y100700D01*
G01Y98300D02*
X98400D01*
G01X101300D02*
X101400Y98950D01*
X101550Y99500D01*
X101750Y100000D01*
X102000Y100550D01*
X102400Y101300D01*
X100400D01*
G01X105700Y97000D02*
Y100000D01*
X106950D01*
X107350Y99850D01*
X107600Y99650D01*
X107700Y99250D01*
X107600Y98850D01*
X107300Y98600D01*
X106950Y98450D01*
X105700D01*
G01X106950D02*
X107700Y97000D01*
G01X110300D02*
Y100000D01*
X109700Y99400D01*
G01Y97000D02*
X110900D01*
G01X113900D02*
X114250Y97050D01*
X114650Y97200D01*
X114900Y97450D01*
X115000Y97800D01*
X114900Y98150D01*
X114600Y98450D01*
X114150Y98600D01*
X113650D01*
X113350Y98700D01*
X113100Y98950D01*
X113000Y99300D01*
X113150Y99650D01*
X113500Y99900D01*
X113900Y100000D01*
X114300Y99900D01*
X114650Y99650D01*
X114800Y99300D01*
X114700Y98950D01*
X114450Y98700D01*
X114150Y98600D01*
X113650D01*
X113200Y98450D01*
X112900Y98150D01*
X112800Y97800D01*
X112900Y97450D01*
X113150Y97200D01*
X113550Y97050D01*
X113900Y97000D01*
G01X114400Y9550D02*
X114100Y9700D01*
X113750Y9800D01*
X113350D01*
X112900Y9650D01*
X112550Y9400D01*
X112300Y9100D01*
X112100Y8600D01*
X112050Y8150D01*
X112150Y7700D01*
X112300Y7400D01*
X112600Y7100D01*
X112950Y6900D01*
X113300Y6800D01*
X113650D01*
X114000Y6900D01*
X114300Y7050D01*
X114550Y7250D01*
G01X116900Y6800D02*
Y9800D01*
X116300Y9200D01*
G01Y6800D02*
X117500D01*
G01X120500Y9800D02*
X120100Y9700D01*
X119800Y9450D01*
X119600Y9150D01*
X119450Y8750D01*
X119400Y8300D01*
X119450Y7850D01*
X119600Y7450D01*
X119800Y7150D01*
X120100Y6900D01*
X120500Y6800D01*
X120900Y6900D01*
X121200Y7150D01*
X121400Y7450D01*
X121550Y7850D01*
X121600Y8300D01*
X121550Y8750D01*
X121400Y9150D01*
X121200Y9450D01*
X120900Y9700D01*
X120500Y9800D01*
G01X127000Y9650D02*
X126700Y9800D01*
X126350Y9900D01*
X125950D01*
X125500Y9750D01*
X125150Y9500D01*
X124900Y9200D01*
X124700Y8700D01*
X124650Y8250D01*
X124750Y7800D01*
X124900Y7500D01*
X125200Y7200D01*
X125550Y7000D01*
X125900Y6900D01*
X126250D01*
X126600Y7000D01*
X126900Y7150D01*
X127150Y7350D01*
G01X129500Y6900D02*
Y9900D01*
X128900Y9300D01*
G01Y6900D02*
X130100D01*
G01X115800Y38500D02*
Y36350D01*
X116000Y35900D01*
X116400Y35600D01*
X116900Y35500D01*
X117400Y35600D01*
X117800Y35900D01*
X118000Y36350D01*
Y38500D01*
G01X119550Y38000D02*
X119850Y38300D01*
X120200Y38450D01*
X120600Y38500D01*
X121100Y38400D01*
X121450Y38150D01*
X121550Y37850D01*
X121500Y37550D01*
X121300Y37300D01*
X120300Y36800D01*
X119850Y36450D01*
X119550Y35950D01*
X119450Y35500D01*
X121550D01*
G01X123500Y33600D02*
Y34950D01*
X122500Y36600D01*
G01X124500D02*
X123500Y34950D01*
G01X127100Y33600D02*
Y36600D01*
X126500Y36000D01*
G01Y33600D02*
X127700D01*
G01X127650Y83500D02*
X128050Y83250D01*
X128500Y83100D01*
X128900D01*
X129300Y83250D01*
X129600Y83500D01*
X129750Y83850D01*
X129650Y84200D01*
X129400Y84500D01*
X128950Y84700D01*
X128350Y84800D01*
X128000Y85000D01*
X127850Y85350D01*
X127950Y85700D01*
X128200Y85950D01*
X128550Y86100D01*
X128900D01*
X129250Y86000D01*
X129550Y85750D01*
G01X130800Y86100D02*
X131500Y83100D01*
X132300Y86100D01*
X133100Y83100D01*
X133800Y86100D01*
G01X134950Y85600D02*
X135250Y85900D01*
X135600Y86050D01*
X136000Y86100D01*
X136500Y86000D01*
X136850Y85750D01*
X136950Y85450D01*
X136900Y85150D01*
X136700Y84900D01*
X135700Y84400D01*
X135250Y84050D01*
X134950Y83550D01*
X134850Y83100D01*
X136950D01*
G01X115800Y97000D02*
Y100000D01*
X117050D01*
X117450Y99850D01*
X117700Y99650D01*
X117800Y99250D01*
X117700Y98850D01*
X117400Y98600D01*
X117050Y98450D01*
X115800D01*
G01X117050D02*
X117800Y97000D01*
G01X120400D02*
Y100000D01*
X119800Y99400D01*
G01Y97000D02*
X121000D01*
G01X123150Y97350D02*
X123500Y97100D01*
X123900Y97000D01*
X124300Y97100D01*
X124650Y97400D01*
X124900Y97850D01*
X125000Y98300D01*
Y98850D01*
X124900Y99300D01*
X124650Y99700D01*
X124350Y99900D01*
X124000Y100000D01*
X123600Y99900D01*
X123300Y99700D01*
X123100Y99400D01*
X123000Y99000D01*
X123100Y98650D01*
X123350Y98300D01*
X123650Y98100D01*
X124000Y98050D01*
X124400Y98150D01*
X124700Y98400D01*
X125000Y98850D01*
G01X134100Y9750D02*
X133800Y9900D01*
X133450Y10000D01*
X133050D01*
X132600Y9850D01*
X132250Y9600D01*
X132000Y9300D01*
X131800Y8800D01*
X131750Y8350D01*
X131850Y7900D01*
X132000Y7600D01*
X132300Y7300D01*
X132650Y7100D01*
X133000Y7000D01*
X133350D01*
X133700Y7100D01*
X134000Y7250D01*
X134250Y7450D01*
G01X135650Y8250D02*
X136000Y8600D01*
X136300Y8800D01*
X136700Y8900D01*
X137050Y8800D01*
X137300Y8600D01*
X137500Y8300D01*
X137550Y7950D01*
X137500Y7650D01*
X137300Y7350D01*
X137000Y7100D01*
X136650Y7000D01*
X136250Y7100D01*
X135900Y7400D01*
X135700Y7850D01*
X135650Y8350D01*
X135750Y9000D01*
X135900Y9350D01*
X136150Y9700D01*
X136500Y9950D01*
X136850Y10000D01*
X137200Y9900D01*
X137450Y9650D01*
G01X131800Y101750D02*
X131500Y101900D01*
X131150Y102000D01*
X130750D01*
X130300Y101850D01*
X129950Y101600D01*
X129700Y101300D01*
X129500Y100800D01*
X129450Y100350D01*
X129550Y99900D01*
X129700Y99600D01*
X130000Y99300D01*
X130350Y99100D01*
X130700Y99000D01*
X131050D01*
X131400Y99100D01*
X131700Y99250D01*
X131950Y99450D01*
G01X134300Y99000D02*
Y102000D01*
X133700Y101400D01*
G01Y99000D02*
X134900D01*
G01X137800D02*
X137900Y99650D01*
X138050Y100200D01*
X138250Y100700D01*
X138500Y101250D01*
X138900Y102000D01*
X136900D01*
G01X151500Y30100D02*
Y33100D01*
X152750D01*
X153150Y32950D01*
X153400Y32750D01*
X153500Y32350D01*
X153400Y31950D01*
X153100Y31700D01*
X152750Y31550D01*
X151500D01*
G01X152750D02*
X153500Y30100D01*
G01X155150Y32600D02*
X155450Y32900D01*
X155800Y33050D01*
X156200Y33100D01*
X156700Y33000D01*
X157050Y32750D01*
X157150Y32450D01*
X157100Y32150D01*
X156900Y31900D01*
X155900Y31400D01*
X155450Y31050D01*
X155150Y30550D01*
X155050Y30100D01*
X157150D01*
G01X160300D02*
Y33100D01*
X158450Y30950D01*
X160950D01*
G01X153000Y42650D02*
X152700Y42800D01*
X152350Y42900D01*
X151950D01*
X151500Y42750D01*
X151150Y42500D01*
X150900Y42200D01*
X150700Y41700D01*
X150650Y41250D01*
X150750Y40800D01*
X150900Y40500D01*
X151200Y40200D01*
X151550Y40000D01*
X151900Y39900D01*
X152250D01*
X152600Y40000D01*
X152900Y40150D01*
X153150Y40350D01*
G01X155500Y39900D02*
Y42900D01*
X154900Y42300D01*
G01Y39900D02*
X156100D01*
G01X158000Y40500D02*
X158300Y40150D01*
X158700Y39950D01*
X159150Y39900D01*
X159550Y39950D01*
X159950Y40200D01*
X160200Y40500D01*
X160250Y40800D01*
X160150Y41150D01*
X159800Y41400D01*
X159450Y41500D01*
X159000D01*
G01X159450D02*
X159750Y41650D01*
X160000Y41900D01*
X160100Y42200D01*
X160000Y42500D01*
X159750Y42750D01*
X159300Y42900D01*
X158850Y42850D01*
X158400Y42650D01*
G01X151400Y35000D02*
Y38000D01*
X152650D01*
X153050Y37850D01*
X153300Y37650D01*
X153400Y37250D01*
X153300Y36850D01*
X153000Y36600D01*
X152650Y36450D01*
X151400D01*
G01X152650D02*
X153400Y35000D01*
G01X155050Y37500D02*
X155350Y37800D01*
X155700Y37950D01*
X156100Y38000D01*
X156600Y37900D01*
X156950Y37650D01*
X157050Y37350D01*
X157000Y37050D01*
X156800Y36800D01*
X155800Y36300D01*
X155350Y35950D01*
X155050Y35450D01*
X154950Y35000D01*
X157050D01*
G01X159600D02*
Y38000D01*
X159000Y37400D01*
G01Y35000D02*
X160200D01*
G01X161600Y60400D02*
Y63400D01*
X162850D01*
X163250Y63250D01*
X163500Y63050D01*
X163600Y62650D01*
X163500Y62250D01*
X163200Y62000D01*
X162850Y61850D01*
X161600D01*
G01X162850D02*
X163600Y60400D01*
G01X165100Y61000D02*
X165400Y60650D01*
X165800Y60450D01*
X166250Y60400D01*
X166650Y60450D01*
X167050Y60700D01*
X167300Y61000D01*
X167350Y61300D01*
X167250Y61650D01*
X166900Y61900D01*
X166550Y62000D01*
X166100D01*
G01X166550D02*
X166850Y62150D01*
X167100Y62400D01*
X167200Y62700D01*
X167100Y63000D01*
X166850Y63250D01*
X166400Y63400D01*
X165950Y63350D01*
X165500Y63150D01*
G01X161600Y69100D02*
Y72100D01*
X162850D01*
X163250Y71950D01*
X163500Y71750D01*
X163600Y71350D01*
X163500Y70950D01*
X163200Y70700D01*
X162850Y70550D01*
X161600D01*
G01X162850D02*
X163600Y69100D01*
G01X165250Y71600D02*
X165550Y71900D01*
X165900Y72050D01*
X166300Y72100D01*
X166800Y72000D01*
X167150Y71750D01*
X167250Y71450D01*
X167200Y71150D01*
X167000Y70900D01*
X166000Y70400D01*
X165550Y70050D01*
X165250Y69550D01*
X165150Y69100D01*
X167250D01*
G01X168700Y69700D02*
X169000Y69350D01*
X169400Y69150D01*
X169850Y69100D01*
X170250Y69150D01*
X170650Y69400D01*
X170900Y69700D01*
X170950Y70000D01*
X170850Y70350D01*
X170500Y70600D01*
X170150Y70700D01*
X169700D01*
G01X170150D02*
X170450Y70850D01*
X170700Y71100D01*
X170800Y71400D01*
X170700Y71700D01*
X170450Y71950D01*
X170000Y72100D01*
X169550Y72050D01*
X169100Y71850D01*
G01X161600Y64700D02*
Y67700D01*
X162850D01*
X163250Y67550D01*
X163500Y67350D01*
X163600Y66950D01*
X163500Y66550D01*
X163200Y66300D01*
X162850Y66150D01*
X161600D01*
G01X162850D02*
X163600Y64700D01*
G01X165250Y67200D02*
X165550Y67500D01*
X165900Y67650D01*
X166300Y67700D01*
X166800Y67600D01*
X167150Y67350D01*
X167250Y67050D01*
X167200Y66750D01*
X167000Y66500D01*
X166000Y66000D01*
X165550Y65650D01*
X165250Y65150D01*
X165150Y64700D01*
X167250D01*
G01X168850Y65950D02*
X169200Y66300D01*
X169500Y66500D01*
X169900Y66600D01*
X170250Y66500D01*
X170500Y66300D01*
X170700Y66000D01*
X170750Y65650D01*
X170700Y65350D01*
X170500Y65050D01*
X170200Y64800D01*
X169850Y64700D01*
X169450Y64800D01*
X169100Y65100D01*
X168900Y65550D01*
X168850Y66050D01*
X168950Y66700D01*
X169100Y67050D01*
X169350Y67400D01*
X169700Y67650D01*
X170050Y67700D01*
X170400Y67600D01*
X170650Y67350D01*
G01X163700Y76150D02*
X163400Y76300D01*
X163050Y76400D01*
X162650D01*
X162200Y76250D01*
X161850Y76000D01*
X161600Y75700D01*
X161400Y75200D01*
X161350Y74750D01*
X161450Y74300D01*
X161600Y74000D01*
X161900Y73700D01*
X162250Y73500D01*
X162600Y73400D01*
X162950D01*
X163300Y73500D01*
X163600Y73650D01*
X163850Y73850D01*
G01X166200Y73400D02*
Y76400D01*
X165600Y75800D01*
G01Y73400D02*
X166800D01*
G01X168850Y75900D02*
X169150Y76200D01*
X169500Y76350D01*
X169900Y76400D01*
X170400Y76300D01*
X170750Y76050D01*
X170850Y75750D01*
X170800Y75450D01*
X170600Y75200D01*
X169600Y74700D01*
X169150Y74350D01*
X168850Y73850D01*
X168750Y73400D01*
X170850D01*
G01X161600Y77800D02*
Y80800D01*
X162850D01*
X163250Y80650D01*
X163500Y80450D01*
X163600Y80050D01*
X163500Y79650D01*
X163200Y79400D01*
X162850Y79250D01*
X161600D01*
G01X162850D02*
X163600Y77800D01*
G01X165250Y80300D02*
X165550Y80600D01*
X165900Y80750D01*
X166300Y80800D01*
X166800Y80700D01*
X167150Y80450D01*
X167250Y80150D01*
X167200Y79850D01*
X167000Y79600D01*
X166000Y79100D01*
X165550Y78750D01*
X165250Y78250D01*
X165150Y77800D01*
X167250D01*
G01X169800Y80800D02*
X169400Y80700D01*
X169100Y80450D01*
X168900Y80150D01*
X168750Y79750D01*
X168700Y79300D01*
X168750Y78850D01*
X168900Y78450D01*
X169100Y78150D01*
X169400Y77900D01*
X169800Y77800D01*
X170200Y77900D01*
X170500Y78150D01*
X170700Y78450D01*
X170850Y78850D01*
X170900Y79300D01*
X170850Y79750D01*
X170700Y80150D01*
X170500Y80450D01*
X170200Y80700D01*
X169800Y80800D01*
G01X180500Y22100D02*
Y25100D01*
X181500D01*
X181900Y24950D01*
X182200Y24750D01*
X182450Y24450D01*
X182650Y24100D01*
X182700Y23600D01*
X182650Y23100D01*
X182450Y22750D01*
X182200Y22450D01*
X181900Y22250D01*
X181500Y22100D01*
X180500D01*
G01X185100D02*
X185200Y22750D01*
X185350Y23300D01*
X185550Y23800D01*
X185800Y24350D01*
X186200Y25100D01*
X184200D01*
G01X180600Y16800D02*
Y19800D01*
X181850D01*
X182250Y19650D01*
X182500Y19450D01*
X182600Y19050D01*
X182500Y18650D01*
X182200Y18400D01*
X181850Y18250D01*
X180600D01*
G01X181850D02*
X182600Y16800D01*
G01X184250Y19300D02*
X184550Y19600D01*
X184900Y19750D01*
X185300Y19800D01*
X185800Y19700D01*
X186150Y19450D01*
X186250Y19150D01*
X186200Y18850D01*
X186000Y18600D01*
X185000Y18100D01*
X184550Y17750D01*
X184250Y17250D01*
X184150Y16800D01*
X186250D01*
G01X188800D02*
X189150Y16850D01*
X189550Y17000D01*
X189800Y17250D01*
X189900Y17600D01*
X189800Y17950D01*
X189500Y18250D01*
X189050Y18400D01*
X188550D01*
X188250Y18500D01*
X188000Y18750D01*
X187900Y19100D01*
X188050Y19450D01*
X188400Y19700D01*
X188800Y19800D01*
X189200Y19700D01*
X189550Y19450D01*
X189700Y19100D01*
X189600Y18750D01*
X189350Y18500D01*
X189050Y18400D01*
X188550D01*
X188100Y18250D01*
X187800Y17950D01*
X187700Y17600D01*
X187800Y17250D01*
X188050Y17000D01*
X188450Y16850D01*
X188800Y16800D01*
G01X186800Y46800D02*
Y49800D01*
X188050D01*
X188450Y49650D01*
X188700Y49450D01*
X188800Y49050D01*
X188700Y48650D01*
X188400Y48400D01*
X188050Y48250D01*
X186800D01*
G01X188050D02*
X188800Y46800D01*
G01X190300Y47400D02*
X190600Y47050D01*
X191000Y46850D01*
X191450Y46800D01*
X191850Y46850D01*
X192250Y47100D01*
X192500Y47400D01*
X192550Y47700D01*
X192450Y48050D01*
X192100Y48300D01*
X191750Y48400D01*
X191300D01*
G01X191750D02*
X192050Y48550D01*
X192300Y48800D01*
X192400Y49100D01*
X192300Y49400D01*
X192050Y49650D01*
X191600Y49800D01*
X191150Y49750D01*
X190700Y49550D01*
G01X194900Y46800D02*
X195000Y47450D01*
X195150Y48000D01*
X195350Y48500D01*
X195600Y49050D01*
X196000Y49800D01*
X194000D01*
G01X186800Y41800D02*
Y44800D01*
X188050D01*
X188450Y44650D01*
X188700Y44450D01*
X188800Y44050D01*
X188700Y43650D01*
X188400Y43400D01*
X188050Y43250D01*
X186800D01*
G01X188050D02*
X188800Y41800D01*
G01X190300Y42400D02*
X190600Y42050D01*
X191000Y41850D01*
X191450Y41800D01*
X191850Y41850D01*
X192250Y42100D01*
X192500Y42400D01*
X192550Y42700D01*
X192450Y43050D01*
X192100Y43300D01*
X191750Y43400D01*
X191300D01*
G01X191750D02*
X192050Y43550D01*
X192300Y43800D01*
X192400Y44100D01*
X192300Y44400D01*
X192050Y44650D01*
X191600Y44800D01*
X191150Y44750D01*
X190700Y44550D01*
G01X194150Y42150D02*
X194500Y41900D01*
X194900Y41800D01*
X195300Y41900D01*
X195650Y42200D01*
X195900Y42650D01*
X196000Y43100D01*
Y43650D01*
X195900Y44100D01*
X195650Y44500D01*
X195350Y44700D01*
X195000Y44800D01*
X194600Y44700D01*
X194300Y44500D01*
X194100Y44200D01*
X194000Y43800D01*
X194100Y43450D01*
X194350Y43100D01*
X194650Y42900D01*
X195000Y42850D01*
X195400Y42950D01*
X195700Y43200D01*
X196000Y43650D01*
G01X186600Y69200D02*
Y72200D01*
X187850D01*
X188250Y72050D01*
X188500Y71850D01*
X188600Y71450D01*
X188500Y71050D01*
X188200Y70800D01*
X187850Y70650D01*
X186600D01*
G01X187850D02*
X188600Y69200D01*
G01X190100Y69800D02*
X190400Y69450D01*
X190800Y69250D01*
X191250Y69200D01*
X191650Y69250D01*
X192050Y69500D01*
X192300Y69800D01*
X192350Y70100D01*
X192250Y70450D01*
X191900Y70700D01*
X191550Y70800D01*
X191100D01*
G01X191550D02*
X191850Y70950D01*
X192100Y71200D01*
X192200Y71500D01*
X192100Y71800D01*
X191850Y72050D01*
X191400Y72200D01*
X190950Y72150D01*
X190500Y71950D01*
G01X194800Y69200D02*
Y72200D01*
X194200Y71600D01*
G01Y69200D02*
X195400D01*
G01X186700Y64500D02*
Y67500D01*
X187950D01*
X188350Y67350D01*
X188600Y67150D01*
X188700Y66750D01*
X188600Y66350D01*
X188300Y66100D01*
X187950Y65950D01*
X186700D01*
G01X187950D02*
X188700Y64500D01*
G01X190200Y65100D02*
X190500Y64750D01*
X190900Y64550D01*
X191350Y64500D01*
X191750Y64550D01*
X192150Y64800D01*
X192400Y65100D01*
X192450Y65400D01*
X192350Y65750D01*
X192000Y66000D01*
X191650Y66100D01*
X191200D01*
G01X191650D02*
X191950Y66250D01*
X192200Y66500D01*
X192300Y66800D01*
X192200Y67100D01*
X191950Y67350D01*
X191500Y67500D01*
X191050Y67450D01*
X190600Y67250D01*
G01X193800Y65100D02*
X194100Y64750D01*
X194500Y64550D01*
X194950Y64500D01*
X195350Y64550D01*
X195750Y64800D01*
X196000Y65100D01*
X196050Y65400D01*
X195950Y65750D01*
X195600Y66000D01*
X195250Y66100D01*
X194800D01*
G01X195250D02*
X195550Y66250D01*
X195800Y66500D01*
X195900Y66800D01*
X195800Y67100D01*
X195550Y67350D01*
X195100Y67500D01*
X194650Y67450D01*
X194200Y67250D01*
G01X186800Y51300D02*
Y54300D01*
X188050D01*
X188450Y54150D01*
X188700Y53950D01*
X188800Y53550D01*
X188700Y53150D01*
X188400Y52900D01*
X188050Y52750D01*
X186800D01*
G01X188050D02*
X188800Y51300D01*
G01X190300Y51900D02*
X190600Y51550D01*
X191000Y51350D01*
X191450Y51300D01*
X191850Y51350D01*
X192250Y51600D01*
X192500Y51900D01*
X192550Y52200D01*
X192450Y52550D01*
X192100Y52800D01*
X191750Y52900D01*
X191300D01*
G01X191750D02*
X192050Y53050D01*
X192300Y53300D01*
X192400Y53600D01*
X192300Y53900D01*
X192050Y54150D01*
X191600Y54300D01*
X191150Y54250D01*
X190700Y54050D01*
G01X195600Y51300D02*
Y54300D01*
X193750Y52150D01*
X196250D01*
G01X186800Y55900D02*
Y58900D01*
X188050D01*
X188450Y58750D01*
X188700Y58550D01*
X188800Y58150D01*
X188700Y57750D01*
X188400Y57500D01*
X188050Y57350D01*
X186800D01*
G01X188050D02*
X188800Y55900D01*
G01X190300Y56500D02*
X190600Y56150D01*
X191000Y55950D01*
X191450Y55900D01*
X191850Y55950D01*
X192250Y56200D01*
X192500Y56500D01*
X192550Y56800D01*
X192450Y57150D01*
X192100Y57400D01*
X191750Y57500D01*
X191300D01*
G01X191750D02*
X192050Y57650D01*
X192300Y57900D01*
X192400Y58200D01*
X192300Y58500D01*
X192050Y58750D01*
X191600Y58900D01*
X191150Y58850D01*
X190700Y58650D01*
G01X193900Y56350D02*
X194200Y56100D01*
X194550Y55950D01*
X195000Y55900D01*
X195450Y56000D01*
X195800Y56200D01*
X196050Y56550D01*
X196100Y56950D01*
X196000Y57350D01*
X195750Y57600D01*
X195400Y57800D01*
X195050Y57850D01*
X194700Y57800D01*
X194250Y57600D01*
X194400Y58900D01*
X195750D01*
G01X186800Y60100D02*
Y63100D01*
X188050D01*
X188450Y62950D01*
X188700Y62750D01*
X188800Y62350D01*
X188700Y61950D01*
X188400Y61700D01*
X188050Y61550D01*
X186800D01*
G01X188050D02*
X188800Y60100D01*
G01X190300Y60700D02*
X190600Y60350D01*
X191000Y60150D01*
X191450Y60100D01*
X191850Y60150D01*
X192250Y60400D01*
X192500Y60700D01*
X192550Y61000D01*
X192450Y61350D01*
X192100Y61600D01*
X191750Y61700D01*
X191300D01*
G01X191750D02*
X192050Y61850D01*
X192300Y62100D01*
X192400Y62400D01*
X192300Y62700D01*
X192050Y62950D01*
X191600Y63100D01*
X191150Y63050D01*
X190700Y62850D01*
G01X195000Y60100D02*
X195350Y60150D01*
X195750Y60300D01*
X196000Y60550D01*
X196100Y60900D01*
X196000Y61250D01*
X195700Y61550D01*
X195250Y61700D01*
X194750D01*
X194450Y61800D01*
X194200Y62050D01*
X194100Y62400D01*
X194250Y62750D01*
X194600Y63000D01*
X195000Y63100D01*
X195400Y63000D01*
X195750Y62750D01*
X195900Y62400D01*
X195800Y62050D01*
X195550Y61800D01*
X195250Y61700D01*
X194750D01*
X194300Y61550D01*
X194000Y61250D01*
X193900Y60900D01*
X194000Y60550D01*
X194250Y60300D01*
X194650Y60150D01*
X195000Y60100D01*
G01X180400Y86150D02*
X180100Y86300D01*
X179750Y86400D01*
X179350D01*
X178900Y86250D01*
X178550Y86000D01*
X178300Y85700D01*
X178100Y85200D01*
X178050Y84750D01*
X178150Y84300D01*
X178300Y84000D01*
X178600Y83700D01*
X178950Y83500D01*
X179300Y83400D01*
X179650D01*
X180000Y83500D01*
X180300Y83650D01*
X180550Y83850D01*
G01X182900Y83400D02*
Y86400D01*
X182300Y85800D01*
G01Y83400D02*
X183500D01*
G01X186500D02*
Y86400D01*
X185900Y85800D01*
G01Y83400D02*
X187100D01*
G01X186500Y73900D02*
Y76900D01*
X187750D01*
X188150Y76750D01*
X188400Y76550D01*
X188500Y76150D01*
X188400Y75750D01*
X188100Y75500D01*
X187750Y75350D01*
X186500D01*
G01X187750D02*
X188500Y73900D01*
G01X190000Y74500D02*
X190300Y74150D01*
X190700Y73950D01*
X191150Y73900D01*
X191550Y73950D01*
X191950Y74200D01*
X192200Y74500D01*
X192250Y74800D01*
X192150Y75150D01*
X191800Y75400D01*
X191450Y75500D01*
X191000D01*
G01X191450D02*
X191750Y75650D01*
X192000Y75900D01*
X192100Y76200D01*
X192000Y76500D01*
X191750Y76750D01*
X191300Y76900D01*
X190850Y76850D01*
X190400Y76650D01*
G01X193750Y76400D02*
X194050Y76700D01*
X194400Y76850D01*
X194800Y76900D01*
X195300Y76800D01*
X195650Y76550D01*
X195750Y76250D01*
X195700Y75950D01*
X195500Y75700D01*
X194500Y75200D01*
X194050Y74850D01*
X193750Y74350D01*
X193650Y73900D01*
X195750D01*
G01X178200Y98000D02*
Y101000D01*
X179450D01*
X179850Y100850D01*
X180100Y100650D01*
X180200Y100250D01*
X180100Y99850D01*
X179800Y99600D01*
X179450Y99450D01*
X178200D01*
G01X179450D02*
X180200Y98000D01*
G01X182800D02*
Y101000D01*
X182200Y100400D01*
G01Y98000D02*
X183400D01*
G01X185300Y98450D02*
X185600Y98200D01*
X185950Y98050D01*
X186400Y98000D01*
X186850Y98100D01*
X187200Y98300D01*
X187450Y98650D01*
X187500Y99050D01*
X187400Y99450D01*
X187150Y99700D01*
X186800Y99900D01*
X186450Y99950D01*
X186100Y99900D01*
X185650Y99700D01*
X185800Y101000D01*
X187150D01*
G01X188700Y6700D02*
X188950Y6400D01*
X189250Y6200D01*
X189600Y6100D01*
X190000Y6200D01*
X190300Y6400D01*
X190600Y6700D01*
X190700Y7100D01*
Y9100D01*
G01X192350Y7350D02*
X192700Y7700D01*
X193000Y7900D01*
X193400Y8000D01*
X193750Y7900D01*
X194000Y7700D01*
X194200Y7400D01*
X194250Y7050D01*
X194200Y6750D01*
X194000Y6450D01*
X193700Y6200D01*
X193350Y6100D01*
X192950Y6200D01*
X192600Y6500D01*
X192400Y6950D01*
X192350Y7450D01*
X192450Y8100D01*
X192600Y8450D01*
X192850Y8800D01*
X193200Y9050D01*
X193550Y9100D01*
X193900Y9000D01*
X194150Y8750D01*
G01X192300Y22400D02*
Y25400D01*
X193300D01*
X193700Y25250D01*
X194000Y25050D01*
X194250Y24750D01*
X194450Y24400D01*
X194500Y23900D01*
X194450Y23400D01*
X194250Y23050D01*
X194000Y22750D01*
X193700Y22550D01*
X193300Y22400D01*
X192300D01*
G01X196050Y23650D02*
X196400Y24000D01*
X196700Y24200D01*
X197100Y24300D01*
X197450Y24200D01*
X197700Y24000D01*
X197900Y23700D01*
X197950Y23350D01*
X197900Y23050D01*
X197700Y22750D01*
X197400Y22500D01*
X197050Y22400D01*
X196650Y22500D01*
X196300Y22800D01*
X196100Y23250D01*
X196050Y23750D01*
X196150Y24400D01*
X196300Y24750D01*
X196550Y25100D01*
X196900Y25350D01*
X197250Y25400D01*
X197600Y25300D01*
X197850Y25050D01*
G01X192200Y16800D02*
Y19800D01*
X193450D01*
X193850Y19650D01*
X194100Y19450D01*
X194200Y19050D01*
X194100Y18650D01*
X193800Y18400D01*
X193450Y18250D01*
X192200D01*
G01X193450D02*
X194200Y16800D01*
G01X195850Y19300D02*
X196150Y19600D01*
X196500Y19750D01*
X196900Y19800D01*
X197400Y19700D01*
X197750Y19450D01*
X197850Y19150D01*
X197800Y18850D01*
X197600Y18600D01*
X196600Y18100D01*
X196150Y17750D01*
X195850Y17250D01*
X195750Y16800D01*
X197850D01*
G01X200300D02*
X200400Y17450D01*
X200550Y18000D01*
X200750Y18500D01*
X201000Y19050D01*
X201400Y19800D01*
X199400D01*
G01X188500Y83400D02*
Y86400D01*
X189750D01*
X190150Y86250D01*
X190400Y86050D01*
X190500Y85650D01*
X190400Y85250D01*
X190100Y85000D01*
X189750Y84850D01*
X188500D01*
G01X189750D02*
X190500Y83400D01*
G01X193100D02*
Y86400D01*
X192500Y85800D01*
G01Y83400D02*
X193700D01*
G01X195750Y84650D02*
X196100Y85000D01*
X196400Y85200D01*
X196800Y85300D01*
X197150Y85200D01*
X197400Y85000D01*
X197600Y84700D01*
X197650Y84350D01*
X197600Y84050D01*
X197400Y83750D01*
X197100Y83500D01*
X196750Y83400D01*
X196350Y83500D01*
X196000Y83800D01*
X195800Y84250D01*
X195750Y84750D01*
X195850Y85400D01*
X196000Y85750D01*
X196250Y86100D01*
X196600Y86350D01*
X196950Y86400D01*
X197300Y86300D01*
X197550Y86050D01*
G01X206200Y109200D02*
X206450Y108900D01*
X206750Y108700D01*
X207100Y108600D01*
X207500Y108700D01*
X207800Y108900D01*
X208100Y109200D01*
X208200Y109600D01*
Y111600D01*
G01X210700Y108600D02*
X210800Y109250D01*
X210950Y109800D01*
X211150Y110300D01*
X211400Y110850D01*
X211800Y111600D01*
X209800D01*
G01X225300Y26800D02*
X225550Y26500D01*
X225850Y26300D01*
X226200Y26200D01*
X226600Y26300D01*
X226900Y26500D01*
X227200Y26800D01*
X227300Y27200D01*
Y29200D01*
G01X229050Y26550D02*
X229400Y26300D01*
X229800Y26200D01*
X230200Y26300D01*
X230550Y26600D01*
X230800Y27050D01*
X230900Y27500D01*
Y28050D01*
X230800Y28500D01*
X230550Y28900D01*
X230250Y29100D01*
X229900Y29200D01*
X229500Y29100D01*
X229200Y28900D01*
X229000Y28600D01*
X228900Y28200D01*
X229000Y27850D01*
X229250Y27500D01*
X229550Y27300D01*
X229900Y27250D01*
X230300Y27350D01*
X230600Y27600D01*
X230900Y28050D01*
G01X221350Y15800D02*
X221750Y15550D01*
X222200Y15400D01*
X222600D01*
X223000Y15550D01*
X223300Y15800D01*
X223450Y16150D01*
X223350Y16500D01*
X223100Y16800D01*
X222650Y17000D01*
X222050Y17100D01*
X221700Y17300D01*
X221550Y17650D01*
X221650Y18000D01*
X221900Y18250D01*
X222250Y18400D01*
X222600D01*
X222950Y18300D01*
X223250Y18050D01*
G01X224950Y15400D02*
Y18400D01*
G01X227050D02*
Y15400D01*
G01Y16900D02*
X224950D01*
G01X228650Y17900D02*
X228950Y18200D01*
X229300Y18350D01*
X229700Y18400D01*
X230200Y18300D01*
X230550Y18050D01*
X230650Y17750D01*
X230600Y17450D01*
X230400Y17200D01*
X229400Y16700D01*
X228950Y16350D01*
X228650Y15850D01*
X228550Y15400D01*
X230650D01*
G01X225500Y42500D02*
X225750Y42200D01*
X226050Y42000D01*
X226400Y41900D01*
X226800Y42000D01*
X227100Y42200D01*
X227400Y42500D01*
X227500Y42900D01*
Y44900D01*
G01X230100Y41900D02*
X230450Y41950D01*
X230850Y42100D01*
X231100Y42350D01*
X231200Y42700D01*
X231100Y43050D01*
X230800Y43350D01*
X230350Y43500D01*
X229850D01*
X229550Y43600D01*
X229300Y43850D01*
X229200Y44200D01*
X229350Y44550D01*
X229700Y44800D01*
X230100Y44900D01*
X230500Y44800D01*
X230850Y44550D01*
X231000Y44200D01*
X230900Y43850D01*
X230650Y43600D01*
X230350Y43500D01*
X229850D01*
X229400Y43350D01*
X229100Y43050D01*
X229000Y42700D01*
X229100Y42350D01*
X229350Y42100D01*
X229750Y41950D01*
X230100Y41900D01*
G01X224800Y89100D02*
X225050Y88800D01*
X225350Y88600D01*
X225700Y88500D01*
X226100Y88600D01*
X226400Y88800D01*
X226700Y89100D01*
X226800Y89500D01*
Y91500D01*
G01X229400Y88500D02*
Y91500D01*
X228800Y90900D01*
G01Y88500D02*
X230000D01*
G01X233000Y91500D02*
X232600Y91400D01*
X232300Y91150D01*
X232100Y90850D01*
X231950Y90450D01*
X231900Y90000D01*
X231950Y89550D01*
X232100Y89150D01*
X232300Y88850D01*
X232600Y88600D01*
X233000Y88500D01*
X233400Y88600D01*
X233700Y88850D01*
X233900Y89150D01*
X234050Y89550D01*
X234100Y90000D01*
X234050Y90450D01*
X233900Y90850D01*
X233700Y91150D01*
X233400Y91400D01*
X233000Y91500D01*
G01X221350Y99700D02*
X221750Y99450D01*
X222200Y99300D01*
X222600D01*
X223000Y99450D01*
X223300Y99700D01*
X223450Y100050D01*
X223350Y100400D01*
X223100Y100700D01*
X222650Y100900D01*
X222050Y101000D01*
X221700Y101200D01*
X221550Y101550D01*
X221650Y101900D01*
X221900Y102150D01*
X222250Y102300D01*
X222600D01*
X222950Y102200D01*
X223250Y101950D01*
G01X224950Y99300D02*
Y102300D01*
G01X227050D02*
Y99300D01*
G01Y100800D02*
X224950D01*
G01X228500Y99900D02*
X228800Y99550D01*
X229200Y99350D01*
X229650Y99300D01*
X230050Y99350D01*
X230450Y99600D01*
X230700Y99900D01*
X230750Y100200D01*
X230650Y100550D01*
X230300Y100800D01*
X229950Y100900D01*
X229500D01*
G01X229950D02*
X230250Y101050D01*
X230500Y101300D01*
X230600Y101600D01*
X230500Y101900D01*
X230250Y102150D01*
X229800Y102300D01*
X229350Y102250D01*
X228900Y102050D01*
G54D12*
G01X17500Y2500D02*
Y12500D01*
X37500D01*
Y2500D01*
X17500D01*
G01X29836Y25764D02*
X26304D01*
Y30835D01*
X29836D01*
G01Y23335D02*
X26304D01*
Y18265D01*
X29836D01*
G01X41400Y2500D02*
Y12500D01*
X101400D01*
Y2500D01*
X41400D01*
G01X33363Y25764D02*
X36895D01*
Y30835D01*
X33363D01*
G01Y23335D02*
X36895D01*
Y18265D01*
X33363D01*
G01X47364Y30836D02*
X50896D01*
Y25765D01*
X47364D01*
G01X43837Y30836D02*
X40305D01*
Y25765D01*
X43837D01*
G01X47364Y23336D02*
X50896D01*
Y18265D01*
X47364D01*
G01X43837Y23336D02*
X40305D01*
Y18265D01*
X43837D01*
G01X53481Y48492D02*
X47890D01*
G01X49464Y36851D02*
X47024D01*
Y33150D01*
X49464D01*
G01Y37549D02*
X47023D01*
Y41250D01*
X49464D01*
G01X49465Y45748D02*
X47024D01*
Y42047D01*
X49465D01*
G01X56630Y66897D02*
Y65826D01*
X44740D01*
Y66897D01*
G01X47890Y52508D02*
X53481D01*
G01X47890Y58008D02*
X53481D01*
G01Y53992D02*
X47890D01*
G01X49465Y64350D02*
X47024D01*
Y60649D01*
X49465D01*
G01X46905Y77696D02*
Y76508D01*
X54464D01*
Y77696D01*
G01X46905Y81303D02*
Y82492D01*
X54464D01*
Y81303D01*
G01X44740Y73102D02*
Y74173D01*
X56630D01*
Y73102D01*
G01X60455Y32008D02*
X56258D01*
G01D02*
Y37992D01*
G01X60605D02*
X64195D01*
G01X68542D02*
Y32008D01*
X64345D01*
G01X61180Y48650D02*
X58739D01*
Y52351D01*
X61180D01*
G01X63621Y48650D02*
X66062D01*
Y52351D01*
X63621D01*
G01X51905Y36851D02*
X54346D01*
Y33150D01*
X51905D01*
G01Y37549D02*
X54346D01*
Y41250D01*
X51905D01*
G01X63621Y46851D02*
X66062D01*
Y43150D01*
X63621D01*
G01X61180Y46851D02*
X58739D01*
Y43150D01*
X61180D01*
G01X70779Y43149D02*
X68338D01*
Y46850D01*
X70779D01*
G01X51906Y45748D02*
X54346D01*
Y42047D01*
X51906D01*
G01X73074Y63662D02*
X65499D01*
G01X61179Y54149D02*
X58738D01*
Y57850D01*
X61179D01*
G01X63620Y54149D02*
X66061D01*
Y57850D01*
X63620D01*
G01X51906Y64350D02*
X54347D01*
Y60649D01*
X51906D01*
G01X65499Y76339D02*
X73074D01*
G01X65042Y86409D02*
X60873D01*
Y93590D01*
X65042D01*
G01X69208Y86409D02*
X73377D01*
Y93590D01*
X69208D01*
G01X65361Y79464D02*
X61830D01*
Y84535D01*
X65361D01*
G01X68889Y79464D02*
X72420D01*
Y84535D01*
X68889D01*
G01X82500Y115000D02*
Y105000D01*
X52500D01*
Y115000D01*
X82500D01*
G01X88780Y23150D02*
X86339D01*
Y26851D01*
X88780D01*
G01X78180Y23150D02*
X75739D01*
Y26850D01*
X78180D01*
G01X80620Y23150D02*
X83061D01*
Y26850D01*
X80620D01*
G01X73220Y43149D02*
X75661D01*
Y46850D01*
X73220D01*
G01X80620Y34350D02*
X83061D01*
Y30650D01*
X80620D01*
G01X78180Y34350D02*
X75739D01*
Y30650D01*
X78180D01*
G01X73074Y68323D02*
Y71677D01*
G01X83306Y64449D02*
X80865D01*
Y68149D01*
X83306D01*
G01X85747Y64449D02*
X88188D01*
Y68149D01*
X85747D01*
G01X83780Y54193D02*
X81339D01*
Y57893D01*
X83780D01*
G01X86220Y54193D02*
X88661D01*
Y57893D01*
X86220D01*
G01X82917Y78909D02*
X78748D01*
Y86090D01*
X82917D01*
G01X87082Y78909D02*
X91252D01*
Y86090D01*
X87082D01*
G01X82764Y72464D02*
X79232D01*
Y77535D01*
X82764D01*
G01X86291Y72464D02*
X89823D01*
Y77535D01*
X86291D01*
G01X83236Y88364D02*
X79704D01*
Y93435D01*
X83236D01*
G01X86763Y88364D02*
X90295D01*
Y93435D01*
X86763D01*
G01X87500Y105000D02*
Y115000D01*
X137500D01*
Y105000D01*
X87500D01*
G01X83236Y94965D02*
X79705D01*
Y100035D01*
X83236D01*
G01X86764Y94965D02*
X90296D01*
Y100035D01*
X86764D01*
G01X96280Y15650D02*
X93839D01*
Y19351D01*
X96280D01*
G01X98720Y15650D02*
X101161D01*
Y19351D01*
X98720D01*
G01X108721Y19350D02*
X111161D01*
Y15649D01*
X108721Y15650D01*
G01X106280Y19350D02*
X103839D01*
Y15649D01*
X106280D01*
G01X91221Y23150D02*
X93662D01*
Y26851D01*
X91221D01*
G01X96221Y39350D02*
X98662D01*
Y35649D01*
X96221D01*
G01X93780Y39350D02*
X91339D01*
Y35649D01*
X93780D01*
G01X96221Y44350D02*
X98662D01*
Y40649D01*
X96221D01*
G01X93780Y44350D02*
X91339D01*
Y40649D01*
X93780D01*
G01Y30649D02*
X91339D01*
Y34350D01*
X93780D01*
G01X96221Y30649D02*
X98662D01*
Y34350D01*
X96221D01*
G01X93780Y54193D02*
X91339D01*
Y57894D01*
X93780D01*
G01X96221Y54193D02*
X98662D01*
Y57894D01*
X96221D01*
G01X93780Y68749D02*
X91339D01*
Y72450D01*
X93780D01*
G01X96221Y68749D02*
X98662D01*
Y72450D01*
X96221D01*
G01X96220Y67737D02*
X98661D01*
Y64036D01*
X96220D01*
G01X93779Y67737D02*
X91338D01*
Y64036D01*
X93779D01*
G01X98721Y84350D02*
X101161D01*
Y80650D01*
X98721D01*
G01X96280Y84350D02*
X93839D01*
Y80650D01*
X96280D01*
G01X109480Y83350D02*
X107039D01*
Y87050D01*
X109480D01*
G01X96279Y85750D02*
X93838D01*
Y89451D01*
X96279D01*
G01X98720Y85750D02*
X101161D01*
Y89451D01*
X98720D01*
G01Y97450D02*
X101161D01*
Y93749D01*
X98720D01*
G01X96279Y97450D02*
X93838D01*
Y93749D01*
X96279D01*
G01X109480Y95850D02*
X107038D01*
Y92149D01*
X109480D01*
G01X129323Y13150D02*
X126882D01*
Y16851D01*
X129323D01*
G01X120540Y16850D02*
X122981D01*
Y13149D01*
X120540D01*
G01X118099Y16850D02*
X115658D01*
Y13149D01*
X118099D01*
G01X111921Y83350D02*
X114362D01*
Y87050D01*
X111921D01*
G01X120621Y95851D02*
X123062D01*
Y92150D01*
X120621D01*
G01X118180Y95851D02*
X115739D01*
Y92150D01*
X118180D01*
G01X111920Y95850D02*
X114361D01*
Y92149D01*
X111920D01*
G01X185000Y12500D02*
Y2500D01*
X145000D01*
Y12500D01*
X185000D01*
G01X131764Y13150D02*
X134205D01*
Y16851D01*
X131764D01*
G01X142980Y26249D02*
X140538D01*
Y29950D01*
X142980D01*
G01X145420Y26249D02*
X147861D01*
Y29950D01*
X145420D01*
G01Y25351D02*
X147861D01*
Y21650D01*
X145420D01*
G01X142979Y25351D02*
X140538D01*
Y21650D01*
X142979D01*
G01X142980Y30750D02*
X140539D01*
Y34451D01*
X142980D01*
G01X145421Y30750D02*
X147862D01*
Y34451D01*
X145421D01*
G01X202500Y115000D02*
Y105000D01*
X142500D01*
Y115000D01*
X202500D01*
G01X135521Y97550D02*
X137962D01*
Y93850D01*
X135521D01*
G01X133080Y97550D02*
X130639D01*
Y93850D01*
X133080D01*
G01X158792Y27535D02*
X162324D01*
Y22465D01*
X158792D01*
G01X155265Y27535D02*
X151733D01*
Y22465D01*
X155265D01*
G01X171236D02*
X167705D01*
Y27535D01*
X171236D01*
G01Y16165D02*
X167704D01*
Y21236D01*
X171236D01*
G01X158792D02*
X162324D01*
Y16165D01*
X158792D01*
G01X155265Y21236D02*
X151733D01*
Y16165D01*
X155265D01*
G01X156220Y63800D02*
X158661D01*
Y60099D01*
X156220D01*
G01X153779Y63800D02*
X151338D01*
Y60099D01*
X153779D01*
G01X156221Y72351D02*
X158662D01*
Y68650D01*
X156221D01*
G01X153780Y72351D02*
X151339D01*
Y68650D01*
X153780D01*
G01Y64349D02*
X151339D01*
Y68050D01*
X153780D01*
G01X156221Y64349D02*
X158661D01*
Y68050D01*
X156221D01*
G01X153779Y72950D02*
X151338D01*
Y76651D01*
X153779D01*
G01X156220Y72950D02*
X158661D01*
Y76651D01*
X156220D01*
G01X153780Y77249D02*
X151339D01*
Y80950D01*
X153780D01*
G01X156221Y77249D02*
X158662D01*
Y80950D01*
X156221D01*
G01X174764Y22465D02*
X178295D01*
Y27535D01*
X174764D01*
G01X174763Y16165D02*
X178295D01*
Y21236D01*
X174763D01*
G01X178779Y46318D02*
X176338D01*
Y50019D01*
X178779D01*
G01X181220Y46318D02*
X183661D01*
Y50019D01*
X181220D01*
G01X178780Y41249D02*
X176339D01*
Y44950D01*
X178780D01*
G01X181221Y41249D02*
X183662D01*
Y44950D01*
X181221D01*
G01Y72651D02*
X183662D01*
Y68950D01*
X181221D01*
G01X178780Y72651D02*
X176339D01*
Y68950D01*
X178780D01*
G01Y64349D02*
X176339D01*
Y68050D01*
X178780D01*
G01X181221Y64349D02*
X183662D01*
Y68050D01*
X181221D01*
G01X181220Y54551D02*
X183661D01*
Y50850D01*
X181220D01*
G01X178779Y54551D02*
X176338D01*
Y50850D01*
X178779D01*
G01Y55449D02*
X176338D01*
Y59150D01*
X178779D01*
G01X181220Y55449D02*
X183661D01*
Y59150D01*
X181220D01*
G01X178780Y59849D02*
X176339D01*
Y63550D01*
X178780D01*
G01X181221Y59849D02*
X183662D01*
Y63550D01*
X181221D01*
G01X181480Y88150D02*
X179039D01*
Y91851D01*
X181480D01*
G01X183921Y88150D02*
X186361D01*
Y91851D01*
X183921D01*
G01X178779Y73549D02*
X176338D01*
Y77250D01*
X178779D01*
G01X181220Y73549D02*
X183661D01*
Y77250D01*
X181220D01*
G01X181480Y92749D02*
X179039D01*
Y96450D01*
X181480D01*
G01X183921Y92749D02*
X186362D01*
Y96450D01*
X183921D01*
G01X202500Y22500D02*
Y32500D01*
X222500D01*
Y22500D01*
X202500D01*
G01X222381Y39055D02*
X202618D01*
Y79055D01*
X222381D01*
Y39055D01*
G01X202500Y85000D02*
Y95000D01*
X222500D01*
Y85000D01*
X202500D01*
G01X189879Y88150D02*
X187438D01*
Y91851D01*
X189879D01*
G01X192320Y88150D02*
X194761D01*
Y91851D01*
X192320D01*
G54D13*
G01X16299Y7500D02*
G03I-492J0D01*
G01X24867Y28300D02*
G03I-492J0D01*
G01X40200Y7500D02*
G03I-493J0D01*
G01X39316Y20800D02*
G03I-492J0D01*
G01X45528Y50500D02*
G03I-492J0D01*
G01Y56000D02*
G03I-492J0D01*
G01X41224Y70000D02*
G03I-492J0D01*
G01X69325Y39783D02*
G03I-492J0D01*
G01X64046Y76473D02*
G03I-492J0D01*
G01X59090Y79500D02*
G03I-492J0D01*
G01X78268Y97500D02*
G03I-492J0D01*
G01X86299Y110000D02*
G03I-492J0D01*
G01X84685D02*
G03I-492J0D01*
G01X164745Y25000D02*
G03I-492J0D01*
G01X166268D02*
G03I-492J0D01*
G01X187185Y7500D02*
G03I-492J0D01*
G01X201300Y27500D02*
G03I-492J0D01*
G01X201299Y90000D02*
G03I-492J0D01*
G01X204685Y110000D02*
G03I-492J0D01*
G01X217992Y37362D02*
G03I-492J0D01*
G54D14*
G01X5347Y76712D02*
X307D01*
Y41279D01*
X5347D01*
G01X22000D02*
X16370D01*
G01X29914Y80996D02*
G03I-1414J0D01*
G01X22000Y76712D02*
X16370D01*
G01X103878Y27953D02*
X101122D01*
G01X103878Y22047D02*
X101122D01*
G01X127687Y18701D02*
X122175D01*
G01X136439Y46988D02*
X112423D01*
Y71004D01*
X136439D01*
Y46988D01*
G01X127687Y31300D02*
X122175D01*
M02*
