G04 ================== begin FILE IDENTIFICATION RECORD ==================*
G04 Layout Name:  F:/ST-LINK-V2/Hardware/Optimize/allegro/st-link-v2_pro_opt.brd*
G04 Film Name:    SILKSCREEN_BOTTOM*
G04 File Format:  Gerber RS274X*
G04 File Origin:  Cadence Allegro 17.4-S035*
G04 Origin Date:  Sat Dec 23 13:48:44 2023*
G04 *
G04 Layer:  REF DES/SILKSCREEN_BOTTOM*
G04 Layer:  PACKAGE GEOMETRY/SILKSCREEN_BOTTOM*
G04 Layer:  BOARD GEOMETRY/SILKSCREEN_BOTTOM*
G04 Layer:  BOARD GEOMETRY/DESIGN_OUTLINE*
G04 *
G04 Offset:    (0.00 0.00)*
G04 Mirror:    No*
G04 Mode:      Positive*
G04 Rotation:  0*
G04 FullContactRelief:  No*
G04 UndefLineWidth:     6.00*
G04 ================== end FILE IDENTIFICATION RECORD ====================*
%FSLAX55Y55*MOIN*%
%IR0*IPPOS*OFA0.00000B0.00000*MIA0B0*SFA1.00000B1.00000*%
%ADD10C,.02*%
%ADD11C,.006*%
G75*
%LPD*%
G75*
G54D10*
G01X136500Y104000D02*
Y90500D01*
X89000D01*
Y104000D01*
X136500D01*
G01X201000Y77500D02*
Y40000D01*
X200500Y39500D01*
X172000D01*
Y77500D01*
X201000D01*
G54D11*
G01X0Y11811D02*
G03X11811Y0I11811J0D01*
G01X224410D01*
G03X236221Y11811I0J11811D01*
G01Y106299D01*
G03X224410Y118110I-11811J0D01*
G01X11811D01*
G03X0Y106299I0J-11811D01*
G01Y11811D01*
G01X21500Y25100D02*
X23650D01*
X24100Y24900D01*
X24400Y24500D01*
X24500Y24000D01*
X24400Y23500D01*
X24100Y23100D01*
X23650Y22900D01*
X21500D01*
G01X24050Y21500D02*
X24300Y21200D01*
X24450Y20850D01*
X24500Y20400D01*
X24400Y19950D01*
X24200Y19600D01*
X23850Y19350D01*
X23450Y19300D01*
X23050Y19400D01*
X22800Y19650D01*
X22600Y20000D01*
X22550Y20350D01*
X22600Y20700D01*
X22800Y21150D01*
X21500Y21000D01*
Y19650D01*
G01Y18050D02*
X24500Y16800D01*
X21500Y15550D01*
G01X33000Y23700D02*
Y22700D01*
X33900D01*
X34200Y23000D01*
X34400Y23350D01*
X34500Y23850D01*
X34400Y24350D01*
X34200Y24700D01*
X33900Y25000D01*
X33550Y25200D01*
X33150Y25300D01*
X32800D01*
X32500Y25200D01*
X32150Y25000D01*
X31850Y24700D01*
X31650Y24400D01*
X31500Y24000D01*
Y23650D01*
X31600Y23250D01*
X31800Y22950D01*
G01X34500Y21550D02*
X31500D01*
X34500Y19250D01*
X31500D01*
G01X34500Y17900D02*
X31500D01*
Y16900D01*
X31650Y16500D01*
X31850Y16200D01*
X32150Y15950D01*
X32500Y15750D01*
X33000Y15700D01*
X33500Y15750D01*
X33850Y15950D01*
X34150Y16200D01*
X34350Y16500D01*
X34500Y16900D01*
Y17900D01*
G01X47400Y25100D02*
X47750Y24800D01*
X47950Y24400D01*
X48000Y23950D01*
X47950Y23550D01*
X47700Y23150D01*
X47400Y22900D01*
X47100Y22850D01*
X46750Y22950D01*
X46500Y23300D01*
X46400Y23650D01*
Y24100D01*
G01Y23650D02*
X46250Y23350D01*
X46000Y23100D01*
X45700Y23000D01*
X45400Y23100D01*
X45150Y23350D01*
X45000Y23800D01*
X45050Y24250D01*
X45250Y24700D01*
G01X45000Y21650D02*
X48000Y20400D01*
X45000Y19150D01*
G01X47400Y17900D02*
X47750Y17600D01*
X47950Y17200D01*
X48000Y16750D01*
X47950Y16350D01*
X47700Y15950D01*
X47400Y15700D01*
X47100Y15650D01*
X46750Y15750D01*
X46500Y16100D01*
X46400Y16450D01*
Y16900D01*
G01Y16450D02*
X46250Y16150D01*
X46000Y15900D01*
X45700Y15800D01*
X45400Y15900D01*
X45150Y16150D01*
X45000Y16600D01*
X45050Y17050D01*
X45250Y17500D01*
G01X55500Y24000D02*
X58500D01*
G01X55500Y25150D02*
Y22850D01*
G01X58500Y21450D02*
X55500Y19350D01*
G01Y21450D02*
X58500Y19350D01*
G01X68000Y25000D02*
X65000D01*
Y23750D01*
X65150Y23350D01*
X65350Y23100D01*
X65750Y23000D01*
X66150Y23100D01*
X66400Y23400D01*
X66550Y23750D01*
Y25000D01*
G01Y23750D02*
X68000Y23000D01*
G01Y21450D02*
X65000Y19350D01*
G01Y21450D02*
X68000Y19350D01*
G01X67400Y100600D02*
X67250Y100400D01*
X67000Y100250D01*
X66650Y100150D01*
X66350Y100250D01*
X66150Y100450D01*
X66000Y100800D01*
Y102150D01*
X69000D01*
Y100500D01*
X68800Y100150D01*
X68500Y99950D01*
X68150Y99850D01*
X67800Y99950D01*
X67500Y100250D01*
X67400Y100600D01*
Y102150D01*
G01X69000Y97400D02*
X68950Y97800D01*
X68750Y98150D01*
X68450Y98450D01*
X68100Y98650D01*
X67700Y98750D01*
X67300D01*
X66900Y98650D01*
X66550Y98450D01*
X66250Y98150D01*
X66050Y97800D01*
X66000Y97400D01*
X66050Y97000D01*
X66250Y96650D01*
X66550Y96350D01*
X66900Y96150D01*
X67300Y96050D01*
X67700D01*
X68100Y96150D01*
X68450Y96350D01*
X68750Y96650D01*
X68950Y97000D01*
X69000Y97400D01*
G01Y93800D02*
X68950Y94200D01*
X68750Y94550D01*
X68450Y94850D01*
X68100Y95050D01*
X67700Y95150D01*
X67300D01*
X66900Y95050D01*
X66550Y94850D01*
X66250Y94550D01*
X66050Y94200D01*
X66000Y93800D01*
X66050Y93400D01*
X66250Y93050D01*
X66550Y92750D01*
X66900Y92550D01*
X67300Y92450D01*
X67700D01*
X68100Y92550D01*
X68450Y92750D01*
X68750Y93050D01*
X68950Y93400D01*
X69000Y93800D01*
G01X66000Y90200D02*
X69000D01*
G01X66000Y91350D02*
Y89050D01*
G01Y86600D02*
X66100Y87000D01*
X66350Y87300D01*
X66650Y87500D01*
X67050Y87650D01*
X67500Y87700D01*
X67950Y87650D01*
X68350Y87500D01*
X68650Y87300D01*
X68900Y87000D01*
X69000Y86600D01*
X68900Y86200D01*
X68650Y85900D01*
X68350Y85700D01*
X67950Y85550D01*
X67500Y85500D01*
X67050Y85550D01*
X66650Y85700D01*
X66350Y85900D01*
X66100Y86200D01*
X66000Y86600D01*
G01X57500Y100700D02*
Y99700D01*
X58400D01*
X58700Y100000D01*
X58900Y100350D01*
X59000Y100850D01*
X58900Y101350D01*
X58700Y101700D01*
X58400Y102000D01*
X58050Y102200D01*
X57650Y102300D01*
X57300D01*
X57000Y102200D01*
X56650Y102000D01*
X56350Y101700D01*
X56150Y101400D01*
X56000Y101000D01*
Y100650D01*
X56100Y100250D01*
X56300Y99950D01*
G01X59000Y98550D02*
X56000D01*
X59000Y96250D01*
X56000D01*
G01X59000Y94900D02*
X56000D01*
Y93900D01*
X56150Y93500D01*
X56350Y93200D01*
X56650Y92950D01*
X57000Y92750D01*
X57500Y92700D01*
X58000Y92750D01*
X58350Y92950D01*
X58650Y93200D01*
X58850Y93500D01*
X59000Y93900D01*
Y94900D01*
G01X78100Y25050D02*
X78350Y24650D01*
X78500Y24200D01*
Y23800D01*
X78350Y23400D01*
X78100Y23100D01*
X77750Y22950D01*
X77400Y23050D01*
X77100Y23300D01*
X76900Y23750D01*
X76800Y24350D01*
X76600Y24700D01*
X76250Y24850D01*
X75900Y24750D01*
X75650Y24500D01*
X75500Y24150D01*
Y23800D01*
X75600Y23450D01*
X75850Y23150D01*
G01X75750Y19300D02*
X75600Y19600D01*
X75500Y19950D01*
Y20350D01*
X75650Y20800D01*
X75900Y21150D01*
X76200Y21400D01*
X76700Y21600D01*
X77150Y21650D01*
X77600Y21550D01*
X77900Y21400D01*
X78200Y21100D01*
X78400Y20750D01*
X78500Y20400D01*
Y20050D01*
X78400Y19700D01*
X78250Y19400D01*
X78050Y19150D01*
G01X75500Y17800D02*
X78500D01*
Y15800D01*
G01X88100Y25050D02*
X88350Y24650D01*
X88500Y24200D01*
Y23800D01*
X88350Y23400D01*
X88100Y23100D01*
X87750Y22950D01*
X87400Y23050D01*
X87100Y23300D01*
X86900Y23750D01*
X86800Y24350D01*
X86600Y24700D01*
X86250Y24850D01*
X85900Y24750D01*
X85650Y24500D01*
X85500Y24150D01*
Y23800D01*
X85600Y23450D01*
X85850Y23150D01*
G01X88500Y21500D02*
X85500D01*
Y20500D01*
X85650Y20100D01*
X85850Y19800D01*
X86150Y19550D01*
X86500Y19350D01*
X87000Y19300D01*
X87500Y19350D01*
X87850Y19550D01*
X88150Y19800D01*
X88350Y20100D01*
X88500Y20500D01*
Y21500D01*
G01Y18050D02*
X85500Y16800D01*
X88500Y15550D01*
G01X87450Y16000D02*
Y17600D01*
G01X78400Y102100D02*
X78750Y101800D01*
X78950Y101400D01*
X79000Y100950D01*
X78950Y100550D01*
X78700Y100150D01*
X78400Y99900D01*
X78100Y99850D01*
X77750Y99950D01*
X77500Y100300D01*
X77400Y100650D01*
Y101100D01*
G01Y100650D02*
X77250Y100350D01*
X77000Y100100D01*
X76700Y100000D01*
X76400Y100100D01*
X76150Y100350D01*
X76000Y100800D01*
X76050Y101250D01*
X76250Y101700D01*
G01X76000Y98650D02*
X79000Y97400D01*
X76000Y96150D01*
G01X78400Y94900D02*
X78750Y94600D01*
X78950Y94200D01*
X79000Y93750D01*
X78950Y93350D01*
X78700Y92950D01*
X78400Y92700D01*
X78100Y92650D01*
X77750Y92750D01*
X77500Y93100D01*
X77400Y93450D01*
Y93900D01*
G01Y93450D02*
X77250Y93150D01*
X77000Y92900D01*
X76700Y92800D01*
X76400Y92900D01*
X76150Y93150D01*
X76000Y93600D01*
X76050Y94050D01*
X76250Y94500D01*
G01X97000Y23700D02*
Y22700D01*
X97900D01*
X98200Y23000D01*
X98400Y23350D01*
X98500Y23850D01*
X98400Y24350D01*
X98200Y24700D01*
X97900Y25000D01*
X97550Y25200D01*
X97150Y25300D01*
X96800D01*
X96500Y25200D01*
X96150Y25000D01*
X95850Y24700D01*
X95650Y24400D01*
X95500Y24000D01*
Y23650D01*
X95600Y23250D01*
X95800Y22950D01*
G01X98500Y21550D02*
X95500D01*
X98500Y19250D01*
X95500D01*
G01X98500Y17900D02*
X95500D01*
Y16900D01*
X95650Y16500D01*
X95850Y16200D01*
X96150Y15950D01*
X96500Y15750D01*
X97000Y15700D01*
X97500Y15750D01*
X97850Y15950D01*
X98150Y16200D01*
X98350Y16500D01*
X98500Y16900D01*
Y17900D01*
G01X116550Y45500D02*
Y48500D01*
G01X114450D02*
Y45500D01*
G01Y47000D02*
X116550D01*
G01X112650Y46850D02*
X111050D01*
X111200Y47200D01*
X111450Y47400D01*
X111800Y47500D01*
X112150Y47450D01*
X112450Y47300D01*
X112650Y46950D01*
X112750Y46650D01*
Y46350D01*
X112650Y46050D01*
X112400Y45750D01*
X112100Y45550D01*
X111750Y45500D01*
X111400Y45600D01*
X111050Y45900D01*
G01X109000Y45500D02*
Y47500D01*
G01Y47100D02*
X108750Y47300D01*
X108500Y47450D01*
X108150Y47500D01*
X107900Y47450D01*
X107600Y47300D01*
G01X104700Y45500D02*
X105000Y45550D01*
X105300Y45750D01*
X105500Y46100D01*
X105600Y46500D01*
X105500Y46900D01*
X105300Y47250D01*
X105000Y47450D01*
X104700Y47500D01*
X104400Y47450D01*
X104100Y47250D01*
X103900Y46900D01*
X103850Y46500D01*
X103900Y46100D01*
X104100Y45750D01*
X104400Y45550D01*
X104700Y45500D01*
G01X134050Y60400D02*
X133650Y60150D01*
X133200Y60000D01*
X132800D01*
X132400Y60150D01*
X132100Y60400D01*
X131950Y60750D01*
X132050Y61100D01*
X132300Y61400D01*
X132750Y61600D01*
X133350Y61700D01*
X133700Y61900D01*
X133850Y62250D01*
X133750Y62600D01*
X133500Y62850D01*
X133150Y63000D01*
X132800D01*
X132450Y62900D01*
X132150Y62650D01*
G01X129400Y63000D02*
Y60000D01*
G01X130550Y63000D02*
X128250D01*
G01X126450Y61000D02*
X125150D01*
G01X123200Y63000D02*
Y60000D01*
X121200D01*
G01X119200Y63000D02*
X118000D01*
G01X118600D02*
Y60000D01*
G01X119200D02*
X118000D01*
G01X116150D02*
Y63000D01*
X113850Y60000D01*
Y63000D01*
G01X112500Y60000D02*
Y63000D01*
G01X110600D02*
X112500Y61150D01*
G01X110300Y60000D02*
X111650Y62000D01*
G01X108450Y61000D02*
X107150D01*
G01X105450Y63000D02*
X104200Y60000D01*
X102950Y63000D01*
G01X101550Y62500D02*
X101250Y62800D01*
X100900Y62950D01*
X100500Y63000D01*
X100000Y62900D01*
X99650Y62650D01*
X99550Y62350D01*
X99600Y62050D01*
X99800Y61800D01*
X100800Y61300D01*
X101250Y60950D01*
X101550Y60450D01*
X101650Y60000D01*
X99550D01*
G01X94500Y102000D02*
X91500D01*
Y100750D01*
X91650Y100350D01*
X91850Y100100D01*
X92250Y100000D01*
X92650Y100100D01*
X92900Y100400D01*
X93050Y100750D01*
Y102000D01*
G01Y100750D02*
X94500Y100000D01*
G01X94100Y98450D02*
X94350Y98050D01*
X94500Y97600D01*
Y97200D01*
X94350Y96800D01*
X94100Y96500D01*
X93750Y96350D01*
X93400Y96450D01*
X93100Y96700D01*
X92900Y97150D01*
X92800Y97750D01*
X92600Y98100D01*
X92250Y98250D01*
X91900Y98150D01*
X91650Y97900D01*
X91500Y97550D01*
Y97200D01*
X91600Y96850D01*
X91850Y96550D01*
G01X91500Y93800D02*
X94500D01*
G01X91500Y94950D02*
Y92650D01*
G01X103400Y102100D02*
X103750Y101800D01*
X103950Y101400D01*
X104000Y100950D01*
X103950Y100550D01*
X103700Y100150D01*
X103400Y99900D01*
X103100Y99850D01*
X102750Y99950D01*
X102500Y100300D01*
X102400Y100650D01*
Y101100D01*
G01Y100650D02*
X102250Y100350D01*
X102000Y100100D01*
X101700Y100000D01*
X101400Y100100D01*
X101150Y100350D01*
X101000Y100800D01*
X101050Y101250D01*
X101250Y101700D01*
G01X101000Y98650D02*
X104000Y97400D01*
X101000Y96150D01*
G01X103400Y94900D02*
X103750Y94600D01*
X103950Y94200D01*
X104000Y93750D01*
X103950Y93350D01*
X103700Y92950D01*
X103400Y92700D01*
X103100Y92650D01*
X102750Y92750D01*
X102500Y93100D01*
X102400Y93450D01*
Y93900D01*
G01Y93450D02*
X102250Y93150D01*
X102000Y92900D01*
X101700Y92800D01*
X101400Y92900D01*
X101150Y93150D01*
X101000Y93600D01*
X101050Y94050D01*
X101250Y94500D01*
G01X110500Y101000D02*
X113500D01*
G01X110500Y102150D02*
Y99850D01*
G01X110750Y96300D02*
X110600Y96600D01*
X110500Y96950D01*
Y97350D01*
X110650Y97800D01*
X110900Y98150D01*
X111200Y98400D01*
X111700Y98600D01*
X112150Y98650D01*
X112600Y98550D01*
X112900Y98400D01*
X113200Y98100D01*
X113400Y97750D01*
X113500Y97400D01*
Y97050D01*
X113400Y96700D01*
X113250Y96400D01*
X113050Y96150D01*
G01X113500Y94900D02*
X110500D01*
G01Y93000D02*
X112350Y94900D01*
G01X113500Y92700D02*
X111500Y94050D01*
G01X122500Y100700D02*
Y99700D01*
X123400D01*
X123700Y100000D01*
X123900Y100350D01*
X124000Y100850D01*
X123900Y101350D01*
X123700Y101700D01*
X123400Y102000D01*
X123050Y102200D01*
X122650Y102300D01*
X122300D01*
X122000Y102200D01*
X121650Y102000D01*
X121350Y101700D01*
X121150Y101400D01*
X121000Y101000D01*
Y100650D01*
X121100Y100250D01*
X121300Y99950D01*
G01X124000Y98550D02*
X121000D01*
X124000Y96250D01*
X121000D01*
G01X124000Y94900D02*
X121000D01*
Y93900D01*
X121150Y93500D01*
X121350Y93200D01*
X121650Y92950D01*
X122000Y92750D01*
X122500Y92700D01*
X123000Y92750D01*
X123350Y92950D01*
X123650Y93200D01*
X123850Y93500D01*
X124000Y93900D01*
Y94900D01*
G01X134000Y102100D02*
X131000D01*
Y101100D01*
X131150Y100700D01*
X131350Y100400D01*
X131650Y100150D01*
X132000Y99950D01*
X132500Y99900D01*
X133000Y99950D01*
X133350Y100150D01*
X133650Y100400D01*
X133850Y100700D01*
X134000Y101100D01*
Y102100D01*
G01X131000Y98000D02*
Y96800D01*
G01Y97400D02*
X134000D01*
G01Y98000D02*
Y96800D01*
G01Y93800D02*
X133950Y94200D01*
X133750Y94550D01*
X133450Y94850D01*
X133100Y95050D01*
X132700Y95150D01*
X132300D01*
X131900Y95050D01*
X131550Y94850D01*
X131250Y94550D01*
X131050Y94200D01*
X131000Y93800D01*
X131050Y93400D01*
X131250Y93050D01*
X131550Y92750D01*
X131900Y92550D01*
X132300Y92450D01*
X132700D01*
X133100Y92550D01*
X133450Y92750D01*
X133750Y93050D01*
X133950Y93400D01*
X134000Y93800D01*
G01X147000Y100700D02*
Y99700D01*
X147900D01*
X148200Y100000D01*
X148400Y100350D01*
X148500Y100850D01*
X148400Y101350D01*
X148200Y101700D01*
X147900Y102000D01*
X147550Y102200D01*
X147150Y102300D01*
X146800D01*
X146500Y102200D01*
X146150Y102000D01*
X145850Y101700D01*
X145650Y101400D01*
X145500Y101000D01*
Y100650D01*
X145600Y100250D01*
X145800Y99950D01*
G01X148500Y98550D02*
X145500D01*
X148500Y96250D01*
X145500D01*
G01X148500Y94900D02*
X145500D01*
Y93900D01*
X145650Y93500D01*
X145850Y93200D01*
X146150Y92950D01*
X146500Y92750D01*
X147000Y92700D01*
X147500Y92750D01*
X147850Y92950D01*
X148150Y93200D01*
X148350Y93500D01*
X148500Y93900D01*
Y94900D01*
G01X150000Y23700D02*
Y22700D01*
X150900D01*
X151200Y23000D01*
X151400Y23350D01*
X151500Y23850D01*
X151400Y24350D01*
X151200Y24700D01*
X150900Y25000D01*
X150550Y25200D01*
X150150Y25300D01*
X149800D01*
X149500Y25200D01*
X149150Y25000D01*
X148850Y24700D01*
X148650Y24400D01*
X148500Y24000D01*
Y23650D01*
X148600Y23250D01*
X148800Y22950D01*
G01X151500Y21550D02*
X148500D01*
X151500Y19250D01*
X148500D01*
G01X151500Y17900D02*
X148500D01*
Y16900D01*
X148650Y16500D01*
X148850Y16200D01*
X149150Y15950D01*
X149500Y15750D01*
X150000Y15700D01*
X150500Y15750D01*
X150850Y15950D01*
X151150Y16200D01*
X151350Y16500D01*
X151500Y16900D01*
Y17900D01*
G01X162500Y25000D02*
X159500D01*
Y23800D01*
X159650Y23400D01*
X160000Y23100D01*
X160400Y23000D01*
X160800Y23100D01*
X161100Y23350D01*
X161250Y23800D01*
Y25000D01*
G01X160900Y20000D02*
X160750Y19800D01*
X160500Y19650D01*
X160150Y19550D01*
X159850Y19650D01*
X159650Y19850D01*
X159500Y20200D01*
Y21550D01*
X162500D01*
Y19900D01*
X162300Y19550D01*
X162000Y19350D01*
X161650Y19250D01*
X161300Y19350D01*
X161000Y19650D01*
X160900Y20000D01*
Y21550D01*
G01X162050Y17900D02*
X162300Y17600D01*
X162450Y17250D01*
X162500Y16800D01*
X162400Y16350D01*
X162200Y16000D01*
X161850Y15750D01*
X161450Y15700D01*
X161050Y15800D01*
X160800Y16050D01*
X160600Y16400D01*
X160550Y16750D01*
X160600Y17100D01*
X160800Y17550D01*
X159500Y17400D01*
Y16050D01*
G01X159000Y100500D02*
Y102500D01*
X156000D01*
Y100500D01*
G01X157450Y101300D02*
Y102500D01*
G01X159000Y98950D02*
X156000Y96850D01*
G01Y98950D02*
X159000Y96850D01*
G01X156000Y94300D02*
X159000D01*
G01X156000Y95450D02*
Y93150D01*
G01X159000Y90700D02*
X156000D01*
X156600Y91300D01*
G01X159000D02*
Y90100D01*
G01Y87100D02*
X156000D01*
X156600Y87700D01*
G01X159000D02*
Y86500D01*
G01X166000Y102600D02*
Y101400D01*
G01Y102000D02*
X169000D01*
G01Y102600D02*
Y101400D01*
G01Y99550D02*
X166000D01*
X169000Y97250D01*
X166000D01*
G01X168650Y95650D02*
X168900Y95300D01*
X169000Y94900D01*
X168900Y94500D01*
X168600Y94150D01*
X168150Y93900D01*
X167700Y93800D01*
X167150D01*
X166700Y93900D01*
X166300Y94150D01*
X166100Y94450D01*
X166000Y94800D01*
X166100Y95200D01*
X166300Y95500D01*
X166600Y95700D01*
X167000Y95800D01*
X167350Y95700D01*
X167700Y95450D01*
X167900Y95150D01*
X167950Y94800D01*
X167850Y94400D01*
X167600Y94100D01*
X167150Y93800D01*
G01X172000Y25000D02*
X169000D01*
Y23800D01*
X169150Y23400D01*
X169500Y23100D01*
X169900Y23000D01*
X170300Y23100D01*
X170600Y23350D01*
X170750Y23800D01*
Y25000D01*
G01X170400Y20000D02*
X170250Y19800D01*
X170000Y19650D01*
X169650Y19550D01*
X169350Y19650D01*
X169150Y19850D01*
X169000Y20200D01*
Y21550D01*
X172000D01*
Y19900D01*
X171800Y19550D01*
X171500Y19350D01*
X171150Y19250D01*
X170800Y19350D01*
X170500Y19650D01*
X170400Y20000D01*
Y21550D01*
G01X172000Y16200D02*
X169000D01*
X171150Y18050D01*
Y15550D01*
G01X181400Y24600D02*
X181750Y24300D01*
X181950Y23900D01*
X182000Y23450D01*
X181950Y23050D01*
X181700Y22650D01*
X181400Y22400D01*
X181100Y22350D01*
X180750Y22450D01*
X180500Y22800D01*
X180400Y23150D01*
Y23600D01*
G01Y23150D02*
X180250Y22850D01*
X180000Y22600D01*
X179700Y22500D01*
X179400Y22600D01*
X179150Y22850D01*
X179000Y23300D01*
X179050Y23750D01*
X179250Y24200D01*
G01X179000Y21150D02*
X182000Y19900D01*
X179000Y18650D01*
G01X181400Y17400D02*
X181750Y17100D01*
X181950Y16700D01*
X182000Y16250D01*
X181950Y15850D01*
X181700Y15450D01*
X181400Y15200D01*
X181100Y15150D01*
X180750Y15250D01*
X180500Y15600D01*
X180400Y15950D01*
Y16400D01*
G01Y15950D02*
X180250Y15650D01*
X180000Y15400D01*
X179700Y15300D01*
X179400Y15400D01*
X179150Y15650D01*
X179000Y16100D01*
X179050Y16550D01*
X179250Y17000D01*
G01X182500Y45500D02*
Y42500D01*
G01X183650Y45500D02*
X181350D01*
G01X179950Y42500D02*
X177850Y45500D01*
G01X179950D02*
X177850Y42500D01*
G01X183000Y63000D02*
Y66000D01*
X181750D01*
X181350Y65850D01*
X181100Y65650D01*
X181000Y65250D01*
X181100Y64850D01*
X181400Y64600D01*
X181750Y64450D01*
X183000D01*
G01X181750D02*
X181000Y63000D01*
G01X179450Y63400D02*
X179050Y63150D01*
X178600Y63000D01*
X178200D01*
X177800Y63150D01*
X177500Y63400D01*
X177350Y63750D01*
X177450Y64100D01*
X177700Y64400D01*
X178150Y64600D01*
X178750Y64700D01*
X179100Y64900D01*
X179250Y65250D01*
X179150Y65600D01*
X178900Y65850D01*
X178550Y66000D01*
X178200D01*
X177850Y65900D01*
X177550Y65650D01*
G01X174800Y66000D02*
Y63000D01*
G01X175950Y66000D02*
X173650D01*
G01X183500Y52000D02*
Y55000D01*
X182250D01*
X181850Y54850D01*
X181600Y54650D01*
X181500Y54250D01*
X181600Y53850D01*
X181900Y53600D01*
X182250Y53450D01*
X183500D01*
G01X182250D02*
X181500Y52000D01*
G01X179950D02*
X177850Y55000D01*
G01X179950D02*
X177850Y52000D01*
G01X183550Y72900D02*
X183150Y72650D01*
X182700Y72500D01*
X182300D01*
X181900Y72650D01*
X181600Y72900D01*
X181450Y73250D01*
X181550Y73600D01*
X181800Y73900D01*
X182250Y74100D01*
X182850Y74200D01*
X183200Y74400D01*
X183350Y74750D01*
X183250Y75100D01*
X183000Y75350D01*
X182650Y75500D01*
X182300D01*
X181950Y75400D01*
X181650Y75150D01*
G01X180400Y75500D02*
X179700Y72500D01*
X178900Y75500D01*
X178100Y72500D01*
X177400Y75500D01*
G01X175300Y72500D02*
X175700Y72550D01*
X176050Y72750D01*
X176350Y73050D01*
X176550Y73400D01*
X176650Y73800D01*
Y74200D01*
X176550Y74600D01*
X176350Y74950D01*
X176050Y75250D01*
X175700Y75450D01*
X175300Y75500D01*
X174900Y75450D01*
X174550Y75250D01*
X174250Y74950D01*
X174050Y74600D01*
X173950Y74200D01*
Y73800D01*
X174050Y73400D01*
X174250Y73050D01*
X174550Y72750D01*
X174900Y72550D01*
X175300Y72500D01*
G01X176000Y102600D02*
Y101400D01*
G01Y102000D02*
X179000D01*
G01Y102600D02*
Y101400D01*
G01Y99550D02*
X176000D01*
X179000Y97250D01*
X176000D01*
G01X179000Y94200D02*
X176000D01*
X178150Y96050D01*
Y93550D01*
G01X186000Y102600D02*
Y101400D01*
G01Y102000D02*
X189000D01*
G01Y102600D02*
Y101400D01*
G01Y99550D02*
X186000D01*
X189000Y97250D01*
X186000D01*
G01X189000Y94800D02*
X186000D01*
X186600Y95400D01*
G01X189000D02*
Y94200D01*
G01X194400Y30000D02*
X194700Y29750D01*
X194900Y29450D01*
X195000Y29100D01*
X194900Y28700D01*
X194700Y28400D01*
X194400Y28100D01*
X194000Y28000D01*
X192000D01*
G01Y25400D02*
X195000D01*
G01X192000Y26550D02*
Y24250D01*
G01X195000Y22900D02*
X192000D01*
Y21900D01*
X192150Y21500D01*
X192350Y21200D01*
X192650Y20950D01*
X193000Y20750D01*
X193500Y20700D01*
X194000Y20750D01*
X194350Y20950D01*
X194650Y21200D01*
X194850Y21500D01*
X195000Y21900D01*
Y22900D01*
G01Y18200D02*
X194950Y18600D01*
X194750Y18950D01*
X194450Y19250D01*
X194100Y19450D01*
X193700Y19550D01*
X193300D01*
X192900Y19450D01*
X192550Y19250D01*
X192250Y18950D01*
X192050Y18600D01*
X192000Y18200D01*
X192050Y17800D01*
X192250Y17450D01*
X192550Y17150D01*
X192900Y16950D01*
X193300Y16850D01*
X193700D01*
X194100Y16950D01*
X194450Y17150D01*
X194750Y17450D01*
X194950Y17800D01*
X195000Y18200D01*
G01X199900Y30000D02*
X200200Y29750D01*
X200400Y29450D01*
X200500Y29100D01*
X200400Y28700D01*
X200200Y28400D01*
X199900Y28100D01*
X199500Y28000D01*
X197500D01*
G01Y25400D02*
X200500D01*
G01X197500Y26550D02*
Y24250D01*
G01X200500Y22900D02*
X197500D01*
Y21900D01*
X197650Y21500D01*
X197850Y21200D01*
X198150Y20950D01*
X198500Y20750D01*
X199000Y20700D01*
X199500Y20750D01*
X199850Y20950D01*
X200150Y21200D01*
X200350Y21500D01*
X200500Y21900D01*
Y22900D01*
G01X197500Y18800D02*
Y17600D01*
G01Y18200D02*
X200500D01*
G01Y18800D02*
Y17600D01*
G01X198250Y45500D02*
X197000Y42500D01*
X195750Y45500D01*
G01X192300Y45250D02*
X192600Y45400D01*
X192950Y45500D01*
X193350D01*
X193800Y45350D01*
X194150Y45100D01*
X194400Y44800D01*
X194600Y44300D01*
X194650Y43850D01*
X194550Y43400D01*
X194400Y43100D01*
X194100Y42800D01*
X193750Y42600D01*
X193400Y42500D01*
X193050D01*
X192700Y42600D01*
X192400Y42750D01*
X192150Y42950D01*
G01X188700Y45250D02*
X189000Y45400D01*
X189350Y45500D01*
X189750D01*
X190200Y45350D01*
X190550Y45100D01*
X190800Y44800D01*
X191000Y44300D01*
X191050Y43850D01*
X190950Y43400D01*
X190800Y43100D01*
X190500Y42800D01*
X190150Y42600D01*
X189800Y42500D01*
X189450D01*
X189100Y42600D01*
X188800Y42750D01*
X188550Y42950D01*
G01X197000Y66000D02*
Y63000D01*
G01X198150Y66000D02*
X195850D01*
G01X192300Y65750D02*
X192600Y65900D01*
X192950Y66000D01*
X193350D01*
X193800Y65850D01*
X194150Y65600D01*
X194400Y65300D01*
X194600Y64800D01*
X194650Y64350D01*
X194550Y63900D01*
X194400Y63600D01*
X194100Y63300D01*
X193750Y63100D01*
X193400Y63000D01*
X193050D01*
X192700Y63100D01*
X192400Y63250D01*
X192150Y63450D01*
G01X190900Y63000D02*
Y66000D01*
G01X189000D02*
X190900Y64150D01*
G01X188700Y63000D02*
X190050Y65000D01*
G01X196700Y54000D02*
X195700D01*
Y53100D01*
X196000Y52800D01*
X196350Y52600D01*
X196850Y52500D01*
X197350Y52600D01*
X197700Y52800D01*
X198000Y53100D01*
X198200Y53450D01*
X198300Y53850D01*
Y54200D01*
X198200Y54500D01*
X198000Y54850D01*
X197700Y55150D01*
X197400Y55350D01*
X197000Y55500D01*
X196650D01*
X196250Y55400D01*
X195950Y55200D01*
G01X194550Y52500D02*
Y55500D01*
X192250Y52500D01*
Y55500D01*
G01X190900Y52500D02*
Y55500D01*
X189900D01*
X189500Y55350D01*
X189200Y55150D01*
X188950Y54850D01*
X188750Y54500D01*
X188700Y54000D01*
X188750Y53500D01*
X188950Y53150D01*
X189200Y52850D01*
X189500Y52650D01*
X189900Y52500D01*
X190900D01*
G01X196500Y89800D02*
X193500D01*
X196000Y88500D01*
X193500Y87200D01*
X196500D01*
G01X193750Y83800D02*
X193600Y84100D01*
X193500Y84450D01*
Y84850D01*
X193650Y85300D01*
X193900Y85650D01*
X194200Y85900D01*
X194700Y86100D01*
X195150Y86150D01*
X195600Y86050D01*
X195900Y85900D01*
X196200Y85600D01*
X196400Y85250D01*
X196500Y84900D01*
Y84550D01*
X196400Y84200D01*
X196250Y83900D01*
X196050Y83650D01*
G01X196500Y81300D02*
X196450Y81700D01*
X196250Y82050D01*
X195950Y82350D01*
X195600Y82550D01*
X195200Y82650D01*
X194800D01*
X194400Y82550D01*
X194050Y82350D01*
X193750Y82050D01*
X193550Y81700D01*
X193500Y81300D01*
X193550Y80900D01*
X193750Y80550D01*
X194050Y80250D01*
X194400Y80050D01*
X194800Y79950D01*
X195200D01*
X195600Y80050D01*
X195950Y80250D01*
X196250Y80550D01*
X196450Y80900D01*
X196500Y81300D01*
G01X198100Y72500D02*
Y75500D01*
X197100D01*
X196700Y75350D01*
X196400Y75150D01*
X196150Y74850D01*
X195950Y74500D01*
X195900Y74000D01*
X195950Y73500D01*
X196150Y73150D01*
X196400Y72850D01*
X196700Y72650D01*
X197100Y72500D01*
X198100D01*
G01X194000Y75500D02*
X192800D01*
G01X193400D02*
Y72500D01*
G01X194000D02*
X192800D01*
G01X189800D02*
X190200Y72550D01*
X190550Y72750D01*
X190850Y73050D01*
X191050Y73400D01*
X191150Y73800D01*
Y74200D01*
X191050Y74600D01*
X190850Y74950D01*
X190550Y75250D01*
X190200Y75450D01*
X189800Y75500D01*
X189400Y75450D01*
X189050Y75250D01*
X188750Y74950D01*
X188550Y74600D01*
X188450Y74200D01*
Y73800D01*
X188550Y73400D01*
X188750Y73050D01*
X189050Y72750D01*
X189400Y72550D01*
X189800Y72500D01*
G01X201000Y87500D02*
Y89500D01*
X198000D01*
Y87500D01*
G01X199450Y88300D02*
Y89500D01*
G01X201000Y86050D02*
X198000D01*
X201000Y83750D01*
X198000D01*
G01X198400Y102600D02*
X198750Y102300D01*
X198950Y101900D01*
X199000Y101450D01*
X198950Y101050D01*
X198700Y100650D01*
X198400Y100400D01*
X198100Y100350D01*
X197750Y100450D01*
X197500Y100800D01*
X197400Y101150D01*
Y101600D01*
G01Y101150D02*
X197250Y100850D01*
X197000Y100600D01*
X196700Y100500D01*
X196400Y100600D01*
X196150Y100850D01*
X196000Y101300D01*
X196050Y101750D01*
X196250Y102200D01*
G01X196000Y99150D02*
X199000Y97900D01*
X196000Y96650D01*
G01X198400Y95400D02*
X198750Y95100D01*
X198950Y94700D01*
X199000Y94250D01*
X198950Y93850D01*
X198700Y93450D01*
X198400Y93200D01*
X198100Y93150D01*
X197750Y93250D01*
X197500Y93600D01*
X197400Y93950D01*
Y94400D01*
G01Y93950D02*
X197250Y93650D01*
X197000Y93400D01*
X196700Y93300D01*
X196400Y93400D01*
X196150Y93650D01*
X196000Y94100D01*
X196050Y94550D01*
X196250Y95000D01*
M02*
