M48
INCH,TZ
T01C.01181
T02C.04134
T03C.04331
T04C.05512
T05C.02559
;LEADER: 12 
;HEADER: 
;CODE  : ASCII 
;FILE  : st-link-v2_pro-1-2.drl for  ... layers TOP and BOTTOM
;DESIGN: st-link-v2_pro.brd
;T01 Holesize 1. = 11.810000 Tolerance = +0.000000/-0.000000 PLATED MILS Quantity = 208
;T02 Holesize 2. = 41.340000 Tolerance = +0.000000/-0.000000 PLATED MILS Quantity = 8
;T03 Holesize 3. = 43.310000 Tolerance = +0.000000/-0.000000 PLATED MILS Quantity = 34
;T04 Holesize 4. = 55.120000 Tolerance = +0.000000/-0.000000 PLATED MILS Quantity = 4
;T05 Holesize 5. = 25.590000 Tolerance = +0.000000/-0.000000 NON_PLATED MILS Quantity = 2
%
G90
T01
X130226Y56602
X129999Y60157
X129900Y64800
X129873Y68980
X101200Y63100
X96800Y65000
X194500Y44200
X194500Y69000
X181600Y63000
X181600Y43500
X176800Y52166
X176800Y42800
X201600Y74055
X209200Y93000
X119766Y64563
X56600Y41600
X171700Y65633
X171707Y43100
X198862Y43444
X198900Y61500
X188863Y58137
X188862Y43444
X94000Y49607
X117000Y49607
X142500Y45128
X150200Y47100
X35400Y91600
X69400Y34000
X152991Y71900
X153000Y38019
X137540Y38019
X107000Y46500
X118200Y83400
X101800Y79800
X101700Y83400
X159093Y41500
X56100Y58700
X119600Y68300
X116654Y66297
X56000Y55100
X36600Y45200
X81594Y39006
X42058Y55100
X42058Y59055
X208800Y33900
X203800Y24400
X186600Y33900
X192900Y24200
X172500Y24900
X166300Y25500
X186000Y89600
X198100Y90200
X218800Y94100
X77700Y85500
X67100Y89500
X58500Y89400
X97000Y94500
X83500Y92300
X61200Y31000
X52300Y42600
X46300Y42500
X41900Y45700
X230700Y58500
X6819Y96063
X6819Y86063
X6819Y66063
R05Y-10000
X6900Y6900
X20634Y6819
R19X10000
X229400Y16400
X229500Y6900
X229500Y27000
X229900Y36900
X229401Y81630
R02Y10000
X226819Y111291
R22X-10000
X203300Y99500
X212100Y76700
X222100Y69500
X208700Y68700
X210900Y42100
X212000Y51300
X221500Y49100
X200500Y68700
X189300Y74000
X205600Y44400
X175700Y64700
X178700Y74500
X168700Y74500
X185300Y45900
X168100Y46000
X148723Y63977
X159700Y74500
X149000Y71200
X156700Y45400
X147100Y21900
X145300Y34200
X152991Y26391
X145100Y15000
X124300Y84100
X132200Y72100
X129700Y40200
X124000Y36500
X127400Y33400
X136622Y31300
X141260Y32100
X130400Y11200
X137600Y11100
X111240Y80400
X119095Y72926
X121291Y29600
X121291Y25200
X120300Y33060
X111500Y37100
X117100Y38681
X107700Y33800
X122600Y15000
X110000Y13500
X114900Y17100
X101732Y73301
X89000Y69996
X97900Y61600
X90700Y47300
X94500Y61700
X97100Y41500
X97100Y46500
X137300Y50900
X104600Y54700
X95800Y24100
X103000Y29600
X103000Y22000
X83200Y27500
X97200Y36500
X90805Y37748
X102900Y16800
X83200Y18100
X81400Y62800
X66800Y63500
X72700Y67000
X66000Y70193
X81952Y49250
X69200Y13500
X46300Y94100
X45200Y77400
X55900Y63200
X58000Y69405
X50545Y69358
X61200Y54800
X60200Y36400
X55200Y29400
X47700Y29600
X44000Y14100
X28000Y88300
X21300Y88300
X31800Y84900
X21000Y72000
X21700Y81400
X32600Y74042
X21000Y45200
X32900Y43900
X35400Y40700
X19567Y35433
T02
X227346Y44055
X217346Y44055
X227346Y54055
X217346Y54055
X227346Y64055
X217346Y64055
X227346Y74055
X217346Y74055
T03
X38500Y99500
X48500Y99500
X65000Y25000
X75000Y25000
X104100Y99500
R03X10000
X61100Y99500
R03X10000
X215000Y86500
X225000Y86500
X215000Y31500
X225000Y31500
X165400Y31500
X175400Y31500
X192500Y31500
X202500Y31500
X192500Y86500
X202500Y86500
X146700Y99500
R05X10000
X157800Y19000
R05X10000
T04
X15000Y15000
X15000Y103000
X221000Y15000
X221000Y103000
T05
X24739Y47795
X24739Y70433
M30
